<?xml version="1.0" encoding="UTF-8"?><svg id="a" xmlns="http://www.w3.org/2000/svg" width="989.57" height="790.11" viewBox="0 0 989.57 790.11"><path d="m678.95,397.54h-87.08s-33.01-1.3-50-31.63c0,0-10.06-16.99-8.07-30.52,1.99-13.53,0-94.49,0-94.49l.49-103.92s2.47-28.43,21.52-39.54c19.06-11.11,27.08-14.81,40.14-14.81h324.31s36.26-1.83,52.09,20.87c15.83,22.71,15.79,29.87,15.79,59.16v177.59s.44,28.39-27.18,46.44c-27.62,18.05-39.27,10.85-39.27,10.85,0,0-30.68,75.52,43.37,107.3,0,0-67.47-2.65-99.64-31.59-32.17-28.94-30.3-46.46-30.3-46.46l-156.17-29.24Z" fill="#fff" stroke-width="0"/><path d="m156.93,680.65s16.48,92.85-133.68,108.03c0,0,34-12.76,46.76-44.91,12.76-32.15-.68-62.95-.68-62.95,0,0-25.5,5.11-51.72-20.88-21.14-20.94-15.76-58.61-16.18-92.88-.27-22.18,0-145.19,0-145.19,0,0,.91-25.31,22.75-41.79,21.83-16.48,39.4-14.18,39.4-14.18h302.71s55.58-3.69,69.54,16.64c0,0,19.93,29.28,19.93,69.65v146.65l-123.75,82.17-175.1-.36Z" fill="#1b1b1b" stroke-width="0"/><path d="m304.63,359.63s1.52,10.5,5.46,21.01c3.94,10.5,6.7,15.57,11.47,18.76,4.77,3.19,7.68,4.48,6.68,7.63-1.01,3.15-7.43,4.44-7.9,16.01-.47,11.56-1.06,23.68-15.83,28.84,0,0-11.35-18.43-25.33-26.09,0,0-11.6,4.75-18.2-11.51-6.61-16.25,10.61-17.81,14.89-14.77,0,0,5.76-10.2,12-14.09,6.23-3.9,16.25-11.62,16.77-25.79Z" fill="#fff" stroke-width="0"/><path d="m475.58,523.69l9.63-19.04s-6.82-7.31-2.35-20.69c4.47-13.39,4.8-18.69,6.43-22.99,1.63-4.31,3.01-9.43,6.04-8.71,3.02.73,4.93,2.37,3.77,12.16-1.15,9.8-.34,15.14,3.24,15.04,3.58-.1,4.08.16,7.78-8.51,3.71-8.67,9.93-23.51,9.93-23.51l6.53,4.75s1.36,6.45.23,11.19c0,0,8.74,1.09,5.34,12.61-3.4,11.51-12.05,28.12-17.12,33.09-5.07,4.98-12.19,23.84-12.19,23.84l-27.28-9.23Z" fill="#fff" stroke-width="0"/><path d="m433.3,112.16c.51-.37,43.83-32.63,43.83-32.63,0,0-18.3-4.58-17.28-13.46,1.01-8.88,17.23-1.54,19-.83,1.77.71,13.95,1.78,12.08,14.06-1.87,12.29-5.59,20.26-5.59,20.26l-52.03,12.59Z" fill="#fff" stroke-width="0"/><path d="m692.13,57.03s-5.37,34.39-3.04,48.59c2.33,14.2,8.83,25.94,15.02,28.56,0,0-.19,21.65,23.16,22.34,23.34.69,31.83-22.26,31.83-22.26l.16-30.77s20.02,3.66,18.78-16.57c-1.25-20.23-20.81-15.34-22.09-9.53l.11-10.52s-7.9-17.68-41.25-16.88c0,0-19.77,2.98-22.67,7.03Z" fill="#fff" stroke-width="0"/><path d="m697.02,387.82s-11.92-4.57-17.87-8.39c-5.96-3.83-16.24-4.26-17.02.63-.78,4.89,3.03,6.99,6.43,9,3.39,2.01,13.35,6.01,11.49,11.62-1.87,5.61-10.91,7.99-25.24,8.66-14.33.68-26.51-2.74-25.56,6.76,0,0,1.11,3.55,16.99,3.39,15.88-.16,20.37,0,20.37,0,0,0-1.01,4.45-15.75,4.89-14.74.44-18.29-2.05-19.11.53-.82,2.57-1.58,7,3.89,8.2,0,0-1.24,6.74,14.8,7.95,0,0-2.39,7.05,9.87,5.98,12.26-1.07,38.39-6.89,38.39-6.89,0,0-3.86-20-4.16-30.75-.31-10.75,2.49-21.59,2.49-21.59Z" fill="#fff" stroke-width="0"/><path d="m275.87,399.52s1.79-7.86,12-14.09c10.2-6.23,16.96-12.36,16.77-25.79-.19-13.44,1.96-28.88-10.56-30.68-12.52-1.8-33.69,9.17-43.16,11.94-9.47,2.77-30.26,5.43-40,10.48-9.74,5.05-29.2,15.43-26.61,46.66,2.59,31.23,8.09,58.46-7.83,74.42-15.93,15.96-50.65,47.88-65.01,82.92-14.36,35.05-13.82,55.99-11.44,80.1,2.38,24.11,18.69,67.27,54.31,72.17,0,0,3.22-13.12,2.59-27h123.99s-29.27-21.06-39.86-60c-10.59-38.95-3.89-64.6,17.06-89.94,20.95-25.34,41.11-31.25,46.52-44.81,5.41-13.56,10.33-23.6-8.36-45.57l-16.23-14.04s-15.81,3.09-19.06-12c-3.26-15.09,6.17-18.66,14.89-14.77Z" fill="#fff" stroke-width="0"/><path d="m680.31,64.45l11.71-25.5-15.81,6.37s12.02-20.62,31.37-24.07c19.35-3.46,18.6-4.39,29.96-2.14,11.36,2.25,27.35,14.52,29.87,22.05,2.52,7.54.68,1.09.68,1.09l4.14-6.09,1.63,17.59,7.49-7.41-8.46,27.48s-11.54-5.34-16.94,3.58l.2-11.63s-11.57-16.37-34.53-15.66c-22.96.7-29.48,6.93-29.48,6.93l-11.82,7.42Z" fill="#5983c2" stroke-width="0"/><path d="m900.13,352.39c-2.76-30.46-18.74-70.26-30.47-115.42-11.72-45.17-29.94-54.09-42.27-63.24-12.33-9.15-51.71-28.28-51.71-28.28l-16.97-9.6-47.13,165.36-7.42-165.26c-.07-1.77-21.12,14.44-21.12,14.44,0,0-33.72,7.86-49.88,11.24-16.16,3.38-53.76,12.24-94.36-4.37-40.61-16.61-53.47-57.69-53.47-57.69l-52.03,12.59-7.19,6.55c4.35,9.96,36.77,100.1,100.9,120.15,64.14,20.04,98.43,9.37,98.43,9.37-7.78,26.61-7.3,148.56-7.3,148.56l60.79.75c1.56-4.56-19.79-10.4-16.82-17.47,2.96-7.06,11.13-3.04,17.91-.08,6.79,2.96,16.82,8.55,16.82,8.55-5.61,29.75,3.62,58.63,3.62,58.63,0,0,61.67-.06,121.65-16.75,59.99-16.69,74.59-43.06,77.99-49.92,3.4-6.86,0-28.11,0-28.11Z" fill="#1b1b1b" stroke-width="0"/><path d="m280.92,680.65s-46.56-40.38-45.16-95.21c1.31-51.44,55.1-84.36,55.1-84.36,0,0,9.31-7.58,13.78-15.19,0,0,28.72,15.82,66.85,74.51,0,0,25.36,35.66,31.22,39.64,5.86,3.98,5.33,8.16,14.34-2.71,16.62-20.05,45.24-76.21,45.24-76.21,0,0,14.67,1.22,29.34,8,14.67,6.78,24.46,12.54,24.46,12.54,0,0-21.41,52-28.43,70.2-7.02,18.2-46.95,87.32-89.84,91.43,0,0-23.27,8.55-65.8-22.29l-51.11-.36Z" fill="#5983c2" stroke-width="0"/><polygon points="406.07 440.51 428.56 381.05 522.89 416.82 500.29 476.41 406.07 440.51" fill="#fff" stroke-width="0"/><polygon points="421.23 112.82 383.06 61.22 462.94 0 502.33 52.84 421.23 112.82" fill="#5983c2" stroke-width="0"/><polygon points="716.53 171.47 718.83 183.53 708.24 249.42 711.04 302.24 726.74 250.77 728.64 185.05 735.92 172.37 726.23 156.93 716.53 171.47" fill="#5983c2" stroke-width="0"/><path d="m625.64,597.24l117.76,24.47s-2.3,35.77-19.05,72.9c-16.75,37.13-26.7,56.5-26.7,56.5l-131.88-26.17s19.36,4.15,39.61-56.29c20.25-60.44,20.26-71.4,20.26-71.4Z" fill="#fff" stroke-width="0"/><polygon points="662.68 526.63 679.07 604.69 768.36 585.71 747.11 513.25 662.68 526.63" fill="#5983c2" stroke-width="0"/><path d="m781.98,667.73s26.61-18.77,47.71-49.7c0,0,30.15,34.92,45.57,42.46,15.43,7.54,22.1,12.96,48.54,8.39,0,0-4.97,20.61-54,39.48-49.71,19.13-87.82-40.62-87.82-40.62Z" fill="#fff" stroke-width="0"/><path d="m644.43,615.36s-1.8,25.57-14.8,42.53l41.02,7.93s13.7-27.8,13.03-42.87l-39.25-7.59Z" fill="#5983c2" stroke-width="0"/><path d="m370.47,560.41c-3.81-8.31,4.18-17.43,10.89-21.2,9.19-5.17,20.21-.14,25.41,2.87-.78-5-1.16-14.63,4.63-23.95,3.68-5.94,9.97-10.07,17.71-11.63,9.42-1.9,19.97.24,27.51,5.59.64.46.8,1.35.34,2-.46.64-1.35.79-2,.34-6.92-4.91-16.58-6.88-25.28-5.12-6.95,1.4-12.58,5.07-15.84,10.33-7.46,12.02-3.62,24.94-3.58,25.07-2.36,1.47-16.89-8.96-27.48-3-6.58,3.7-12.65,11.67-10.93,16.82.25.75-.15,1.56-.9,1.81-.15.05-.3.07-.45.07Z" fill="#fff" stroke-width="0"/><path d="m119.24,547.85c-2.44-5-7.34-15.6-17.19-17.33-11.17-1.99-21.26,10.16-21.35,10.28-2.56-1.12-4.19-30.17-13.15-47.37-8.29-15.91-23.47-19.63-30.52-19.55-23.71.7-34.16,26.15-34.26,26.41-.3.74-1.14,1.1-1.86.8-.74-.29-1.09-1.13-.8-1.86.11-.28,11.27-27.46,36.84-28.21,7.66-.18,24.2,3.9,33.16,21.08,7.52,14.45,9.99,36.15,10.68,44.4,3.89-3.82,12.23-10.47,21.77-8.81,10.93,1.93,16.6,12.85,18.08,18.35.21.77-.25,1.55-1.01,1.76-.12.03-.25.05-.37.05Z" fill="#fff" stroke-width="0"/><path d="m827.3,710.48c-1.78,0-3.68-.19-5.62-.58-2.58-.51-5.34-1.36-8.17-2.53-20.07-8.29-49.49-40.6-50.74-41.98,19.78-11.95,51.34-50.54,51.65-50.93,2.43.28,19.46,22.97,43.21,42.5,18.83,15.49,39.28,13.92,45.99,12.86,1.98-.31,3.12-.63,3.16-.64-7.68,18.48-18.87,26.8-31.64,26.8-11.13,0-20.13-6.41-23.82-9.5-4.53,16.15-12.4,24.01-24.02,24.01Zm-61.15-45.66c5.89,6.31,31.26,32.79,48.45,39.89,2.66,1.1,5.23,1.9,7.64,2.37,13.56,2.68,22.25-4.94,26.9-23.6,2.51-.56,12.84,9.62,26,9.62,10.94,0,20.73-6.89,29.14-20.5-7.3,1.15-28.73,2.81-48.47-13.44-20.56-16.91-36.13-36.16-40.32-41.52-5.79,6.97-31.39,37.1-49.34,47.16Z" fill="#1b1b1b" stroke-width="0"/><path d="m833.81,711.35c-4.24,0-8.34-.49-12.2-1.46-.76-.19-1.22-.95-1.05-1.71.17-.75.85-1.24,1.68-1.09,13.53,2.68,22.25-4.94,26.9-23.6,2.51-.56,12.85,9.62,26,9.62,11.65,0,22.01-7.82,30.77-23.26.37-.65,1.15-.9,1.82-.6.68.3,1.01,1.05.78,1.76-.31.95-8.08,23.52-50.19,36-5.82,1.73-14.63,4.34-24.52,4.34Zm17.51-24.87c-3.19,11.37-8.03,18.63-14.67,21.93,8.33-.43,15.77-2.63,20.87-4.14,8.45-2.51,15.47-5.44,21.29-8.51-1.2.16-2.43.23-3.67.23-11.13,0-20.13-6.41-23.82-9.5Z" fill="#1b1b1b" stroke-width="0"/><path d="m147.92,128.99c-1.57-.98-1.57-1.89-1.01-2.45l16-16c.56-.55,1.47-.55,2.03,0,.56.56.56,1.47,0,2.03l-16,16c-.28.28-.64.42-1.01.42Z" fill="#1b1b1b" stroke-width="0"/><path d="m163.92,128.99c-1.01-.42-17.02-16.42-17.02-16.42-.56-.56-.56-1.47,0-2.03.56-.55,1.47-.55,2.03,0l16,16c.56.56.56,1.47,0,2.03-.28.28-.65.42-1.01.42Z" fill="#1b1b1b" stroke-width="0"/><path d="m128.93,103.08c-3.31,0-6.01-2.69-6.01-6s2.69-6.01,6.01-6.01,6.01,2.69,6.01,6.01-2.7,6-6.01,6Zm0-9.14c-1.73,0-3.14,1.41-3.14,3.14s1.41,3.13,3.14,3.13,3.14-1.4,3.14-3.13-1.41-3.14-3.14-3.14Z" fill="#1b1b1b" stroke-width="0"/><path d="m897.07,568.34c-3.31,0-6-2.69-6-6.01s2.69-6.01,6-6.01,6.01,2.69,6.01,6.01-2.69,6.01-6.01,6.01Zm0-9.14c-1.73,0-3.13,1.41-3.13,3.14s1.4,3.14,3.13,3.14,3.14-1.41,3.14-3.14-1.41-3.14-3.14-3.14Z" fill="#1b1b1b" stroke-width="0"/><path d="m597.4,252.18c-16.29,0-36.09-2.06-57.43-7.62-82.53-21.47-114.91-125.63-115.22-126.68-.23-.76.2-1.56.96-1.78.76-.24,1.55.2,1.78.96.32,1.04,32.24,103.66,113.2,124.73,35.79,9.31,67.1,8.71,84.47,5.04.8-.19,1.54.33,1.7,1.1.16.78-.33,1.54-1.1,1.7-7.28,1.54-16.96,2.55-28.35,2.55Z" fill="#1b1b1b" stroke-width="0"/><path d="m589.45,168.73c-33.23,0-80.93-10.9-104.47-67.48l-50.84,11.93c-.79.18-1.54-.3-1.72-1.06-.18-.78.3-1.54,1.06-1.73l52.03-12.21c32.92,77.88,109.83,69.39,132.65,64.97,43.4-8.42,65.59-14.43,65.81-14.48.76-.21,1.55.24,1.76,1.01.21.76-.24,1.55-1.01,1.76-.22.06-22.5,6.09-66.02,14.53-6.35,1.24-16.78,2.77-29.25,2.77Z" fill="#1b1b1b" stroke-width="0"/><path d="m710.24,307.36c-1.38-1.82,47.47-173.49,47.47-173.49,2.18-.8,19.7,11.03,19.7,11.03.55.7,16.12,43.95,16.12,43.95-1.18,1.91-29,5.15-29,5.15l7.27,21.77c-.17,1.25-60.37,90.95-60.37,90.95-.28.41-.73.63-1.19.63Zm49.69-170.8l-45.83,161.05,54.77-81.59-7.61-22.77c1.19-1.88,28.96-5.12,28.96-5.12l-14.8-41.11-15.49-10.45Z" fill="#1b1b1b" stroke-width="0"/><path d="m710.24,307.36c-1.37-1.01-28.15-89.29-28.15-89.29.02-.89,7.62-22.85,7.62-22.85l-19.78-6.24c-.92-1.86,13.64-40.94,13.64-40.94.48-.65,19.68-15.02,19.68-15.02,2.29,1.1,8.42,172.4,8.42,172.4.09,1.3-.57,2.06-1.38,1.93h-.04Zm-25.27-89.68l23.44,77.29-5.65-158-16.66,12.47-13.88,37.26,19.74,6.23c.92,1.84-7,24.75-7,24.75Z" fill="#1b1b1b" stroke-width="0"/><path d="m725.39,252.78c-.85-.03-1.46-.7-1.43-1.49l2.69-66.3c.03-.79.77-1.31,1.49-1.38.79.03,1.41.7,1.38,1.49l-2.69,66.3c-.03.77-.67,1.38-1.43,1.38Z" fill="#1b1b1b" stroke-width="0"/><path d="m708.27,253.36c-.99-.13-1.54-.86-1.42-1.64l9.93-68.39c.11-.78.78-1.33,1.62-1.21.79.11,1.33.84,1.21,1.62l-9.93,68.39c-.1.71-.71,1.23-1.42,1.23Z" fill="#1b1b1b" stroke-width="0"/><path d="m718.56,139.26c-9.04,0-16.27-3.11-21.54-9.25-18.18-21.22-6.78-71.18-6.28-73.3.18-.77.94-1.24,1.72-1.07.77.18,1.25.95,1.07,1.72-.12.51-11.56,50.67,5.67,70.79,5.24,6.12,12.73,8.86,22.31,8.14.77-.11,1.48.54,1.54,1.32.06.79-.53,1.47-1.32,1.53-1.08.09-2.14.12-3.17.12Z" fill="#1b1b1b" stroke-width="0"/><path d="m765.46,104.93c-3.13,0-6.09-1.2-8.58-3.5-.58-.54-.62-1.44-.08-2.02.53-.58,1.45-.62,2.02-.09,1.95,1.8,4.24,2.74,6.64,2.74,3.1-.05,5.86-1.53,7.94-4.17,2.14-2.73,3.29-6.34,3.23-10.19-.13-7.76-5.2-14-11.33-14-4.29.07-8.05,3.01-9.94,7.67-.3.74-1.14,1.1-1.86.79-.73-.3-1.09-1.13-.79-1.86,2.33-5.75,7.09-9.37,12.41-9.46,7.88,0,14.23,7.5,14.38,16.82.07,4.5-1.29,8.76-3.85,12.01-2.62,3.33-6.17,5.2-9.99,5.26-.07,0-.14,0-.2,0Z" fill="#1b1b1b" stroke-width="0"/><path d="m728.29,157.95c-23.98,0-25.54-21.69-25.56-21.91-.05-.79.55-1.47,1.35-1.52.83-.02,1.47.56,1.52,1.34.05.79,1.46,19.22,22.69,19.22,21.93-.47,28.44-18.15,29.32-20.89-2.09-10.44.3-31.81.41-32.73.09-.78.64-1.34,1.59-1.26.78.09,1.35.8,1.26,1.59-.02.22-2.51,22.34-.38,32.17-.09.92-6.77,23.44-31.3,23.98-.3,0-.6.01-.9.01Z" fill="#1b1b1b" stroke-width="0"/><path d="m755.94,78.83c-.82-.01-1.45-.67-1.43-1.46l.18-10.04c-.54-1.46-5.45-12.69-29.77-15.58-26.67-3.19-43.42,13.54-43.59,13.71-2.33-1.6,7.87-23.83,7.87-23.83l-12.46,5.03c-1.52-2.72,6.91-22.87,40.57-29.38,28.95-5.56,46.23,15.8,50.8,22.39l2.92-4.3c2.62.67,3.96,15.24,3.96,15.24l6.12-6.05c2.37,1.47-7.26,30.92-7.26,30.92-.25.76-1.05,1.15-1.81.92-.76-.25-1.16-1.06-.92-1.81l7.79-23.82-4.06,4.02c-2.44-.89-3.69-14.5-3.69-14.5l-1.89,2.78c-2.6-.38-19.59-29.12-51.41-22.96-23.8,4.6-34.45,16.48-38.39,22.36l12-4.84c1.84,1.93-7.25,21.72-7.25,21.72,7.07-5.08,21.36-12.77,41.03-10.45,28.02,3.34,32.09,17.25,32.25,17.84.05.4-.14,10.69-.14,10.69-.01.78-.65,1.41-1.43,1.41Z" fill="#1b1b1b" stroke-width="0"/><path d="m767.01,95.48c-.95-.36-7.72-6.37-7.72-6.37.06-2.19,8.59-9.06,8.59-9.06.61-.5,1.52-.4,2.01.22.5.62.4,1.52-.22,2.02l-7.21,5.8,5.5,4.88c.59.53.64,1.43.12,2.03-.28.32-.68.48-1.07.48Z" fill="#1b1b1b" stroke-width="0"/><path d="m711.23,103.82c-2.65-2.08-2.67-6.63.98-25.66.22-1.15.37-1.92.4-2.13-.09-.79.49-1.36,1.27-1.44.81-.05,1.49.62,1.58,1.41q.03.29-.44,2.7c-2.92,15.23-3.26,20.41-3.08,22.11,1.85-.49,4.74-2.14,6.35-3.22.65-.44,1.55-.27,1.99.39.44.66.26,1.55-.39,1.99-.56.37-5.52,3.66-8.56,3.84h-.1Z" fill="#1b1b1b" stroke-width="0"/><path d="m697.15,71.46c-1.6-1.09-1.54-2-.94-2.51.16-.14,4.07-3.5,8.17-3.5.8,0,1.44.64,1.44,1.43s-.64,1.43-1.43,1.43c-3.03,0-6.27,2.77-6.3,2.79-.28.23-.61.35-.95.35Z" fill="#1b1b1b" stroke-width="0"/><path d="m734.5,71.46c-.97-.38-4.21-3.15-7.23-3.15-.8,0-1.44-.64-1.44-1.43s.64-1.43,1.43-1.43c4.11,0,8.01,3.36,8.18,3.5.6.52.66,1.42.14,2.02-.28.33-.68.5-1.08.5Z" fill="#1b1b1b" stroke-width="0"/><path d="m274.67,427.72c-.99,0-1.89-.12-2.67-.3-5.82-1.31-9.86-6.43-11.55-10.41-3.77-8.89-1.72-16.37,5.35-19.52,6.63-2.96,12.96,2.41,13.22,2.64.6.51.67,1.42.16,2.02-.52.6-1.43.66-2.03.16-.05-.04-5.25-4.38-10.18-2.2-8.25,3.68-5.06,13.01-3.88,15.79,1.54,3.62,5.08,7.73,9.54,8.74,3.41.74,6.86-.37,10.24-3.38.59-.53,1.5-.48,2.02.12.53.59.48,1.5-.11,2.02-3.78,3.37-7.32,4.33-10.11,4.33Z" fill="#1b1b1b" stroke-width="0"/><path d="m273.18,421.15c-1.53-.84-1.61-1.74-1.11-2.35l5.38-6.46-10.18-4.78c-.72-.34-1.03-1.19-.69-1.91.34-.72,1.21-1.03,1.91-.69l11.86,5.57c.49,2.21-6.08,10.1-6.08,10.1-.28.34-.69.52-1.1.52Z" fill="#1b1b1b" stroke-width="0"/><path d="m475.58,525.13c-1.36-.51-1.64-1.38-1.28-2.08l9.61-19.01c-3.36-5.62-6.34-10.58-2.38-20.6,2.76-6.92,3.99-10,4.98-16.41,1.26-8.1,3.68-13.6,6.82-15.5,1.35-.82,2.85-.99,4.32-.49,3.91,1.33,3.72,5.07,3.65,6.47-.15,2.91-.58,5.82-.99,8.63-.29,2.01-.59,4.02-.79,6.03-.16,1.59-.3,3.03.31,4.03.71,1.16,2.52,1.93,3.86,2.07,2.68.25,3.6-2.03,4.72-5.57.61-1.86,1.43-2.26,2.18-2.01.75.25,1.15,1.06.9,1.82-1.36,4.28-2.93,9.09-8.1,8.62-2.08-.21-4.74-1.36-6.01-3.42-1.12-1.82-.91-3.93-.74-5.63.22-2.23.52-4.28.83-6.34.4-2.76.82-5.6.97-8.37.13-2.5-.51-3.2-1.71-3.61-4.24,1.64-6.28,6.68-7.38,13.72-1.04,6.73-2.39,10.1-4.43,15.21-4.16,10.51-1.79,14.46.72,18.64.4.65.79,1.31,1.16,1.98.03,1.34-9.93,21.04-9.93,21.04-.25.5-.76.78-1.28.78Z" fill="#1b1b1b" stroke-width="0"/><path d="m502.85,535.55c-1.33-.47-1.64-1.32-1.3-2.04,1.19-2.54,2.46-5.68,3.69-8.72,2.8-6.91,5.44-13.44,8.1-16.04,14.46-14.09,18.57-35.04,17.9-38.57-.98-5.1-4.34-5.36-4.48-5.37-.91-3.76-.18-9.66-1.87-12.44-1.19-1.96-4.57-3.47-5.77-3.89-.75-.26-1.15-1.07-.89-1.82.26-.75,1.07-1.16,1.82-.89.54.19,5.35,1.92,7.29,5.11,2,3.31,1.51,8.82,1.13,11.39,1.81.62,4.62,2.37,5.59,7.36.95,4.97-4,26.83-18.71,41.16-2.23,2.17-5,9.02-7.44,15.06-1.24,3.07-2.53,6.25-3.75,8.86-.25.52-.76.82-1.3.82Z" fill="#1b1b1b" stroke-width="0"/><path d="m280.92,682.08c-21.2-15.3-31.67-37.2-40.64-58.35-22.37-52.69,19.51-105.67,46.9-122.34,14.22-8.65,21.45-18.9,21.49-30.47.05-18.26-18.17-36.32-29.67-43.41-1.72-1.85-1.58-2.75-.93-3.22.64-.47,1.53-.32,2,.32,9.09,5.79,31.53,24.44,31.47,46.31-.04,12.63-7.73,23.71-22.86,32.91-26.65,16.21-67.44,67.69-45.75,118.76,8.82,20.79,19.09,42.3,38.86,56.89.64.47.77,1.37.3,2-.28.38-.72.58-1.15.58Z" fill="#1b1b1b" stroke-width="0"/><path d="m181.64,466.88c-1.4-.58-1.64-1.45-1.25-2.14,7.52-13.16,5.84-29.11,4.05-45.99-1.91-18.13-3.9-36.88,5.93-52.98,8.9-14.57,25.42-18.05,41.4-21.42,8.62-1.82,16.75-3.53,23.69-6.86,15.15-7.28,30.02-11.09,38.81-9.94,7.09.94,10.93,9.41,11.49,16.89,2.14,28.38-7.16,35.25-16.16,41.9-4.9,3.61-9.52,7.03-12.18,14.02-.28.74-1.12,1.13-1.85.83-.74-.28-1.11-1.11-.83-1.84,2.95-7.78,8.14-11.61,13.15-15.31,8.76-6.46,17.03-12.57,15.01-39.37-.34-4.58-2.67-13.44-9.01-14.27-6.46-.85-19.64,1.24-37.19,9.68-7.24,3.49-15.93,5.32-24.34,7.09-15.39,3.24-31.3,6.59-39.55,20.1-9.33,15.27-7.39,33.53-5.53,51.19,1.76,16.59,3.57,33.75-4.4,47.71-.27.46-.75.72-1.24.72Z" fill="#1b1b1b" stroke-width="0"/><path d="m304.51,453.32c-1.62-1.63-1.27-2.46-.54-2.76,13.72-5.56,14.81-16.83,14.24-26.03.71-7.24,1.06-9.11,5.76-14.54,2.51-2.9,2.92-4.22,2.83-4.82-.11-.7-1.31-1.44-2.69-2.29-1.56-.96-3.49-2.15-5.29-4.07-5.37-5.71-8.18-13.73-8.56-14.86-4.17-17.04-7.21-24.46-7.24-24.53-.3-.73.04-1.57.77-1.88.74-.3,1.57.05,1.88.78.12.3,3.14,7.63,7.3,24.68.23.69,2.94,8.52,7.95,13.85,1.54,1.64,3.22,2.67,4.7,3.59,1.99,1.22,3.71,2.28,4.03,4.3.28,1.84-.76,3.97-3.5,7.13-4.28,4.96-4.42,6.3-5.07,12.72.6,9.14-.42,22.32-16.02,28.63-.18.07-.36.11-.54.11Z" fill="#1b1b1b" stroke-width="0"/><path d="m509.98,473.88c-.51-.09-11.92-4.42-11.92-4.42-.74-.28-1.11-1.11-.83-1.84.28-.74,1.11-1.12,1.84-.83l10.07,3.82,21.74-57.33-91.64-34.75-21.74,57.33,71.47,27.1c.74.28,1.11,1.11.83,1.84-.28.74-1.09,1.15-1.85.83l-72.81-27.61c-.74-.28-1.11-1.11-.83-1.84l22.75-60.02c1.85-.83,96.17,34.93,96.17,34.93.83,1.84-21.92,61.86-21.92,61.86-.22.58-.76.92-1.34.92Z" fill="#1b1b1b" stroke-width="0"/><path d="m506.58,421.45c-.51-.09-58.23-21.91-58.23-21.91-.74-.28-1.11-1.11-.83-1.85.28-.73,1.1-1.12,1.84-.83l57.72,21.81c.74.28,1.11,1.11.83,1.85-.22.57-.76.92-1.34.92Z" fill="#1b1b1b" stroke-width="0"/><path d="m501.09,435.93c-.51-.09-58.22-21.91-58.22-21.91-.74-.28-1.11-1.11-.83-1.85.28-.74,1.11-1.12,1.85-.83l57.72,21.82c.74.28,1.11,1.1.83,1.84-.21.58-.76.93-1.34.93Z" fill="#1b1b1b" stroke-width="0"/><path d="m495.6,450.41c-.51-.09-58.22-21.91-58.22-21.91-.74-.28-1.11-1.11-.83-1.85.28-.74,1.1-1.12,1.84-.83l57.72,21.82c.74.28,1.11,1.1.83,1.84-.21.58-.76.93-1.34.93Z" fill="#1b1b1b" stroke-width="0"/><path d="m417.2,125.5c-1.15-.58-39.32-52.18-39.32-52.18-.46-.63-.34-1.52.28-1.98l79.88-61.22c2.02.28,41.42,53.11,41.42,53.11-.3,2.01-9.25,8.64-9.25,8.64-.63.47-1.53.34-2-.3-.47-.64-.34-1.54.3-2l7.8-5.77-37.67-50.52-77.6,59.48,36.48,49.31,58.56-43.31c.63-.48,1.53-.34,2,.3.47.64.34,1.53-.3,2l-59.7,44.16c-.25.19-.55.28-.85.28Z" fill="#1b1b1b" stroke-width="0"/><path d="m455.77,534.03c-.79,0-1.43-.64-1.43-1.43v-67.09c0-.8.64-1.43,1.43-1.43s1.43.64,1.43,1.43v67.09c0,.79-.64,1.43-1.43,1.43Z" fill="#1b1b1b" stroke-width="0"/><path d="m421.18,373.58c-8.75-4.19-17.81-6.24-27.56-6.24h-86.49c-.79,0-1.43-.64-1.43-1.43s.64-1.43,1.43-1.43h86.49c10.2,0,19.68,2.15,28.2,6.39.71.35.99,1.22.65,1.92-.25.51-.76.79-1.29.79Z" fill="#1b1b1b" stroke-width="0"/><path d="m23.25,790.11c69.25-33.32,48.13-99.4,45.09-107.86h-4.76C28.53,682.25,0,653.73,0,618.67v-190.62c0-35.06,28.52-63.58,63.58-63.58h127.73c.79,0,1.43.64,1.43,1.43s-.64,1.43-1.43,1.43H63.58c-33.48,0-60.72,27.24-60.72,60.71v190.62c0,33.48,27.24,60.72,60.72,60.72h5.75c1.63,1.62,29.5,72.32-38.6,107.33,28.21-2.67,126-18.28,125.31-105.89,1.43-1.44,175.76-1.44,175.76-1.44.79,0,1.43.64,1.43,1.43s-.64,1.43-1.43,1.43h-172.89c-.43,103.26-134.26,107.82-135.62,107.86h-.04Z" fill="#1b1b1b" stroke-width="0"/><path d="m533.8,146.21c-.79,0-1.43-.64-1.43-1.43,0-35.06,28.52-63.58,63.59-63.58h92.6c.79,0,1.43.64,1.43,1.43s-.64,1.43-1.43,1.43h-92.6c-33.48,0-60.72,27.24-60.72,60.71,0,.79-.64,1.43-1.43,1.43Z" fill="#1b1b1b" stroke-width="0"/><path d="m988.14,234.5c-.79,0-1.43-.64-1.43-1.43v-88.3c0-33.48-27.24-60.71-60.72-60.71h-148.69c-.79,0-1.43-.64-1.43-1.43s.64-1.43,1.43-1.43h148.69c35.06,0,63.59,28.52,63.59,63.58v88.3c0,.79-.64,1.43-1.43,1.43Z" fill="#1b1b1b" stroke-width="0"/><path d="m966.32,506.83c-1.14-.01-112.61-2.29-133.91-79.57-.21-.77.24-1.56,1-1.77.78-.2,1.56.24,1.76,1,17.58,63.82,98.98,75.1,123.9,77.06-24.65-12.58-39.43-31.09-43.95-55.08-4.99-26.49,4.78-51.17,5.56-51.95,1.01-.42,5.31-.42,5.31-.42,33.48,0,60.72-27.24,60.72-60.71v-38.66c0-.79.64-1.43,1.43-1.43s1.43.64,1.43,1.43v38.66c0,35.06-28.52,63.58-63.59,63.58h-3.32c-3.17,8.34-25.73,74.49,44.23,105.11.68,2.28.1,2.75-.57,2.75Z" fill="#1b1b1b" stroke-width="0"/><path d="m680.04,398.97h-84.09c-35.06,0-63.59-28.52-63.59-63.58v-77.32c0-.79.64-1.43,1.43-1.43s1.43.64,1.43,1.43v77.32c0,33.48,27.24,60.71,60.72,60.71h84.09c.79,0,1.43.64,1.43,1.43s-.64,1.43-1.43,1.43Z" fill="#1b1b1b" stroke-width="0"/><path d="m304.17,397.25c.84-.3,1.27-1.23.97-2.07l-1.54-4.27c-.3-.83-1.23-1.27-2.06-.97-.83.3-1.27,1.23-.97,2.07l1.54,4.27c.3.84,1.23,1.27,2.06.97Z" fill="#1b1b1b" stroke-width="0"/><path d="m317.05,434.52c-5-.35-8.38-2.48-10.47-5.76-1.43-2.25-1.91-4.56-1.29-6.19.44-1.15,1.26-2.05,2.33-2.53,1.13-.5,2.45-.52,3.7-.04,1.31.5,2.17,1.42,2.92,2.23.58.62,1.08,1.16,1.7,1.43.46.21,1.29.35,2.94-.79.64-.45,1.54-.29,1.99.35.45.65.3,1.54-.35,2-.78.55-3.17,2.19-5.74,1.06-1.14-.51-1.93-1.35-2.63-2.1-.63-.67-1.17-1.24-1.85-1.51-2.55,1.53-2.28,2.98-1.29,4.53,1.61,2.53,4.17,4.16,6.85,4.37,1.42.1,2.09.09,3.15-.28.74-.26,1.57.13,1.83.87.26.75-.13,1.56-.87,1.83-1.06.38-1.91.51-2.9.51Z" fill="#1b1b1b" stroke-width="0"/><path d="m292.3,391.51c-1.42-.61-1.64-1.49-1.24-2.16.18-.3,4.38-7.22,13.62-8.69.82-.13,1.52.41,1.64,1.19.13.78-.41,1.52-1.19,1.64-7.92,1.26-11.56,7.25-11.6,7.31-.27.46-.75.71-1.23.71Z" fill="#1b1b1b" stroke-width="0"/><path d="m699.84,87.82c-.89.02-1.63-.69-1.65-1.58l-.08-4.54c-.02-.89.7-1.62,1.58-1.64.89-.02,1.63.69,1.64,1.58l.08,4.54c.02.88-.69,1.63-1.58,1.64Z" fill="#1b1b1b" stroke-width="0"/><path d="m731.23,87.24c-.89.02-1.62-.7-1.64-1.59l-.08-4.54c-.02-.89.69-1.63,1.58-1.65.89-.01,1.63.7,1.64,1.59l.09,4.54c.02.89-.69,1.62-1.59,1.64Z" fill="#1b1b1b" stroke-width="0"/><path d="m723.18,118.66c-5.01,0-9.28-3.36-9.76-6.36-.23-1.39.1-2.65.93-3.62,1.33-1.54,3.89-2.07,6.26-1.3,1.29.43,2.09.62,2.53.62,1.08-.42,1.31-.53,2.22-2.86.93-2.4,2.96-4.02,5.06-4.02,1.25,0,2.39.55,3.31,1.58,1.15,1.3,1.52,3.63.99,6.24-.78,3.81-3.19,7.01-6.43,8.54-1.64.78-3.36,1.17-5.11,1.17Zm-4.83-8.78c-1.87,3.36.92,5.91,4.83,5.91,1.32,0,2.63-.3,3.89-.9,2.43-1.15,4.24-3.58,4.84-6.52.37-1.81.11-3.27-.33-3.77-1.14-1.3-2.83-.28-3.55,1.57-1.14,2.93-1.74,3.6-3.08,4.23-.78.37-1.77.84-5.22-.3-.46-.15-.92-.23-1.37-.23Z" fill="#1b1b1b" stroke-width="0"/><path d="m490.77,606.13c-1.28-.41-1.63-1.25-1.32-1.98,3.26-7.83,6.24-15.94,9.12-23.78,4.68-12.71,9.51-25.85,15.66-38.19-15.24-9.6-32.59-16.39-50.27-19.66-14.54,28.74-30.1,54.91-48.27,79.04-.93,1.24-2.21,2.93-4.17,3.65-4.44,1.63-8.53-2.74-9.87-4.19-13.29-14.29-24.58-30.23-35.5-45.65-5.14-7.26-10.46-14.77-15.92-22.02-14.82-19.67-24.25-31.49-45.55-45.69-.66-.44-.84-1.33-.4-1.99.44-.65,1.34-.82,1.99-.4,21.69,14.46,31.24,26.44,46.25,46.36,5.49,7.29,10.82,14.81,15.97,22.08,10.86,15.35,22.09,31.21,35.26,45.36,2.77,2.98,4.97,4.12,6.79,3.44,1.08-.39,1.94-1.45,2.87-2.68,18.04-23.96,33.49-49.95,45.91-77.24.38-.83,1.02-2.23,2.44-2.79,1.02-.41,2.05-.22,2.72-.09,18.47,3.41,36.58,10.59,52.39,20.76.62.4.84,1.2.5,1.86-6.35,12.52-11.31,26-16.11,39.04-2.9,7.87-5.89,16-9.16,23.89-.23.55-.76.88-1.33.88Z" fill="#1b1b1b" stroke-width="0"/><path d="m389.35,705.48c-3.09,0-6.23-.27-9.43-.86-22.29-4.09-35.72-13.46-44.6-19.67-1.58-1.1-3-2.09-4.29-2.92-44-28.33-70.38-98.55-70.64-99.26-.28-.74.1-1.57.85-1.84.75-.28,1.57.11,1.84.85.26.7,26.31,70.03,69.51,97.84,1.31.85,2.76,1.86,4.38,2.99,8.68,6.06,21.8,15.22,43.48,19.2,26.54,4.88,49.52-13.36,60.87-24.65,3.22-3.21,6.36-6.55,9.34-9.94.53-.6,1.43-.65,2.03-.14.6.53.65,1.43.13,2.02-3.02,3.44-6.21,6.83-9.47,10.08-10.4,10.35-30.28,26.3-53.98,26.3Z" fill="#1b1b1b" stroke-width="0"/><path d="m618.15,398.97c-.82-.01-1.45-.66-1.43-1.45.13-7.94.22-15.88.31-23.82.4-35.3.82-71.82,4.79-107.67,2.1-18.97,4.85-37.17,8.17-54.07,1.91-9.7,4.32-20.92,8.79-31.27.31-.73,1.15-1.08,1.88-.75.73.32,1.06,1.16.75,1.89-4.36,10.09-6.72,21.13-8.61,30.69-3.31,16.83-6.05,34.94-8.14,53.83-3.96,35.71-4.37,72.15-4.78,107.39-.09,7.94-.18,15.88-.31,23.82-.01.78-.65,1.41-1.43,1.41Z" fill="#1b1b1b" stroke-width="0"/><path d="m657.65,448.51c-1.89,0-3.34-.11-4.2-.33-2.22-.58-3.64-1.66-4.2-3.2-.33-.89-.3-1.77-.14-2.53-2.3-.14-6.08-.62-9.7-2.16-2.8-1.18-4.52-2.74-5.13-4.65-.25-.76-.28-1.46-.21-2.05-1.77-.64-3.27-1.93-4.03-3.54-.88-1.86-.71-3.95.49-5.89,1.73-2.8,7.18-2.26,13.49-1.63,2.58.26,5,.52,6.79.43,3.22-.12,8.09-.29,12.31-1.87-4.54.24-16.34-.1-20.58-.3-5.72-.17-11.26-.32-13.72-3.25-1-1.2-1.38-2.69-1.12-4.44.88-5.94,7.11-5.64,12.06-5.41,6.28.23,17.24.39,22.61-.05,7.55-.61,15.22-3.66,16.41-6.51,1.05-2.51.06-4.72-8.15-9.15-5.86-3.17-9.59-7.18-9.96-10.72-.19-1.76.44-3.3,1.81-4.46,3.44-2.92,8.16-2.97,14.44-.12,1.81.82,3.92,2.02,6.16,3.31,4.53,2.59,9.67,5.54,14.22,6.41.78.15,1.29.9,1.13,1.68-.15.77-.89,1.27-1.68,1.14-5.01-.97-10.37-4.04-15.1-6.74-2.18-1.25-4.24-2.43-5.92-3.19-5.17-2.35-8.89-2.44-11.39-.31-.64.54-.9,1.18-.82,1.98.2,1.92,2.54,5.29,8.47,8.49,6.1,3.29,11.84,7,9.43,12.77-1.88,4.53-11.1,7.64-18.82,8.27-5.5.44-16.61.28-21.13.13-7.71-.35-10.49-.15-10.95,2.88-.18,1.22.19,1.83.48,2.18,1.63,1.93,6.62,2.07,9.92,2.16,7.76.35,19.03.52,23.61-.25,2.06-.33,3.23.62,3.52,1.71.17.63.39,2.83-3.96,4.45-4.65,1.74-9.81,1.93-13.21,2.05-1.97.08-4.51-.17-7.18-.44-3.48-.34-9.97-.99-10.76.29-.69,1.11-.8,2.17-.34,3.15.56,1.19,1.97,2.14,3.42,2.32,1.33,4.71,2.54,5.69,4.48,6.51,5.01,2.12,10.61,1.98,10.66,1.98,1.01,2.55.48,3.61.76,4.36.28.75,1.37,1.18,2.23,1.4,5.12,1.32,35.85-2.29,43.84-6.51.69-.37,1.57-.1,1.94.6.37.7.1,1.56-.6,1.93-7.2,3.8-31.16,7.08-41.71,7.08Z" fill="#1b1b1b" stroke-width="0"/><path d="m635.78,436.99c-1.79-1.96-1.86-3.17-1.52-4.28.45-1.11,1.22-1.67,1.82-1.55.1.02,10.48,1.63,17.5,1.28,8.36-.39,14.45-2.4,14.51-2.42.74-.26,1.57.15,1.82.9.25.76-.15,1.56-.9,1.82-.26.09-6.51,2.16-15.29,2.57-5.89.25-13.76-.71-16.8-1.13.5,1.54.16,2.39-.56,2.7-.19.08-.39.11-.58.11Z" fill="#1b1b1b" stroke-width="0"/><path d="m650.43,445c-.78,0-1.43-.63-1.43-1.42-.02-1.36.57-2.53.87-3.06,11.7.44,19.68-2.61,19.76-2.64.71-.28,1.57.08,1.85.82.28.74-.08,1.57-.81,1.85-.33.14-8.19,3.15-18.63,2.06-.17,1.73-.68,2.44-1.62,2.38Z" fill="#1b1b1b" stroke-width="0"/><path d="m701.39,448.79c-2.81,0-3.09-1.84-4.14-8.59-.51-3.31-1.29-8.3-2.63-15.36-4.8-25.48,3.11-44.3,3.45-45.09.98-.83,112.64-27.77,112.64-27.77-1.23-6.21-6.56-34.2-15.51-96.33-.11-.78.43-1.51,1.22-1.62.75-.12,1.51.43,1.62,1.22,10.22,70.91,15.7,97.25,15.76,97.51.16.76-.31,1.51-1.07,1.69l-112.28,27.09c-1.33,3.51-7.16,20.78-3.01,42.77,1.34,7.11,2.12,12.13,2.64,15.45.53,3.39.91,5.84,1.26,6.28,94.41-4.2,164.27-24.01,189.63-53.32,7.26-8.39,10.49-17.11,9.59-25.93-5.85-57.19-38.7-152.73-46.98-166-1.57-2.52-3.38-4.99-5.36-7.35-9.12-10.87-21.1-18.53-31.62-24.6-9.66-5.57-19.75-10.73-29.51-15.73-3.72-1.91-7.44-3.81-11.15-5.74-.7-.37-.97-1.24-.61-1.94.37-.7,1.22-.97,1.94-.61,3.7,1.93,7.42,3.83,11.13,5.73,9.79,5.01,19.92,10.19,29.63,15.8,10.73,6.19,22.98,14.03,32.38,25.24,2.07,2.46,3.95,5.04,5.59,7.68,8.37,13.41,41.52,109.69,47.4,167.23.98,9.63-2.47,19.08-10.27,28.1-26.26,30.34-95.12,50.01-188.92,53.97-2.09.2-2.48.23-2.83.23Z" fill="#1b1b1b" stroke-width="0"/><path d="m520.99,481.43c-1.32-.46-1.63-1.31-1.3-2.03,4.54-9.86,6.09-18.76,6.1-18.85.14-.78.87-1.33,1.66-1.17.78.13,1.31.87,1.17,1.66-.07.37-1.63,9.37-6.33,19.57-.24.52-.76.83-1.31.83Z" fill="#1b1b1b" stroke-width="0"/><path d="m744.25,187.86c-1.24-.7-17.85-28.75-17.85-28.75l-19.35,26.14c-.47.64-1.37.78-2,.3-.64-.48-.77-1.37-.3-2.01l20.64-27.87c2.39.12,20.1,30.03,20.1,30.03.4.68.18,1.56-.51,1.96-.23.14-.48.2-.73.2Z" fill="#1b1b1b" stroke-width="0"/><path d="m728.08,186.48c-.22-.02-10.1-1.53-10.1-1.53-1.2-1.24-2.88-14.75-2.88-14.75-.1-.78.46-1.5,1.24-1.6.79-.1,1.5.46,1.6,1.24l1.54,12.43,7.87,1.2,7.34-11.87c.42-.68,1.3-.9,1.97-.46.68.41.88,1.29.47,1.97l-7.83,12.68c-.26.43-.73.68-1.22.68Z" fill="#1b1b1b" stroke-width="0"/><path d="m485.34,101.01c-1.45-.69-1.63-1.58-1.19-2.24.02-.03,2.5-3.76,5.03-12.01,2.48-8.08.42-14.81-3.01-16.66-5.39-2.91-19.93-8.83-23.95-6.14-.48.32-1.09.96-.9,2.76,1,9.4,18.45,11.85,18.62,11.87.78.1,1.34.83,1.23,1.61-.11.78-.77,1.36-1.61,1.23-.8-.11-19.85-2.78-21.09-14.41-.33-3.09.99-4.67,2.16-5.45,6.74-4.51,26.71,5.89,26.91,6,5.24,2.82,7.09,11.25,4.39,20.03-2.67,8.71-5.28,12.61-5.39,12.77-.28.41-.72.63-1.19.63Z" fill="#1b1b1b" stroke-width="0"/><path d="m691.06,741.01c-.28-.03-132.16-26.2-132.16-26.2,34.38-8.22,58.5-128.16,58.75-129.38,1.7-1.13,119.46,23.34,119.46,23.34,1.14,8.46.08,16.8-2.02,26.19-.17.77-.92,1.26-1.71,1.08-.77-.17-1.26-.94-1.08-1.71,1.94-8.68,2.97-16.4,3.08-23l-115.19-23.93c-2.79,13.6-23.73,110.64-55.27,125.67l125.4,24.88c3.2-5.94,21.06-39.61,33.24-74.01.26-.74,1.09-1.13,1.83-.87.74.26,1.13,1.08.87,1.83-13.43,37.95-33.72,74.98-33.92,75.35-.26.46-.74.74-1.26.74Z" fill="#1b1b1b" stroke-width="0"/><path d="m707.42,605.29c-1.56-1.93-1.06-2.68-.28-2.84l51.3-10.26-20.45-69.75-81.69,12.95,12.84,60.14c.16.78-.33,1.54-1.1,1.7-.78.19-1.54-.33-1.7-1.1l-13.15-61.62c1.18-1.72,85.61-15.1,85.61-15.1.68-.14,1.39.32,1.6,1.01l21.24,72.46c-1.09,1.81-53.93,12.38-53.93,12.38-.09.02-.19.03-.28.03Z" fill="#1b1b1b" stroke-width="0"/><path d="m380.11,73.11c-.76,0-1.39-.59-1.43-1.35-.05-.79.56-1.47,1.35-1.52l57.61-3.34,19.92-56.13c.26-.75,1.09-1.13,1.83-.87.74.26,1.13,1.08.87,1.83l-20.24,57.03c-1.27.95-59.83,4.35-59.83,4.35h-.08Z" fill="#1b1b1b" stroke-width="0"/><path d="m417.2,125.5c-.82-.02-1.45-.67-1.43-1.46l1.15-54.61c.02-.78.66-1.4,1.43-1.4.82.02,1.45.67,1.43,1.47l-1.15,54.61c-.02.78-.65,1.4-1.43,1.4Z" fill="#1b1b1b" stroke-width="0"/><path d="m498.3,65.52c-.38-.05-52.82-14.57-52.82-14.57-.76-.21-1.21-1-1-1.76.21-.77.99-1.23,1.77-1l52.43,14.52c.76.21,1.21,1,1,1.76-.18.64-.76,1.05-1.38,1.05Z" fill="#1b1b1b" stroke-width="0"/><path d="m702.22,682.35c-.28-.03-82.3-16.51-82.3-16.51-.78-.16-1.28-.91-1.13-1.69.16-.78.91-1.28,1.68-1.12l82.02,16.48c.78.16,1.28.91,1.13,1.69-.14.68-.73,1.15-1.41,1.15Z" fill="#1b1b1b" stroke-width="0"/><path d="m695.59,698.84c-.28-.03-82.3-16.52-82.3-16.52-.78-.16-1.28-.91-1.12-1.68.16-.78.9-1.28,1.68-1.13l82.02,16.48c.78.16,1.28.92,1.12,1.69-.14.68-.73,1.15-1.4,1.15Z" fill="#1b1b1b" stroke-width="0"/><path d="m688.96,715.32c-.28-.03-82.3-16.51-82.3-16.51-.78-.16-1.28-.92-1.12-1.69.15-.78.91-1.28,1.68-1.13l82.02,16.49c.78.16,1.28.91,1.12,1.69-.14.68-.73,1.15-1.4,1.15Z" fill="#1b1b1b" stroke-width="0"/><path d="m686.33,583.45c-1.18-.3-1.6-1.1-1.36-1.86l9.25-29.6c2.38-.58,24.9,21.93,24.9,21.93l13.82-44.05c.24-.75,1.01-1.19,1.8-.94.75.23,1.18,1.04.94,1.8l-14.53,46.31c-2.38.59-24.9-21.93-24.9-21.93l-8.55,27.34c-.19.61-.76,1-1.37,1Z" fill="#1b1b1b" stroke-width="0"/><path d="m663.64,661.31c-.27-.02-41.28-7.95-41.28-7.95,11.71-18.69,13.61-43.78,13.63-44.04,1.7-1.31,40.95,6.28,40.95,6.28,1.84,16.61-11.45,43.77-12.02,44.91-.24.5-.74.8-1.29.8Zm-38.52-10.34l37.71,7.3c2.32-4.9,12.4-26.93,12.43-40.07l-36.55-7.07c-.6,5.71-3.33,25.17-13.58,39.84Z" fill="#1b1b1b" stroke-width="0"/><path d="m140.22,353.21c-.85-.03-1.47-.7-1.43-1.49,0-.06.25-6.2,1.42-15.88.1-.78.78-1.27,1.6-1.25.78.1,1.35.81,1.25,1.6-1.15,9.55-1.4,15.58-1.4,15.65-.03.77-.67,1.37-1.43,1.37Zm3.7-31.36c-1.02-.16-1.55-.9-1.41-1.68.91-5.28,1.96-10.5,3.09-15.51.18-.78.96-1.26,1.72-1.08.77.18,1.26.94,1.08,1.72-1.13,4.97-2.16,10.14-3.06,15.38-.12.69-.73,1.19-1.41,1.19Zm6.98-30.7c-1.15-.27-1.59-1.06-1.38-1.83,1.49-5.19,3.12-10.26,4.85-15.07.27-.74,1.09-1.13,1.83-.87.75.27,1.13,1.09.87,1.84-1.71,4.76-3.32,9.77-4.79,14.9-.18.63-.75,1.04-1.38,1.04Zm174.88-15.19c-3.13-.11-6.4-.39-9.82-1.18-1.8-.46-2.25-1.25-2.05-2.01.21-.77.99-1.22,1.75-1.02,4.14.98,7.19,1.5,10.11,1.35,1.66,0,3.29-.13,4.86-.38.81-.15,1.52.41,1.65,1.18.13.78-.4,1.52-1.18,1.64-1.73.28-3.51.42-5.32.42Zm18.87-7.36c-1.57-.96-1.58-1.86-1.03-2.44,3.34-3.43,5.48-7.98,6.19-13.17.11-.78.83-1.3,1.62-1.22.78.11,1.33.83,1.22,1.61-.8,5.79-3.2,10.9-6.97,14.78-.28.29-.66.44-1.03.44Zm-43.19-1.19c-4.89-3.61-8.38-7.77-11.28-12.68-.4-.68-.17-1.56.51-1.96.68-.4,1.56-.18,1.96.51,2.74,4.63,6.01,8.53,9.73,11.6.61.51.69,1.4.19,2.02-.28.35-.69.52-1.1.52Zm-139.89-5.85c-1.31-.45-1.63-1.3-1.31-2.02,2.21-4.95,4.6-9.72,7.09-14.18.39-.69,1.26-.93,1.95-.55.69.38.94,1.26.55,1.95-2.45,4.39-4.8,9.08-6.98,13.95-.24.53-.76.85-1.31.85Zm123.72-20.55c-2.8-5.97-3.77-11.26-4.24-16.75-.07-.79.51-1.48,1.3-1.56.86-.09,1.49.52,1.56,1.31.46,5.3,1.38,10.4,2.76,15.17.22.76-.22,1.56-.98,1.78-.13.04-.27.05-.4.05Zm64.28-1.87c-2.89-5.57-5.33-10.04-8.6-14.29-.48-.63-.37-1.52.26-2.01.64-.47,1.53-.37,2.01.26,3.47,4.51,6.05,9.27,7.69,14.16.25.75-.15,1.57-.91,1.81-.15.05-.3.07-.45.07Zm-172.58-4.93c-1.47-.73-1.63-1.62-1.17-2.26,3.16-4.44,6.54-8.59,10.03-12.33.54-.57,1.45-.61,2.02-.07.58.54.61,1.45.07,2.03-3.41,3.65-6.7,7.69-9.79,12.03-.28.39-.72.6-1.17.6Zm154.01-19.85c-4.75-3.33-9.14-6.1-13.91-8.53-.7-.36-.99-1.22-.62-1.93.36-.71,1.21-.98,1.93-.62,4.95,2.52,9.48,5.39,13.49,8.52.62.49.73,1.39.25,2.01-.28.36-.7.55-1.13.55Zm-132.56-2.95c-1.62-1.17-1.51-2.07-.88-2.56,4.23-3.31,8.71-6.24,13.33-8.69.69-.37,1.57-.11,1.94.59.37.7.11,1.57-.59,1.94-4.47,2.38-8.81,5.21-12.91,8.42-.26.21-.58.3-.88.3Zm83.98-1.54c-.9-.06-1.49-.76-1.43-1.54.39-5.19,1.19-10.48,2.38-15.73.17-.76.94-1.26,1.71-1.08.77.17,1.26.94,1.08,1.71-1.15,5.11-1.93,10.26-2.32,15.32-.06.75-.68,1.32-1.43,1.32Zm20.82-9.91c-5.16-1.64-10.21-2.99-15.46-4.06-.78-.16-1.28-.92-1.12-1.7.16-.78.92-1.29,1.69-1.12,5.36,1.1,10.52,2.48,15.33,4.08.75.25,1.16,1.06.91,1.82-.2.6-.76.98-1.36.98Zm-77.27-3.17c-1.61-1.75-1.19-2.56-.44-2.8,4.96-1.57,10.17-2.74,15.5-3.47.81-.07,1.51.45,1.61,1.23.1.78-.45,1.51-1.23,1.61-5.16.7-10.22,1.83-15.02,3.35-.14.05-.29.07-.43.07Zm46.58-3.27c-4.35-.46-8.71-.78-13.13-.95-.86-.04-1.71-.07-2.56-.08-.79-.02-1.42-.67-1.41-1.46,0-.78.65-1.4,1.43-1.4.89.02,1.77.04,2.65.08,4.48.18,8.91.51,13.16.97.79.09,1.36.79,1.27,1.58-.08.74-.7,1.28-1.43,1.28Zm16.73-14.22c-1.25-.37-1.62-1.19-1.34-1.93,1.85-4.93,4.06-9.8,6.56-14.48.38-.7,1.25-.95,1.94-.59.7.37.96,1.24.59,1.94-2.44,4.57-4.6,9.32-6.4,14.13-.22.57-.77.93-1.34.93Zm14.78-27.63c-1.48-.73-1.63-1.62-1.17-2.27,3.05-4.26,6.43-8.41,10.03-12.31.55-.58,1.45-.62,2.03-.08.58.54.62,1.44.08,2.02-3.53,3.82-6.83,7.86-9.81,12.04-.28.39-.72.6-1.17.6Zm21.26-23.03c-1.61-1.11-1.53-2.02-.93-2.53,3.99-3.38,8.25-6.59,12.68-9.55.66-.44,1.56-.26,1.99.39.44.66.26,1.55-.39,1.99-4.33,2.89-8.51,6.04-12.41,9.35-.27.23-.6.34-.93.34Zm26.05-17.45c-1.63-1.47-1.37-2.33-.67-2.7,4.58-2.39,9.42-4.63,14.4-6.63.73-.29,1.57.06,1.87.8.29.74-.07,1.57-.8,1.87-4.89,1.97-9.64,4.16-14.14,6.51-.21.11-.44.16-.67.16Z" fill="#1b1b1b" stroke-width="0"/><path d="m907.16,295.14h-20.04c-.79,0-1.43-.64-1.43-1.43s.64-1.43,1.43-1.43h18.61v-33.04c0-.79.64-1.43,1.43-1.43h25.37v-71.38c0-.79.64-1.43,1.43-1.43h54.17c.79,0,1.43.64,1.43,1.43s-.64,1.43-1.43,1.43h-52.74v71.38c0,.79-.64,1.43-1.43,1.43h-25.37v33.04c0,.79-.64,1.43-1.43,1.43Z" fill="#1b1b1b" stroke-width="0"/><path d="m618.15,295.44h-22.23c-1.01-.42-26.73-26.13-26.73-26.13l-24.38,24.38c-1.01.42-10.16.42-10.16.42-.8,0-1.43-.64-1.43-1.43s.64-1.43,1.43-1.43h8.55l24.98-24.98c.56-.55,1.47-.55,2.03,0l26.31,26.31h21.63c.79,0,1.43.64,1.43,1.43s-.64,1.43-1.43,1.43Z" fill="#1b1b1b" stroke-width="0"/></svg>