<?xml version="1.0" encoding="UTF-8"?><svg xmlns="http://www.w3.org/2000/svg" width="1001.1" height="869.55" viewBox="0 0 1001.1 869.55"><g isolation="isolate"><g id="a"><path d="m994.19,812.88c-16.39,23.27-57.8,38.04-79.11,42.38-66.76,13.6-144-.73-211.4-4.6-85.12-4.89-170.29-9.02-255.57-8.67-80.73.33-157.3,11.89-237.05,22.28-50.46,6.57-104.18,9.75-153.05-7.24-24.83-8.63-57.51-32.46-55.78-61.9,3.78-64.14,108.22-49.83,146.88-45.22,149.16,17.78,300.05-.36,449.75,3.61,51.21,1.36,103.27,1.14,154.73-2.01,48.67-2.97,96.54-8.09,145.66-8.12,31.77-.02,79.63-1.16,97.25,32.15,7.47,14.12,5.23,26.63-2.31,37.34Z" fill="#f2eded" mix-blend-mode="multiply" stroke-width="0"/><path d="m248.59,590.59l41.4,10.31,10.77-17.95,239.24-411.7,146.22,426.52,206.1-63.66-163.91,271.08s-173.02,10.17-266.29,10.2c-99.15.03-244.53-10.2-244.53-10.2L0,524.95l248.59,65.64Z" fill="#5983c2" stroke-width="0"/><path d="m423.16,327.8l.4,63.17s-65.93-17.42-100.34-37.05c-34.41-19.63-61.23-39.86-61.23-39.86,0,0,19.08-60.57,22.99-94.68,3.07-26.82,4.4-24.04,4.4-24.04,0,0-25.26,16.08-57.69,12.26-32.43-3.82-49.19-21.36-55.96-47.05-6.76-25.69-6.95-53.03-6.23-63.3.71-10.26.98-13,.98-13l42.36-4.24s-6.78,66.25,23.29,70.2c0,0,11.12,6.26,39.57-12.78,28.45-19.03,60.89-36.95,70.81-40.19l-16.26,169.55,56.86-166.85,17.83,14.07s46.12,12.6,71.57,45.69c25.45,33.08,33.41,74.57,31.85,103.99-1.56,29.41-15.43,80.17-52.51,114.17l-31.6-49.41s31.61-40.84,36.23-68.93c4.61-28.1-9.55-40.61-22.28-44.33l-15.04,112.6Z" fill="#010101" stroke-width="0"/><path d="m327.83,55.01l5.62.26s1.69-3.14,1.64-5.85c-.05-2.71-1.48-3.63-1.48-3.63l-5.35-.25.16-3.47,3.82-15.49s7.11-7.72,21.23-6.41c14.12,1.31,21.91,3.82,21.91,3.82,0,0,3.58,10.15,2.73,25.32,0,0,6.62-9.16,14.08-5.12,7.46,4.03,8.41,17.23-4.26,22.46l-.29,32.49-4.42,11.98s-13.95,4.79-23.33,3.91c-9.36-.88-13.25-7.62-13.25-7.62l.46-10.11s-12.21,1.33-18.4-7.67c-6.2-9-.87-34.62-.87-34.62Z" fill="#fff" stroke-width="0"/><path d="m442.06,356.4l-17.26-26.88s-12.82-4.35-16.78-3.97c-3.95.37-7.08.31-10.24,7.11-3.15,6.8-4.31,13.6-4.31,13.6,0,0-10.01,8.74-8.98,10.67,1.02,1.93,8.93.06,14.41-1.58,5.49-1.64,11.17,2.74,19.96,3.82,8.79,1.08,18.16,1.69,23.19-2.77Z" fill="#fff" stroke-width="0"/><polygon points="208.84 540.87 206.16 560.35 196.38 558.92 194.85 554.48 190.01 558.18 122.1 553.7 158.97 537.1 208.84 540.87" fill="#3b3a3a" stroke-width="0"/><path d="m348.98,3.42c13.57-4.14,30.87-3.07,40.34,9.67,0,0,10.63,2.52,10.97,14.38.33,11.85-5.02,19.32-5.02,19.32,0,0-5.91-7.66-12.5-1.87l-2.35,1.23s2.7-14.02-1.02-20.5c0,0-9.32-5.88-22.5-5.93-13.18-.05-24.18,5.65-24.18,5.65l-3.67,9.22s.18-6.4,1-12.39c1.14-8.39,5.36-14.63,18.94-18.78Z" fill="#fff" stroke-width="0"/><path d="m415.49,388.67l13.08,227.6-80.27-19.23-34.18-194.81s-40.56-10.81-60.72-9.53c-20.15,1.28-25.91,10.68-27.38,22.24-.91,7.09-.41,126.37-.41,126.37l-81.76-5.63,4.78-148.98s-5.42-37.61,30.03-53.81c37.1-16.96,82.06-20,82.06-20,0,0,32.8,30.78,85.77,50.68,52.98,19.91,69.01,25.1,69.01,25.1Z" fill="#fff" stroke-width="0"/><path d="m156.46,51.81c.06-6.75-.86-7.63-.86-7.63l107.96.17,1.12,3.44,69.85,1.11c2.36,3.49-1.17,9.86-1.17,9.86l-68.34,1.02-1.96,3.65-111.2-.62s4.55-3.82,4.61-10.99Z" fill="#5983c2" stroke-width="0"/><path d="m175.39,41.43s-.66-6.55,14.42-7.29c15.08-.74,18.53.65,20.57,1.78,2.04,1.13,8.56,2.19,8.04,13.31l3.01,10.61s-4.95,15.92-14.77,20.34l-27.97,2.34-3.81-22.76,33.96-.22-2.13-6.95s-1.27,4.08-6.44,3.82c-5.17-.26-6.3-7.49-6.3-7.49,0,0-1.39,7.86-8.12,7.49-6.73-.37-6.62-4.12-6.62-4.12,0,0,4.57-6.73.18-10.39l-4.03-.48Z" fill="#fff" stroke-width="0"/><path d="m147.83,52c0,5.33,1.48,9.65,3.32,9.65s3.33-4.33,3.33-9.65-1.49-9.66-3.33-9.66-3.32,4.32-3.32,9.66Z" fill="#fff" stroke-width="0"/><path d="m169.84,543.27c-.08,0-18.96-1.66-18.96-1.66.16-1.8,19.04-.14,19.04-.14.78,1.45.38,1.8-.08,1.8Z" fill="#fff" stroke-width="0"/><path d="m161.6,547.08c-.08,0-18.97-1.66-18.97-1.66.16-1.79,19.04-.14,19.04-.14.78,1.45.38,1.8-.08,1.8Z" fill="#fff" stroke-width="0"/><polygon points="368.26 139.6 362.79 148.04 356.53 190.79 336.33 248.92 344.22 173.21 352.89 145.4 352.16 134.1 363.45 121.33 368.26 139.6" fill="#5983c2" stroke-width="0"/><path d="m468.13,88.24h303.78l-45.51-4.75s3.85-20.36-22.69-25.78c-26.55-5.43-31.53,15.26-31.53,15.26,0,0,13.89-32.22-45.32-34.26-59.21-2.04-53.4,33.24-53.4,33.24,0,0,2.73-7.55-16.47-8.52-19.19-.97-20.86,15.31-20.86,15.31l-68.01,9.5Z" fill="#fff" stroke-width="0"/><path d="m732.68,252.19h124.86l-41.37-9.25s-.41-12.31-23.71-12.95c-23.31-.65-21.42,15.53-21.42,15.53l-38.37,6.67Z" fill="#fff" stroke-width="0"/><path d="m273.84,274.06l-31.08-3.75s10.07-26.14-25.18-31.85c-35.25-5.72-45.32,25.99-45.32,25.99,0,0-1.25-8.84-23.91-8.84s-28.95,17.97-28.95,17.97l-75.94,8.98,227.14.63,3.24-9.13Z" fill="#fff" stroke-width="0"/><path d="m758.64,387.18c-1.6-1-1.6-1.92-1.03-2.49l15.04-15.03c.57-.56,1.49-.56,2.06,0,.57.57.57,1.5,0,2.07l-15.04,15.03c-.28.28-.66.42-1.03.42Z" fill="#1b1b1b" stroke-width="0"/><path d="m773.68,387.18c-1.03-.42-16.07-15.45-16.07-15.45-.57-.57-.57-1.5,0-2.07.57-.56,1.49-.56,2.07,0l15.04,15.03c.57.57.57,1.5,0,2.07-.28.28-.66.42-1.03.42Z" fill="#1b1b1b" stroke-width="0"/><path d="m740.8,362.85c-3.17,0-5.76-2.58-5.76-5.75s2.58-5.75,5.76-5.75,5.76,2.58,5.76,5.75-2.58,5.75-5.76,5.75Zm0-8.59c-1.57,0-2.83,1.27-2.83,2.83s1.26,2.83,2.83,2.83,2.83-1.27,2.83-2.83-1.27-2.83-2.83-2.83Z" fill="#1b1b1b" stroke-width="0"/><path d="m69.89,120.61c-3.18,0-5.76-2.58-5.76-5.76s2.58-5.75,5.76-5.75,5.75,2.58,5.75,5.75-2.58,5.76-5.75,5.76Zm0-8.59c-1.57,0-2.84,1.27-2.84,2.83s1.27,2.84,2.84,2.84,2.83-1.27,2.83-2.84-1.27-2.83-2.83-2.83Z" fill="#1b1b1b" stroke-width="0"/><path d="m145.38,474.18h-66.02c-.8,0-1.46-.65-1.46-1.46s.66-1.46,1.46-1.46h66.02c.8,0,1.46.65,1.46,1.46s-.66,1.46-1.46,1.46Z" fill="#1b1b1b" stroke-width="0"/><path d="m500.43,829.27c-95.54,0-234.32-10.12-235.71-10.22-2.06-2.05-218.65-299.95-218.65-299.95,1.55-2.27,97.67,23.31,97.67,23.31.78.2,1.24,1,1.03,1.78-.2.79-1.01,1.24-1.78,1.04l-92.15-24.52,214.79,295.48c10.84.78,142.88,10.17,234.79,10.17,112.92,0,262.37-9.41,274.38-10.17l161.65-267.36-385.03,99.97c-.72,0-361.81-89.2-361.81-89.2-.78-.19-1.26-.98-1.07-1.76.18-.78.94-1.28,1.76-1.07l360.74,89.11,388.14-100.78c1.61,2.16-162.3,273.24-162.3,273.24-2.72.8-159.25,10.93-276.48,10.93Z" fill="#1b1b1b" stroke-width="0"/><path d="m730.27,602.31c-1.38-.99-143.37-415.17-143.37-415.17l-165.41,284.67c-.41.7-1.3.94-2,.53-.7-.4-.94-1.3-.53-1.99l167.02-287.43c2.65.26,145.67,417.46,145.67,417.46.26.77-.15,1.59-.91,1.85-.16.05-.32.08-.48.08Z" fill="#1b1b1b" stroke-width="0"/><path d="m517.12,640.39c-1.03-.15-1.58-.9-1.44-1.7l49.42-297.23-120.56,279.62c-.33.74-1.17,1.09-1.92.76-.74-.32-1.08-1.17-.76-1.91l125.31-290.63c.31-.68,1.05-1.03,1.76-.82.71.21,1.14.91,1.02,1.64l-51.39,309.05c-.12.71-.74,1.22-1.44,1.22Z" fill="#1b1b1b" stroke-width="0"/><path d="m509.1,829.27c-1.11-.22-1.61-1-1.42-1.78l41.97-180.43c.18-.79.98-1.25,1.76-1.1.78.18,1.28.97,1.09,1.76l-41.97,180.42c-.16.68-.76,1.13-1.43,1.13Z" fill="#1b1b1b" stroke-width="0"/><path d="m899.36,474.18h-213.02c-.8,0-1.46-.65-1.46-1.46s.66-1.46,1.46-1.46h213.02c.8,0,1.46.65,1.46,1.46s-.66,1.46-1.46,1.46Z" fill="#1b1b1b" stroke-width="0"/><path d="m327.02,474.18h-101.95c-.8,0-1.46-.65-1.46-1.46s.66-1.46,1.46-1.46h101.95c.8,0,1.46.65,1.46,1.46s-.66,1.46-1.46,1.46Z" fill="#1b1b1b" stroke-width="0"/><path d="m218.75,54.02c-.9-.05-1.51-.74-1.45-1.55.33-5.44-.79-9.58-3.34-12.32-2.7-2.89-6.95-4.33-13.01-4.38-.59,0-1.37-.03-2.29-.06-6.28-.2-20.97-.7-21.94,5.42-.13.79-.79,1.36-1.67,1.22-.79-.13-1.33-.87-1.21-1.67,1.37-8.69,17.27-8.16,24.9-7.89.89.03,1.64.06,2.23.06,6.9.06,11.85,1.8,15.11,5.31,3.11,3.34,4.5,8.22,4.11,14.49-.05.77-.69,1.37-1.45,1.37Z" fill="#1b1b1b" stroke-width="0"/><path d="m186.56,57.87c-7.86,0-8.22-5.43-8.22-5.48.4-1.12,3.82-6.28-.38-9.85-.61-.52-.69-1.44-.17-2.06.52-.61,1.43-.69,2.06-.17,4.65,3.95,3.14,9.48,1.48,12.29.28.8,1.43,2.56,5.86,2.34,1.75-.07,3.07-.6,3.92-1.57,1.43-1.64,1.22-4.1,1.21-4.12-.07-.77.48-1.48,1.25-1.58.72-.16,1.49.41,1.64,1.18.04.25,1.17,6.1,5.77,6.1,4.21-.02,4.78-3.16,4.82-3.52.11-.79.87-1.34,1.64-1.25.79.1,1.35.82,1.25,1.61-.25,2.09-2.19,6.04-7.67,6.07-3.24,0-5.42-1.79-6.81-3.88-2.27,2.9-4.3,3.77-6.89,3.88-.26.01-.51.01-.76.01Z" fill="#1b1b1b" stroke-width="0"/><path d="m206.13,561.81c-.26-.02-9.98-1.76-9.98-1.76-1.16-1.07-1.76-3.41-1.76-3.41l-3.53,2.7c-.99.3-68.9-4.18-68.9-4.18-.5-2.78,36.38-19.38,36.38-19.38.71-.33,1.6,0,1.92.73.33.74,0,1.6-.73,1.93l-31.54,14.2,61.53,4.06,4.85-3.71c2.31.8,3.22,4.36,3.22,4.36l7.31,1.31,2.5-17.97c.11-.79.87-1.33,1.65-1.24.8.11,1.36.85,1.25,1.65l-2.72,19.48c-.84,1.16-1.15,1.26-1.45,1.26Z" fill="#1b1b1b" stroke-width="0"/><path d="m345.95,98.67c-6.52,0-11.49-1.59-15.04-4.78-8.11-7.29-6.88-21.35-5.79-33.75.13-1.44.25-2.86.36-4.24.06-.81.77-1.44,1.57-1.34.8.06,1.4.76,1.34,1.56-.11,1.4-.23,2.82-.36,4.27-1.03,11.73-2.19,25.01,4.84,31.33,4.62,4.15,12.33,5.09,23.57,2.89.79-.15,1.56.36,1.71,1.15.16.79-.36,1.56-1.15,1.71-4.08.8-7.75,1.2-11.03,1.2Z" fill="#1b1b1b" stroke-width="0"/><path d="m328.26,46.99c-.8,0-1.46-.65-1.46-1.46,0-9.88,3.93-19.37,4.1-19.76.31-.75,1.17-1.09,1.91-.79.74.32,1.09,1.17.78,1.91-.04.09-3.86,9.35-3.86,18.63,0,.81-.66,1.46-1.46,1.46Z" fill="#1b1b1b" stroke-width="0"/><path d="m388.15,68.1c-2.49,0-4.83-.97-6.79-2.81-.58-.55-.61-1.47-.06-2.06.55-.58,1.47-.61,2.07-.06,1.4,1.32,3.06,2.02,4.79,2.02,2.15-.01,4.16-1.06,5.67-2.95,1.59-1.98,2.46-4.61,2.43-7.43-.03-5.68-3.68-10.28-8.14-10.28-3.14.02-7.55,2.3-8.92,5.55-.31.75-1.17,1.08-1.91.79-.74-.31-1.1-1.17-.78-1.91,1.88-4.51,7.46-7.32,11.55-7.34,6.1,0,11.06,5.9,11.11,13.18.02,3.48-1.07,6.78-3.08,9.28-2.08,2.58-4.88,4.02-7.88,4.03h-.07Z" fill="#1b1b1b" stroke-width="0"/><path d="m389.23,62.11c-.91-.32-7.85-5.84-7.85-5.84-.08-2.22,7.31-8.95,7.31-8.95.61-.54,1.53-.5,2.07.1.54.59.5,1.52-.1,2.06l-6.13,5.57,5.6,4.46c.64.5.74,1.42.24,2.05-.29.36-.72.55-1.14.55Z" fill="#1b1b1b" stroke-width="0"/><path d="m338.53,65.41c-2.26-1.65-2.72-3.79.51-19.78.23-2.41.81-2.98,1.61-3.06.75-.2,1.52.65,1.61,1.45q.02.27-.36,2.19c-2.09,10.35-2.52,14.46-2.5,16.06,1.29-.44,3.11-1.44,4.25-2.2.66-.44,1.58-.26,2.02.42.45.68.26,1.58-.41,2.02-.71.46-4.34,2.78-6.68,2.89h-.05Z" fill="#1b1b1b" stroke-width="0"/><path d="m346.64,73.57c-.25-.02-7.68-.88-12.31-.93-.8,0-1.45-.67-1.45-1.48,0-.8.66-1.44,1.46-1.44,4.8.05,12.15.9,12.46.94.8.09,1.37.82,1.28,1.62-.08.74-.71,1.29-1.45,1.29Z" fill="#1b1b1b" stroke-width="0"/><path d="m356.5,54.4c-.87-.05-1.55-.8-1.5-1.67l.23-4.46c.05-.87.79-1.55,1.67-1.5.87.04,1.54.79,1.5,1.66l-.23,4.46c-.05.87-.79,1.55-1.67,1.51Z" fill="#1b1b1b" stroke-width="0"/><path d="m395.28,48.49c-1.35-.48-1.66-1.35-1.32-2.08,5.08-10.76,6.2-19.45,3.26-25.13-2.81-5.41-8.37-6.44-8.42-6.44-7.77-12.93-27.73-13.9-44.51-9.47-9.34,2.47-15.08,6.5-17.08,11.98-2.87,7.86,2.97,16.32,3.03,16.41.46.66.3,1.57-.35,2.03-.67.46-1.56.31-2.03-.35-.28-.4-6.77-9.77-3.39-19.07,2.35-6.43,8.77-11.08,19.09-13.82,16.37-4.33,38.19-4.36,46.46,9.57,1.86.5,6.94,2.32,9.81,7.82,3.42,6.61,2.35,15.94-3.21,27.72-.25.52-.77.83-1.32.83Z" fill="#1b1b1b" stroke-width="0"/><path d="m378.16,49.62c-.94-.08-1.53-.79-1.45-1.59.02-.13,1.14-12.88-2.44-22.85-4.68-1.34-32.03-8.55-40.91,2.09-.51.62-1.44.7-2.06.19-.61-.52-.7-1.44-.18-2.06,10.94-13.09,43.32-3.23,44.69-2.81,5.07,11.57,3.86,25.14,3.81,25.71-.07.75-.71,1.32-1.46,1.32Z" fill="#1b1b1b" stroke-width="0"/><path d="m330,270.71c-1.38-1.93,56.26-171.22,56.26-171.22,2.31-.66,19.33,13.41,19.33,13.41.49.81,7.55,33.07,7.55,33.07.17.76-.29,1.52-1.05,1.72l-17,4.53,5.61,18.92c-.2,1.26-69.52,98.95-69.52,98.95-.28.4-.73.62-1.19.62Zm58.34-168.28l-53.72,157.79,63.09-88.93-5.84-19.69c1.02-1.82,18.12-6.37,18.12-6.37l-6.65-30.4-15-12.39Z" fill="#1b1b1b" stroke-width="0"/><path d="m330,270.71c-1.43-1.18-22.32-106.72-22.32-106.72.18-1.05,10.46-17.79,10.46-17.79l-11.75-8.37c-.65-.46-.8-1.37-.34-2.02l20.93-29.82c.58-.48,19.45-9.25,19.45-9.25,2.06,1.46-14.97,172.66-14.97,172.66-1.41,1.32-1.43,1.32-1.45,1.32Zm-19.35-106.72l18.87,95.33,15.81-158.86-16.19,7.54-19.87,28.3,11.68,8.32c.62.45.79,1.3.4,1.95l-10.69,17.42Z" fill="#1b1b1b" stroke-width="0"/><path d="m424.08,392.43c-.86-.18-49.54-13.38-94.75-34.24-43.13-19.9-68.85-44-69.1-44.23-.17-1.99,14.27-32.91,23.38-92.31.08-.49,8.15-45.98,12.56-64.83.18-.79.97-1.27,1.76-1.09.78.19,1.27.97,1.09,1.75-4.38,18.78-12.44,64.18-12.52,64.64-8.27,53.94-20.97,84.65-23.49,90.4,4.53,4.07,28.99,25.22,67.56,43.01,39.93,18.42,82.59,30.85,92,33.5l-.93-29.18c-.03-.81.61-1.48,1.41-1.5.84.05,1.48.61,1.51,1.41l.99,31.17c-.82,1.4-1.14,1.51-1.46,1.51Z" fill="#1b1b1b" stroke-width="0"/><path d="m456.39,379.33c-1.22-.67-32.58-49.46-32.58-49.46-1.85.16-2.41-.57-2.31-1.37l15.25-113.5c14.49,4.23,22.21,12.75,24.97,24.18,8.18,33.92-29.42,82.36-35.19,89.53l30.11,46.87c8.77-8.82,60.26-64.34,49.51-141.01-11.1-79.14-60.31-105.25-101.94-119.17-.76-.26-1.18-1.08-.92-1.84.26-.76,1.09-1.18,1.84-.92,42.44,14.17,92.59,40.8,103.92,121.52,11.91,84.86-51.03,144.19-51.67,144.79-.27.25-.63.38-.99.38Zm-17-162l-14.64,108.93c6.83-8.68,41.7-55.06,34.14-86.4-2.41-9.95-8.96-17.52-19.5-22.53Z" fill="#1b1b1b" stroke-width="0"/><path d="m242.36,152.67c-1.23,0-2.47-.06-3.74-.18-32.59-3.11-26.97-69.78-26.71-72.62.07-.8.77-1.4,1.58-1.32.8.07,1.4.78,1.33,1.58-.06.66-5.64,66.61,24.07,69.44,15.42,1.47,27.82-7.22,43.54-18.23,12.33-8.64,26.31-18.44,45.2-25.88.75-.29,1.6.08,1.89.82.29.75-.07,1.6-.83,1.89-18.56,7.32-32.39,17.01-44.59,25.56-14.96,10.48-27.01,18.93-41.75,18.93Z" fill="#1b1b1b" stroke-width="0"/><path d="m241.78,209.54c-12.61,0-23.49-2.58-32.04-5.68-51.98-18.91-40.69-115.68-40.18-119.79,1.3-1.27,43.66-5.51,43.66-5.51.78-.14,1.52.51,1.6,1.3.08.8-.51,1.52-1.31,1.6l-41.18,4.13c-1.13,11.11-8.44,98.48,38.42,115.53,17.39,6.32,44.81,10.38,76.69-6.26,1.96-1.03,2.49-1.32,3.31-.73-19.15,12.3-35.1,15.42-48.96,15.42Z" fill="#1b1b1b" stroke-width="0"/><path d="m349.06,598.5c-1.76-3.06-33-179.91-35.67-194.99-3.78-.61-8.55-1.68-13.99-2.91-25.1-5.68-62.99-14.24-70.8,8.22-1.66,4.78-1.65,9.99-1.64,15.03v38.2c0,26.52,0,53.05.1,79.57-1.57,1.45-83.27-4.36-83.27-4.36-.77-.06-1.37-.71-1.36-1.48.02-1.23,1.8-123.27,5.82-165.75,4.09-43.27,66.9-52.12,112.76-58.59.89-.05,1.54.45,1.65,1.25.11.8-.45,1.53-1.24,1.65-44.91,6.32-106.4,14.99-110.27,55.97-3.78,39.93-5.58,150.5-5.79,164.14l78.77,5.61c-.09-26-.09-52-.09-78.01l-.02-38.19c0-5.04-.02-10.74,1.81-15.99,8.64-24.92,48.08-16.01,74.19-10.11,5.91,1.33,11,2.48,14.81,3.03q1.11.47,35.64,196.01c.13.79-.39,1.55-1.18,1.69-.09.01-.18.02-.26.02Z" fill="#1b1b1b" stroke-width="0"/><path d="m429.14,618.45c-.77,0-1.41-.6-1.45-1.38l-13.13-228.32c-.05-.8.56-1.5,1.37-1.54.99-.03,1.5.57,1.54,1.37l13.13,228.33c.05.8-.56,1.49-1.37,1.54h-.09Z" fill="#1b1b1b" stroke-width="0"/><path d="m268.8,57.9c-.03-2.19,63.85-3.47,63.85-3.47.21-.06.96-.82.96-3.57,0-3.16-1.2-3.6-1.21-3.6l-63.08-1.24c.05-2.19,63.37-.91,63.37-.91.49.08,3.11.74,3.11,5.75,0,5.6-2.81,5.76-3.13,5.76l-63.86,1.29h-.02Z" fill="#1b1b1b" stroke-width="0"/><path d="m178.91,42.52h-23.9c0-2.18,23.9-2.18,23.9-2.18,1.1,1.7.61,2.18,0,2.18Z" fill="#1b1b1b" stroke-width="0"/><path d="m267.89,61.03h-46.39c0-2.18,45.63-2.18,45.63-2.18.39-1.16,1.12-3.9,1.12-8.16,0-4.74-.69-7.19-1.07-8.16h-50.31c0-2.18,51.01-2.18,51.01-2.18,1.09.75,2.56,3.23,2.56,10.35,0,6.34-1.5,9.59-1.57,9.72-.18.38-.56.62-.99.62Z" fill="#1b1b1b" stroke-width="0"/><path d="m209.2,61.03h-54.2c0-2.18,54.2-2.18,54.2-2.18,1.1,1.69.6,2.18,0,2.18Z" fill="#1b1b1b" stroke-width="0"/><path d="m155,61.03c-2.92,0-4.25-5.36-4.25-10.35s1.33-10.35,4.25-10.35,4.24,5.36,4.24,10.35-1.33,10.35-4.24,10.35Zm0-18.51c-.53,0-2.05,2.8-2.05,8.16s1.53,8.16,2.05,8.16,2.05-2.81,2.05-8.16-1.53-8.16-2.05-8.16Z" fill="#1b1b1b" stroke-width="0"/><path d="m314.66,403.69c-.72,0-1.36-.54-1.45-1.28l-3.61-28.72c-.1-.8.47-1.53,1.27-1.63.9-.1,1.53.47,1.63,1.27l3.61,28.72c.1.8-.47,1.53-1.27,1.63-.06,0-.13.01-.18.01Z" fill="#1b1b1b" stroke-width="0"/><path d="m387.64,101.41c-.83-.01-1.47-.68-1.46-1.48l.57-33.32c.02-.8.67-1.43,1.46-1.43.84.01,1.47.68,1.46,1.48l-.57,33.32c-.02.8-.66,1.43-1.46,1.43Z" fill="#1b1b1b" stroke-width="0"/><path d="m363.77,116.53c-14.35-1.05-18.62-8.37-18.79-8.68-.18-.84.67-10.7.67-10.7.07-.8.78-1.45,1.58-1.33.8.07,1.4.78,1.33,1.58l-.82,9.35c.95,1.33,4.95,6.04,14.69,6.81,6.12.46,17.8-2.46,20.62-3.99.71-.39,1.59-.13,1.98.58.39.71.13,1.6-.58,1.98-3.31,1.81-14.07,4.39-20.67,4.39Z" fill="#1b1b1b" stroke-width="0"/><path d="m208.07,81.46c-1.66-1.54-1.37-2.42-.64-2.77,7.33-3.58,11.7-16.28,12.5-18.75-1.67-5.1-4.92-13.33-7.05-15-2.92,1.31-4.65,5.78-4.07,7.78,1.02,3.47,2.12,6.73,2.12,6.75.26.76-.15,1.59-.91,1.85-.79.26-1.59-.15-1.85-.92,0,0-1.12-3.33-2.15-6.86-.93-3.17,1.28-9.01,4.15-10.95,1.51-1.03,3.16-1,4.51.05,3.62,2.83,7.72,15.42,8.18,16.85-.18,1.53-4.89,17.31-14.14,21.82-.21.1-.43.15-.64.15Z" fill="#1b1b1b" stroke-width="0"/><path d="m178.72,84.42c-1.45-1.24-4.77-23.7-4.77-23.7-.11-.8.44-1.54,1.23-1.66.74-.14,1.53.43,1.66,1.23l3.32,22.46c.11.8-.44,1.54-1.23,1.66-.07.01-.14.01-.21.01Z" fill="#1b1b1b" stroke-width="0"/><path d="m360.71,44.52h-7.25c-.8,0-1.46-.65-1.46-1.46s.66-1.46,1.46-1.46h7.25c.8,0,1.46.65,1.46,1.46s-.66,1.46-1.46,1.46Z" fill="#1b1b1b" stroke-width="0"/><path d="m336.8,44.52h-7.25c-.8,0-1.46-.65-1.46-1.46s.66-1.46,1.46-1.46h7.25c.8,0,1.46.65,1.46,1.46s-.66,1.46-1.46,1.46Z" fill="#1b1b1b" stroke-width="0"/><path d="m428.93,361.69c-7.05,0-14.39-2.11-19.61-3.62-2.77-.8-5.36-1.54-6.45-1.51-1.72.06-4.36.81-6.91,1.53-5.08,1.45-9.43,2.67-11.58.67-.58-.55-.88-1.29-.85-2.14.12-3.37,6.13-8.68,8.51-10.64.89-3.12,5.14-17.23,10.31-20.64,5.63-3.74,21.68,2.13,23.5,2.81.75.28,1.13,1.12.85,1.88-.28.75-1.1,1.15-1.88.85-6.29-2.36-17.51-5.3-20.86-3.11-3.88,2.56-7.98,14.89-9.23,19.43-4.72,4.19-8.43,8.39-8.27,9.56.86.75,5.78-.63,8.71-1.47,2.85-.81,5.55-1.57,7.62-1.64,1.64,0,3.98.65,7.35,1.62,8.19,2.36,21.91,6.3,30.11.45.66-.47,1.57-.32,2.03.34.47.65.32,1.56-.33,2.03-3.74,2.67-8.3,3.6-13,3.6Z" fill="#1b1b1b" stroke-width="0"/><path d="m327.55,474.18h-101.94c-.8,0-1.46-.65-1.46-1.46s.66-1.46,1.46-1.46h101.94c.8,0,1.46.65,1.46,1.46s-.66,1.46-1.46,1.46Z" fill="#1b1b1b" stroke-width="0"/><path d="m370.86,149.17c-1.05-.77-10.6-31.9-10.6-31.9l-16.18,22.38c-1.78-1.28,15.7-25.44,15.7-25.44,1.94.32,12.14,33.55,12.14,33.55-.84,1.4-.94,1.42-1.05,1.42Z" fill="#1b1b1b" stroke-width="0"/><path d="m790.43,519.69h-47.06c-.8,0-1.46-.65-1.46-1.46s.66-1.46,1.46-1.46h47.06c.8,0,1.46.65,1.46,1.46s-.66,1.46-1.46,1.46Z" fill="#1b1b1b" stroke-width="0"/><path d="m129.01,733.63H26.62c-.8,0-1.46-.65-1.46-1.46s.66-1.45,1.46-1.45h102.38c.8,0,1.46.65,1.46,1.45s-.66,1.46-1.46,1.46Z" fill="#1b1b1b" stroke-width="0"/><path d="m65.79,761.73H31.54c-.8,0-1.46-.65-1.46-1.46s.66-1.46,1.46-1.46h34.25c.8,0,1.46.65,1.46,1.46s-.66,1.46-1.46,1.46Z" fill="#1b1b1b" stroke-width="0"/><path d="m917.07,853.93h-86.93c-.8,0-1.46-.65-1.46-1.46s.66-1.46,1.46-1.46h86.93c.8,0,1.46.65,1.46,1.46s-.66,1.46-1.46,1.46Z" fill="#1b1b1b" stroke-width="0"/><path d="m295.77,867.1h-86.93c-.8,0-1.46-.65-1.46-1.46s.66-1.46,1.46-1.46h86.93c.81,0,1.46.65,1.46,1.46s-.66,1.46-1.46,1.46Z" fill="#1b1b1b" stroke-width="0"/><path d="m981.88,710.09h-50.78c-.8,0-1.46-.65-1.46-1.46s.66-1.46,1.46-1.46h50.78c.8,0,1.46.65,1.46,1.46s-.66,1.46-1.46,1.46Z" fill="#1b1b1b" stroke-width="0"/><path d="m939.57,735.68h-22.5c-.8,0-1.46-.65-1.46-1.46s.66-1.46,1.46-1.46h22.5c.8,0,1.46.65,1.46,1.46s-.66,1.46-1.46,1.46Z" fill="#1b1b1b" stroke-width="0"/><path d="m349.37,213.44c-1.08-1.25,8.82-68.2,8.82-68.2.16-.43,7.46-11.72,7.46-11.72,1.84,1.19-5.33,12.27-5.33,12.27l-9.87,66.71c-.08.54-.55.94-1.08.94Z" fill="#1b1b1b" stroke-width="0"/><path d="m339.4,175.88c-1.04-1.42,8.87-33.24,8.87-33.24l-.72-11.1c2.18-.15,2.91,11.16,2.91,11.16-.05.4-10.02,32.41-10.02,32.41-.14.47-.57.76-1.04.76Z" fill="#1b1b1b" stroke-width="0"/><path d="m359.28,146.5c-.28-.04-10.18-2.67-10.18-2.67.56-2.12,10.45.52,10.45.52.65,1.83.21,2.15-.28,2.15Z" fill="#1b1b1b" stroke-width="0"/><path d="m393.67,348.16c-1.66-1.38-1.45-2.27-.77-2.7.09-.05,2.19-1.35,5.05-1.94,2.83-.61,7.77.54,8.32.66.78.19,1.26.97,1.08,1.76-.2.79-.93,1.26-1.76,1.08-1.3-.31-5.13-1.05-7.04-.65-2.33.49-4.08,1.56-4.1,1.56-.25.15-.51.22-.77.22Z" fill="#1b1b1b" stroke-width="0"/><path d="m780.7,81.12h-303.78c-.76,0-1.4-.59-1.45-1.36-.06-.77.49-1.44,1.25-1.55l66.95-9.35c.82-3.77,4.64-15.51,20.47-15.51,8.79.41,13.82,1.68,16.75,3.83.6-4.46,2.51-10.49,7.91-15.9,8.4-8.43,22.54-12.7,42.03-12.7,1.58,0,3.19.03,4.87.09,22.38.77,37.2,5.9,44.05,15.25,2.99,4.07,3.95,8.34,4.07,11.93,3.54-4.5,9.74-9.08,20.28-9.08,2.72,0,5.64.32,8.69.94,23.25,4.76,24.27,20.8,23.99,25.91l44.07,4.6c.77.08,1.34.75,1.3,1.53-.04.77-.68,1.38-1.45,1.38Zm-282.78-2.92h254.73l-17.62-1.84c-1.15-2.49,1.92-20.74-22.84-25.8-2.84-.58-5.57-.88-8.1-.88-14.33,0-19.59,9.43-21.19,13.49-.9,2.49-1.68,2.84-2.41,2.6-.71-.24-1.13-.99-.96-1.72,1.58-5.29,2.5-12.06-2.14-18.4-6.3-8.59-20.35-13.32-41.79-14.06-1.65-.05-3.24-.08-4.78-.08-18.69,0-32.13,3.98-39.97,11.84-6.25,6.27-7.27,13.45-7.3,17.33.57,1.71.13,3.05.07,3.21-2.81-.26-2.96-1.15-2.99-2.64-.71-1.44-3.56-4.34-14.93-4.92-17.5-1.01-19.27,13.4-19.33,14-1.25,1.3-48.46,7.89-48.46,7.89Z" fill="#1b1b1b" stroke-width="0"/><path d="m866.32,245.06h-124.86c-.76,0-1.39-.58-1.45-1.33-.07-.76.46-1.43,1.21-1.57l37.12-6.45c.05-2.07.61-6.07,3.72-9.56,3.87-4.35,10.16-6.4,19.23-6.2,20.44.56,24.25,9.87,24.96,13.21l40.39,9.03c.72.16,1.22.84,1.14,1.58-.09.74-.71,1.3-1.45,1.3Zm-107.95-2.91h94.73l-28.48-6.37c-1.16-1.81-1.95-12.33-23.43-12.92-8.61-.02-13.88,1.75-16.98,5.23-3.46,3.9-2.95,8.63-2.95,8.68.09.77-.44,1.48-1.2,1.61l-21.7,3.77Z" fill="#1b1b1b" stroke-width="0"/><path d="m272.57,278.76H53.7c-.77,0-1.41-.6-1.45-1.37-.05-.77.52-1.45,1.28-1.54l75.1-8.89c1.68-3.71,9.47-18.08,29.97-18.08,15.12,0,21.25,3.96,23.72,6.92,3.64-7.93,16.21-28.87,45.73-24.05,12.34,2,20.7,6.69,24.86,13.93,4.14,7.2,2.88,14.81,1.99,18.15l21.11,2.88c.79.11,1.36.85,1.25,1.65-.11.79-.75,1.39-1.65,1.25l-22.81-3.11c-1.13-2.06,2.27-11.22-2.43-19.39-3.7-6.42-11.37-10.62-22.78-12.47-33.62-5.41-43.6,24.69-43.69,24.99-2.84-.28-4.53-7.82-25.3-7.82s-27.33,16.3-27.58,17c-1.2.97-52.58,7.05-52.58,7.05h194.14c.8,0,1.46.65,1.46,1.46s-.66,1.45-1.46,1.45Z" fill="#1b1b1b" stroke-width="0"/></g></g></svg>