<?xml version="1.0" encoding="UTF-8"?><svg id="a" xmlns="http://www.w3.org/2000/svg" width="1000.79" height="717.9" viewBox="0 0 1000.79 717.9"><path d="m981.66,254.6c-.38.08-12.37,3.74-21.9,2.22l-1.13-49.26-49.73-.76c-2.66,10.34.8,22.3,1.23,23.74-.07,9.54-7.85,17.29-17.41,17.29s-17.34-7.74-17.41-17.29c.44-1.44,3.88-13.4,2.06-23.04-.84-.7-50.73-.36-50.73-.36l-.06,132.71,97.35.54h6.19l29.1-.64.53-49.11c9.54-1.51,21.52,2.14,21.65,2.18,10.8.04,19.38-8.54,19.38-19.09s-8.58-19.13-19.13-19.13Z" fill="#5983c2" stroke-width="0"/><path d="m885.99,255.86c-10.55,0-19.12-8.58-19.12-19.12.07-.38,3.91-12.97,2.09-22.6,3.5,9.32.05,21.28-.38,22.72.07,9.55,7.85,17.29,17.41,17.29s17.34-7.74,17.41-17.28c-.44-1.44-3.89-13.4-2.07-23.05-.13,9.96,3.71,22.54,3.75,22.66.04,10.8-8.54,19.38-19.08,19.38Z" fill="#1b1b1b" stroke-width="0"/><path d="m952.17,346.71h-34.97c0-1.71,34.11-1.71,34.11-1.71v-48.76c10.36-2.65,22.3.79,23.74,1.23,9.54-.07,17.29-7.85,17.29-17.41s-7.74-17.34-17.29-17.41c-1.45.44-13.4,3.9-23.05,2.08-.7-.84-.7-49.88-.7-49.88h-49.14c0-1.71,50-1.71,50-1.71.86.86.86,50.03.86,50.03,9.56,1.53,21.53-2.15,21.65-2.19,10.8-.04,19.38,8.54,19.38,19.09s-8.58,19.13-19.13,19.13c-.38-.08-12.38-3.74-21.9-2.22v48.89c0,.47-.38.86-.86.86Z" fill="#1b1b1b" stroke-width="0"/><path d="m896.92,346.71h-76.63c-.86-.86-.86-50.57-.86-50.57,1.71,0,1.71,48.86,1.71,48.86h75.77c.86,1.33.47,1.71,0,1.71Z" fill="#1b1b1b" stroke-width="0"/><path d="m820.29,252.33c-.86-.86-.86-38.35-.86-38.35.86-.86,50.36-.86,50.36-.86,0,1.71-48.65,1.71-48.65,1.71v36.64c0,.48-.38.86-.86.86Z" fill="#1b1b1b" stroke-width="0"/><rect x="353.39" y="123.21" width="248.99" height="163.4" rx="6.11" ry="6.11" fill="#fff" stroke-width="0"/><path d="m579.9,123.21h-204.04c-12.36,0-22.48,10.12-22.48,22.48,0,1.39,248.99,1.39,248.99,1.39,0-13.75-10.11-23.86-22.48-23.86Z" fill="#1b1b1b" stroke-width="0"/><path d="m444.99,332.1s6.24-14.13,5.59-17.32c-.66-3.19-6.9-10.24-9.98-12.84-3.09-2.6-3.12-7.8,0-9.55,3.12-1.75,8.03.01,12.76,4.12,4.72,4.1,10.6,10.44,12.73,10.36,0,0,16.25-12.26,23.16-14.03,6.91-1.77,10.16-2.14,11.91.71,0,0,5.75.3,7.08,4.37,0,0,4.91-1,6.67,1.98,1.76,2.98-.66,8.75-6.38,12.75-5.73,4-14.49,9.09-20.88,10.75-6.39,1.66-8.91,15.97-8.91,15.97,0,0-21.45-.71-33.73-7.29Z" fill="#fff" stroke-width="0"/><path d="m587.59,289.39l-44.06-27.27c-1.87-1.16-4.26.26-4.16,2.45l2.54,51.75c.1,2.05,2.34,3.25,4.11,2.21l11.91-7.02c1.3-.76,2.97-.33,3.73.96l17.32,29.37c.76,1.3,2.43,1.73,3.73.96l9.43-5.56c1.3-.77,1.73-2.44.96-3.73l-17.32-29.37c-.76-1.3-.33-2.97.96-3.73l10.8-6.37c1.77-1.04,1.79-3.59.05-4.66Z" fill="#5983c2" stroke-width="0"/><path d="m589.48,134.92c0,3.84-3.11,6.95-6.95,6.95s-6.95-3.11-6.95-6.95,3.11-6.95,6.95-6.95,6.95,3.11,6.95,6.95Z" fill="#5983c2" stroke-width="0"/><path d="m568.81,134.92c0,3.84-3.11,6.95-6.95,6.95s-6.95-3.11-6.95-6.95,3.11-6.95,6.95-6.95,6.95,3.11,6.95,6.95Z" fill="#fff" stroke-width="0"/><path d="m548.15,134.92c0,3.84-3.11,6.95-6.95,6.95s-6.95-3.11-6.95-6.95,3.11-6.95,6.95-6.95,6.95,3.11,6.95,6.95Z" fill="#fff" stroke-width="0"/><rect x="384.52" y="163.55" width="38.66" height="38.66" fill="#5983c2" stroke-width="0"/><path d="m444.81,333.42c2.05-7.61,6.07-18.5,4.53-20.99-2.06-3.31-4.32-5.27-6.51-7.15-.84-.72-1.66-1.43-2.41-2.17-4.55-4.45-3.47-7.88-2.8-9.14,1.28-2.41,4.4-3.66,7.55-3,5.65,1.17,12.47,7.84,17.94,13.2,3.64,3.56,14.89,3.55,18.97,3.3.53-.08.96.36.99.87-1.5,1.04-16.4,1.93-20.79-2.36-5.51-5.39-12.38-12.13-17.49-13.18-2.34-.47-4.62.36-5.52,2.04-1.01,1.89-.11,4.42,2.45,6.93.73.71,1.51,1.39,2.33,2.09,2.19,1.89,4.67,4.03,6.87,7.58,2.52,4.07-3.95,18.57-5.27,21.43-.16.34-.5.55-.85.55Z" fill="#1b1b1b" stroke-width="0"/><path d="m478.71,340.33c-.66-.09-1.01-.57-.93-1.08.09-.61,2.38-15.04,9.62-16.74,7.02-1.65,25.23-10.53,27.16-19.52.26-1.22-.04-2.27-.88-3.04-1.18-1.09-3.18-1.39-5.2-.76-4.16,1.26-19.51,10.15-19.66,10.23-.75.1-16.16-1.73-23.02,5.69,5.65-8.87,19.95-7.72,22.34-7.47,2.15-1.24,15.69-9.01,19.79-10.25,2.66-.81,5.34-.36,7.01,1.17,1.31,1.21,1.84,2.96,1.44,4.81-2.26,10.49-22.46,19.51-28.56,20.95-5,1.17-7.62,11.38-8.2,15.2-.07.47-.47.8-.93.8Z" fill="#1b1b1b" stroke-width="0"/><path d="m474.81,309.36c2.01-3.28,24.14-16.89,28.6-16.3,3.95.43,5.48,3.51,5.74,5.08-1.88.14-2.47-2.84-5.94-3.22-2.94-.34-18.65,8.61-27.91,14.3-.15.09-.32.14-.49.14Z" fill="#1b1b1b" stroke-width="0"/><path d="m465.59,307.81c-.12-1.97,9.05-7.99,11.23-9.16,1.05-.56,2.28-1.29,3.63-2.09,4.66-2.76,10.45-6.19,14.7-6.4,5.84-.35,7.03,3.42,7.07,3.57-1.85.39-2.66-1.94-6.98-1.7-3.79.19-9.6,3.63-13.84,6.14-1.38.82-2.64,1.56-3.7,2.14-2.12,1.13-11.51,7.29-11.6,7.36-.16.1-.34.15-.51.15Z" fill="#1b1b1b" stroke-width="0"/><path d="m578.88,287.55c12.44-1.87,22.57-11.54,22.57-23.42v-35.31c1.87,0,1.87,35.31,1.87,35.31,0,12.91-10.96,23.42-24.44,23.42Z" fill="#1b1b1b" stroke-width="0"/><path d="m352.55,179.61c-.93-.94-.93-33.93-.93-33.93,0-12.91,10.96-23.41,24.43-23.41h202.83c13.48,0,24.44,10.5,24.44,23.41v32.7c-1.87,0-1.87-32.7-1.87-32.7,0-11.88-10.12-21.54-22.57-21.54h-202.83c-12.44,0-22.56,9.66-22.56,21.54v32.99c0,.52-.42.94-.94.94Z" fill="#1b1b1b" stroke-width="0"/><path d="m506.76,284.07h-127.62c0-1.87,127.62-1.87,127.62-1.87.94,1.45.52,1.87,0,1.87Z" fill="#1b1b1b" stroke-width="0"/><path d="m592.4,148.01h-228.61c0-1.87,228.61-1.87,228.61-1.87.94,1.45.52,1.87,0,1.87Z" fill="#1b1b1b" stroke-width="0"/><path d="m582.53,140.42c-3.03,0-5.49-2.46-5.49-5.49s2.46-5.49,5.49-5.49,5.49,2.47,5.49,5.49-2.46,5.49-5.49,5.49Zm0-9.11c-2,0-3.62,1.63-3.62,3.62s1.62,3.62,3.62,3.62,3.62-1.62,3.62-3.62-1.63-3.62-3.62-3.62Z" fill="#1b1b1b" stroke-width="0"/><path d="m561.87,140.42c-3.03,0-5.49-2.46-5.49-5.49s2.47-5.49,5.49-5.49,5.49,2.47,5.49,5.49-2.46,5.49-5.49,5.49Zm0-9.11c-2,0-3.62,1.63-3.62,3.62s1.63,3.62,3.62,3.62,3.62-1.62,3.62-3.62-1.63-3.62-3.62-3.62Z" fill="#1b1b1b" stroke-width="0"/><path d="m541.2,140.42c-3.03,0-5.49-2.46-5.49-5.49s2.47-5.49,5.49-5.49,5.49,2.47,5.49,5.49-2.47,5.49-5.49,5.49Zm0-9.11c-2,0-3.62,1.63-3.62,3.62s1.62,3.62,3.62,3.62,3.62-1.62,3.62-3.62-1.63-3.62-3.62-3.62Z" fill="#1b1b1b" stroke-width="0"/><path d="m567.41,335.92c-1.87-.36-2.66-.96-3.16-1.8l-17.31-29.37c-.5-.85-1.61-1.13-2.45-.63l-11.91,7.02c-1.12.66-2.45.68-3.6.07-1.14-.61-1.85-1.75-1.92-3.04l-2.54-51.76c-.06-1.36.62-2.64,1.8-3.33,1.18-.69,2.62-.68,3.79.04l44.06,27.27c1.1.68,1.75,1.86,1.73,3.15-.01,1.29-.69,2.46-1.8,3.11l-10.8,6.37c-.63,2.45,16.69,31.82,16.69,31.82.5.84.63,1.83.39,2.77-.25.95-.85,1.74-1.69,2.24l-9.43,5.56c-.57.34-1.2.51-1.85.51Zm-22.03-33.93c1.25,0,2.48.64,3.16,1.8l17.32,29.37c2.45.63,11.87-4.92,11.87-4.92.63-2.45-16.69-31.82-16.69-31.82-.5-.85-.64-1.83-.39-2.78.25-.95.85-1.74,1.69-2.24l10.79-6.37c.55-.32.88-.89.88-1.52,0-.63-.31-1.21-.85-1.54l-44.06-27.27c-.58-.35-1.27-.37-1.85-.02-.58.34-.91.95-.88,1.63l2.53,51.75c.03.63.38,1.19.94,1.49.55.3,1.21.29,1.76-.03l11.91-7.02c.58-.34,1.22-.5,1.85-.5Z" fill="#1b1b1b" stroke-width="0"/><path d="m416.4,197.29h-38.19c-.94-.94-.94-39.12-.94-39.12.94-.94,39.13-.94,39.13-.94.94.94.94,39.12.94,39.12,0,.52-.42.94-.94.94Zm-37.26-1.87h36.32v-36.32h-36.32v36.32Z" fill="#1b1b1b" stroke-width="0"/><path d="m409.9,254.32h-25.18c-.94-.94-.94-26.12-.94-26.12.94-.94,26.12-.94,26.12-.94.94.94.94,26.12.94,26.12,0,.52-.42.94-.94.94Zm-24.25-1.87h23.31v-23.31h-23.31v23.31Z" fill="#1b1b1b" stroke-width="0"/><path d="m573.99,167.96h-115.71c0-1.87,115.71-1.87,115.71-1.87.93,1.45.52,1.87,0,1.87Z" fill="#1b1b1b" stroke-width="0"/><path d="m573.99,197.42h-115.71c0-1.87,115.71-1.87,115.71-1.87.93,1.45.52,1.87,0,1.87Z" fill="#1b1b1b" stroke-width="0"/><path d="m573.99,226.88h-115.71c0-1.87,115.71-1.87,115.71-1.87.93,1.45.52,1.87,0,1.87Z" fill="#1b1b1b" stroke-width="0"/><path d="m905.06,617.25s10.12,12.04,23.04,14.15c12.93,2.11,28.46,4.24,30.61,11.19l-.49,3.02h-89.53s-4.8-1-6.84-6.88c-2.04-5.88,39.61-27.6,43.21-21.48Z" fill="#fff" stroke-width="0"/><path d="m695.03,264.72s4.36,10.72,4.28,14.47c-.07,3.75-.25,32.64-.25,32.64,0,0,2.11,17.43,13.75,17.76,0,0,2.73.52,2.88,1.95.15,1.44,1.31,6.73-3.04,9.2-4.34,2.46-7.82,13.41-7.82,13.41l-8.9,62.07-1.79,65.03-9.35,43.68,93.13.9,19.55-40.7-18.25-134.99s-5.19-.65-9.61-5.85c-4.43-5.2-8.4-3.45-9.08-16.87-.68-13.42-1.25-21.95-1.25-21.95,0,0-.49-3.13,4.86-1.53,5.34,1.6,14.94-4.91,15.08-14.03.13-9.13-9.61-15.04-9.61-15.04l-14.11-23.33-23.03-13.14s-38.86,12.59-37.43,26.31Z" fill="#fff" stroke-width="0"/><path d="m381.98,536.55s-50.7,3.09-82.5,16.04c-31.8,12.95-60.01,19.05-83.15,39.4-23.13,20.36-26.34,38.32-28.27,49.8-1.93,11.48,1.7,31.08,26.59,36.55,24.78,5.45,38.55,6.1,65.08,4.63,26.52-1.48,53.86-3.48,53.86-3.48,0,0,3.29-23.49.64-37.84l55.86,3.95,71.43,2.38s11.6,31.87,20.66,31.79c9.06-.08,55.92-1.07,55.92-1.07l57.8-55.65-30.02-37.72s-22.33-16.44-68.91-31.07c-46.59-14.62-69.87-16.61-69.87-16.61l-45.1-1.1Z" fill="#1b1b1b" stroke-width="0"/><path d="m489.96,669.5s-19.18,3.26-27.92-8.79l-2.59,4.4-10.42,19.4s-3.95,5.31-10.45,3.43c-6.51-1.88-2.9-12.56-2.9-12.56l3.37-10.28-10.04,12.59s-6.41,9.08-12.54,5.69c-6.13-3.39.89-13.78.89-13.78,0,0-9.75,5.78-13.51,3.08-3.76-2.71.29-12.64,3.33-16.41,3.05-3.76,15.01-19.86,21.64-23.29,6.63-3.43,28.06-1.42,32.35-.99,4.28.44,26.13,2.76,26.13,2.76,0,0,6.33,28.86,2.65,34.74Z" fill="#fff" stroke-width="0"/><path d="m396.19,648.06s-3.49-17.15-8.21-21.36c-4.72-4.21-9.24-6.29-9.24-6.29l8.24,24.12-17.61-10.62-8.11-17.47s-9.71.1-15.91.85c-6.2.74-16.43,5.68-16.43,5.68,0,0,5.21,15.98,5.72,22.64.51,6.66.47,18.77.47,18.77,0,0,14.36,4.62,19.52,5.75s19.36,4.17,24.11,1.48c0,0,8.6-.88,11.83-2.9,4.14-2.58,5.12-5.63,5.12-5.63,0,0,1.9.47,3.77-3.43,2.15-4.47-3.27-11.59-3.27-11.59Z" fill="#fff" stroke-width="0"/><path d="m458.6,429c-5.74-2.92-12.38-5.66-20.51-4.14-8.13,1.52-15.53,7.33-15.53,7.33,0,0-6.73-5.36-19.1-3.93-12.37,1.43-17.15,9.23-18.18,14.22-.98,4.78-2.64,16.62.13,25.77-5.19,3.2-6.69,9.11-6.63,11,.08,2.69-.01,13.24,12.9,14.92l-.77,2.63-12.09,39.76s7.92,35.71,29.12,38.05c17,1.88,18.82-20.4,18.82-20.4l7.78-22.93s10.72,1.14,14.48-8.83c3.75-9.97,11.55-41.14,11.55-41.14,0,0,12.8-6.93,14.67-21.77,1.87-14.85-10.88-27.62-16.63-30.55Z" fill="#fff" stroke-width="0"/><polygon points="371.1 636.81 358.65 606.46 369.89 601.88 387.5 644.52 371.1 636.81" fill="#5983c2" stroke-width="0"/><polygon points="369.17 600.93 367.15 596.19 356.33 600.32 358.49 605.26 369.17 600.93" fill="#fff" stroke-width="0"/><path d="m547.42,699.01l-8.16-10.42s-1.79-5.47-.91-11.95c.88-6.48,48.13-139.34,48.13-139.34,0,0,6.19-13.08,20.47-15.85h200.5l5.79,1.25,10.41,6.68,1.33,2.55-207.27-2.35-13.34,5.1-8.47,9.11-48.56,139.04-.29,7.66.38,8.53Z" fill="#fff" stroke-width="0"/><path d="m399.19,515.7s8.51,17.92,31.73,26.2l2.77-10.63s-30.44-4.43-34.5-15.57Z" fill="#cdcccc" stroke-width="0"/><path d="m416.14,496.79s4.59,3.47,4.44,7.82c-.14,4.35-2.68,7.82-2.68,7.82,0,0,3.8,3.66,9.27,3.26,5.48-.4,5.65-5.93,4.61-7.29-1.04-1.36-5.96-.51-7.33-2.41-1.37-1.89-1.08-3.36-1.37-5.87-.3-2.5-1.83-6.53-6.95-3.34Z" fill="#1b1b1b" stroke-width="0"/><path d="m442.17,459.36s11.33,5.9,24.03,2.61c5.24-1.36,7.93,1.99,7.93,1.99,0,0-5.93,14.93-12.44,16.64-1.14-.74,1.73-13.79,1.73-13.79,0,0-17.64-.54-21.25-7.46Z" fill="#cdcccc" stroke-width="0"/><path d="m384.2,459.36s22.07,10.56,36.88,2.17c0,0-5.08,6.75-9.37,8.45l.27,6.08s-4.99.44-5.31,2.68c0,0-1.57-10.48-8.97-11.69-7.4-1.21-12.29,1.19-12.29,1.19l-1.21-8.88Z" fill="#cdcccc" stroke-width="0"/><path d="m713.25,392.27l1.39,15.6-11.13,21.64v51.73l5.57-1.54.53-9.42s9.06-3.72,12.76-3.45l7.77-28.3-2.23-28.55,10.3-15.21-12.39-20.71-12.57,18.21Z" fill="#5983c2" stroke-width="0"/><path d="m775.79,279.2s6.94-15.55,5.9-26.92c-1.04-11.37-10.17-21.28-34.15-17.87,0,0-7.73-24.12-33.68-20.96-25.95,3.17-22.97,28.88-18.56,36.29,0,0-15.79,5.08,3,25.14l1.19-14.66s25.51,5.76,40.41-11.13c0,0,2.15,26.92,13.84,31.36,0,0,8.9-9.88,22.04-1.24Z" fill="#5983c2" stroke-width="0"/><path d="m706.47,347.49v53.44l1.63-2.27s-3.12,14.22-4.59,43.66c-1.47,29.44,0,38.93,0,38.93,0,0-16.37,10.03-13.11,38.91l-2.04,1.29h-81.4s-18.85,4.85-21.94,18.76c0,0-16.16-11.26-14.48-33.78,1.68-22.52,21.33-53.43,29.06-72.2,7.73-18.77,34.24-84.05,106.88-86.74Z" fill="#1b1b1b" stroke-width="0"/><path d="m774.84,349.91l-28.3,58.83-3.96-4.71s-17.12,46.85-20.22,62.82c0,0,49.22-2.94,49.22,4.82v49.42l34.39.37,7.21.66,12.81,10.31s15.95,6.92,15.93,20.76c-.03,13.84-28.44,92.44-28.44,92.44h18.91l1.86-36.67,21.12,31.96s19.77-3.35,31.64-10.45c11.87-7.1,21.53-13.94,21.53-13.94,0,0-16.36-61.17-19.46-72.75-3.1-11.59-28.93-115.97-30.26-121.81-1.33-5.84-8.08-29.48-16.55-39.37-8.48-9.89-32.46-31.76-67.43-32.68Z" fill="#1b1b1b" stroke-width="0"/><path d="m709.6,471.66s14.55,6.18,32.08,5.15c17.53-1.03,29.9-5.15,29.9-5.15v49.42l-24.4.37s3.77-4.97,2.99-10.6c-.77-5.63-4.41-7.29-4.41-7.29,0,0,2.54-5.08.66-10.6-1.88-5.52-9.72-4.88-9.72-4.88,0,0-20.2,1.74-25.94,0-1.16-1.3-1.16-16.42-1.16-16.42Z" fill="#5983c2" stroke-width="0"/><path d="m739.47,328.44s-12.1,11.58-21.38,12.31l-2.39-4.5.15-6.31,23.62-1.51Z" fill="#cdcccc" stroke-width="0"/><path d="m576.03,716.73h191.67c12.63,0,23.84-7.74,27.81-19.22l45.46-131.28c6.28-18.14-7.84-36.85-27.81-36.85h-191.67c-12.63,0-23.84,7.74-27.81,19.22l-45.45,131.28c-6.28,18.15,7.83,36.86,27.81,36.86Z" fill="#5983c2" stroke-width="0"/><path d="m696.52,622.99c-5.84,10.11-5.18,21.42,1.48,25.27,6.66,3.84,16.79-1.24,22.62-11.36,5.84-10.11,5.18-21.43-1.48-25.27-6.65-3.84-16.78,1.24-22.62,11.36Z" fill="#fff" stroke-width="0"/><path d="m705.24,250.07c-12.79-6.77-8.2-26.35-.71-34.03-15.72,7.5-13,27.33-9.21,33.69,0,0-15.79,5.08,3,25.14l1.19-14.66s25.51,5.76,40.41-11.13c0,0-18,9.83-34.68,1Z" fill="#fff" stroke-width="0"/><path d="m758.67,276.76c-11.68-2.46-18.02-28.06-18.02-28.06-.03,6.98,2.92,27.87,13.1,31.74,0,0,1.96-2.15,5.38-3.56-.16-.04-.29-.09-.46-.12Z" fill="#fff" stroke-width="0"/><polygon points="729.72 380.5 719.05 392.27 720.86 409.99 703.51 448.8 705.18 427.72 714.64 408.98 712.27 391.9 725.82 374.06 729.72 380.5" fill="#fff" stroke-width="0"/><path d="m959.29,646.53c-1.35-6.83-8.09-9.37-8.16-9.39-3.51-1.46-7.34-2.28-12.85-2.73-21.44-1.79-32.84-14.57-33.31-15.11,1.86-1.41,13.05,11.08,33.51,12.78,5.77.48,9.81,1.35,13.5,2.89.29.1,8.23,3.06,8.47,10.35-1.14,1.2-1.15,1.2-1.16,1.2Z" fill="#010101" stroke-width="0"/><path d="m947.15,646.33c-.91-1.89,1.09-4.58.25-6.91-.58-1.6-2.41-2.78-5.45-3.5-10.8-2.58-22.01-6.29-22.12-6.32.85-2.17,11.96,1.51,22.66,4.06,3.86.91,6.26,2.6,7.11,4.99,1.25,3.52-1.4,7.08-1.53,7.22-.23.3-.57.46-.93.46Z" fill="#1b1b1b" stroke-width="0"/><path d="m901.58,646.78c-14.68-3.03-13.85-11.26-13.8-11.62.08-.64.56-1.12,1.3-1.01.99,1.56.53,7.79,12.74,10.32.79,1.93.3,2.31-.24,2.31Z" fill="#1b1b1b" stroke-width="0"/><path d="m867,646.53c-3.77-3.25-4.81-6.22-4.86-6.35,2.21-.73,3.13,1.84,5.68,4.36-.22,1.88-.52,1.99-.82,1.99Z" fill="#1b1b1b" stroke-width="0"/><path d="m263.65,685c-30.27,0-60.08-3.86-70.42-18.61-6.02-8.57-7.53-21.16-4.17-34.54,5.67-22.56,23.83-43.04,49.85-56.15,14.71-7.41,30.85-14.23,47.99-20.26,14.47-5.1,31.63-10.8,49.23-14.42,15.59-3.19,27.96-4.28,42.51-5.38-14.29,3.42-26.59,4.51-42.05,7.67-17.46,3.59-34.53,9.26-48.91,14.33-17.05,6.01-33.1,12.78-47.72,20.15-25.41,12.81-43.14,32.73-48.64,54.63-3.2,12.73-1.81,24.63,3.82,32.64,17,24.26,94.31,17.23,127.31,14.24,4.39-.4,8.14-.73,11.05-.95-2.73,2.53-6.47,2.87-10.85,3.27-15.17,1.38-37.21,3.38-59.01,3.38Z" fill="#1b1b1b" stroke-width="0"/><path d="m568.83,588.69c-5.04-3.54-9-6.14-14.36-9.17-24.86-14.02-53.31-23.12-77.88-30.16-11.19-3.22-28.04-7.65-44.9-9.03,17.26-.93,34.25,3.54,45.55,6.79,24.69,7.08,53.3,16.23,78.37,30.37,5.47,3.09,9.51,5.73,13.93,9.11,0,1.93-.35,2.09-.71,2.09Z" fill="#1b1b1b" stroke-width="0"/><path d="m500.49,680.94c-6.24,0-12.14-.1-17.44-.3,15.48-1.74,36.01-2.04,54.96-3.1-12.37,3.03-25.56,3.4-37.52,3.4Z" fill="#1b1b1b" stroke-width="0"/><path d="m387.5,645.69c-1.08-.73-18.25-43.01-18.25-43.01l-9.72,3.94,11.64,28.65c-2.16.87-14.24-28.86-14.24-28.86.64-1.52,12.51-6.34,12.51-6.34,1.52.65,19.13,44,19.13,44-.79,1.58-.94,1.6-1.08,1.6Z" fill="#1b1b1b" stroke-width="0"/><path d="m358.03,607.16c-1.08-.73-3.43-6.52-3.43-6.52.64-1.52,12.51-6.33,12.51-6.33,1.52.64,3.86,6.43,3.86,6.43-2.16.87-4.07-3.84-4.07-3.84l-9.71,3.94,1.91,4.71c-.79,1.58-.94,1.6-1.08,1.6Z" fill="#1b1b1b" stroke-width="0"/><path d="m395.48,682.37c-.8-.31-12.03-10.93-12.03-10.93,1.61-1.7,10.97,7.16,10.97,7.16l.6-14.4c2.33.09,1.62,17.05,1.62,17.05-.86,1.09-1.01,1.12-1.16,1.12Z" fill="#1b1b1b" stroke-width="0"/><path d="m441.72,689.85c-1.22,0-2.45-.28-3.64-.85-1.69-.82-3.02-1.95-3.83-3.28-.88-1.41-1.28-3.17-1.16-5.09.13-2.12.86-4.13,1.61-5.99.81-2.04,1.76-4.19,3-6.79,2.76-5.73,5.94-11.61,9.46-17.47-1.49,7-4.63,12.82-7.36,18.48-1.22,2.55-2.16,4.66-2.94,6.65-.7,1.76-1.34,3.49-1.44,5.28-.07,1.01.02,2.46.81,3.73.58.95,1.57,1.78,2.87,2.4,2.63,1.28,5.45.57,7.69-1.93,1.27-1.42,2.26-3.19,3.22-4.9.3-.55.61-1.09.91-1.61,1.3-2.24,2.52-4.51,3.74-6.79,1.12-2.09,1.56-2.94,2-3.78,1.85-3.54,3.76-7.21,6.24-10.41-.5,4.46-2.37,8.04-4.17,11.49-.45.85-.9,1.7-1.34,2.53-1.92,3.57-3.15,5.87-4.46,8.13-1.91,3.4-2.97,5.28-4.41,6.89-1.96,2.2-4.36,3.34-6.81,3.34Z" fill="#1b1b1b" stroke-width="0"/><path d="m420.04,685.66c-.94,0-1.73-.18-2.34-.37-2.96-.98-5.01-3.66-5.28-5.68-1.27-9.75,18.86-32.36,19.72-33.32-3.91,7.86-18.35,25.8-17.41,33.01.14,1.08,1.54,3.05,3.7,3.76,2.3.78,4.78-.13,7.19-2.6,9.35-9.62,21.4-29.9,21.52-30.1,1.51,2.03-10.3,21.91-19.85,31.72-2.75,2.83-5.31,3.57-7.26,3.57Z" fill="#1b1b1b" stroke-width="0"/><path d="m407.56,675.02c-2.01,0-3.87-.77-5.54-2.28-5.79-5.26,6.37-19.07,7.77-20.63,4.36-6.24,15.58-21.13,23.8-22.35,12.17-1.79,52.18,3.63,53.88,3.85-.73,2.25-41.68-3.33-53.53-1.54-5.09.75-13.43,8.78-22.33,21.48-4.79,5.33-11.11,14.65-8.03,17.45,1.41,1.27,2.92,1.77,4.54,1.65,4.56-.44,8.73-5.95,8.77-6,1.68,1.65-2.95,7.77-8.54,8.31-.27.03-.53.04-.8.04Z" fill="#1b1b1b" stroke-width="0"/><path d="m484.29,671.73c-15.04,0-22.77-8.84-23.13-9.26,1.86-1.41,10.99,8.95,28.5,6.54-1.67,2.59-3.58,2.72-5.36,2.72Z" fill="#1b1b1b" stroke-width="0"/><path d="m394.58,708.68c-.78-.3-42.72-38.31-42.72-38.31,1.56-1.73,43.13,35.93,43.13,35.93l101.83-9.03-42.04-23.4c1.14-2.04,46.49,23.21,46.49,23.21-.46,2.19-106.57,11.6-106.57,11.6h-.11Z" fill="#1b1b1b" stroke-width="0"/><path d="m525.21,618.47c-20.81,0-46.55-1.56-48.2-1.66.76-2.29,61.53,1.39,72.19-2.34-3.09,3.55-12.84,4-23.99,4Z" fill="#1b1b1b" stroke-width="0"/><path d="m391.59,664.78c-5.92,0-16.64-2.7-33.65-15.9,21.58,13.81,32.36,14.04,36.05,13.38,2.21-.38,3.84-1.33,4.74-2.73,2.76-4.33-3.39-9.32-4.31-10.02-2.36-.93-26.52-10.62-33.23-19.26,8.36,6.98,33.97,17.05,34.24,17.15.63.42,9.39,6.92,5.27,13.39-1.25,1.98-3.43,3.27-6.31,3.78-.77.13-1.69.23-2.79.23Z" fill="#1b1b1b" stroke-width="0"/><path d="m382.05,671.73c-14.13,0-31.7-10.56-32.55-11.08,1.45-1.85,24.45,11.98,38,8.05,3.53-1.02,6.04-3.11,7.66-6.38.18,4.87-2.87,7.42-7.01,8.61-1.91.55-3.96.79-6.09.79Z" fill="#1b1b1b" stroke-width="0"/><path d="m396.5,650.94c-1.17-1.1-3.33-14.04-7.01-20.14-3.61-5.97-12.42-9.91-12.51-9.95,1.33-1.96,10.52,2.14,14.51,8.75,3.92,6.48,6.08,19.44,6.16,19.99-1.02,1.35-1.09,1.35-1.15,1.35Z" fill="#1b1b1b" stroke-width="0"/><path d="m328.29,622.97c-.04-2.33,3.11-2.58,9.44-5.18,11.75-4.84,24.38-2.26,24.91-2.14-.61,2.26-12.97-.26-24.03,4.3-6.75,2.77-10.12,3.01-10.25,3.02h-.08Z" fill="#1b1b1b" stroke-width="0"/><path d="m370.93,674.19c-9.27,0-20.2-4.04-24.7-5.7-4.78-1.61-11.61-2.96-11.67-2.97.74-2.23,7.48-.9,10.79.17,7.81,2.87,26.45,9.75,34.55,3.9-1.35,3.87-5.01,4.6-8.97,4.6Z" fill="#1b1b1b" stroke-width="0"/><path d="m239.44,624.57c62.27-6.06,84.26-8.43,84.48-8.45.79-.08,1.22.4,1.28,1.03-1.25,1.31-23.27,3.69-85.7,7.43h-.07Z" fill="#1b1b1b" stroke-width="0"/><path d="m333.59,680.67c-.78-.09-1.24-.67-1.16-1.31,5.31-42.52-9.14-61.17-9.29-61.36,2.44-.68,17.05,18.05,11.6,61.65-.08.59-.58,1.02-1.16,1.02Z" fill="#1b1b1b" stroke-width="0"/><path d="m482.61,680.67c-3.07,0-6.19-2.62-8.86-7.46l-2.42-4.24c2.03-1.15,4.46,3.1,4.46,3.1,2.34,4.25,4.91,6.56,7.18,6.26,4.61-.55,8.41-12.51,6.5-28.8-.96-8.12-2.89-16.66-5.15-22.84-2.36-6.43-4.93-10.07-7.09-9.88-1.77.21-4.83,7.27-6.68,15.44-1.65-3.3,1.74-17.21,6.41-17.75,3.44-.39,6.62,3.43,9.54,11.4,2.36,6.43,4.28,14.95,5.27,23.36,1.97,16.8-1.77,30.58-8.54,31.38-.21.02-.41.04-.62.04Z" fill="#1b1b1b" stroke-width="0"/><path d="m409.7,653.84h-10.24c0-2.33,10.24-2.33,10.24-2.33,1.17,1.81.65,2.33,0,2.33Z" fill="#1b1b1b" stroke-width="0"/><path d="m382.47,683.44c-.07-2.33,19.86-3.5,19.86-3.5.14,2.33-19.79,3.5-19.79,3.5h-.07Z" fill="#1b1b1b" stroke-width="0"/><path d="m449.03,686.65c-.02-2.33,10-2.51,10-2.51.69-.11,1.18.5,1.19,1.14-1.14,1.18-11.17,1.37-11.17,1.37h-.02Z" fill="#1b1b1b" stroke-width="0"/><path d="m398.6,696.43c-.09-2.33,20.26-3.95,20.26-3.95.18,2.33-20.17,3.95-20.17,3.95h-.09Z" fill="#1b1b1b" stroke-width="0"/><path d="m428.75,474.83c.94.1,1.44.64.84,3.95-.67,3.69-1.77,4.08-2.58,3.83-.8-.24-1.32-1.58-.6-4.15.72-2.57,1.11-3.76,2.33-3.63Z" fill="#1b1b1b" stroke-width="0"/><path d="m452.42,481.32c.94.1,1.43.66.8,3.96-.7,3.68-1.81,4.06-2.61,3.81-.8-.26-1.31-1.59-.56-4.16.75-2.56,1.14-3.75,2.37-3.61Z" fill="#1b1b1b" stroke-width="0"/><path d="m411.6,575.77c-19.35,0-31.03-19.46-34.01-38.79.04-.52,13-43.15,13-43.15,2.22.67-10.66,43.05-10.66,43.05,2.19,13.72,11.26,36.56,31.66,36.56,10.33-.05,14.27-20.61,14.31-20.82l7.53-21.74c2.21.77-5.28,22.33-5.28,22.33-.13.76-4.3,22.5-16.43,22.55h-.12Z" fill="#1b1b1b" stroke-width="0"/><path d="m435.66,532.43c-3.61,0-7.3-.98-10.76-1.91-.83-.22-1.65-.44-2.47-.64-5.77-1.47-10.36-3.09-14.45-5.14-3.86-1.94-8.24-4.12-9.99-8.88-1.77-4.82-1.03-10.32-.19-14.57.58-2.95,1.3-5.55,2.17-7.94,2.05-5.4,5.03-13.46,5.61-15.03-.3-2.12-1.14-4.15-2.43-5.89-4.24-5.7-12.34-6.87-18.06-2.63-5.71,4.26-6.88,12.36-2.63,18.06,3.6,4.84,9.96,6.55,15.51,4.11-5.59,5-13.11,2.99-17.37-2.72-5.03-6.73-3.63-16.3,3.09-21.32,6.74-5.04,16.32-3.63,21.33,3.09,1.59,2.14,2.6,4.66,2.91,7.28-.06.55-3.5,9.85-5.77,15.84-.83,2.27-1.5,4.75-2.07,7.58-.78,3.96-1.48,9.04.1,13.31,1.44,3.9,5.2,5.78,8.84,7.61,3.94,1.96,8.38,3.54,13.98,4.96.82.2,1.66.43,2.5.66,6.55,1.76,13.34,3.57,18.63-1.36,5-4.63,6.81-11.88,8.57-18.89.39-1.56.77-3.09,1.18-4.56,1.3-4.66,8.32-36.42,8.39-36.73,1.99,1.81-4.82,32.63-6.15,37.37-.41,1.44-.78,2.95-1.17,4.49-1.76,7-3.74,14.93-9.24,20.04-3.09,2.87-6.54,3.81-10.07,3.81Z" fill="#1b1b1b" stroke-width="0"/><path d="m460.55,478.88c-1.19-1.14-2.18-5.34-8.54-5.34-.84,0-1.36-.51-1.37-1.15-.01-.72.64-1.16,1.37-1.18,8.35,0,9.67,6.22,9.68,6.28-.99,1.38-1.07,1.39-1.14,1.39Z" fill="#1b1b1b" stroke-width="0"/><path d="m423.13,470.11c7.89-8.84,13.92-2.69,13.98-2.63-1.88,1.43-6.35-3.05-13.26,2.38-.22.17-.47.25-.72.25Z" fill="#1b1b1b" stroke-width="0"/><path d="m460.22,483.05c-.53-2.22,12.23-11.14,13.92-24.18.93-7.16-1.62-14.3-7.58-21.22-6.43-7.48-13.62-11.55-21.38-12.09-12.22-.91-21.77,7.4-21.87,7.49-1.91-.33-10.72-7.98-27.44-1.5-16.5,6.37-9.22,35.91-9.14,36.21-2.58-.73-10.12-31.28,8.3-38.38,15.45-5.97,24.8-.63,27.49,1.31,2.59-2.04,11.53-8.2,22.81-7.45,8.4.58,16.14,4.92,22.99,12.9,6.41,7.45,9.13,15.2,8.11,23.05-1.83,14.09-15.01,23.28-15.57,23.67-.2.13-.43.2-.66.2Z" fill="#1b1b1b" stroke-width="0"/><path d="m426.13,516.87c-3.94,0-7.65-1.75-10.24-4.87-2.59-3.12-3.53-7.53-2.5-11.82.68-2.88,2.12-5.04,3.84-5.79,1.62-.72,3.23-.59,4.57.34,1.65,1.16,2.58,3.4,2.42,5.87-.21,3.15.02,3.42.53,4.03.5.6.73.88,3.86,1.25,2.46.29,4.5,1.61,5.34,3.45.68,1.47.5,3.09-.48,4.55-1.14,1.67-3.68,2.82-6.65,2.96-.23,0-.45.01-.68.01Zm-6.83-20.6c-1.97.62-3.07,2.06-3.64,4.45-.85,3.57-.1,7.24,2.02,9.79,3.21,3.86,7.29,4.1,9,4.01,2.52-.13,4.27-1.1,4.84-1.94.53-.79.64-1.55.31-2.28-.5-1.08-1.86-1.91-3.49-2.1-3.54-.42-4.36-.84-5.38-2.08-.96-1.15-1.3-1.95-1.06-5.67.1-1.64-.46-3.13-1.43-3.81-.36-.26-.75-.38-1.17-.38Z" fill="#1b1b1b" stroke-width="0"/><path d="m417.91,513.6c5.21-8.44-2.26-15.65-2.58-15.95,4.9,1.42,9.54,9.05,3.43,15.59-.23.25-.54.37-.85.37Z" fill="#1b1b1b" stroke-width="0"/><path d="m386.73,487.34c-.25-2.31,10.09-4.58,10.09-4.58l-6.41-10.87c2.01-1.18,9.23,11.06,9.23,11.06-.76,1.74-12.67,4.36-12.67,4.36-.08.01-.17.02-.25.02Z" fill="#1b1b1b" stroke-width="0"/><path d="m426.39,441.96c-1.06-.67-4.91-8.94-4.91-8.94,2.12-.99,5.97,7.28,5.97,7.28-.73,1.63-.89,1.66-1.06,1.66Z" fill="#1b1b1b" stroke-width="0"/><path d="m430.12,498.84c-3.02-3.62-8.85-5.71-13.11-7.25-1.76-.63-3.27-1.18-4.22-1.7-3.39-1.85-2.18-14.68-1.5-20.11,13.3-9,17.41-23.12,17.45-23.26,2.26-.01,12.19,19.17,36.68,19.17-20.81,2.33-31.71-10.81-35.27-16.14-1.76,4.53-6.53,14.4-16.62,21.06-1.01,8.52-.86,16.5.37,17.24.79.43,2.23.95,3.9,1.55,4.57,1.64,10.83,3.89,13.3,7.64-.53,1.74-.76,1.8-.97,1.8Z" fill="#1b1b1b" stroke-width="0"/><path d="m454.17,508.01c-3.66-3.32-8.66-3.27-8.72-3.28-.63.08-1.17-.5-1.18-1.15,1.47-1.16,7.27-1.19,10.73,2.46-.26,1.86-.56,1.97-.84,1.97Z" fill="#1b1b1b" stroke-width="0"/><path d="m554.72,709.11c-.9-.43-16.14-19.08-16.14-19.08-2.19-6.26-2.14-12.52-.09-18.46l45.46-131.27c4.14-11.96,15.77-20,28.92-20h191.67c3.35,0,6.65.51,9.79,1.52.32.17,17.84,12.79,17.84,12.79-1.37,1.89-18.73-10.62-18.73-10.62-2.86-.9-5.86-1.36-8.9-1.36h-191.67c-12.16,0-22.89,7.41-26.71,18.44l-45.46,131.28c-1.86,5.38-1.92,11.05-.18,16.39l15.11,18.49c-.38,1.82-.64,1.9-.9,1.9Z" fill="#1b1b1b" stroke-width="0"/><path d="m767.7,717.9h-191.67c-10.08,0-19.48-4.76-25.17-12.75-5.39-7.59-6.76-16.93-3.74-25.66l45.46-131.28c4.14-11.96,15.76-20,28.91-20h191.66c10.08,0,19.49,4.77,25.17,12.75,5.4,7.58,6.76,16.93,3.75,25.65l-45.46,131.28c-4.14,11.96-15.76,20-28.91,20Zm-146.21-187.35c-12.16,0-22.89,7.41-26.71,18.43l-45.46,131.28c-2.77,8-1.52,16.58,3.44,23.54,5.25,7.37,13.94,11.77,23.27,11.77h191.67c12.16,0,22.89-7.41,26.7-18.44l45.46-131.28c2.77-8,1.52-16.57-3.43-23.53-5.25-7.37-13.95-11.77-23.28-11.77h-191.66Z" fill="#1b1b1b" stroke-width="0"/><path d="m978.94,646.78h-165.46c0-2.33,165.46-2.33,165.46-2.33,1.17,1.81.65,2.33,0,2.33Z" fill="#1b1b1b" stroke-width="0"/><path d="m188.07,646.78H0c0-2.33,188.07-2.33,188.07-2.33,1.16,1.81.64,2.33,0,2.33Z" fill="#1b1b1b" stroke-width="0"/><path d="m416.11,646.78h-20.41c0-2.33,20.41-2.33,20.41-2.33,1.17,1.81.65,2.33,0,2.33Z" fill="#1b1b1b" stroke-width="0"/><circle cx="5.34" cy="496.41" r="5.08" fill="#1b1b1b" stroke-width="0"/><path d="m44.79,501.75c2.95,0,5.34-2.39,5.34-5.34s-2.39-5.34-5.34-5.34-5.34,2.39-5.34,5.34,2.39,5.34,5.34,5.34Z" fill="#1b1b1b" stroke-width="0"/><path d="m84.25,501.36c2.73,0,4.94-2.21,4.94-4.94s-2.21-4.95-4.94-4.95-4.95,2.22-4.95,4.95,2.22,4.94,4.95,4.94Z" fill="#1b1b1b" stroke-width="0"/><path d="m5.34,541.2c2.95,0,5.34-2.39,5.34-5.34s-2.39-5.34-5.34-5.34-5.34,2.39-5.34,5.34,2.39,5.34,5.34,5.34Z" fill="#1b1b1b" stroke-width="0"/><path d="m44.79,541.47c3.09,0,5.6-2.51,5.6-5.6s-2.51-5.6-5.6-5.6-5.6,2.51-5.6,5.6,2.51,5.6,5.6,5.6Z" fill="#1b1b1b" stroke-width="0"/><path d="m84.25,541.07c2.87,0,5.21-2.33,5.21-5.21s-2.33-5.21-5.21-5.21-5.21,2.33-5.21,5.21,2.33,5.21,5.21,5.21Z" fill="#1b1b1b" stroke-width="0"/><path d="m5.34,580.26c2.73,0,4.94-2.21,4.94-4.94s-2.21-4.95-4.94-4.95-4.95,2.21-4.95,4.95,2.22,4.94,4.95,4.94Z" fill="#1b1b1b" stroke-width="0"/><path d="m44.79,580.53c2.87,0,5.21-2.33,5.21-5.21s-2.33-5.21-5.21-5.21-5.21,2.33-5.21,5.21,2.33,5.21,5.21,5.21Z" fill="#1b1b1b" stroke-width="0"/><path d="m84.25,580.17c2.68,0,4.85-2.17,4.85-4.86s-2.17-4.86-4.85-4.86-4.86,2.18-4.86,4.86,2.18,4.86,4.86,4.86Z" fill="#1b1b1b" stroke-width="0"/><path d="m888.92,207.51c-.71-.04-1.2-.6-1.17-1.23,0-.02.09-1.49.09-4.1,0-.78,0-1.66-.03-2.63,2.35.94,2.36,1.83,2.36,2.63,0,2.72-.09,4.23-.09,4.23-.04.63-.55,1.1-1.17,1.1Zm-.83-20.24c-1.64-5.44-2.31-9.88-3.14-14.23,3.14,3.97,3.81,8.47,4.29,12.94-1.07,1.29-1.12,1.29-1.15,1.29Zm-5.08-26.35c-2.34-5.17-3.76-9.41-5.32-13.48,3.77,3.3,5.21,7.61,6.44,12-.91,1.46-1.01,1.48-1.12,1.48Zm-271.85-18.45c-.81-2.02,2.19-6.01,7.97-12.14-3.98,7.62-7,11.64-7.03,11.68-.23.31-.58.46-.93.46Zm262.16-6.55c-3.04-4.6-5.28-8.46-7.69-12.13,4.41,2.46,6.68,6.41,8.73,10.44-.67,1.65-.85,1.69-1.04,1.69Zm-243.81-13.08c2.48-5.06,5.91-8.05,9.38-10.89-1.96,4.61-5.35,7.57-8.59,10.58-.23.2-.51.31-.8.31Zm229.11-9.27c-3.71-3.79-6.79-7.01-10.02-10.01,4.89,1.35,8.03,4.65,10.92,8.09-.36,1.83-.63,1.92-.9,1.92Zm-208.33-7.72c3-4.76,6.78-7.28,10.54-9.63-2.48,4.3-6.21,6.79-9.85,9.41-.21.15-.44.22-.68.22Zm188.73-10.46c-4.22-2.77-7.99-5.15-11.88-7.29,5.1.14,8.94,2.58,12.56,5.18.04,1.95-.32,2.11-.68,2.11Zm-165.96-3.72c3.47-4.33,7.56-6.32,11.58-8.11-3.03,3.89-7.05,5.86-11.03,7.97-.17.09-.36.14-.55.14Zm142.58-9.22c-4.43-1.73-8.64-3.22-12.96-4.51,5.07-.91,9.35.6,13.41,2.28.45,1.97.01,2.24-.44,2.24Zm-118.08-1.65c3.89-3.79,8.22-5.16,12.5-6.31-3.6,3.39-7.88,4.73-12.1,6.24-.13.04-.26.07-.39.07Z" fill="#1b1b1b" stroke-width="0"/><path d="m439.48,504.72c5.02-4.29,4.7-5.24,3.39-9.25-.22-.67-.46-1.38-.68-2.17-1.69-5.84,1.06-16.09,1.17-16.53,2.22.71-.44,10.67,1.07,15.88.22.75.45,1.45.66,2.09,1.49,4.53,1.98,7.22-5.18,9.91-.14.05-.28.07-.41.07Z" fill="#1b1b1b" stroke-width="0"/><path d="m698.49,642c-1.95,0-3.82-.46-5.49-1.42-7.19-4.15-8.05-16.2-1.9-26.86,2.93-5.08,7.02-9.12,11.49-11.37,4.65-2.33,9.15-2.47,12.73-.41,3.57,2.06,5.7,6.04,6,11.22.29,4.99-1.17,10.55-4.1,15.64-4.73,8.18-12.24,13.19-18.73,13.19Zm-5.38-27.11c-5.5,9.54-5.02,20.15,1.06,23.67,6.08,3.5,15.53-1.4,21.03-10.93,2.7-4.69,4.06-9.78,3.79-14.34-.26-4.37-1.98-7.68-4.84-9.34-2.85-1.64-6.59-1.49-10.51.48-4.08,2.04-7.81,5.75-10.53,10.45Z" fill="#1b1b1b" stroke-width="0"/><path d="m164.09,326.62c-1.18-1.11-2.32-6.08-3.11-14.32,3.09,7.85,4.24,12.85,4.24,12.89-.96,1.42-1.05,1.43-1.14,1.43Zm-2.66-26.66c-1.16-1.15-1.18-3.11-1.18-3.11,0-3.87.14-7.76.41-11.55,2.06,3.9,1.92,7.73,1.92,11.55v1.93q-1.14,1.18-1.15,1.18Zm1.95-26.73c-.82-.12-1.25-.71-1.15-1.35.74-4.49,1.68-8.94,2.82-13.23,1.13,4.81.2,9.19-.52,13.61-.09.57-.58.98-1.15.98Zm6.91-25.87c.55-5.86,2.42-10.02,4.46-13.93.06,4.92-1.76,8.99-3.37,13.18-.18.46-.63.75-1.09.75Zm12.39-23.73c1.58-5.53,4.38-9.13,7.35-12.52-1.15,4.85-3.9,8.37-6.39,12.01-.22.33-.59.5-.96.5Zm17.68-20.08c.8-3.44,2.44-4.84,4.14-6.19,1.88-1.5,3.76-2.93,5.66-4.28-.5,3.23-2.36,4.63-4.21,6.11-1.67,1.33-3.27,2.69-4.82,4.07-.22.2-.5.29-.77.29Zm21.72-15.65c3.32-4.44,7.37-6.51,11.46-8.33-3.06,3.92-7.04,5.95-10.88,8.18-.19.1-.38.16-.58.16Zm116.62-8.2c-3.06-1.07-7.41-2.58-13.09-4.09,6.38-.72,10.8.82,13.5,1.84.5,1.96.06,2.25-.41,2.25Zm-92.18-2.72c3.92-3.67,8.31-4.84,12.71-5.78-3.83,3.2-8.16,4.36-12.36,5.73-.12.04-.24.06-.36.06Zm66.28-4.19c-4.55-.77-9-1.34-13.4-1.69,4.66-1.95,9.18-1.38,13.59-.62.85,1.92.36,2.31-.2,2.31Zm-40.09-1.4c4.36-2.81,8.89-3.07,13.37-3.11-4.38,2.36-8.84,2.63-13.24,3.1-.05,0-.09,0-.13,0Z" fill="#1b1b1b" stroke-width="0"/><path d="m771.58,521.33c-1.16-1.17-1.16-50.12-1.16-50.12,2.33,0,2.33,48.96,2.33,48.96,0,.65-.52,1.17-1.17,1.17Z" fill="#1b1b1b" stroke-width="0"/><path d="m709.6,483.98c-1.16-1.16-1.16-12.77-1.16-12.77,2.33,0,2.33,11.61,2.33,11.61,0,.64-.52,1.16-1.17,1.16Z" fill="#1b1b1b" stroke-width="0"/><path d="m709.6,488.6c-1.16-1.16-1.16-5.79-1.16-5.79,2.33,0,2.33,4.63,2.33,4.63,0,.64-.52,1.16-1.17,1.16Z" fill="#1b1b1b" stroke-width="0"/><path d="m740.6,477.98c-1.31,0-32.16-.07-32.16-6.32s30.85-6.31,32.16-6.31,32.15.07,32.15,6.31-30.84,6.32-32.15,6.32Zm-29.8-6.32c1.07,1.48,11.59,3.99,29.8,3.99s29.13-2.61,29.84-4.08c-.71-1.28-11.27-3.9-29.84-3.9s-28.72,2.51-29.8,3.99Z" fill="#1b1b1b" stroke-width="0"/><path d="m745,505.5c.03-2.41.38-3.03.62-4.04.92-3.75.49-9.98-4.41-11.78-1.94-.72-4.21-.48-6.39-.26-5.6.57-11.01.74-16.34.52-3.99-.16-7.31-.29-10.38-1.41,3.53-1.2,6.66-1.07,9.7-.95,6.01.24,11.3.09,16.48-.44,2.77-.29,5.3-.56,7.74.34,5.68,2.09,7.25,8.88,5.88,14.52-.17.68-.67,2.77-2.5,3.43-.13.04-.26.07-.39.07Z" fill="#1b1b1b" stroke-width="0"/><path d="m746.44,522.24c2.58-6.06,3.26-9.77,2.28-12.95-.49-1.55-1.37-2.78-2.41-3.37-.81-.45-1.17-.35-2.27.06-2.73.94-5.29,1.49-8.51,1.88-8.99,1.07-17.77.77-28.47-.93-.87-1.97-.27-2.47.36-2.3,10.51,1.68,19.1,1.96,27.83.91,3.05-.37,5.47-.88,7.6-1.62,1.61-.58,2.85-1.01,4.6-.03,2.13,1.19,3.1,3.46,3.49,4.7,1.21,3.9.38,8.4-2.15,11.77-.47.62-1.03,1.18-1.66,1.65-.21.16-.45.23-.7.23Z" fill="#1b1b1b" stroke-width="0"/><path d="m703.51,482.41c-.77-.13-54.41-11.1-101.08-.67-.68.18-1.25-.26-1.39-.88,48.07-11.95,102.17-.85,102.71-.75.79,1.93.3,2.31-.24,2.31Z" fill="#1b1b1b" stroke-width="0"/><path d="m690.4,521.33c-1.16-20.61,3.38-34.89,11.3-40.35,2.38-1.65,7.32-3.33,7.53-3.4.7,2.22-4.09,3.86-6.2,5.32-7.29,5.02-11.46,18.6-11.46,37.27,0,.65-.52,1.17-1.17,1.17Z" fill="#1b1b1b" stroke-width="0"/><path d="m802.95,522.61c-22.94-80.05-14.92-121.68-14.83-122.09,2.2.87-5.69,42.04,15.96,120.62-.93,1.46-1.02,1.47-1.13,1.47Z" fill="#1b1b1b" stroke-width="0"/><path d="m734.22,276.47c-.93-.15-1.55.25-1.82,3.6-.3,3.74.67,4.4,1.51,4.36.84-.03,1.68-1.19,1.64-3.86-.04-2.67-.11-3.92-1.32-4.11Z" fill="#1b1b1b" stroke-width="0"/><path d="m706.99,276.77c-.94-.12-1.55.29-1.73,3.65-.2,3.74.79,4.38,1.62,4.32s1.65-1.23,1.54-3.9c-.11-2.67-.21-3.91-1.43-4.07Z" fill="#1b1b1b" stroke-width="0"/><path d="m760.97,337.41c-1.17-1.1-2.85-34.66-2.85-34.66,2.33-.12,4.02,33.44,4.02,33.44-1.13,1.22-1.14,1.22-1.17,1.22Z" fill="#1b1b1b" stroke-width="0"/><path d="m718.89,331.17c-6.23,0-12.72-.74-16.74-6.87-4.11-6.27-4.14-14.45-4.16-21.65,0-1.59-.01-3.15-.06-4.65-.15-4.92.62-36.47.66-37.81.01-.64.46-1.23,1.2-1.14,1.13,1.52.32,34.02.47,38.87.05,1.52.05,3.1.06,4.72.02,7.22.05,14.69,3.78,20.38,3.98,6.05,11.04,5.87,17.77,5.78.87-.02,1.74-.04,2.59-.04,5.75-.03,10.45-.49,14.76-1.45-3.98,3.28-8.82,3.76-14.75,3.78-.84,0-1.7.03-2.56.04-.99.02-2,.04-3.02.04Z" fill="#1b1b1b" stroke-width="0"/><path d="m765.14,305.16c-3.26,0-6.52-1.05-9.27-3.16,6.18,1.82,12.79,1.7,17.47-2.12,5.49-4.52,6.29-12.67,1.77-18.17-4.51-5.48-12.66-6.29-18.16-1.77-1.75,1.43-3.09,3.3-3.88,5.39-1.24-3.3.35-5.5,2.41-7.19,6.46-5.31,16.09-4.39,21.44,2.1,5.33,6.49,4.39,16.11-2.09,21.45-2.83,2.31-6.25,3.48-9.68,3.48Z" fill="#1b1b1b" stroke-width="0"/><path d="m699.96,272.49c-1.03-1.71,1.79-7.54,10.05-5.38.67,2.05.03,2.46-.59,2.25-6.44-1.69-8.39,2.42-8.41,2.46-.2.43-.63.67-1.06.67Z" fill="#1b1b1b" stroke-width="0"/><path d="m740.12,273.14c-6.32-7.37-11.74-4.1-11.97-3.96-1.18-2.01,6.14-6.56,12.88,2.08-.41,1.8-.66,1.88-.91,1.88Z" fill="#1b1b1b" stroke-width="0"/><path d="m715.84,337.19c-1.16-1.16-1.16-7.25-1.16-7.25,2.33,0,2.33,6.09,2.33,6.09,0,.64-.52,1.16-1.17,1.16Z" fill="#1b1b1b" stroke-width="0"/><path d="m775.16,280.36c-.46-2.25,3.1-4.72,5.22-23.43,1.31-11.62-5.68-18.17-10.71-19.74-9.61-2.99-21.87-1.64-21.99-1.63-7.77-13.68-16.31-18.53-22.32-20.28-6.74-1.98-13.84-1.11-19.93,2.5-6.38,3.75-10.32,8.53-11.74,14.18-2.27,9.09,2.81,17.54,2.86,17.62-3.11.92-4.4,3.24-4.75,3.96-2.58,5.16-1.79,15.37,8.04,20.9-12.3-4.24-13.1-15.99-10.13-21.95,1-2.01,2.37-3.26,3.84-3.62-1.51-3.21-3.98-10.04-2.14-17.46,1.57-6.3,5.88-11.57,12.82-15.65,6.66-3.92,14.4-4.9,21.78-2.73,6.33,1.85,15.26,6.86,22.19,20.12,2.95-.26,13.4-.92,22.14,1.8,7.12,2.22,13.64,10.56,12.33,22.22-2.28,20.23-6.32,22.79-7.1,23.1-.14.06-.28.08-.43.08Z" fill="#1b1b1b" stroke-width="0"/><path d="m719.22,301.04c-.77,0-7.54-.07-9.82-2.51-.61-.65-.89-1.43-.84-2.26.08-1.26.74-3,1.58-5.19,1.8-4.75,4.27-11.26,2.75-17.44,3.96,6.32,1.23,13.51-.57,18.26-.74,1.93-1.37,3.6-1.43,4.51,1.36,1.74,5.65,2.29,8.34,2.29,1.16,1.81.64,2.33,0,2.33Z" fill="#1b1b1b" stroke-width="0"/><path d="m769.6,298.39c-.52-.12-11.45-5.52-11.45-5.52-.31-1.86,9.62-12.02,9.62-12.02,1.67,1.64-7.15,10.65-7.15,10.65l9.49,4.7c.32,1.97-.09,2.21-.52,2.21Z" fill="#1b1b1b" stroke-width="0"/><path d="m743.7,243.58c-1.05-1.67,2.79-9.68,2.79-9.68,2.1,1.01-1.74,9.02-1.74,9.02-.2.42-.62.66-1.05.66Z" fill="#1b1b1b" stroke-width="0"/><path d="m855.37,642.06c-1.04-.6-13.03-16.08-27.18-41.3,14.7,21.45,25.62,36.15,27.73,38.93,21.49-1.37,47.47-20.68,51.74-23.96-4.22-15.09-8.39-30.18-12.53-45.28-13.01-47.39-23.97-89.93-33.53-130.06-.91-3.81-1.72-7.71-2.53-11.64-3.14-15.1-6.38-30.72-15.72-42.96-14.98-19.63-43.16-33.9-68.54-34.71,26.11-1.49,55.02,13.15,70.39,33.3,9.66,12.66,12.97,28.54,16.16,43.9.81,3.9,1.61,7.79,2.51,11.57,9.55,40.1,20.51,82.62,33.51,129.98,4.21,15.36,8.45,30.69,12.73,46.03-1.61,2.2-30.44,25.03-54.68,26.2h-.06Z" fill="#1b1b1b" stroke-width="0"/><path d="m585.05,541.83c-27.05-22.31-13.55-56.13,1.15-83.14,2.12-3.9,4.46-9.07,7.18-15.05,15.42-34.01,44.13-97.31,114.72-97.31-69.08,2.33-96.32,62.39-112.6,98.27-2.72,6.02-5.09,11.23-7.25,15.2-14.28,26.23-27.45,59.02-2.44,79.98-.09,1.92-.42,2.06-.75,2.06Z" fill="#1b1b1b" stroke-width="0"/><path d="m754.47,281.91c-11.44-4.36-14.53-23.77-15.29-30.71-4.89,4.31-19.36,14.9-39.7,10.14,24.36,3.29,39.62-13.26,39.77-13.42,2.04.97,3.83,27.16,15.63,31.75.49,1.98.04,2.25-.42,2.25Z" fill="#1b1b1b" stroke-width="0"/><path d="m832.39,645c-.71-.04-1.2-.6-1.17-1.23,1.25-20.9,1.68-29.45,1.81-32.89-.03-2.66-.05-3.57,1.28-3.55.48.04.8.06.93,1.47.2,3.69-.31,12.2-1.68,35.11-.04.62-.55,1.09-1.16,1.09Z" fill="#1b1b1b" stroke-width="0"/><path d="m747.3,411.16c-1-.56-21.57-34.98-21.57-34.98l-18.31,25.43c-2.11-.68-2.11-51.7-2.11-51.7.2-.66,9.58-14.53,9.58-14.53,2.09.36,11.53,36.34,11.53,36.34l34.27-36.87c.45-.47,1.27-.47,1.71,0l13.31,14.27c.2,1.28-27.34,61.37-27.34,61.37-1.01.68-1.04.68-1.06.68Zm-20.03-36.94l19.9,33.28,26.3-57.36-11.93-12.78-34.27,36.86Zm-19.63-23.94v47.05l16.91-23.49-9.17-35.02-7.74,11.45Z" fill="#1b1b1b" stroke-width="0"/><path d="m722.21,468.68c-.88-.17-1.28-.79-1.14-1.41,6.73-30.69,20.76-64.5,20.9-64.84,2.01,1.24-11.95,34.86-18.62,65.33-.12.55-.61.92-1.14.92Z" fill="#1b1b1b" stroke-width="0"/><path d="m703.51,482.41c-3.35-49.52,3.38-83.64,3.45-83.99,2.22.8-4.45,34.66-2.28,82.77-1.13,1.21-1.15,1.21-1.17,1.21Z" fill="#1b1b1b" stroke-width="0"/><path d="m727.9,411.16c-.11,0-13.38-1.26-13.38-1.26-1.05-1.07-2.44-18.29-2.44-18.29,2.33-.18,3.63,16.06,3.63,16.06l11.63,1.11,10.21-14.16c1.89,1.37-8.71,16.07-8.71,16.07-.22.3-.57.48-.95.48Z" fill="#1b1b1b" stroke-width="0"/><path d="m730.08,439.71c-1.17-1.07-3.34-29.62-3.34-29.62,2.33-.18,4.5,28.37,4.5,28.37-1.1,1.25-1.13,1.25-1.16,1.25Z" fill="#1b1b1b" stroke-width="0"/><path d="m705.18,428.88c-1.04-1.68,8.42-20.67,8.42-20.67,2.09,1.04-7.38,20.02-7.38,20.02-.2.41-.61.65-1.04.65Z" fill="#1b1b1b" stroke-width="0"/><path d="m652.84,475.98c-1.16-47.99,16.56-85.45,16.74-85.82,1.92,1.37-15.57,38.38-15.57,84.66,0,.64-.52,1.16-1.17,1.16Z" fill="#1b1b1b" stroke-width="0"/><path d="m726.03,313.42c-1.22,0-2.56-.24-4.03-.74,3.49-1.29,5.58-1.41,6.96-2.55,2.56-2.11,2.48-7.49,2.23-9.38,2.36.03,3.32,7.83-.75,11.18-1.2.98-2.67,1.48-4.41,1.48Z" fill="#1b1b1b" stroke-width="0"/><path d="m648.91,492.07l-33.86-21.72-81.2-.26s-7.99-1.67-12.85-7.46c-4.85-5.79-4.58-14.84-4.58-14.84v-42.1s2.36-6.92,6.59-10.01c4.23-3.08,8.71-5.59,14.06-5.59h94.78s7.93,2.45,12.91,8.32c4.98,5.87,4.14,19.12,4.14,19.12v74.53Z" fill="#5983c2" stroke-width="0"/><path d="m240.07,370.32c0,43.33-35.13,78.46-78.46,78.46s-78.46-35.13-78.46-78.46,35.13-78.46,78.46-78.46,78.46,35.13,78.46,78.46Z" fill="#5983c2" stroke-width="0"/><path d="m103.18,353.25c2.75-.76,5.27-1.46,7.79-2.15,1.41-.39,2.82-.77,4.23-1.17,5.75,6.8,11.52,12.29,17.81,17.28,2.01,1.59,4.14,1.94,6.53,1.36,2.42-.59,4.59-1.73,6.68-3.05,5.12-3.24,9.59-7.29,13.89-11.52,7.86-7.73,15.02-16.08,21.81-24.74.4-.51.73-.65,1.38-.47,4.22,1.21,8.45,2.36,12.68,3.54-7.86,14.79-16.81,28.27-27.19,40.76-5.24,6.3-10.79,12.32-17.45,17.18-2.13,1.55-4.43,2.91-6.77,4.14-5.09,2.66-10.27,2.58-15.48.22-5.12-2.33-9.12-5.98-12.48-10.4-4.84-6.36-8.08-13.54-10.56-21.09-1.06-3.22-1.9-6.51-2.87-9.88Z" fill="#fff" stroke-width="0"/><path d="m140.08,392.3c-2.61,0-5.26-.61-7.96-1.84-4.8-2.18-8.97-5.64-12.73-10.59-4.4-5.78-7.79-12.54-10.66-21.28-.72-2.21-1.33-4.4-1.98-6.72-.3-1.05-.59-2.12-.9-3.18.46-.82,9.34-3.28,9.34-3.28,1.04-.28,2.09-.57,3.14-.87.71-.19,1.24-.02,1.68.57,4.28,5.81,9.75,11.31,16.72,16.82,1.77,1.4,3.66,1.79,5.97,1.23,2.01-.49,4.01-1.41,6.48-2.96,5.35-3.38,9.96-7.68,13.78-11.43,7.04-6.92,14.16-15,21.75-24.69.58-.74,1.21-.93,2.08-.69,3.14.9,6.29,1.77,9.44,2.64l3.24.89c-8.49,17.5-17.53,30.59-26.86,41.82-4.68,5.62-10.42,12.08-17.56,17.29-1.96,1.42-4.2,2.8-6.85,4.19-2.63,1.38-5.34,2.07-8.1,2.07Zm-32.77-43.35c.24.86.48,1.71.72,2.55.64,2.31,1.25,4.48,1.96,6.67,2.83,8.59,6.15,15.23,10.46,20.9,3.63,4.77,7.63,8.1,12.22,10.19,5.16,2.33,10.17,2.27,14.9-.2,2.6-1.36,4.79-2.71,6.69-4.09,7.02-5.13,12.7-11.51,17.33-17.07,9.26-11.14,18.24-24.13,27.43-39.72l-3.15-.87c-3.15-.87-6.31-1.75-9.45-2.64-8.3,9.96-15.45,18.08-22.54,25.04-3.86,3.81-8.55,8.16-14,11.61-2.59,1.64-4.71,2.61-6.88,3.14-2.69.65-5.01.17-7.1-1.49-7.06-5.59-12.6-11.17-16.96-17.07-1.3.21-2.35.5-3.4.78l-8.24,2.27Z" fill="#1b1b1b" stroke-width="0"/><path d="m153.22,436.92c-43.62,0-79.12-35.49-79.12-79.12s35.49-79.11,79.12-79.11c40.12,0,73.9,30,78.58,69.78-5.91-38.96-39.13-68.46-78.58-68.46-42.89,0-77.79,34.9-77.79,77.79s34.9,77.8,77.79,77.8c11.23,0,22.06-2.34,32.18-6.95-9.75,5.89-20.76,8.27-32.18,8.27Z" fill="#1b1b1b" stroke-width="0"/><path d="m753.62,101.44v11.04s1.31,5.67,4.95,6.3c3.64.62,7.55.29,7.55.29,0,0,4.82-1.82,5.57-5.26.75-3.44.45-12.42.45-12.42l-18.51-.24v.28Z" fill="#5983c2" stroke-width="0"/><path d="m762.56,117.05h-3.55c-4.36,0-7.9-3.54-7.9-7.9v-9.71c0-.2,0-.39.02-.58,6.42,1.47,12.89,1.48,18.69-.39.64.97.64,10.68.64,10.68,0,4.35-3.54,7.9-7.9,7.9Zm-10.51-17.52v9.62c0,3.83,3.12,6.95,6.96,6.95h3.55c3.84,0,6.96-3.12,6.96-6.95v-9.6c-5.63,1.68-11.83,1.67-17.47-.02Z" fill="#1b1b1b" stroke-width="0"/><path d="m760.82,100.81c-3.2,0-6.35-.49-9.36-1.46-12.66-4.07-21.16-15.75-21.16-29.05,0-16.83,13.69-30.52,30.52-30.52s30.52,13.69,30.52,30.52c0,13.34-8.53,25.02-21.22,29.07-2.99.96-6.11,1.44-9.3,1.44Zm0-60.09c-16.31,0-29.58,13.27-29.58,29.57,0,12.9,8.24,24.21,20.51,28.15,5.81,1.88,12.27,1.88,18.08.02,12.3-3.93,20.57-15.25,20.57-28.17,0-16.31-13.27-29.57-29.57-29.57Z" fill="#1b1b1b" stroke-width="0"/><path d="m771.83,108.69h-22.02c-.26,0-.47-.21-.47-.47s.21-.47.47-.47h22.02c.26,0,.47.21.47.47s-.21.47-.47.47Z" fill="#1b1b1b" stroke-width="0"/><path d="m771.83,114.22h-22.02c-.26,0-.47-.21-.47-.47s.21-.47.47-.47h22.02c.26,0,.47.21.47.47s-.21.47-.47.47Z" fill="#1b1b1b" stroke-width="0"/><path d="m771.83,103.16h-22.02c-.26,0-.47-.21-.47-.47s.21-.47.47-.47h22.02c.26,0,.47.21.47.47s-.21.47-.47.47Z" fill="#1b1b1b" stroke-width="0"/><path d="m771.83,108.69h-22.02c-.26,0-.47-.21-.47-.47s.21-.47.47-.47h22.02c.26,0,.47.21.47.47s-.21.47-.47.47Z" fill="#1b1b1b" stroke-width="0"/><path d="m742.73,83.22c-.33,0-.64,0-.93-.02-.26-.01-.46-.23-.45-.49.01-.26.19-.46.49-.45,1.79.08,4.38,0,6.08-1.48.41-.36.76-.75,1.06-1.18-.77-.56-1.46-1.21-2.02-1.94-1.41-1.82-2.04-4.21-1.72-6.54.11-.8.83-3.95,2.44-4.83.52-.29,1.09-.3,1.64-.04,1.08.51,1.5,2.02,1.78,3.02.41,1.45.58,2.74.57,4.04,0,1.22-.19,3.77-1.4,6,3.03,1.87,7.3,2.73,10.88,2.73,4.85,0,8.48-2.95,10.41-6.03-2.08-1.16-3.25-2.74-3.46-4.39-.12-.95.07-1.98.54-2.99.36-.75,1-1.72,2.08-2.05.7-.21,1.34-.13,1.85.26,1.44,1.06,1.5,4,1.5,4.58,0,1.28-.41,2.74-1.15,4.18,3,1.23,6.65,1.35,10.17,1.35.26,0,.47.21.47.47s-.21.47-.47.47c-3.66,0-7.46-.13-10.63-1.47-2.1,3.44-6.13,6.55-11.31,6.55-3.5,0-8.05-.79-11.38-2.86-.34.49-.74.95-1.22,1.37-1.66,1.45-3.96,1.73-5.81,1.73Zm5.79-16.21c-1.41.66-2.2,3.05-2.36,4.23-.28,2.08.28,4.21,1.54,5.84.49.63,1.09,1.2,1.77,1.7,1.08-2.02,1.24-4.36,1.25-5.48,0-1.21-.15-2.41-.48-3.55-.3-1.06-.65-2.33-1.33-2.65-.14-.07-.26-.1-.39-.1Zm22.91.4c-1.19.31-1.67,1.05-1.94,1.63-.4.84-.56,1.69-.46,2.47.17,1.36,1.17,2.67,2.67,3.52,1.04-1.19,1.42-2.52,1.42-3.6,0-1.44-.34-3.25-1.11-3.82-.17-.13-.36-.19-.58-.19Z" fill="#1b1b1b" stroke-width="0"/><path d="m711.83,109.86c-.53-.38-.5-.67-.3-.84l22.27-18.12c.2-.17.5-.14.66.07.16.2.13.5-.07.66l-22.27,18.12c-.09.07-.19.11-.3.11Z" fill="#1b1b1b" stroke-width="0"/><path d="m730.77,50.07c-.29-.1-12.29-9.45-12.29-9.45-.2-.16-.24-.46-.08-.66.16-.21.46-.24.66-.08l12,9.35c.21.16.24.46.08.66-.09.12-.23.18-.37.18Z" fill="#1b1b1b" stroke-width="0"/><path d="m804.87,101.37c-.29-.1-12.29-9.45-12.29-9.45-.2-.16-.24-.46-.08-.66.16-.21.46-.24.66-.08l12,9.35c.21.16.24.46.08.66-.09.12-.23.18-.37.18Z" fill="#1b1b1b" stroke-width="0"/><path d="m762.44,32.76c-.26,0-.47-1.31-.47-2.93V2.93c0-1.62.21-2.93.47-2.93s.47,1.31.47,2.93v26.91c0,1.62-.21,2.93-.47,2.93Z" fill="#1b1b1b" stroke-width="0"/><path d="m791.05,53.15c-.53-.55-.41-.82-.17-.91l28.49-10.84c.24-.1.52.03.61.27.09.24-.03.52-.27.61l-28.49,10.84c-.05.02-.11.03-.17.03Z" fill="#1b1b1b" stroke-width="0"/><path d="m578.8,419.49c0-.39-.14-.56-.5-.68-1.07-.37-2.13-.75-3.17-1.18-.25-.1-.49-.37-.6-.62-.44-1.01-.84-2.05-1.22-3.08-.08-.2-.09-.49,0-.69.52-1.15,1.08-2.27,1.59-3.42.08-.17.04-.51-.09-.64-.86-.92-1.77-1.8-2.64-2.7-.23-.24-.42-.26-.72-.12-1.09.54-2.18,1.06-3.29,1.56-.21.1-.53.11-.75.03-1.06-.38-2.11-.79-3.15-1.23-.24-.1-.5-.32-.59-.55-.43-1.07-.82-2.15-1.19-3.24-.12-.35-.26-.52-.67-.51-1.22.03-2.43.03-3.65,0-.4,0-.56.15-.68.5-.37,1.07-.78,2.12-1.14,3.19-.12.36-.32.53-.68.65-1,.35-2,.74-2.96,1.18-.36.16-.61.16-.94,0-1.07-.54-2.15-1.03-3.22-1.56-.32-.16-.52-.13-.77.13-.84.88-1.7,1.74-2.58,2.58-.3.28-.27.5-.11.83.53,1.07,1.05,2.14,1.53,3.24.1.22.08.56-.02.79-.44,1.04-.92,2.06-1.42,3.07-.12.25-.36.51-.61.61-1.13.43-2.29.82-3.44,1.19-.35.11-.51.27-.51.67.03,1.22.02,2.43,0,3.65,0,.36.11.52.45.64,1.18.38,2.35.77,3.5,1.21.25.09.48.38.6.63.47.98.85,2,1.34,2.96.2.39.21.68.02,1.06-.5,1.01-.96,2.04-1.47,3.05-.16.33-.16.55.13.82.88.84,1.74,1.7,2.58,2.58.28.29.5.28.82.12,1.05-.52,2.12-1,3.17-1.52.34-.17.59-.15.94.02,1.01.5,2.06.91,3.08,1.39.21.1.44.32.52.54.43,1.16.83,2.33,1.22,3.5.11.34.28.47.64.46,1.22-.02,2.43-.02,3.65,0,.39,0,.55-.13.67-.5.37-1.16.77-2.3,1.2-3.44.09-.24.34-.47.57-.58,1.04-.49,2.09-.94,3.16-1.37.22-.09.54-.11.74-.01,1.24.55,2.47,1.15,3.74,1.75,1-1.01,2-2,2.96-3.03.12-.13.14-.47.06-.65-.5-1.11-1.04-2.19-1.54-3.3-.09-.2-.12-.5-.05-.7.38-1.08.78-2.16,1.21-3.22.1-.24.33-.49.57-.58,1.07-.43,2.15-.82,3.24-1.2.34-.12.45-.29.45-.65-.02-1.22-.02-2.43,0-3.65Zm-18.8,8.93c-3.94,0-7.1-3.17-7.1-7.12,0-3.97,3.17-7.11,7.18-7.1,3.89,0,7.05,3.2,7.05,7.12,0,3.94-3.17,7.1-7.12,7.1Z" fill="#fff" stroke-width="0"/><path d="m564.79,443.04c-1.12-.03-2.31-.03-3.67,0-.47,0-.73-.18-.88-.63-.45-1.36-.84-2.47-1.22-3.49-.06-.15-.23-.33-.39-.41-.45-.21-.91-.41-1.36-.61-.57-.25-1.16-.5-1.72-.78-.29-.14-.47-.15-.73-.02-.53.27-1.07.52-1.61.78-.52.25-1.04.49-1.55.75-.33.16-.7.26-1.11-.17-.79-.84-1.63-1.68-2.57-2.57-.35-.33-.4-.66-.18-1.11.24-.48.47-.98.7-1.47.25-.53.5-1.06.76-1.59.15-.3.14-.52-.02-.85-.27-.54-.52-1.11-.75-1.66-.19-.44-.38-.88-.59-1.31-.11-.23-.31-.44-.47-.5-1.21-.46-2.45-.87-3.49-1.21-.44-.14-.63-.4-.62-.87.02-1.36.02-2.55,0-3.64-.01-.6.33-.8.67-.91,1.09-.36,2.26-.75,3.43-1.19.17-.07.38-.27.48-.49.5-1.01.98-2.03,1.42-3.06.08-.18.09-.45.02-.6-.52-1.2-1.09-2.35-1.52-3.23-.17-.34-.26-.71.16-1.11.81-.77,1.65-1.61,2.57-2.57.32-.34.63-.39,1.05-.18.51.26,1.03.5,1.55.75.56.27,1.12.53,1.67.81.27.14.44.14.73,0,.94-.43,1.95-.84,2.98-1.19.31-.11.44-.23.53-.5.19-.55.38-1.09.58-1.63.19-.52.38-1.04.56-1.56.11-.33.31-.66.88-.66,1.34.03,2.53.03,3.67,0,.59,0,.78.32.9.67.45,1.31.81,2.31,1.18,3.22.06.15.26.33.46.42,1,.42,2.05.84,3.13,1.23.16.05.41.04.57-.03,1-.45,2.07-.96,3.28-1.56.4-.2.7-.15,1,.17.37.39.76.77,1.13,1.16.51.51,1.01,1.02,1.5,1.55.2.22.24.66.13.9-.27.6-.55,1.19-.83,1.78-.26.55-.52,1.09-.77,1.64-.05.12-.05.35,0,.51.46,1.25.83,2.19,1.21,3.07.09.21.29.42.47.5,1.13.46,2.28.87,3.16,1.17.47.16.67.44.66.92-.02,1.14-.02,2.33,0,3.64,0,.47-.18.73-.61.88-1.27.44-2.3.82-3.22,1.19-.17.07-.36.27-.44.45-.41.99-.8,2.04-1.21,3.21-.05.14-.03.37.04.52.24.52.48,1.03.73,1.55.28.58.55,1.16.82,1.75.11.25.09.71-.1.91-.73.78-1.49,1.55-2.23,2.29l-.73.74c-.28.05-1.21-.39-1.21-.39-.95-.45-1.87-.89-2.81-1.31-.14-.06-.38-.05-.55.02-1.13.46-2.16.91-3.15,1.37-.19.09-.39.28-.45.44-.41,1.07-.8,2.19-1.19,3.43-.15.47-.4.67-.87.67Zm-1.79-.5c.62,0,1.21,0,1.77.02.24,0,.34-.05.43-.33.4-1.24.79-2.37,1.2-3.45.12-.32.44-.59.7-.71.99-.47,2.03-.91,3.17-1.38.24-.1.64-.14.93-.01.94.42,1.87.86,2.82,1.31l.78.37.61-.62c.74-.74,1.5-1.51,2.22-2.28.04-.05.06-.27.01-.38-.26-.59-.54-1.16-.81-1.74-.25-.52-.49-1.04-.73-1.56-.12-.27-.15-.62-.06-.88.41-1.18.81-2.24,1.22-3.23.12-.3.41-.6.7-.71.94-.38,1.97-.76,3.25-1.2.24-.08.29-.16.28-.42-.02-1.31-.02-2.51,0-3.66,0-.27-.06-.35-.34-.45-.88-.3-2.04-.72-3.19-1.18-.34-.14-.61-.48-.73-.75-.38-.89-.76-1.84-1.22-3.1-.09-.23-.12-.59,0-.87.25-.55.51-1.1.77-1.65.28-.59.56-1.17.82-1.77.04-.09,0-.32-.04-.37-.49-.52-.99-1.03-1.5-1.54-.38-.39-.76-.77-1.14-1.16-.15-.16-.22-.17-.43-.07-1.21.6-2.29,1.11-3.3,1.56-.28.12-.65.14-.93.04-1.09-.4-2.15-.81-3.16-1.24-.27-.12-.6-.37-.72-.68-.37-.93-.74-1.93-1.19-3.25-.1-.29-.19-.35-.43-.34-1.15.03-2.35.03-3.66,0-.28,0-.35.06-.45.34-.18.53-.37,1.05-.56,1.57-.2.54-.4,1.08-.58,1.62-.14.42-.37.64-.83.8-1.02.35-2.01.75-2.94,1.18-.42.19-.75.19-1.15-.01-.55-.28-1.11-.54-1.67-.81-.52-.25-1.04-.5-1.55-.75-.23-.12-.31-.1-.49.09-.93.97-1.78,1.81-2.59,2.59-.19.18-.2.27-.06.54.43.88,1,2.04,1.53,3.25.12.27.11.68-.02.98-.44,1.03-.92,2.06-1.43,3.08-.12.25-.39.59-.74.73-1.18.45-2.36.84-3.45,1.2-.28.09-.35.17-.34.44.03,1.1.03,2.29,0,3.66,0,.25.04.32.28.4,1.05.34,2.3.75,3.52,1.22.34.13.61.48.73.75.21.44.4.88.59,1.33.23.54.47,1.1.74,1.63.24.47.24.84.02,1.28-.26.52-.51,1.05-.76,1.58-.23.49-.47.99-.71,1.47-.13.26-.11.36.08.54.94.9,1.79,1.75,2.59,2.59.18.19.27.2.54.07.52-.26,1.04-.5,1.56-.75.54-.25,1.07-.51,1.61-.77.39-.19.73-.19,1.16.02.56.28,1.14.53,1.7.78.46.2.92.4,1.37.61.28.13.54.4.64.68.38,1.02.77,2.14,1.22,3.51.08.24.17.29.41.29.67-.01,1.3-.02,1.89-.02Zm-.06-11.69c-1.97,0-3.81-.76-5.19-2.14-1.39-1.39-2.15-3.24-2.15-5.22,0-1.98.76-3.82,2.14-5.19,1.39-1.39,3.26-2.15,5.26-2.15,4.04,0,7.31,3.31,7.3,7.36,0,4.05-3.3,7.34-7.36,7.34h0Zm.06-14.22c-1.88,0-3.62.71-4.92,2.01-1.29,1.28-1.99,3.01-2,4.85,0,1.85.71,3.58,2.01,4.88,1.29,1.29,3.01,2,4.85,2,3.79,0,6.88-3.08,6.88-6.86,0-3.78-3.05-6.87-6.81-6.88h-.02Z" fill="#1b1b1b" stroke-width="0"/><path d="m619.11,432.71c.01-.54-.19-.76-.68-.93-1.46-.5-2.91-1.03-4.34-1.61-.34-.14-.67-.51-.82-.85-.6-1.39-1.14-2.8-1.66-4.22-.1-.28-.12-.68,0-.94.7-1.57,1.48-3.1,2.18-4.67.1-.23.05-.69-.12-.87-1.18-1.26-2.41-2.46-3.61-3.7-.32-.33-.57-.36-.98-.16-1.49.74-2.98,1.46-4.5,2.13-.29.13-.72.16-1.02.05-1.45-.52-2.89-1.08-4.3-1.68-.32-.14-.69-.44-.81-.75-.59-1.46-1.12-2.94-1.63-4.43-.16-.48-.36-.71-.91-.69-1.66.04-3.33.04-4.99,0-.54-.01-.76.2-.93.68-.5,1.46-1.07,2.9-1.56,4.36-.17.49-.43.72-.93.89-1.37.48-2.73,1.01-4.05,1.62-.49.22-.83.22-1.29-.01-1.46-.73-2.94-1.41-4.4-2.14-.44-.22-.71-.18-1.05.18-1.15,1.2-2.32,2.38-3.53,3.53-.41.39-.37.68-.15,1.13.72,1.46,1.43,2.93,2.09,4.43.13.3.11.77-.03,1.08-.61,1.42-1.26,2.82-1.95,4.19-.17.34-.5.7-.84.83-1.55.59-3.13,1.12-4.7,1.63-.48.16-.7.37-.69.92.04,1.66.03,3.33,0,4.99,0,.49.15.72.62.87,1.61.52,3.21,1.05,4.79,1.65.34.13.66.51.82.86.64,1.34,1.16,2.73,1.83,4.05.27.54.29.93.03,1.45-.69,1.38-1.32,2.79-2,4.18-.22.45-.21.75.18,1.13,1.2,1.15,2.38,2.32,3.53,3.53.38.4.68.38,1.12.16,1.44-.71,2.9-1.37,4.33-2.08.46-.23.81-.2,1.29.03,1.38.68,2.82,1.24,4.21,1.9.29.14.6.44.71.74.59,1.58,1.14,3.18,1.67,4.79.15.46.38.64.88.63,1.66-.03,3.33-.03,4.99,0,.54.01.75-.18.91-.68.51-1.58,1.05-3.15,1.64-4.7.12-.32.47-.64.79-.79,1.42-.66,2.86-1.29,4.32-1.87.3-.12.73-.15,1.02-.02,1.7.75,3.37,1.57,5.12,2.39,1.37-1.39,2.73-2.74,4.05-4.14.16-.17.19-.64.08-.88-.68-1.52-1.43-3-2.11-4.51-.13-.28-.16-.68-.07-.96.51-1.48,1.06-2.95,1.66-4.4.13-.32.46-.66.78-.79,1.46-.59,2.94-1.12,4.43-1.64.46-.16.62-.4.61-.89-.03-1.66-.03-3.33,0-4.99Zm-25.71,12.21c-5.39,0-9.72-4.34-9.71-9.74,0-5.43,4.34-9.72,9.81-9.71,5.32.01,9.64,4.38,9.64,9.74,0,5.39-4.34,9.71-9.74,9.71Z" fill="#fff" stroke-width="0"/><path d="m598.11,464.91c-1.54-.03-3.16-.03-5.03,0-.65,0-1-.24-1.2-.86-.61-1.87-1.14-3.38-1.66-4.77-.08-.21-.31-.45-.54-.56-.61-.29-1.24-.56-1.86-.83-.78-.34-1.58-.69-2.36-1.07-.4-.2-.64-.21-.99-.03-.73.36-1.47.71-2.21,1.06-.71.34-1.42.67-2.12,1.02-.46.22-.96.36-1.51-.23-1.08-1.14-2.24-2.29-3.52-3.52-.47-.45-.55-.91-.25-1.51.33-.66.64-1.33.96-2,.34-.73.69-1.45,1.05-2.17.2-.41.2-.7-.03-1.16-.37-.74-.71-1.52-1.03-2.27-.26-.6-.52-1.2-.8-1.79-.15-.32-.42-.61-.64-.69-1.66-.63-3.34-1.19-4.78-1.65-.61-.19-.86-.55-.85-1.19.03-1.86.03-3.49,0-4.98-.02-.82.45-1.09.92-1.24,1.49-.49,3.1-1.02,4.69-1.62.23-.09.51-.37.66-.67.69-1.38,1.34-2.78,1.94-4.18.1-.25.12-.61.03-.82-.72-1.64-1.49-3.22-2.08-4.42-.23-.46-.36-.97.22-1.52,1.1-1.05,2.26-2.2,3.52-3.52.44-.46.87-.54,1.44-.25.7.35,1.41.69,2.11,1.03.77.37,1.53.73,2.29,1.11.37.19.6.19,1,0,1.29-.59,2.67-1.14,4.08-1.63.43-.15.6-.31.73-.68.25-.75.52-1.49.8-2.23.26-.71.52-1.42.76-2.13.15-.45.42-.91,1.2-.91,1.84.04,3.46.04,5.02,0,.81,0,1.07.44,1.23.92.61,1.79,1.11,3.15,1.62,4.41.08.2.36.45.63.57,1.37.58,2.81,1.14,4.29,1.68.22.07.56.06.78-.04,1.37-.62,2.84-1.31,4.49-2.13.54-.27.95-.2,1.36.23.51.53,1.03,1.06,1.55,1.58.69.7,1.39,1.4,2.06,2.12.28.3.32.9.18,1.23-.36.82-.75,1.62-1.13,2.43-.35.75-.71,1.49-1.05,2.24-.07.17-.07.47,0,.69.63,1.7,1.14,3,1.66,4.2.12.29.4.58.64.68,1.54.63,3.12,1.19,4.32,1.6.65.22.92.6.9,1.25-.03,1.56-.03,3.19,0,4.98,0,.64-.24,1-.84,1.21-1.74.6-3.14,1.12-4.41,1.63-.23.09-.49.36-.6.61-.56,1.35-1.09,2.79-1.65,4.39-.07.19-.04.5.05.71.32.71.66,1.42.99,2.12.38.79.76,1.59,1.12,2.39.16.34.13.96-.14,1.25-1,1.06-2.04,2.12-3.05,3.14l-1,1.01c-.38.07-1.65-.54-1.65-.54-1.29-.61-2.56-1.22-3.84-1.79-.19-.08-.52-.07-.76.02-1.55.63-2.96,1.24-4.31,1.87-.26.12-.53.39-.62.61-.56,1.47-1.09,3-1.63,4.68-.21.65-.55.91-1.19.91Zm-2.45-.69c.85,0,1.65,0,2.42.03.32,0,.47-.07.59-.45.54-1.7,1.08-3.24,1.65-4.72.17-.44.6-.81.95-.97,1.36-.64,2.78-1.25,4.34-1.88.33-.13.87-.2,1.28-.02,1.28.57,2.55,1.17,3.85,1.79l1.06.5.84-.85c1.01-1.02,2.05-2.07,3.04-3.12.05-.07.08-.37.02-.52-.36-.8-.73-1.59-1.11-2.38-.34-.71-.68-1.42-1-2.13-.17-.37-.2-.85-.08-1.2.56-1.61,1.1-3.06,1.66-4.42.17-.41.56-.82.96-.98,1.28-.52,2.69-1.04,4.44-1.64.32-.11.39-.22.39-.57-.03-1.79-.03-3.43,0-5,0-.37-.08-.48-.46-.61-1.21-.42-2.79-.98-4.36-1.62-.46-.19-.83-.65-.99-1.03-.52-1.21-1.04-2.52-1.67-4.23-.12-.32-.16-.81,0-1.19.34-.76.7-1.51,1.05-2.26.38-.8.76-1.61,1.13-2.42.06-.12.01-.44-.05-.51-.67-.72-1.36-1.41-2.05-2.1-.52-.53-1.04-1.05-1.56-1.59-.21-.22-.3-.23-.59-.09-1.66.82-3.13,1.52-4.51,2.14-.38.17-.89.19-1.27.06-1.49-.54-2.95-1.11-4.32-1.69-.37-.16-.82-.51-.99-.93-.51-1.27-1.02-2.64-1.63-4.44-.14-.4-.26-.48-.59-.47-1.57.04-3.21.04-5,0-.39,0-.48.08-.61.46-.25.72-.51,1.43-.77,2.14-.27.74-.54,1.47-.79,2.21-.19.57-.51.88-1.14,1.1-1.4.48-2.75,1.02-4.02,1.61-.57.26-1.03.26-1.57-.02-.75-.38-1.52-.74-2.28-1.11-.71-.34-1.42-.68-2.12-1.03-.31-.16-.42-.14-.67.12-1.27,1.32-2.43,2.48-3.54,3.54-.26.24-.27.37-.08.74.59,1.2,1.37,2.79,2.09,4.44.16.37.15.93-.03,1.34-.6,1.41-1.26,2.82-1.96,4.21-.17.34-.54.81-1.02.99-1.61.61-3.22,1.15-4.72,1.64-.38.12-.47.24-.46.6.04,1.5.04,3.13,0,5,0,.35.06.44.39.55,1.44.46,3.14,1.03,4.81,1.66.46.17.83.66,1,1.02.28.6.55,1.21.81,1.82.32.74.65,1.51,1.01,2.23.32.64.33,1.15.03,1.75-.36.72-.7,1.44-1.04,2.16-.32.67-.64,1.35-.97,2.01-.17.35-.15.49.11.74,1.29,1.23,2.45,2.39,3.54,3.54.25.26.37.28.74.09.71-.35,1.42-.69,2.14-1.03.73-.35,1.47-.69,2.2-1.05.54-.27,1-.26,1.58.03.76.38,1.56.72,2.33,1.06.63.27,1.26.55,1.88.84.38.18.74.55.88.93.52,1.4,1.05,2.92,1.67,4.8.11.33.23.4.56.4.91-.02,1.78-.02,2.59-.02Zm-.08-15.99c-2.69,0-5.21-1.04-7.1-2.93-1.9-1.9-2.94-4.43-2.94-7.14,0-2.7,1.04-5.22,2.92-7.1,1.9-1.9,4.46-2.94,7.2-2.94,5.53.01,9.99,4.53,9.99,10.07,0,5.54-4.52,10.04-10.07,10.04h0Zm.08-19.45c-2.57,0-4.96.98-6.73,2.75-1.76,1.75-2.73,4.11-2.73,6.64,0,2.53.97,4.9,2.75,6.67,1.76,1.77,4.12,2.74,6.63,2.74,5.19,0,9.41-4.21,9.41-9.38,0-5.18-4.17-9.39-9.31-9.4h-.02Z" fill="#1b1b1b" stroke-width="0"/></svg>