<?xml version="1.0" encoding="UTF-8"?><svg id="a" xmlns="http://www.w3.org/2000/svg" width="951.6" height="997.68" viewBox="0 0 951.6 997.68"><path d="m276.17,149.36c48.66-44.6,116.49-66.91,203.5-66.91,56.76,0,105.24,9.78,145.43,29.31,40.18,19.54,70.59,46.09,91.24,79.63,20.64,33.56,30.96,71.33,30.96,113.36,0,50.15-12.16,90.13-36.49,120-24.33,29.86-51.98,49.96-82.95,60.27v4.42c89.21,33.18,133.83,96.6,133.83,190.23,0,46.45-10.7,87.37-32.07,122.76-21.4,35.39-52.36,63.04-92.91,82.95-40.56,19.91-88.85,29.86-144.88,29.86-92.17,0-164.98-22.29-218.42-66.91-53.47-44.6-81.29-112.98-83.5-205.16h211.24c-1.49,29.5,4.79,52.36,18.79,68.57,14,16.23,35.01,24.33,63.04,24.33,21.38,0,38.15-6.64,50.32-19.91,12.16-13.27,18.24-30.97,18.24-53.08,0-28.01-9.04-48.66-27.09-61.93-18.08-13.27-47.38-19.91-87.92-19.91h-38.71v-175.85h37.61c28.01.74,51.79-3.87,71.33-13.82,19.53-9.96,29.31-30.03,29.31-60.27,0-22.84-5.53-39.99-16.59-51.43-11.06-11.42-26.19-17.14-45.35-17.14-21.39,0-37.05,7.57-47,22.67-9.96,15.12-15.67,33.73-17.14,55.85h-211.24c2.94-83.31,28.76-147.26,77.42-191.88Z" fill="#5983c2" stroke-width="0"/><path d="m747.16,751.32s22.46-27.74,31.75-52.01c9.3-24.27,20.49-74.17,20.49-74.17l107.96,47.99s12.07,43.31-36.46,110.22c-48.54,66.89-50.69,62.79-50.69,62.79l-50.65-22.38-22.41-72.42Z" fill="#fff" stroke-width="0"/><path d="m156.23,64.19l21.8,12.1s-3.16,6.29-7.18,16.94l-21.29-11.16c1.9-5.87,4.11-11.83,6.67-17.87Z" fill="#fff" stroke-width="0"/><path d="m160.62,243.6s-40.24-52.4-15.11-147.35l21.52,7.73c-10.85,32.78-28.23,88-6.41,139.62Z" fill="#fff" stroke-width="0"/><path d="m459.37,409.53l-1.1,45.59s1.37,53.22,41,58.36l-.35,21.76s20.36,11.06,49,3.19c0,0-11.5-24.69-.79-47.08,10.73-22.39,21.56-33.97,21.56-33.97,0,0,25.71,13.58,29.61-17.86,3.89-31.45-26.73-24.98-26.73-24.98l-6.48,5.86s-52.64,4.98-77.52-59.57c0,0-22.26,1.65-28.2,48.72Z" fill="#fff" stroke-width="0"/><path d="m763.86,904.83l.25,26.53s.44,14.1-8.79,16.66c-9.23,2.56-22.82,6-21.41,12.36,2.54,11.44,19.97,7.79,25.7,5.04,5.74-2.74,15.77-10.23,15.77-10.23,0,0,3.54,28.01,9.47,36.31,5.92,8.3,15.4,4.15,18.77-.85,0,0,5.86,4.87,13.02,3.77,7.17-1.11,10.63-8.1,10.63-8.1,0,0,4.01,5.69,9.66,4.99,5.65-.69,8.95-9.56,8.95-9.56,0,0-.21-34.19-2.62-45.06-2.42-10.87-4.51-8.49-4.51-8.49l-14.43-2.09-7.43-26.5-53.04,5.22Z" fill="#fff" stroke-width="0"/><path d="m459.35,801.44l-207.38,72.84s-1.11,51.95,15.19,81.41l393.71-.68s1.92-84.92-40.51-136.15c0,0-60.66,3.65-91.65.4-30.98-3.25-57.54-7.41-69.37-17.82Z" fill="#1b1b1b" stroke-width="0"/><path d="m565.09,420.39s-46.56-3.23-68.48-63.45c0,0-29.11-.13-37.34,49.59,0,0,.16-26.57,25.29-56.62,2.61-3.13,7.8-8.62,11.54-10.21,16.63-7.07,33.48-6.29,69.85-1.62,31.15,4,55.71,22.71,59.29,53.63l-18.99,107.76s-.22,4.69,17.32,16.99c17.54,12.3,28.98,28.15,12.96,52.93l-20.45-11.07s-39.07,21.01-57.74-23.25c0,0-9.88-18.39.47-43.4,10.34-25.02,20.12-31.44,20.12-31.44,0,0,7.14,1.16,12.9-4.45,4.1-4,6.81-9.02,6.69-21.63-.15-15.61-9.42-20.4-16.08-20.84-6.66-.44-11.62,1.28-17.34,7.08Z" fill="#1b1b1b" stroke-width="0"/><path d="m468.38,491.73s2.76,15.49,30.89,21.76l-.35,21.76s-12.68,7.33-16.17,16.52c0,0-14.74.93-22.26-12.65-6.35-11.48-5.6-34.03,7.89-47.39Z" fill="#1b1b1b" stroke-width="0"/><path d="m188.63,377.84c-1.05,1.46,5.71,17.99,5.71,17.99l14.02,6.75-6.86-23.71h-12.53l-.35-1.03Z" fill="#3b3a3a" stroke-width="0"/><path d="m203.51,650.33s-78.78,31.42-116.26,31.17c0,0-1.7,81.74-19.28,117.07-10.2,20.52-46.87,51.97-46.87,51.97,12.39-.21,56.99-3.38,109.13-41.21,59.46-43.13,67.76-63.8,67.76-63.8,0,0,18.84-45.18,5.52-95.21Z" fill="#fff" stroke-width="0"/><path d="m710.16,251.38l91.01-96.51s10.51,56.27,48.74,93.25c38.24,36.97,75.61,56.96,75.61,56.96l-81.08,85.92s-49.09-7.85-90.07-68.54c-40.98-60.68-44.22-71.08-44.22-71.08Z" fill="#fff" stroke-width="0"/><path d="m335.43,230.81c18.69-6.8,40.36-15.14,57.87-27.99,5.05-3.71,8.89-7.01,11.72-10.26,4.42-5.09,6.37-10.53,6.09-15.39-.24-4.25-1.21-6.46-5.42-8.07-7.86-3.02-15.82-2.68-23.96-.42-3.14.87-11.09,2.46-11.09,2.46l10.93-25.93c9.67-2.04,17.97-2.92,27.82.69.15.05,2.85.42,3,.48,12.7,4.84,21.05,16.14,21.81,29.48.62,10.96-3.75,22.56-12.2,32.28-3.99,4.59-7.95,8.05-14.44,12.8-25.64,18.82-59.08,29.81-80.39,35.95-5.3,1.53-16.63,4-23.12,5.34l31.39-31.4Z" fill="#fff" stroke-width="0"/><path d="m122.68,189.55c-3.8-5.42-10.81-16.01-13.63-20.76-11.32-19.07-25.96-49.19-31.75-80.47-1.46-7.9-1.98-13.13-1.75-19.21.5-12.87,5.27-24.32,13.23-31.88,9.69-9.2,23.51-11.71,36.08-6.53.15.06,2.37,1.63,2.51,1.7,9.64,4.12,15.08,10.44,20.73,18.56l-9.8,26.38s-4.7-6.61-6.4-9.41c-4.38-7.21-9.95-12.92-16.12-15.56-5.79-2.25-8.01-1.31-11.1,1.62-3.53,3.35-5.84,8.65-6.11,15.39-.17,4.3.36,9.34,1.5,15.5,3.95,21.35,13.25,40.74,22.2,58.5l.4,46.15Z" fill="#fff" stroke-width="0"/><path d="m155.38,955.7s.83-29.82,30.56-49.9c29.73-20.08,66.03-31.52,66.03-31.52,0,0-1.83,50.52,16.91,81.41h-113.5Z" fill="#fff" stroke-width="0"/><path d="m127.58,348.34s24.44-32.09,27.59-32.53c3.15-.44,28.24,6.34,31.77,7.15,3.52.81,13.14-3.07,11.47-13.6,4.25-2.22,9.24-12.98,9.06-15.35,4.44-.92,6.78-8.18,8.5-12.02,0,0-2.66-4.54-10.91-9.43-5.4-3.21-24.74-10.63-24.74-10.63,0,0,31.23,1.07,30.87-14.53,0,0-24.73-8.12-30.03-8.11-5.3.01-20.36,8.18-35.51,31.69-15.15,23.5-22.59,32.78-22.93,49.77-.33,16.99,4.85,27.58,4.85,27.58Z" fill="#fff" stroke-width="0"/><path d="m196.19,330.08s-9.5,23.41-8.36,36.1l1.14,12.69h8.65l-1.44-48.79Z" fill="#fff" stroke-width="0"/><path d="m384.57,105.29c-2.58,6.1-50.37-7.06-109.03-31.9-58.66-24.85-104.88-48.41-102.29-54.5,2.59-6.1,53,7.57,111.65,32.41,58.66,24.85,102.26,47.9,99.67,54Z" fill="#1b1b1b" stroke-width="0"/><path d="m151.43,7.66s-3.19,25.17,124.34,76.86c127.53,51.69,133.25,26.57,133.25,26.57l-8.4,20.48s-11.06,23.44-139.82-30.14C139.22,50.83,142.22,27.81,142.22,27.81l9.21-20.15Z" fill="#fff" stroke-width="0"/><path d="m61.35,368.6l-10.11,22.63s25.54,25.18,80.08,45.22c54.54,20.05,73.81,23.82,90.99,17.94l9.82-22.89s-33.44,14.07-111.21-26.78c-61.31-32.2-59.56-36.12-59.56-36.12Z" fill="#1b1b1b" stroke-width="0"/><path d="m170.87,318.26s-28.57,72.79-64.42,70.7c0,0,39.9,20.82,66.43,27.17,26.53,6.35,36.02,8.64,44.52,4.36,0,0-31.19-20.56-29.66-51.89,2.28-46.51,30.63-82.09,30.63-82.09l-5.87-1.4s-16.99,34.15-25.32,35.15c-8.33,1-16.32-2-16.32-2Z" fill="#fff" stroke-width="0"/><path d="m528.45,462.6s-3.58-7.34-8.7-4.64c-5.11,2.7-3.95,11.69-9.94,12.03-6,.33-16.16-4.33-18.57,0-2.42,4.33,2.47,16.49,20.93,16.16,0,0-3.52-9.29.97-14.39,4.5-5.1,15.31-9.16,15.31-9.16Z" fill="#3b3a3a" stroke-width="0"/><path d="m521.64,253.96c-1.77-1.1-1.77-2.12-1.14-2.75l17.12-17.11c.63-.62,1.65-.62,2.28,0,.63.63.63,1.65,0,2.28l-17.11,17.11c-.32.31-.73.47-1.14.47Z" fill="#1b1b1b" stroke-width="0"/><path d="m538.75,253.96c-1.14-.47-18.26-17.58-18.26-17.58-.63-.63-.63-1.65,0-2.28.63-.62,1.65-.62,2.28,0l17.11,17.11c.63.63.63,1.65,0,2.28-.32.31-.73.47-1.14.47Z" fill="#1b1b1b" stroke-width="0"/><path d="m506.17,221.44c-3.59,0-6.51-2.91-6.51-6.49s2.92-6.5,6.51-6.5,6.5,2.92,6.5,6.5-2.92,6.49-6.5,6.49Zm0-9.77c-1.81,0-3.28,1.48-3.28,3.28s1.47,3.27,3.28,3.27,3.27-1.47,3.27-3.27-1.46-3.28-3.27-3.28Z" fill="#1b1b1b" stroke-width="0"/><path d="m749.23,534.13c-3.59,0-6.51-2.91-6.51-6.49s2.92-6.5,6.51-6.5,6.49,2.91,6.49,6.5-2.92,6.49-6.49,6.49Zm0-9.77c-1.81,0-3.28,1.47-3.28,3.28s1.47,3.27,3.28,3.27,3.27-1.47,3.27-3.27-1.47-3.28-3.27-3.28Z" fill="#1b1b1b" stroke-width="0"/><path d="m1.61,844.26c-.88-2.96,1.22-4.38,4.59-7.03,12.64-9.97,42.95-37.18,51.17-74.31,10.42-47.08,7.33-86.97,7.3-87.37-.07-.83.52-1.59,1.35-1.72.77-.12,77.34-12.48,117.27-32.82,2.85,3.62,15.4,63.46-3.38,97.41-2.59,4.69-5.46,9.07-8.52,13-17.33,22.29-40.4,29.94-70.94,23.41-1.97,10.69-16.19,65.98-98.77,69.42h-.06Zm66.36-167.49c.45,7.7,1.93,44.4-7.46,86.85-8.44,38.15-39.4,65.95-52.33,76.14,81.89-5.03,89.27-66.39,89.33-67.02,31.98,5.49,54.49-1.61,71.33-23.28,2.96-3.81,5.73-8.04,8.24-12.59,16.3-29.46,7.8-81.15,5.76-92.04-37.7,18.46-104.23,30.16-114.88,31.95Z" fill="#1b1b1b" stroke-width="0"/><path d="m5.66,844.46c-2.79,0-4.24-.21-4.3-.22-.82-.12-1.41-.85-1.36-1.68.05-.83.71-1.48,1.54-1.52,88.22-3.68,95.91-67.66,95.98-68.31,31.98,5.49,54.49-1.61,71.33-23.28.54-.69,1.53-.82,2.24-.3.7.53.85,1.52.34,2.23-16.31,22.7-40.9,38.95-55.59,48.66-60.66,40.09-97.25,44.42-110.16,44.42Zm94.78-69.62c-1.22,6.58-7.09,30.1-30.72,47.99,12.94-6.22,27.71-14.48,44.34-25.48,9.7-6.41,23.77-15.71,36.81-27.82-13.94,7.75-30.65,9.54-50.42,5.3Z" fill="#1b1b1b" stroke-width="0"/><path d="m861.36,847.75c-.65-.13-51.29-22.52-51.29-22.52-.82-.36-1.19-1.31-.83-2.12.36-.83,1.32-1.18,2.12-.83l49.61,21.93c9.49-10.05,102.33-110.25,86.19-169.92l-105.25-46.78c-1.52,12.51-10.97,75.03-52.37,124.85-.56.68-1.58.78-2.26.21-.68-.57-.78-1.58-.21-2.27,45.35-54.57,51.82-124.59,51.88-125.29,2.26-1.34,110.22,46.65,110.22,46.65,19.33,65.25-82.32,171.12-86.65,175.61-.31.31-.73.48-1.16.48Z" fill="#1b1b1b" stroke-width="0"/><path d="m787.68,378.95c-66.01-12.13-115.52-150.29-117.59-156.16.49-1.78,102.34-86.34,102.34-86.34,8.77,101.26,106.18,163.63,107.16,164.24.17,2.6-90.88,77.89-90.88,77.89-.29.24-.66.37-1.03.37Zm-114.18-156.18c4.76,12.98,53.12,140.73,113.74,152.84l88.79-73.42c-13.49-9.15-96.53-69.04-103.97-161.28l-98.56,81.85Z" fill="#1b1b1b" stroke-width="0"/><path d="m42.36,583.41c-9.87-7.26-21.34-18.25-25.55-31.23-2.48-7.63-1.18-14.83,3.34-20.19-2.02-8.16-1.81-18.75.71-31.57.17-.87,1.01-1.44,1.89-1.27.87.17,1.44,1.02,1.27,1.89-1.79,9.13-2.84,19.56-1.16,28.28,1.19-.98,2.51-1.86,3.96-2.64,3.35-1.79,8.42-3.61,13.52-2.11,4.73,1.38,8.6,5.52,10.09,10.79,1.25,4.42.61,10.28-3.6,13.43-3.15,2.34-7.77,2.65-12.38.85-6.22-2.44-10.61-7.11-13.14-13.85-2.75,4.27-3.32,9.63-1.45,15.4,3.96,12.21,14.95,22.7,23.48,29.34.7.55.83,1.56.28,2.26-.32.41-.79.61-1.27.61Zm-18.62-50.56c1.9,6.27,5.57,11.3,11.91,13.79,3.57,1.4,7.04,1.24,9.27-.43,2.97-2.21,3.34-6.72,2.43-9.97-1.18-4.15-4.28-7.51-7.9-8.58-3.17-.91-7.11-.26-11.1,1.86-1.78.95-3.32,2.07-4.61,3.33Z" fill="#1b1b1b" stroke-width="0"/><path d="m884.21,517.21c-3.43-3.26-6.45-6.95-10.01-10.57-4.92,2.31-10.08,3.77-14.94,4.27-6.39.66-11.15-.48-14.46-3.52-3.65-3.34-4.5-8.99-1.88-12.58,1.59-2.19,4.31-3.57,7.46-3.79,9.01-.7,17.59,5.19,24.39,11.67,9.66-5.14,17.99-13.8,20.35-24.62,1.11-5.07.65-10.38-1.1-15.02-1.04.77-2.11,1.51-3.21,2.21-2.73,1.75-6.4,3.77-10.53,3.8-5.39,0-10.37-3.65-12.02-8.73-1.4-4.32.08-8.53,3.95-11.26,5.41-3.82,13.03-1.64,17.77,2.48,2.1,1.82,3.86,4,5.25,6.43,8.05-6.79,14.5-15.44,19.9-22.67.54-.71,1.54-.86,2.25-.32.71.53.86,1.54.32,2.25-5.64,7.55-12.4,16.61-21.01,23.71,2.28,5.41,2.91,11.69,1.57,17.8-2.58,11.8-11.13,20.86-21.07,26.35,3.35,3.47,6.17,6.91,8.25,9.47.56.69.47,1.7-.23,2.26-.3.24-.66.36-1.01.36Zm-32.46-23.01c-3.31.19-5.21,1.12-6.23,2.51-1.83,2.5-.72,6.32,1.45,8.31,2.58,2.37,6.48,3.26,11.95,2.69,4.16-.43,8.53-1.64,12.75-3.51-5.81-5.38-12.77-10.01-19.93-10.01Zm27.03-43.9c-1.68,0-3.32.43-4.71,1.42-3.69,2.61-3.31,5.91-2.74,7.65,1.21,3.72,4.99,6.5,8.84,6.5,3.4-.03,6.55-1.78,8.91-3.3,1.23-.79,2.42-1.62,3.58-2.5-1.25-2.32-2.86-4.39-4.78-6.06-2.49-2.16-5.9-3.7-9.1-3.7Z" fill="#1b1b1b" stroke-width="0"/><path d="m633.9,95.44c-5.58-.5-8.6-2.84-9.72-6.49-.67-2.24-.36-4.53-.06-6.05,1.37-7.15,5.75-13.64,11.75-18.4-6.05-8.57-14.73-13.14-24.49-12.25-1.06.05-1.67-.58-1.75-1.46-.08-.89.57-1.67,1.45-1.75,10.94-.98,20.69,4.06,27.41,13.56,5.83-3.86,12.83-6.19,19.98-6.19.79,0,1.75.67,1.75,1.62,0,.89-.73,1.6-1.61,1.6-6.22-.02-12.68,2.06-18.31,5.75,2.23,3.75,4.02,8.06,5.29,12.86.79,3.02,1.61,7.46-.48,11.26-1.97,3.58-6.53,5.95-11.2,5.95Zm3.77-28.16c-5.16,4.1-9.13,9.68-10.39,16.24-.37,1.89-.37,3.32,0,4.5.97,3.21,3.9,3.98,5.55,4.15,3.76.36,7.93-1.46,9.46-4.22,1.17-2.12,1.23-4.94.18-8.89-1.16-4.39-2.79-8.34-4.8-11.78Z" fill="#1b1b1b" stroke-width="0"/><path d="m507.87,487.76c-10.25,0-18.95-7.41-19.32-13.55-.15-2.32.53-4.35,1.95-5.85,2.52-2.69,7.37-3.27,11.65-1.38,2.96,1.3,4.67,1.85,5.67,1.85,2.82-.84,3.45-1.07,5.96-6.04,1.96-3.9,5.48-6.42,8.97-6.42,2.38,0,4.56,1.18,6.12,3.32,1.84,2.51,2.06,6.85.61,11.59-2.19,7.13-7.33,12.77-13.76,15.08-2.57.93-5.2,1.4-7.83,1.4Zm-10.94-18.71c-1.72,0-3.18.54-4.09,1.51-.8.86-1.17,2.02-1.07,3.45.23,3.62,6.67,10.53,16.11,10.53,2.25,0,4.52-.41,6.74-1.21,5.48-1.97,9.88-6.83,11.77-13,1.11-3.62,1.06-7.13-.12-8.76-2.57-3.5-7.38-1.83-9.62,2.65-2.81,5.59-3.96,6.43-6.29,7.28-2.14.77-3.68.95-9.5-1.59-1.29-.57-2.64-.87-3.92-.87Z" fill="#1b1b1b" stroke-width="0"/><path d="m579.13,462.14c-5.4-.2-9.75-2.22-13.29-5.86-.62-.64-.61-1.65.03-2.27s1.65-.6,2.27.03c2.96,3.03,6.57,4.71,10.41,4.87,4.68.2,9.08-1.88,12.56-5.83,3.56-4.04,5.64-9.53,5.88-15.47.48-12.12-7.02-22.3-16.69-22.69-7.05-.28-12.2,3.14-15.36,9.85-.38.79-1.34,1.14-2.14.77-.81-.38-1.15-1.34-.77-2.14,3.71-7.86,10.27-12.12,18.39-11.68,11.45.46,20.32,12.13,19.78,26.02-.26,6.68-2.63,12.88-6.67,17.47-3.95,4.5-9.04,6.94-14.39,6.94Z" fill="#1b1b1b" stroke-width="0"/><path d="m582.88,447.39c-.93-.29-12.12-8.18-12.12-8.18-.21-2.45,11.47-14.22,11.47-14.22.63-.63,1.66-.63,2.27,0,.63.63.64,1.65,0,2.28l-10.33,10.41,9.64,6.79c.73.52.9,1.52.39,2.24-.32.45-.81.69-1.32.69Z" fill="#1b1b1b" stroke-width="0"/><path d="m468.2,404.36c-1.73-1-1.79-2.02-1.2-2.68.3-.33,7.5-8.12,20.92-3.88.85.27,1.32,1.17,1.05,2.02-.27.84-1.18,1.32-2.01,1.05-11.55-3.63-17.5,2.9-17.56,2.96-.31.35-.76.53-1.19.53Z" fill="#1b1b1b" stroke-width="0"/><path d="m487.39,462.14c-4.95-3.96-9.79-11.82-10-12.15,1.09-2.42,11.86-4.36,11.86-4.36,1.14-3.55,5.24-17.75,5.24-37.86,0-.89.72-1.61,1.61-1.61s1.61.72,1.61,1.61c0,23.84-5.5,39.19-5.72,39.83-1.24,1.03-10.57,2.71-10.57,2.71,1.66,2.53,4.65,6.83,7.05,9.04.66.6.71,1.62.1,2.27-.31.35-.74.52-1.18.52Z" fill="#1b1b1b" stroke-width="0"/><path d="m509.36,515.53c-15.18,0-27.24-4.47-35.88-13.3-20.31-20.75-17.9-61.15-16.31-87.89.37-6.2.69-11.56.69-15.85,0-.89.71-1.61,1.6-1.61s1.61.72,1.61,1.61c0,4.39-.32,9.79-.69,16.04-1.55,26.17-3.91,65.72,15.41,85.44,8.56,8.75,20.87,12.92,36.53,12.28.84-.17,1.64.65,1.66,1.54.04.89-.66,1.64-1.54,1.67-1.03.04-2.06.06-3.07.06Z" fill="#1b1b1b" stroke-width="0"/><path d="m565.09,422c-56.21-4.06-75.38-51.31-78.3-59.52-17.05,1.7-25.85,41.26-25.94,41.68-.19.86-1.05,1.4-1.92,1.23-.87-.19-1.42-1.05-1.23-1.92.4-1.8,9.85-44.26,30.23-44.26,1.7,1.69,18.4,55.32,77.28,59.58.88.06,1.55.83,1.49,1.72-.06.85-.76,1.49-1.6,1.49Z" fill="#1b1b1b" stroke-width="0"/><path d="m526.44,543.03c-22,0-28.49-6.57-28.76-6.85-.45-1.11-.45-22.33-.45-22.33,0-.89.73-1.6,1.61-1.6s1.61.72,1.61,1.6v20.47c1.7,1.27,8.65,5.48,25.98,5.48,7.72,0,14.28-.94,20.63-2.94.85-.28,1.74.21,2.02,1.05.27.85-.2,1.75-1.05,2.02-6.68,2.11-13.54,3.09-21.6,3.09Z" fill="#1b1b1b" stroke-width="0"/><path d="m547.27,579.86c-1.78,0-3.56-.24-5.33-.72-11.52-3.14-19.44-15.55-22.26-20.65-3.9,4.39-14.29,15-23.83,15.2-3.62.2-6.85-1.36-9.41-4.28-4.31-4.92-6.03-10.13-5.12-15.49,2.01-11.8,16.12-19.9,16.72-20.24.75-.43,1.76-.17,2.19.61.44.77.17,1.76-.61,2.19-.13.08-13.39,7.7-15.13,17.98-.75,4.36.73,8.67,4.37,12.82,1.88,2.14,4.08,3.19,6.7,3.19,10.5-.22,23.06-15.69,23.18-15.85,2.79.49,11.19,17.92,24.04,21.41,5.28,1.42,10.63.3,16-3.35,5.34-3.64,8.57-8.07,9.59-13.18.17-.87,1.01-1.45,1.89-1.26.87.18,1.44,1.02,1.26,1.9-1.19,5.97-4.87,11.09-10.94,15.22-4.4,3-8.88,4.51-13.33,4.51Z" fill="#1b1b1b" stroke-width="0"/><path d="m401.29,547.33c-95.71,0-147.99-53.43-175.76-102.22-.44-.77-.17-1.76.6-2.19.78-.44,1.75-.18,2.19.6,31.78,55.83,96.21,117.84,222.63,96.17.89-.18,1.71.44,1.86,1.31.15.88-.44,1.71-1.31,1.86-17.94,3.07-34.64,4.48-50.2,4.48Z" fill="#1b1b1b" stroke-width="0"/><path d="m208.7,405.21c-5.59-13.23-7.33-21.42-7.91-24.49l-11.85-.23c-.89-.02-1.6-.76-1.58-1.64.02-.88.87-1.48,1.64-1.58l13.17.26c1.57,1.45,3.02,10.52,8.05,25.56.29.84-.17,1.76-1.01,2.04-.17.06-.35.08-.52.08Z" fill="#1b1b1b" stroke-width="0"/><path d="m415.2,662.95c-66.78-7.57-226.42-44.16-270.2-220.38-.21-.86.31-1.74,1.17-1.95.89-.24,1.74.3,1.95,1.17,43.29,174.26,201.33,210.47,267.26,217.95.89.1,1.52.9,1.42,1.78-.09.83-.79,1.43-1.6,1.43Z" fill="#1b1b1b" stroke-width="0"/><path d="m460.71,803.05c-71.09-119.1-40.13-190.81-39.81-191.52.36-.81,1.31-1.17,2.13-.8.81.36,1.17,1.32.81,2.13-.32.7-30.51,71.03,38.26,187.77.45.77.19,1.75-.57,2.2-.25.15-.53.22-.82.22Z" fill="#1b1b1b" stroke-width="0"/><path d="m480.16,555.18c-7.7,0-32.13-2.01-35.76-27.09-3.73-25.78,16.73-44.47,17.61-45.24.65-.6,1.67-.54,2.27.12.6.66.54,1.68-.12,2.27-.2.18-20.05,18.35-16.57,42.39,3.87,26.72,33.32,24.39,34.6,24.27.82-.13,1.66.58,1.75,1.46.08.89-.58,1.67-1.47,1.75-.05,0-.89.07-2.31.07Z" fill="#1b1b1b" stroke-width="0"/><path d="m589.12,564.71c-12.44,0-26.56-3.38-36.51-15.73-34.36-42.63,13.88-91.66,14.38-92.15.63-.62,1.65-.63,2.28,0,.63.63.62,1.65,0,2.28-.48.47-46.69,47.49-14.15,87.85,20.38,25.27,59.98,10.02,60.38,9.86.84-.33,1.75.09,2.08.91.33.83-.08,1.76-.91,2.09-.23.09-12.7,4.89-27.55,4.89Z" fill="#1b1b1b" stroke-width="0"/><path d="m636.52,570.99c-1.64-.77-1.84-1.77-1.33-2.5,18.72-27.82-1.7-43.03-16.6-54.14-7.71-5.74-13.79-10.27-13.1-15.44,8.54-63.41,17.63-102.36,18.43-105.73-1.01-16.92-8.92-30.36-23.53-39.93-34.56-22.63-98.83-17.91-117.49-10.99-.11.07-28.68,15.79-22.27,70.86.1.89-.53,1.68-1.41,1.79-.94.08-1.68-.53-1.79-1.42-6.69-57.42,22.9-73.51,24.16-74.17,19.3-7.17,85.14-11.98,120.56,11.24,15.58,10.21,23.99,24.56,25,42.68-.13.85-9.58,40.22-18.46,106.1-.45,3.29,5.51,7.73,11.83,12.43,15.04,11.21,37.78,28.16,17.35,58.52-.31.46-.82.71-1.33.71Z" fill="#1b1b1b" stroke-width="0"/><path d="m824.33,927.71c-1.54-1.16-9.23-27.63-9.23-27.63-.25-.85.24-1.75,1.1-2,.85-.25,1.74.24,1.99,1.1l7.69,26.47c.25.85-.24,1.75-1.1,2-.15.04-.3.06-.45.06Z" fill="#1b1b1b" stroke-width="0"/><path d="m761.71,906.64c-1.58-1.24-6.4-15.65-14.87-36.85l-3.55-8.79c-22.54-54.82-68.22-150.72-120.76-177.06-.79-.4-1.12-1.37-.71-2.16.39-.8,1.37-1.11,2.15-.71,53.49,26.8,99.58,123.48,122.3,178.72l3.56,8.8c7.1,17.78,11.65,30.81,12.99,34.72l58.19-5.71c-.74-6.58-1.52-12.89-2.33-18.8-.36-2.52-.74-5.05-1.12-7.53-30.08-199.1-139.61-280.62-202.21-311.5-.79-.39-1.13-1.36-.73-2.15.39-.79,1.36-1.12,2.15-.73,63.17,31.15,173.68,113.35,203.99,313.89.37,2.49.75,5.04,1.11,7.58.88,6.42,1.73,13.32,2.52,20.51-1.44,1.78-62.53,7.77-62.53,7.77-.05,0-.11,0-.16,0Z" fill="#1b1b1b" stroke-width="0"/><path d="m402.71,822.55c-1.81-1.93-1.36-2.84-.52-3.13,40.82-13.95,57.87-19.45,58.04-19.51,1.96.78,23.75,25.29,160.04,17.35.95,0,1.66.66,1.7,1.52.05.89-.62,1.65-1.51,1.7-126.3,7.34-155.31-12.67-160.2-17.19-4.09,1.33-21.59,7.07-57.03,19.17-.18.06-.35.09-.52.09Z" fill="#1b1b1b" stroke-width="0"/><path d="m251.97,875.89c-1.82-1.87-1.4-2.8-.57-3.12,4.73-1.78,9.49-3.56,14.31-5.32,10.6-3.93,21.39-7.84,32.15-11.71l16.07-5.76c21.17-7.53,28.85-10.24,47.78-16.75.81-.29,1.76.15,2.04,1,.29.83-.16,1.75-1,2.04-18.91,6.51-26.58,9.22-47.74,16.74l-16.06,5.75c-10.76,3.86-21.53,7.77-32.13,11.7-4.81,1.76-9.57,3.53-14.28,5.31-.18.07-.38.1-.57.1Z" fill="#1b1b1b" stroke-width="0"/><path d="m155.38,957.31c-1.1-.14-1.72-.95-1.6-1.83,6.34-45.85,46.2-61.88,81.38-76.01,5.5-2.21,10.93-4.39,16.17-6.65.84-.36,1.77.03,2.12.84.35.82-.02,1.77-.83,2.12-5.27,2.27-10.73,4.46-16.25,6.69-36.04,14.48-73.31,29.46-79.39,73.46-.11.81-.8,1.39-1.59,1.39Z" fill="#1b1b1b" stroke-width="0"/><path d="m267.16,956.13c-9.01-18.27-13.92-36.43-16.04-54.95-1.85-16.32-.81-26.63-.76-27.06.09-.88.82-1.62,1.77-1.43.89.09,1.53.89,1.43,1.77,0,.11-1.05,10.43.76,26.37,2.08,18.19,6.9,36.05,14.31,53.06.35.82-.02,1.77-.83,2.12-.21.09-.43.13-.64.13Z" fill="#1b1b1b" stroke-width="0"/><path d="m660.87,956.63c-.89,0-1.61-.72-1.61-1.6.02-33.85-5.46-65.09-16.31-92.85-1.36-3.43-2.73-6.65-4.09-9.64-9.79-21.58-19.6-32.47-19.69-32.58-4.67-65.06,2.41-136.9,2.49-137.61.09-.89.85-1.57,1.76-1.44.88.09,1.53.88,1.44,1.76-.07.71-7.09,71.89-2.93,135.55,1.95,2.25,10.82,13.05,19.86,32.98,1.37,3.03,2.76,6.3,4.15,9.78,10.99,28.16,16.56,59.79,16.54,94.04,0,.88-.72,1.6-1.61,1.6Z" fill="#1b1b1b" stroke-width="0"/><path d="m513.89,648.47c-5.52-.23-9.68-2.29-13.18-6.15-16.32-17.98-13.88-69.96-13.77-72.16.04-.89.82-1.49,1.68-1.53.89.05,1.57.8,1.53,1.69-.03.53-2.48,52.84,12.95,69.83,2.94,3.25,6.25,4.91,10.11,5.08,26.98.03,40.96-68.65,41.09-69.35.17-.87,1.04-1.43,1.9-1.26.87.17,1.44,1.02,1.26,1.89-.59,2.96-14.67,71.95-43.57,71.95Z" fill="#1b1b1b" stroke-width="0"/><path d="m520.01,557.24c-1.61-1.22-6.27-9.95-6.8-15.83-.08-.89.57-1.66,1.45-1.75,1.06-.13,1.67.58,1.75,1.46.48,5.23,4.98,13.67,5.02,13.75.42.78.12,1.76-.66,2.19-.24.12-.51.18-.76.18Z" fill="#1b1b1b" stroke-width="0"/><path d="m541.79,429.05c-5.93-7.66-10.48-10.98-14.38-10.61-6.19.56-10.1,9.54-10.14,9.63-.35.82-1.27,1.21-2.11.85-.82-.35-1.2-1.3-.85-2.12.18-.44,4.69-10.83,12.8-11.57,5.15-.46,10.72,3.32,16.01,11.32.49.74.29,1.74-.45,2.23-.27.18-.58.27-.88.27Z" fill="#1b1b1b" stroke-width="0"/><path d="m485.01,426.8c-2.49-3.98-5.88-11.56-10-11.88-2.72-.22-5.8,2.87-8.91,8.92-.4.8-1.37,1.11-2.17.69-.79-.41-1.1-1.37-.69-2.16,3.86-7.51,7.75-11,12.03-10.65,6.96.54,10.85,11.7,11.26,12.97.28.84-.17,1.76-1.01,2.03-.17.06-.34.08-.51.08Z" fill="#1b1b1b" stroke-width="0"/><path d="m491.22,957.31c-1.16-.19-1.74-1.03-1.59-1.9,3.81-20.42,6.85-32.02,6.88-32.13.23-.85,1.06-1.36,1.97-1.14.86.23,1.36,1.11,1.15,1.97-.04.12-3.05,11.61-6.82,31.9-.15.77-.83,1.31-1.59,1.31Z" fill="#1b1b1b" stroke-width="0"/><path d="m879.53,957.31h-33.44c-.88,0-1.61-.72-1.61-1.61s.73-1.61,1.61-1.61h33.44c.89,0,1.61.72,1.61,1.61s-.73,1.61-1.61,1.61Z" fill="#1b1b1b" stroke-width="0"/><path d="m734.87,957.31H93.21c-.89,0-1.61-.72-1.61-1.61s.72-1.61,1.61-1.61h641.66c.89,0,1.61.72,1.61,1.61s-.73,1.61-1.61,1.61Z" fill="#1b1b1b" stroke-width="0"/><path d="m794.83,997.68c-1.31,0-2.72-.14-4.23-.43-10.81-2.04-15.24-29.36-16.47-38.95-18.24,14.4-29.89,12.5-36.55,8.22-5.36-3.46-5.93-6.76-5.48-8.92.89-4.18,6.29-7.23,15.21-8.61,12.94-2.01,15.11-11.98,15.12-12.08l.52-32.19c.02-.89.82-1.42,1.64-1.58.9.01,1.6.75,1.59,1.64l-.55,32.48c-.14.79-2.68,12.57-17.82,14.91-8.58,1.32-12.11,4.02-12.56,6.11-.35,1.65,1.11,3.61,4.09,5.54,8.59,5.56,20.72,2.16,35.02-9.84,4.11,15.41,9.29,38.7,16.84,40.13,3.77.71,6.75.39,8.59-.94,1.61-1.17,1.9-2.78,1.9-2.79,2.57-1.06,9.64,3.68,15.46,2.36,5.75-1.29,8.95-7.47,8.98-7.53,2.85-.05,6.57,5.88,11.32,4.42,5.84-1.8,6.75-6.52,6.88-8.46,1.28-20.3-1.09-51.09-6.96-52.01-9.85-1.53-40.17,1.22-52.21,8.05-.79.45-1.76.17-2.2-.6-.44-.77-.17-1.75.6-2.19,12.83-7.27,43.9-10.07,54.3-8.44,12.28,1.92,9.71,54.86,9.68,55.39-.13,2.04-1.17,8.88-9.14,11.33-4.86,1.52-8.72-1.66-10.7-3.93-1.68,2.37-4.97,6.02-9.84,7.11-5.24,1.17-10.92-1.36-13.72-2.9-.48.89-1.24,1.92-2.46,2.8-1.78,1.28-4.07,1.93-6.84,1.93Z" fill="#1b1b1b" stroke-width="0"/><path d="m217.4,422.1c-17.01-10.67-26.75-24.76-29.85-42.12-7.84-43.98,28.93-93.53,30.5-95.62.54-.71,1.55-.84,2.26-.32.71.54.85,1.54.32,2.26-.38.5-37.5,50.54-29.9,93.13,2.93,16.43,12.2,29.8,27.55,39.71.75.48.96,1.48.48,2.22-.3.47-.82.74-1.35.74Z" fill="#1b1b1b" stroke-width="0"/><path d="m87.82,365.22c-4.72,0-9.6-.5-14.63-1.5-.88-.18-1.44-1.02-1.26-1.9.17-.86,1.01-1.47,1.9-1.26,20.26,4.05,37.95-.48,52.61-13.42.66-.58,1.69-.53,2.27.14.59.66.53,1.68-.14,2.27-11.8,10.43-25.46,15.67-40.75,15.67Z" fill="#1b1b1b" stroke-width="0"/><path d="m208.73,424.92c-4.23,0-9.74-.7-16.51-2.1-14.69-3.04-33.41-9.04-52.71-16.86-19.3-7.83-36.91-16.57-49.56-24.62-13.7-8.71-19.73-15.37-17.93-19.81.33-.83,1.28-1.24,2.09-.89.83.33,1.22,1.27.89,2.1-.63,1.56,2.17,6.66,16.67,15.88,12.51,7.95,29.92,16.6,49.05,24.36,19.12,7.76,37.65,13.69,52.16,16.7,16.8,3.49,22.39,1.77,23.02.21.34-.82,1.27-1.24,2.1-.88.82.33,1.22,1.27.89,2.09-1.04,2.55-4.44,3.83-10.16,3.83Z" fill="#1b1b1b" stroke-width="0"/><path d="m120.91,406.33c-13.21-5.8-24.63-11.66-34.62-17.55-.77-.45-1.02-1.44-.57-2.2.45-.77,1.45-1.01,2.2-.57,9.89,5.83,21.21,11.63,33.65,17.25.81.37,1.17,1.32.81,2.13-.27.59-.85.94-1.47.94Z" fill="#1b1b1b" stroke-width="0"/><path d="m220.17,435.37c-4.25,0-9.4-.5-15.45-1.5-.88-.15-1.47-.97-1.33-1.85.14-.88.95-1.51,1.85-1.32,17.61,2.9,25.1.92,26.25-1.91.65-1.62,1.03-8.07-21.88-22.71-.75-.48-.97-1.47-.48-2.22.47-.74,1.48-.97,2.22-.48,17.87,11.43,25.65,20.39,23.12,26.63-1.45,3.57-6.24,5.37-14.3,5.37Z" fill="#1b1b1b" stroke-width="0"/><path d="m210.48,406.33c-5.35-3.12-10.41-6.09-15.9-9.07-.78-.43-1.07-1.41-.65-2.19.42-.79,1.42-1.07,2.18-.65,5.57,3.03,10.69,6.04,15.24,8.95.75.47.97,1.47.48,2.22-.3.48-.83.74-1.36.74Z" fill="#1b1b1b" stroke-width="0"/><path d="m223.52,454.33c-1.43-.45-1.83-1.39-1.49-2.21l9.35-23.04c.33-.83,1.27-1.24,2.09-.89.83.33,1.23,1.27.89,2.09l-9.34,23.05c-.25.62-.86,1-1.49,1Z" fill="#1b1b1b" stroke-width="0"/><path d="m61.35,370.21c-5.99-5.52-7.76-9.74-6.44-13.03,4.21-10.35,34.38-3.76,51.97,1.1.85.23,1.36,1.12,1.12,1.98-.24.86-1.12,1.34-1.98,1.13-32.75-9.05-46.4-7.27-48.13-2.99-.78,1.95.85,5.17,4.62,9.1.61.64.59,1.66-.05,2.27-.31.3-.71.45-1.12.45Z" fill="#1b1b1b" stroke-width="0"/><path d="m210.52,458.67c-18.81,0-52.42-9.6-83.25-22.11-23.68-9.6-45.18-20.53-60.56-30.78-16.45-10.97-23.6-19.47-21.25-25.27l9.46-23.32c.33-.82,1.28-1.24,2.09-.89.83.33,1.22,1.27.88,2.09l-9.45,23.33c-1.24,3.04,3.38,10.26,20.05,21.38,15.19,10.13,36.49,20.96,59.98,30.48,51.15,20.74,90.36,26.43,93.55,18.53.34-.83,1.28-1.24,2.1-.89.82.33,1.22,1.27.89,2.1-1.51,3.72-6.75,5.34-14.49,5.34Z" fill="#1b1b1b" stroke-width="0"/><path d="m122.68,191.16c-3.32-3.54-10.13-13.28-13.48-18.92-5.92-9.96-25.75-45.36-32.76-83.04-1.49-8.01-2.06-14.36-1.82-20.57.51-13.29,5.34-24.94,13.59-32.79,10.12-9.63,24.57-12.26,37.74-6.86,11.41,4.86,17.91,12.7,22.82,19.75.51.73.33,1.73-.4,2.24-.73.51-1.74.33-2.24-.4-6.59-9.47-12.86-14.97-20.97-18.42-12.41-5.12-25.54-2.73-34.73,6.02-7.64,7.27-12.12,18.13-12.59,30.58-.22,5.96.33,12.09,1.77,19.86,6.92,37.16,26.52,72.14,32.37,81.98,3.3,5.55,10.04,15.21,12.03,18.04.51.73.34,1.73-.39,2.24-.28.2-.61.29-.93.29Zm-.64-45.72c-12.73-23.23-19.57-42.16-22.98-60.46-1.16-6.26-1.61-11.04-1.45-15.49.27-7.15,2.62-13.34,6.46-16.98,3.56-3.38,8.33-4.19,13.13-2.24,7.11,3.03,12.57,10.94,16.56,17.5l4.76,7.79-2.74,1.68-4.77-7.8c-3.74-6.16-8.81-13.54-14.88-16.13-3.78-1.56-7.2-.97-9.84,1.53-3.23,3.07-5.22,8.45-5.46,14.77-.15,4.21.28,8.76,1.4,14.78,3.34,17.98,10.09,36.64,21.25,58.71.4.79.08,1.76-.71,2.16-.23.12-.48.17-.73.17Z" fill="#1b1b1b" stroke-width="0"/><path d="m302.05,265.03c-1.74-2.19-1.17-3.02-.3-3.19,6.02-1.13,17.66-3.45,23.09-4.92,11.04-2.98,49.48-14.42,80.33-36.28,6.45-4.57,11.11-8.58,15.11-13.02,8.33-9.26,12.69-20.16,12.27-30.71-.51-12.68-8.28-23.54-20.28-28.35-10.59-4.09-22.39-3.04-30.48-1.46-.88.16-1.71-.41-1.89-1.28-.17-.87.4-1.72,1.27-1.89,8.52-1.65,20.94-2.74,31.81,1.45,13.68,5.48,22.23,17.44,22.78,31.39.45,11.39-4.2,23.11-13.09,32.99-4.16,4.62-8.99,8.78-15.64,13.49-31.27,22.16-70.17,33.74-81.35,36.76-5.53,1.49-17.26,3.83-23.33,4.98-.1.02-.2.03-.3.03Zm32.4-32.21c-1.81-1.93-1.36-2.84-.53-3.13,24.49-8.45,43.44-17.55,57.94-27.83,5.02-3.55,8.49-6.52,11.3-9.63,4.23-4.7,6.56-9.96,6.38-14.4-.14-3.64-2.21-6.45-5.83-7.89-6.33-2.44-15.11-.67-22.08,1.14-3.16.82-10.73,2.34-11.05,2.41-.84.18-1.72-.39-1.9-1.26s.39-1.72,1.26-1.9c.08-.02,7.8-1.56,10.88-2.36,7.43-1.93,16.87-3.8,23.88-1.1,5,1.99,7.86,5.91,8.06,10.83.21,5.28-2.41,11.36-7.2,16.68-2.96,3.3-6.62,6.41-11.83,10.11-14.75,10.45-33.97,19.69-58.75,28.24-.17.06-.35.09-.53.09Z" fill="#1b1b1b" stroke-width="0"/><path d="m133.66,223.59c-5.92-9.95-9.14-19.21-11.01-28.4-3.59-17.72-3.96-37.67-1.11-59.31,2.48-18.77,7.36-38.8,14.5-59.53,3.14-9.11,6.7-18.31,10.58-27.37l1.01-2.35c.91-2.15,1.99-4.67,2.65-6.12.37-.82,1.31-1.19,2.13-.81.81.37,1.17,1.32.81,2.13-.65,1.44-1.72,3.94-2.62,6.07l-1.01,2.35c-3.85,8.98-7.38,18.11-10.49,27.15-7.07,20.52-11.9,40.34-14.35,58.9-2.81,21.29-2.44,40.89,1.08,58.25,1.81,8.92,4.94,17.91,9.3,26.71.39.8.07,1.76-.73,2.16-.23.11-.47.17-.71.17Z" fill="#1b1b1b" stroke-width="0"/><path d="m157.64,256.82c-8.43-7.65-14.13-14.81-19.6-23.66-.47-.76-.23-1.75.52-2.21.75-.48,1.74-.24,2.21.52,5.34,8.62,10.88,15.59,18,22.59.63.63.64,1.65.02,2.28-.31.32-.73.48-1.15.48Z" fill="#1b1b1b" stroke-width="0"/><path d="m235.14,288.16c-6.29,0-12.62-.58-19-1.74-.88-.16-1.46-1-1.3-1.87.16-.87.95-1.48,1.87-1.3,28.22,5.15,55.76-1.5,81.79-19.74,14.53-10.18,28.28-24.13,40.9-41.46,11.04-15.16,21.24-32.92,30.3-52.78,3.97-8.71,7.72-17.76,11.12-26.93.43-1.16.81-2.13,1.16-3.05.52-1.32.98-2.53,1.51-4.04.28-.84,1.19-1.29,2.04-.99.84.29,1.29,1.2,1,2.05-.54,1.55-1.01,2.79-1.54,4.15-.35.9-.72,1.86-1.15,3.01-3.43,9.24-7.2,18.37-11.21,27.15-9.16,20.06-19.46,38-30.63,53.34-12.82,17.62-26.84,31.82-41.65,42.21-20.91,14.64-42.77,22-65.22,22Z" fill="#1b1b1b" stroke-width="0"/><path d="m393.4,117.86c-26.01,0-76.64-14.96-123.17-33.83-13.08-5.31-25.79-10.87-37.76-16.54-.8-.38-1.15-1.34-.77-2.14.38-.81,1.33-1.15,2.14-.77,11.92,5.64,24.57,11.19,37.59,16.47,74.91,30.38,131.85,39.91,136.09,29.44,4.24-10.46-43.25-43.29-118.16-73.67C214.47,6.44,157.54-3.07,153.28,7.38c-1.09,2.69,1.52,7.26,7.36,12.86.65.61.66,1.63.05,2.27-.62.64-1.63.67-2.28.05-7.15-6.86-9.8-12.22-8.11-16.39,6.59-16.31,77.2,2.09,140.28,27.67,63.07,25.58,126.53,61.56,119.93,77.86-1.73,4.27-7.87,6.16-17.11,6.16Z" fill="#1b1b1b" stroke-width="0"/><path d="m385.53,137.51c-8.79,0-19.6-1.7-29.28-3.7-26.19-5.41-59.59-16.09-94.03-30.06-63.07-25.57-126.53-61.56-119.92-77.85.34-.83,1.26-1.23,2.09-.88.83.33,1.22,1.27.89,2.09-4.24,10.46,43.24,43.28,118.16,73.67,34.27,13.89,67.46,24.51,93.47,29.88,36.31,7.5,41.8,1.55,42.62-.45.33-.82,1.27-1.24,2.09-.89.83.33,1.22,1.27.88,2.1-1.81,4.48-8.44,6.09-16.97,6.09Z" fill="#1b1b1b" stroke-width="0"/><path d="m389.74,108.69c-5.89,0-15.4-1.27-30.88-5.17-23.41-5.9-53.53-16.14-84.84-28.84-47.61-19.31-116.51-52.76-111.23-65.8.95-2.32,3.78-3.54,8.66-3.71.98.01,1.64.67,1.66,1.55.03.89-.66,1.63-1.55,1.66-4.8.17-5.64,1.35-5.79,1.71-2.5,6.17,37.94,32.59,109.46,61.6,31.17,12.64,61.15,22.83,84.41,28.7,27.5,6.93,36.22,5.37,37.04,3.33.13-.33.94-3.52-12.15-12.82-.72-.51-.89-1.52-.38-2.25.51-.71,1.51-.89,2.25-.37,10.6,7.53,14.82,12.82,13.26,16.65-.47,1.17-1.52,3.74-9.92,3.74Z" fill="#1b1b1b" stroke-width="0"/><path d="m143.79,28.11c-1.43-.45-1.83-1.39-1.49-2.21l8-19.73c.33-.83,1.27-1.24,2.09-.89.83.33,1.22,1.27.88,2.1l-8,19.72c-.25.63-.85,1-1.49,1Z" fill="#1b1b1b" stroke-width="0"/><path d="m401.01,132.42c-1.43-.45-1.83-1.39-1.49-2.21l8-19.72c.33-.83,1.27-1.23,2.09-.88.83.33,1.22,1.27.88,2.09l-8.01,19.72c-.25.63-.85,1-1.49,1Z" fill="#1b1b1b" stroke-width="0"/><path d="m127.51,349.95c-13.65-35.04-.52-54.25,11.06-71.2,1.98-2.89,3.93-5.74,5.73-8.62,12.11-19.41,28.74-32.45,36.67-32.45,7.08.25,29.78,7.87,30.75,8.2.88,13.87-14.2,16.41-23.92,17.05,1.9.7,3.79,1.41,5.66,2.13,6.84,2.65,13.99,5.68,19.6,11.08,1.89,1.81,4.07,4.28,4.14,7.27.06,2.28-.79,4.68-2.52,7.12-2.14,3.01-4.15,4.22-5.64,4.68.11,1.79-.38,4.68-3.01,8.69-2.47,3.76-4.91,5.42-6.5,6.14.51,2.31.78,5.68-.49,7.96-2.27,4.07-6.92,6.7-11.83,6.7-3.65,0-7.35-1.34-10.93-2.62-1.58-.57-3.13-1.13-4.61-1.54-5.87-1.62-10.15-2.15-14.46-1.63-4.34.53-7.83,4.83-10.92,8.61-5.24,6.26-8.96,11.1-12.25,15.37-2.18,2.52-4.51,5.21-5.03,5.98-1.16,1.05-1.34,1.08-1.52,1.08Zm53.6-109.04c-6.26,0-22.12,11.76-34.08,30.93-1.83,2.92-3.8,5.81-5.8,8.74-11.35,16.6-23.07,33.75-13.18,64.36.63-.74,1.43-1.66,2.43-2.81,4.33-5.49,8.07-10.36,11.96-14.97,4.67-5.7,8.77-10.74,14.39-11.44,4.74-.59,9.41-.02,15.71,1.72,1.56.43,3.19,1.02,4.85,1.61,3.32,1.19,6.75,2.43,9.83,2.43,3.77,0,7.31-1.99,9.02-5.06.8-1.43.56-4.74-.17-6.93,1.33-2.11,4.15-2.61,7.28-7.37,3.4-5.17,2.35-7.53,2.33-7.55,2.13-2.35,3.98-2.52,6.39-5.91.9-1.28,1.98-3.22,1.93-5.18-.05-1.82-1.71-3.64-3.15-5.03-5.18-4.98-11.72-7.76-18.53-10.39-4.15-1.6-8.33-3.11-12.52-4.63-.72-.26-1.41-1.16-1.29-1.92.23-1.45,1.23-1.48,4.21-1.58,11.02-.36,25.56-1.95,26.81-11.4-4.81-1.59-22.88-7.44-28.4-7.64h0Z" fill="#1b1b1b" stroke-width="0"/><path d="m196.96,379.45c-1.01-.07-1.67-.84-1.61-1.72,1.84-24.83-.72-49.25-.75-49.5-.09-.88.54-1.68,1.43-1.78.84-.17,1.67.54,1.77,1.43.03.25,2.63,24.96.76,50.08-.06.84-.77,1.49-1.6,1.49Z" fill="#1b1b1b" stroke-width="0"/><path d="m803.28,992.18c-1.58-1.32-9.52-43.96-9.52-43.96-.17-.87.41-1.72,1.28-1.88.93-.15,1.72.41,1.88,1.29l7.94,42.64c.17.87-.41,1.72-1.28,1.88-.11.02-.2.03-.3.03Z" fill="#1b1b1b" stroke-width="0"/><path d="m827.93,987.8c-.84,0-1.55-.65-1.6-1.5-.03-.34-2.23-33.88-5.06-42.08-.29-.84.16-1.76,1-2.05.84-.29,1.75.16,2.05,1,2.96,8.6,5.13,41.52,5.22,42.92.06.89-.61,1.66-1.5,1.71-.03,0-.07,0-.1,0Z" fill="#1b1b1b" stroke-width="0"/><path d="m196.91,310.6c-1.02-.37-7.29-5-24.23-10.81-16.24-5.57-23.07-.33-23.14-.28-.68.56-1.7.45-2.25-.23-.56-.69-.47-1.68.21-2.25.33-.27,8.1-6.51,26.23-.29,17.53,6.01,23.9,10.77,24.16,10.97.71.54.85,1.54.31,2.25-.32.42-.8.64-1.29.64Z" fill="#1b1b1b" stroke-width="0"/><path d="m207.08,295.42c-1.27-.61-8.94-8.85-25.77-14.62-15.95-5.46-20.47-2.54-20.52-2.5-.69.5-1.7.36-2.23-.33-.52-.69-.43-1.65.24-2.19.53-.44,5.74-4.13,23.55,1.98,17.68,6.06,25.59,14.62,25.91,14.98.6.65.55,1.67-.11,2.27-.3.28-.7.42-1.08.42Z" fill="#1b1b1b" stroke-width="0"/><path d="m169.16,263.54c-.83,0-1.54-.64-1.6-1.49-.07-.88.59-1.66,1.48-1.72,6.87-.53,11.3-.01,11.48,0,.88.11,1.51.91,1.4,1.79-.1.88-.82,1.48-1.79,1.41-.04,0-4.33-.51-10.85,0-.04,0-.08,0-.12,0Z" fill="#1b1b1b" stroke-width="0"/><path d="m512.17,487.3c-3.22-5.53-3.12-9.77-1.2-13.65,4.35-8.78,16.51-12.44,17.02-12.59.88-.25,1.75.23,2,1.09.26.85-.23,1.75-1.08,2-.12.03-11.34,3.42-15.06,10.93-1.5,3.04-1.56,6.41-.18,10.03.33.83-.1,1.76-.92,2.08-.19.07-.39.11-.58.11Z" fill="#1b1b1b" stroke-width="0"/></svg>