<?xml version="1.0" encoding="UTF-8"?><svg id="a" xmlns="http://www.w3.org/2000/svg" width="1000" height="1000" viewBox="0 0 1000 1000"><path d="m627.3,657.25c1.07-.17,7.85-1.32,12.21-2.45-3.29,1.22-7.18,2.37-11.43,3.44.02,0,.06-.01.09-.01,10.89-1.13,18.94-3.87,22.42-7.43.01,7.16-.04,14.09-.09,21.02-.05,7.6-.1,15.2-.08,23.1l.04,25.62c-.01,6.04-.03,12.28,4.45,17.22,3,3.29,7.17,5.04,11.53,5.04,2.11,0,4.26-.4,6.36-1.24,5.84-2.35,10.3-7.19,14.36-11.94,2.13-2.49,4.24-5.02,6.34-7.56,6.2-7.47,12.61-15.2,19.78-21.82,16.83-15.55,37.07-19.78,47.89-21.44.03-.01.05-.01.08-.01,3.35-.28,5.43-.27,5.43-.27,0,0,.12.02.42.06-2.02,6.08-5.74,19.22-1.18,22.05.7.44,1.58.63,2.58.63,9.3,0,29.85-16.89,32.74-19.72,0,0,.04-1.14.08-2.97,6.61-.21,49.75-.46,66.67,25.56,16.4,25.19,17.62,62.02,18.35,70.77-5.03-.61-8.37.56-9.95,3.46-.02-.03-.04-.05-.06-.06-.09.24-9.09,24.28-17.06,53.17.4,0,.78-.26.91-.67,7.06-21.98,14.19-41.68,15.95-49.24.01.05.03.1.05.15,1.35,3.58,7.6,7.95,17.11,11.84.02.09.03.17.05.26.66,3.12,3.63,6.98,13.9,8.03,0,5.9.02,41.67.2,71.26-.81.85-1.63,1.67-2.45,2.45.74-.85,1.45-1.76,2.13-2.73-11.54,11.65-24.78,14.54-40.45,8.81-8.79-3.21-15.68-9.83-21.96-19.74-.6-1.14-1.11-2.22-1.54-3.18-2.6-38.78.03-111.61-1.7-112.47-.03.86-3.25,85.62.52,121.12,1.11,10.42,4.27,21.59,7.33,32.41,1.23,4.33,2.4,8.45,4.07,12.99-40.59,0-92.23.02-150,.05,6.51-29.25,17.89-94.77,12.83-117.72-6.14-27.81,3.72-55.56,2.03-56.48-.01.03-.13.36-.32.97-.01.01-.01.02-.02.03-2.2,4.26-13.46,28.07-9.86,61.41-1.8,1.09-3.62,2.07-5.68,3.16-9.23,4.83-18.78,8.03-28.4,9.49-8.88,1.35-18.14,1.19-27.81.55-3.81-.72-6.24-1.41-6.24-1.41l-.56-4.31c0-3.69-.1-6.23-.18-7.6.45-.37.88-.76,1.3-1.16,5.44-5.24,7.54-12.39,8.35-17.46,2.07-13.04,1.07-25.54-2.87-36.17-3.24-8.73-8.31-16.68-13.21-24.37-1.34-2.09-2.67-4.19-3.97-6.29-.54-.88-1.09-1.76-1.63-2.62" fill="#fff" stroke="#1a1a1a" stroke-miterlimit="10"/><path d="m651.88,729.15c1.44,7.04,5.57,9.68,13.01,12.62,7.44,2.95,18.42-7.75,25.86-17.92,7.45-10.18,22.01-26.14,38.14-35.78,11.08-6.63,24.79-8.66,32.28-9.27-10.82,1.66-31.07,5.89-47.9,21.44-7.17,6.62-13.58,14.35-19.78,21.82-2.1,2.54-4.21,5.07-6.34,7.56-4.06,4.75-8.52,9.59-14.36,11.94-2.1.84-4.25,1.24-6.36,1.24-4.36,0-8.53-1.75-11.53-5.04-4.48-4.94-4.46-11.18-4.45-17.22l-.04-25.62c-.02-7.9.03-15.5.08-23.1" fill="none" stroke="#1a1a1a" stroke-miterlimit="10"/><path d="m855.06,912.76l.26.86h-1.6s-150.39-.56-150.39-.56h-.98s.01-.08.05-.25c.41-2.32,3.68-20.76,6.84-39.15.01-.06.02-.12.03-.18,2.48-14.4,4.89-28.72,5.81-35.22,2.17-15.4.63-40.74.63-40.74-.26.28-.55.56-.85.83-1.52,1.42-3.5,2.77-5.82,4.07-9.15,5.13-23.51,9.39-34.92,12.19-9.59,2.35-21.04.92-27.96-.39,9.67.64,18.93.8,27.81-.55,9.62-1.46,19.17-4.66,28.4-9.49,2.06-1.09,3.88-2.07,5.68-3.16-3.6-33.34,7.66-57.15,9.86-61.41.01-.01.01-.02.02-.03.19-.61.31-.94.32-.97,1.69.92-8.17,28.67-2.03,56.48,5.06,22.95-6.32,88.47-12.83,117.72,57.77-.03,109.41-.05,150-.05-1.67-4.54-2.84-8.66-4.07-12.99-3.06-10.82-6.22-21.99-7.33-32.41-3.77-35.5-.55-120.26-.52-121.12,1.73.86-.9,73.69,1.7,112.47-1.22-2.73-1.83-4.56-1.83-4.56l.38,2.74.08.58,2.87,20.56,8.66,28.93,1.73,5.8Z" fill="none" stroke="#1a1a1a" stroke-miterlimit="10"/><path d="m934.91,795.09s-.08.59-.22,1.66c-.03.23-.06.48-.1.76-.1.69-.21,1.52-.35,2.47h0c-1.53,10.87-5.49,36.81-9.69,47.04-1.41,3.43-3.1,6.79-5.01,10.02-.94,1.61-1.94,3.19-2.98,4.73-.24.36-.49.72-.74,1.07-.31.45-.63.9-.95,1.34-1.86,2.56-3.82,4.98-5.85,7.22-.32.36-.64.71-.97,1.05-.2.22-.4.44-.61.65-.18-29.59-.2-65.36-.2-71.26-10.27-1.05-13.24-4.91-13.9-8.03-.02-.09-.03-.17-.05-.26-9.51-3.89-15.76-8.26-17.11-11.84-.02-.05-.04-.1-.05-.15-1.76,7.56-8.89,27.26-15.95,49.24-.13.41-.51.67-.91.67,7.97-28.89,16.97-52.93,17.06-53.17.02.01.04.03.06.06,1.58-2.9,4.92-4.07,9.95-3.46-.73-8.75-1.95-45.58-18.35-70.77-16.92-26.02-60.06-25.77-66.67-25.56-.04,1.83-.08,2.97-.08,2.97-2.89,2.83-23.44,19.72-32.74,19.72-1,0-1.88-.19-2.58-.63-4.56-2.83-.84-15.97,1.18-22.05.3.03.78.08,1.49.12.13,0,.28.02.44.03,3.59.19,12.07.26,30.43-1.01.31-.03.63-.05.95-.07.32-.02.63-.04.94-.06,4.16-.26,8.14-.23,11.91.01,21.3,1.31,35.91,9.29,39.63,11.27,4.43,2.35,16.7,10.28,25.55,34.97,7.66,21.37,8.19,45.09,8.2,51.1,0,.44,0,.78-.01,1.02.01.07,0,.13,0,.18v.24l.73.04,2.85.18c.26.02.53.05.79.08.16.01.31.03.47.04.02.01.03.01.05.01.01,0,.02.01.04,0,.41.05.82.1,1.24.16,18.79,2.36,32.13,10.55,38.28,15.1.3.22.59.43.86.64.01.01.02.01.03.02.23.18.45.35.65.51.13.1.26.2.38.29-.01,0,0,0,0,0,1.26,1.01,1.91,1.63,1.91,1.63Z" fill="none" stroke="#1a1a1a" stroke-miterlimit="10"/><path d="m754.17,611.19s-5.19-10.56-.89-19.31c4.3-8.76,17.39-13.29,25.97-13.46,8.58-.17,20.15-.2,30.73,7.43,0,0-2.6-18.5,12.37-22.6,14.96-4.09,26.6,8.01,28.57,12.51,1.97,4.5,7.77,18.08-7.56,25.43-15.33,7.34-15.77,3.29-15.77,3.29,0,0,4.24,11.24-.52,20.57-4.77,9.33-12.43,25.08-24.46,26.68-12.03,1.6-47.8-40.55-47.8-40.55h-.64Z" fill="#1a1a1a" stroke-width="0"/><path d="m800.29,681.51l.96-29.86s-3.22-4.9-1.94-8.54c0,0,11.35-2.88,10.6-11.82-.75-8.93-9.5-8.73-9.5-8.73,0,0-5.96-10.68-1.4-22.87,0,0-11.62,3.63-21.23,3.96-9.62.33-21.73-1.18-21.73-1.18l-1.8,32.35s-3.27,25.89,14.35,25.28l.64,16.82s-8.43,22.01-2.14,23.2c6.3,1.19,32.63-17.47,33.19-18.62Z" fill="#fff" stroke-width="0"/><path d="m644.24,639.61h0c-.03.17-.05.32-.07.47-.41,2.53-.8,4.09-.8,4.09l-.36,9.22v.18c-.13.09-.29.17-.48.26-.66.31-1.73.64-3.02.97-4.36,1.13-11.14,2.28-12.21,2.45-.1.02-.15.03-.15.03v-9.12c-.1.04-.19.07-.29.1-.15.06-.3.12-.45.16-.07.03-.14.05-.21.07-7.29,2.31-15.89-.9-15.54-8.34.38-7.77,7.78-8.19,10.6-8.7,2.28-.41,4.52-2.25,5.28-2.93.12-.1.2-.18.24-.22l.03-.03c.01-.12.01-.25.01-.38.08-3.47-1.64-7.11-3.13-9.58-.6-1-1.16-1.8-1.54-2.33-.33-.46-.54-.71-.54-.71,0,0-.37.85-.85,1.96-.01,0-.01.01-.02.02-.36.8-.78,1.74-1.18,2.6-.88,1.87-3.8,4.88-7.35,5.53-.08.03-.16.05-.24.05-.24.04-.48.07-.72.08h-.06c-.7.04-1.35-.05-1.94-.22-.01,0-.03-.01-.04-.01-2.5-.74-3.96-2.93-4.17-3.25-.01-.03-.02-.04-.02-.04l-.13.04c-.09.03-.22.07-.39.12-.01.01-.02.01-.03.01-.45.14-1.14.34-1.88.5l-.09.02c-.24.05-.49.1-.73.15-.61.1-1.2.16-1.68.13-.34-.02-.62-.09-.81-.22-.04-.02-.08-.05-.11-.08.07-.2.14-.42.21-.64.74-2.62.79-6.52.52-10.6-.39-5.87-1.46-12.1-2.06-15.32-.12-.65-.23-1.18-.31-1.56-.05-.26-.08-.45-.11-.56-.01-.07-.02-.11-.02-.11,0,0,0-.36.2-.84.37-.91,1.43-2.28,4.51-2.56.6-.06,1.28-.08,2.04-.04,2.91.15,5.36.8,7.21,1.5,1.14.43,2.05.88,2.7,1.24.76.41,1.16.7,1.16.7,0,0,5.91-1.36,12.86,1.55,6.94,2.91,10.39,6.48,14.92,19.25,3.06,8.64,2.15,19.08,1.24,24.94Z" fill="#fff" stroke-width="0"/><path d="m916.68,751.49s15.39,1.34,18.23,11.99c2.85,10.65-.75,27.05-3.84,30.51-3.1,3.46-7.68,7.82-16.68,7.24-9-.58-12.64-.81-15.08-2.25-2.44-1.44-7.51-4.08-3.98-10.85l-.02-1.87s-8.9-6.63-.33-14.56c-.01-1.77-3.01-9.54,1.34-13.37,4.35-3.83,11.88-5.27,11.88-5.27l-.43,5.9s3.13,1.25,4.82,1.04c1.69-.21,3.24-1.04,3.24-1.04l.86-7.48Z" fill="#fff" stroke-width="0"/><path d="m923.51,799.8s7.5-3.75,8.76-8.03c0,0,4.18,2.41,2.63,5.3-1.55,2.89-11.4,2.73-11.4,2.73Z" fill="#1a1a1a" stroke-width="0"/><path d="m894.05,792.55l1.92-5.72s-6.15-3.31-4.04-10c0,0-10.77-2.95-14.21,1.57-4.03,5.3,16.33,14.15,16.33,14.15Z" fill="#1a1a1a" stroke-width="0"/><path d="m907.77,758.96l.43-36.69,53.61-45.71h10.58l-56.28,48.98.21,33.41s-7.23,2.06-8.55,0Z" fill="#1a1a1a" stroke-width="0"/><polygon points="907.79 801.28 908.19 913.62 915.82 913.62 915.82 801.18 907.79 801.28" fill="#1a1a1a" stroke-width="0"/><path d="m979.55,667.03c-9.39,1.41-10.96-10.11-10.96-10.11-3.75-.24-7.15,2.47-9.97,4.59-3.63,2.72-6.37,5.64-11.24,4.28-2.37-.66-4.61-1.86-7.05-2.16-6.25-.76-14.28,6.28-20.04,2.12-2-1.44-2.78-4.04-3.05-6.48-.27-2.45-.17-4.97-.95-7.31-1.89-5.64-7.74-7.61-13.18-6.6-5.25.98-8.74,4.09-11.62,8.47-2.32,3.54-4.46,7.44-8.05,9.66-2.77,1.71-6.22,2.23-9.4,1.56-5.74-1.21-8.88-6.2-13.46-9.36-4.27-2.95-9.59-4.17-14.78-4.02-5.19.14-10.28,1.59-15.07,3.58-2.52,1.05-2.67,3.4-2.3,5.59.47,2.72,1.65,5.12,2.93,7.57,2.1,3.99,6.36,7.56,11.06,8.08,0,.08,140.68.08,140.68.08,8.02,0,14.95-9.6,14.95-21.43-9.88-3.97-9.11,10.48-18.5,11.89Z" fill="#fff" stroke-width="0"/><path d="m987.91,655.14c0,3.92-1.99,7.11-4.43,7.11s-4.43-3.18-4.43-7.11,1.98-7.11,4.43-7.11,4.43,3.18,4.43,7.11Z" fill="#1a1a1a" stroke-width="0"/><path d="m715.71,797.52l-.89.53-2.61,1.54-4.05,2.39c-.04-.32-.07-.64-.11-.96-3.6-33.34,7.66-57.15,9.86-61.41.01-.01.01-.02.02-.03.22-.43.34-.65.34-.65-3.79,16.08-4.15,25.11-5.03,36.89-.87,11.79,2.47,21.7,2.47,21.7Z" fill="#1a1a1a" stroke-width="0"/><path d="m626.8,628.27s-8.2,7.23-30.17,3.66l2.35-8.28,6.03-1.65s1.46,3.55,6.23,3.52c4.77-.03,10.01-9.1,10.01-9.1,0,0,4.85,4.5,5.55,11.86Z" fill="#cccbcb" stroke-width="0"/><path d="m933.95,789.92c-.28.84-.58,1.63-.92,2.37,0,.04-.03.08-.04.11-.11.22-.21.44-.32.65-.02.04-.03.08-.05.11-1.54,3.02-3.64,5.13-6.53,6.58-.36.19-.73.36-1.12.52-2.9,1.22-6.04,1.73-9.15,1.87-.25.02-.5.02-.74.03-.07,0-.14.01-.21,0-.37.02-.74.02-1.1.02-1.83,0-3.63-.1-5.33-.23-.22-.02-.44-.03-.65-.06-.09,0-.18-.01-.27-.02-.1-.01-.19-.02-.28-.03-10.27-1.05-13.24-4.91-13.9-8.03-.02-.09-.03-.17-.05-.26-.09-.47-.12-.94-.12-1.4,0-.22.01-.43.04-.64.16-1.78.88-3.38,1.66-4.4.15-.2.3-.37.44-.51.04-.05.08-.09.12-.12.18-.17.35-.29.51-.38.11.51.07,1.06-.05,1.65-.3,1.68-1.15,3.66-.68,5.74.85,3.68,5.48,5.94,13.38,6.56,5,.39,10.77.51,15.64-1.54,3.17-1.33,5.32-3.34,6.85-6.52.39-.81.74-1.69,1.06-2.66,3.03-9.24,3.52-15.6,1.93-25.19-.37-2.31-2.37-5.81-5.66-8.82-2.93-2.69-6.89-4.99-11.64-5.71-.16-.02-.34-.05-.51-.07-.08-.01-.17-.02-.26-.03.09,0,.17-.01.26-.01.17-.01.34-.02.51-.02,10.6-.23,18.23,8.54,19.18,14.35,1.64,9.94,1.13,16.52-2,26.09Z" fill="#1a1a1a" stroke-width="0"/><path d="m911.14,761.5c-1.99,0-4.08-.57-6.31-1.72,4.78.32,7.89.35,10.98-1.62-.79,2.76-2.67,3.34-4.67,3.34Z" fill="#1a1a1a" stroke-width="0"/><path d="m909.45,789.75c-2.48,0-5.03-.19-7.76-.42-2.95-.25-5.22-1.01-6.96-2.31-1.87-1.4-3.21-3.58-3.71-5.99-.84-4.06.54-7.86,3.77-10.44-1.5,3.64-2.6,6.68-1.9,10.05.41,1.96,1.49,3.73,2.99,4.85,1.44,1.08,3.4,1.71,5.97,1.93,6.25.54,11.48.82,17.18-.89-2.92,2.87-6.2,3.22-9.58,3.22Z" fill="#1a1a1a" stroke-width="0"/><path d="m768.26,677.7c-.24.06-.55.13-.93.2-1.31.22-3.4.47-6.08.89-.03,0-.05,0-.08.01-10.82,1.66-31.06,5.89-47.89,21.44-7.17,6.62-13.58,14.35-19.78,21.82-2.1,2.54-4.21,5.07-6.34,7.56-4.06,4.75-8.52,9.59-14.36,11.94-2.1.84-4.25,1.24-6.36,1.24-4.36,0-8.53-1.75-11.53-5.04-4.48-4.94-4.46-11.18-4.45-17.22l-.04-25.62c-.02-7.9.03-15.5.08-23.1.05-6.93.1-13.86.09-21.02v-2.63c.08.35.16.7.24,1.05.08.36.15.72.22,1.08.16.77.29,1.53.41,2.29,1.04,6.53.99,12.88.95,19.24-.05,7.6-.11,15.19-.09,23.09l.05,25.63c-.01,5.93-.03,11.54,3.96,15.93,3.9,4.29,10.11,5.59,15.75,3.31,5.45-2.19,9.56-6.65,13.64-11.41,2.12-2.48,4.21-5.01,6.31-7.54,6.25-7.52,12.69-15.29,19.96-22,21.64-20.01,48.99-21.76,55.44-21.24.33.03.61.06.83.1Z" fill="#1a1a1a" stroke-width="0"/><path d="m714.52,796.75c-.77,1.08-1.53,2.01-2.31,2.84-1.03,1.11-2.07,2.02-3.17,2.83-1.75,1.29-3.62,2.32-5.78,3.45-9.43,4.93-19.18,8.19-28.99,9.68-4.09.62-8.24.94-12.46.94-7.24,0-14.63-.92-22.11-2.75,2.17.18,4.33.34,6.46.48,9.67.64,18.93.8,27.81-.55,9.62-1.46,19.17-4.66,28.4-9.49,2.06-1.09,3.88-2.07,5.68-3.16,2.04-1.21,4.08-2.54,6.47-4.27Z" fill="#1a1a1a" stroke-width="0"/><path d="m907.12,872.82c-.68.97-1.39,1.88-2.13,2.73-6.42,7.51-14.65,10.79-23.64,10.79-4.9,0-10.01-.98-15.34-2.92-9.68-3.54-17.15-10.94-22.69-22.55-.52-1.1-1.03-2.23-1.52-3.4-.22-.54-.45-1.1-.67-1.66.2.36.4.72.59,1.08.5.88,1,1.75,1.5,2.59.49.83.98,1.63,1.49,2.41,6.28,9.91,13.17,16.53,21.96,19.74,15.67,5.73,28.91,2.84,40.45-8.81Z" fill="#1a1a1a" stroke-width="0"/><path d="m916.1,864.32c5.13-10.36,9.83-21.75,11.77-31.96.87-4.52,1.9-10.89,3-17.63.97-5.93,2.02-12.32,3.09-18.41.8,6.42-.23,12.79-1.2,18.72-1.11,6.75-2.15,13.13-3.01,17.68-2,10.45-6.81,22.1-12.86,31.18-.18.27-.49.42-.79.42Z" fill="#1a1a1a" stroke-width="0"/><path d="m876.13,781.56c-1.76,7.56-8.89,27.26-15.95,49.24-.13.41-.51.67-.91.67,7.97-28.89,16.97-52.93,17.06-53.17.02.01.04.03.06.06.27.28.16,1.4-.26,3.2Z" fill="#1a1a1a" stroke-width="0"/><path d="m894.3,793.8c-.07.04-.16.05-.25.05-.26-.1-.51-.2-.76-.3-9.51-3.89-15.76-8.26-17.11-11.84-.02-.05-.04-.1-.05-.15-.36-1.07-.31-2.09.13-2.98.04-.07.08-.15.13-.22,1.58-2.9,4.92-4.07,9.95-3.46.1,0,.2.02.3.04.31.03.62.08.95.14,1.09.17,2.26.43,3.5.76-1.06.11-2.16.18-3.25.24-.1,0-.2.01-.3.01-.31.02-.61.03-.91.05-.05,0-.1,0-.15,0-3.74.22-7.17.63-8.51,3.29,1.13,4.52,6.91,8.56,15.24,12.07.3.13.61.26.93.39.03.01.07.03.11.05.05.02.11.04.16.06.29,1.24.15,1.66-.11,1.79Z" fill="#1a1a1a" stroke-width="0"/><path d="m927.32,801.28c-1.16,0-2.46-.07-3.91-.21,8.67-1.09,9.98-2.91,10.58-4.86.88,3.69-1.6,5.07-6.67,5.07Z" fill="#1a1a1a" stroke-width="0"/><path d="m934.91,797.44c-.63-2.14-1.29-3.4-3.03-5.31,3.02.47,4.58,2.56,3.94,4.63-.12.41-.5.67-.91.67Z" fill="#1a1a1a" stroke-width="0"/><path d="m887.59,775.08c0,.47-.01.73-.01.76,0,.07,0,.14-.03.21,0,.01,0,.03-.01.04-.03.12-.09.24-.18.33-.17.22-.44.36-.74.36-.05-.08-.1-.29-.14-.63-.02-.06-.03-.13-.03-.2-.04-.28-.07-.63-.11-1.05-.73-8.75-1.95-45.58-18.35-70.77-16.92-26.02-60.06-25.77-66.67-25.56-.52,0-.82.03-.85.03.03-.14.33-.29.86-.42,1.76-.46,6.13-.81,11.93-.58,16.17.62,43.46,5.71,56.33,25.49,17.37,26.67,18,66.03,18,71.99Z" fill="#1a1a1a" stroke-width="0"/><path d="m716.22,795.09c5.06,22.95-6.32,88.47-12.83,117.72-.02.08-.04.17-.06.25-.06.26-.11.52-.17.77-.11.44-.5.74-.93.74.09-.49.18-1,.28-1.51,0-.08.03-.17.05-.25,1.88-10.21,4.38-24.21,6.68-39.15.01-.06.02-.12.03-.18,4.3-27.92,7.92-59.1,5.59-75.13,0-.1-.02-.2-.04-.3-.13-.9-.28-1.75-.46-2.55-5.6-25.36,1.83-50.62,3.55-55.89.01-.01.01-.02.02-.03.19-.61.31-.94.32-.97,1.69.92-8.17,28.67-2.03,56.48Z" fill="#1a1a1a" stroke-width="0"/><path d="m769.62,661.09c-2.79,0-5.06-.35-7.04-1.09-3.96-1.46-6.53-4.56-7.88-9.47-1.09-3.97-1.56-8.38-1.48-13.9l1.23-34.18c1.91.06.67,34.23.67,34.23-.08,5.31.37,9.56,1.41,13.35,1.17,4.27,3.37,6.95,6.71,8.19,2.05.75,4.47,1.07,7.64.94,3.16-.11,7.78-.45,11-.93-3.01,2.38-7.72,2.72-10.93,2.84-.46.01-.9.03-1.34.03Z" fill="#1a1a1a" stroke-width="0"/><path d="m801.35,677.59c-.01.21-.02.4-.02.59,0,.14,0,.27,0,.39-.04,1.83-.08,2.97-.08,2.97-2.89,2.83-23.44,19.72-32.74,19.72-1,0-1.88-.19-2.58-.63-4.56-2.83-.84-15.97,1.18-22.05.08-.24.16-.47.23-.68.04-.1.07-.2.1-.3.19-.55.35-1,.48-1.35l-.06-15.22v-.67c.24,0,.45.25.64.7.05.14.11.29.16.46,1.13,3.69,1.17,14.9,1.17,14.9-.27.74-.53,1.52-.79,2.31-2.71,8.22-4.84,18.58-2.11,20.28,4.5,2.8,22.13-9.42,32.43-17.96l.11-3.33.83-26.09c.4.01.67,1.31.85,3.36.5,5.56.34,16.67.21,22.6Z" fill="#1a1a1a" stroke-width="0"/><path d="m855.01,913.39c-.05.08-.1.16-.15.23-.63.94-.71.95-.78.95-.13-.32-.25-.64-.36-.96-.12-.29-.22-.57-.33-.85-1.67-4.54-2.84-8.66-4.07-12.99-3.06-10.82-6.22-21.99-7.33-32.41-3.77-35.5-.55-120.26-.52-121.12,1.73.86-.9,73.69,1.7,112.47.02.26.03.51.05.77.03.47.07.93.1,1.39.17,2.23.35,4.34.56,6.29,1.09,10.25,4.24,21.35,7.28,32.08.75,2.64,1.48,5.21,2.17,7.72.53,1.96,1.04,3.88,1.52,5.8.06.21.11.42.16.63Z" fill="#1a1a1a" stroke-width="0"/><path d="m802.88,652.68c-5.77-1.13-4.51-9.88-4.45-10.25,1.6,2.19,1.36,7.74,3.94,8.3,3.45.66,13.81-5.93,21.97-21.94,6.35-12.43,4.15-21.2,1.18-26.36-2.74-4.79-6.47-7.06-7.43-7.12-.87-.65-10.92-17.75-37.09-16.08-13.25.88-22.37,5.07-26.36,12.1-3.3,5.81-2.87,13.15,1.25,21.22-6.06-7.69-6.48-15.86-2.91-22.17,4.33-7.62,13.97-12.13,27.89-13.06,25.17-1.74,36.14,13.51,37.86,16.17,2.04.54,5.81,3.38,8.45,7.97,3.19,5.58,5.59,15-1.14,28.18-7.93,15.54-18.11,23.03-23.17,23.03Z" fill="#1a1a1a" stroke-width="0"/><path d="m626.83,630.17c-.95-5.85-2.24-9.59-5.27-13.48,4.77,3.02,6.23,7.24,6.23,12.52,0,.53-.43.95-.96.95Z" fill="#1a1a1a" stroke-width="0"/><path d="m970.92,667.75c-2.45-4.17-3.29-8.33-3.29-12.62,0-4.82,1.03-9.4,2.98-13.26-.11,4.45-1.08,8.74-1.08,13.26,0,4.02.78,7.92,2.25,11.28-.62,1.31-.74,1.34-.88,1.34Z" fill="#1a1a1a" stroke-width="0"/><path d="m983.1,677.53c-3.21,0-6.29-1.4-8.9-4.05,3.6.94,6.21,2.13,8.9,2.13,7.48,0,13.55-9.19,13.55-20.48s-6.08-20.48-13.55-20.48c-2.86,0-5.59,1.35-7.92,3.89,1.29-4.24,4.52-5.8,7.92-5.8,8.52,0,15.46,10.04,15.46,22.39s-6.94,22.39-15.46,22.39Z" fill="#1a1a1a" stroke-width="0"/><path d="m983.1,663.2c-3.23,0-5.76-3.54-5.76-8.06s2.54-8.06,5.76-8.06,5.76,3.54,5.76,8.06-2.54,8.06-5.76,8.06Zm0-14.21c-2.09,0-3.86,2.82-3.86,6.15s1.76,6.16,3.86,6.16,3.85-2.82,3.85-6.16-1.76-6.15-3.85-6.15Z" fill="#1a1a1a" stroke-width="0"/><path d="m842.42,677.53c-8.53,0-15.47-10.04-15.47-22.39s6.93-22.39,15.47-22.39c-7.48,1.91-13.56,11.09-13.56,22.39s6.08,20.48,13.56,20.48c.95,1.49.53,1.91,0,1.91Z" fill="#1a1a1a" stroke-width="0"/><path d="m981.59,677.53h-139.17c0-1.91,139.17-1.91,139.17-1.91.96,1.49.52,1.91,0,1.91Z" fill="#1a1a1a" stroke-width="0"/><path d="m908.19,723.24c-.62-1.68,52.99-47.39,52.99-47.39,1.24,1.45-52.37,47.16-52.37,47.16-.18.15-.4.23-.62.23Z" fill="#1a1a1a" stroke-width="0"/><path d="m915.82,759.92c-.95-.95-.95-34.12-.95-34.12.34-.73,58.08-49.95,58.08-49.95,1.24,1.45-56.17,50.39-56.17,50.39v32.73c0,.53-.43.95-.95.95Z" fill="#1a1a1a" stroke-width="0"/><path d="m916.77,912.74v.32c0,.52-.42.95-.95.95h-7.62c-.06-.06-.11-.49-.16-1.27-.29-4.56-.48-20.85-.6-39.64-.18-29.59-.2-65.36-.2-71.26v-.84c.1,0,.19.3.28.87.1.62.19,1.58.28,2.83v.05c.73,10.45,1.06,40.85,1.22,66.65.13,22.03.13,40.7.13,40.7h5.72v-110.42c.07,0,.14.16.21.48.3,1.39.54,5.7.74,11.87.38,11.68.61,30.01.74,47.74.01.54.01,1.07.02,1.59v.83c.18,23.67.19,45.66.19,48.55Z" fill="#1a1a1a" stroke-width="0"/><path d="m908.19,759.92c-.95-.95-.95-37.64-.95-37.64,1.91,0,1.91,36.68,1.91,36.68,0,.53-.43.95-.96.95Z" fill="#1a1a1a" stroke-width="0"/><path d="m909.01,775.86c-2.03,0-3.8-.12-4.95-.22-5.76-.52-11.34-1.87-10.95-11.88.39-9.99,14.38-11.58,14.98-11.64.07,1.91-12.75,3.38-13.07,11.71-.33,8.38,3.79,9.42,9.22,9.91,2.27.2,10.08.71,14.69-1.32-2.3,3.1-6.48,3.45-9.92,3.45Z" fill="#1a1a1a" stroke-width="0"/><path d="m596.85,594.83c5.6-9.22,18.27-3.03,18.79-2.75-.97,1.65-12.7-4.06-18.06,2.41-.19.23-.46.35-.74.35Z" fill="#1a1a1a" stroke-width="0"/><path d="m642.97,655.07c-.95-1.06-.7-7.5-.79-9.24-.02-.4.09-1.02.38-2.52,1.14-6.09,4.19-22.28-2.54-35.42-3.38-6.62-12.71-13.82-21.21-13.99-6.42,0-11.17,7.85-12.92,15.2-1.46,6.06-1.13,13.03,2.88,14.96,1.87.91,3.59.96,5.26.17,5.72-2.75,8.46-14.4,8.48-14.52,1.74.94-1.12,13.1-7.66,16.24-2.19,1.05-4.51.99-6.92-.17-5.3-2.56-5.41-10.83-3.91-17.13,1.93-8.06,7.32-16.66,14.63-16.66,9.67.19,19.44,7.95,23.06,15.03,7.02,13.73,3.88,30.37,2.7,36.64-.17.91-.35,1.86-.34,2.08.09,1.82-.15,8.15-.16,8.42-.02.51-.45.92-.96.92Z" fill="#1a1a1a" stroke-width="0"/><path d="m620.22,649.68c-1.5,0-2.94-.18-4.26-.55-1.76-.5-3.17-1.29-4.18-2.34-1.35-1.42-2.1-3.47-2.12-5.77-.01-2.31.39-5.46,2.42-7.33,2.14-1.97,5.15-2.5,7.81-2.96,6.5-1.19,9.33-3.98,9.49-8.48,1.77,3.86-.07,8.69-8.09,10.17-3.6.63-6.2,1.08-7.91,2.67-1.61,1.48-1.83,4.35-1.82,5.92.02,1.82.59,3.41,1.6,4.48.76.8,1.88,1.41,3.32,1.81,6.18,1.77,16.76-1.7,22.66-7.39-3.4,5.93-11.85,9.78-18.92,9.78Z" fill="#1a1a1a" stroke-width="0"/><path d="m898.83,756.05c-.64-6.38,8.26-9.41,8.63-9.53-1.64,2.56-7.48,5.25-7.68,8.63-.03.5-.45.9-.96.9Z" fill="#1a1a1a" stroke-width="0"/><path d="m371.16,621.15c56.05-49.71,103.07-101.04,141.05-153.93,37.98-52.89,56.96-103.29,56.96-151.22,0-28.93-6.57-51.54-19.66-67.81-13.12-16.28-32.34-24.41-57.64-24.41s-46.58,11.08-61.03,33.23c-14.47,22.17-21.25,54.48-20.34,96.97H152.8c2.72-80.46,20.34-147.15,52.89-200.05,32.55-52.89,75.04-91.75,127.49-116.63C385.61,12.44,443.93,0,508.14,0c111.21,0,193.94,27.59,248.19,82.73,54.25,55.16,81.37,126.6,81.37,214.28,0,94.05-31.43,182.2-94.26,264.47-62.85,82.28-141.28,155.97-235.3,221.07h339.06v215.64H155.52v-199.36c87.69-68.7,159.57-127.93,215.64-177.67Z" fill="#4a8eff" stroke-width="0"/><polygon points="562.31 726.66 338.33 733 297.89 567.53 542.33 562.17 562.31 726.66" fill="#fff" stroke-width="0"/><path d="m143.43,740.86v172.84H59.74l14.36-171.6c39.65,8.7,69.33-1.24,69.33-1.24Z" fill="#1a1a1a" stroke-width="0"/><path d="m311.25,569.67h220.06s5.31,1.9,7.43,7.72c0,0,9.62.22,17.21,3.83l2.86-.78-6.06-17.04s-4.12-8.52-14.69-9.35h-237.29s-6.53.45-8.77,4.77c0,0-4.01,13.27-6.93,15.8l42.32,154.55s3.74,11.8,15.42,12.77h148.14l4.03-15.28h-136.05s-12.75,1.55-16.48-9.77l-38.13-138.01s.19-8.18,6.93-9.21Z" fill="#fff" stroke-width="0"/><path d="m640.48,799.74c-.42.4-.85.79-1.3,1.16.08,1.37.18,3.91.18,7.6l-.91-7.02-.19-1.44-.1-.78-2.14-16.46-8.57-65.89-.25-1.93-.05-.37v-1.78c.54.86,1.09,1.74,1.63,2.62,1.3,2.1,2.63,4.2,3.97,6.29,4.9,7.69,9.97,15.64,13.21,24.37,3.94,10.63,4.94,23.13,2.87,36.17-.81,5.07-2.91,12.22-8.35,17.46Z" fill="none" stroke="#1a1a1a" stroke-miterlimit="10"/><path d="m907.12,872.82c-.68.97-1.39,1.88-2.13,2.73-1.57,1.51-3.17,2.9-4.76,4.16-9.46,7.48-24.86,6.97-38.6.63-8.09-3.73-13.69-12.16-16.92-18.45,6.28,9.91,13.17,16.53,21.96,19.74,15.67,5.73,28.91,2.84,40.45-8.81Z" fill="none" stroke="#1a1a1a" stroke-miterlimit="10"/><path d="m137.59,458.78s-38.5-9.33-61.94,29.17c-20.06,32.94-31.57,72.47-32.91,89.26-1.34,16.79-.92,49.84,24.91,63.49l-3.05,94.77s11.57,13.22,59.07,8.06l19.32-34.68v-82.31s3.44-15.37,14.49-16.93l42.24-124.81,24.57-.87s-24.28-28.26-55.44-23.97c-31.16,4.29-31.25-1.17-31.25-1.17Z" fill="#fff" stroke-width="0"/><path d="m208.53,469.89s5.86-5.65-.57-17c-6.44-11.35-11.14-11.42-10.83-16.44.31-5.02,2.09-10.73,7.4-18.03,5.3-7.29,8.45-16.33,7.24-30.06-1.21-13.73-7.66-19.07-16.26-23.48-8.6-4.41-23.59-13.19-37.93-3.05,0,0-32.49,4.75-35.43,12.5-2.94,7.75-2.34,30.28-1.62,35.96.72,5.68,1.72,24.11-6.55,28.75-8.27,4.64-14.86,5.5-20.7,6.82-5.84,1.32-20.91,15.09-14.16,35.57,0,0,16.91-20.52,34.37-21.63,17.46-1.1,24.12-1.03,24.12-1.03l32.01,1.03s20.04-1.26,38.92,10.08Z" fill="#1a1a1a" stroke-width="0"/><path d="m190.45,407.14c-.72-.27-1.29-.06-2.06,2.58-.87,2.94-.2,3.63.47,3.75.67.11,1.54-.67,1.96-2.81.42-2.14.57-3.15-.37-3.51Z" fill="#1a1a1a" stroke-width="0"/><path d="m169.09,402.02c-.73-.25-1.29-.03-2,2.63-.79,2.97-.11,3.64.57,3.73.68.1,1.53-.71,1.89-2.86.36-2.15.49-3.17-.46-3.5Z" fill="#1a1a1a" stroke-width="0"/><path d="m171.43,446.3l-3.41,14.88s2.42,24.91-3.72,24.32c-6.14-.59-26.71-26.71-26.71-26.71l9.36-36.57s-11.99.26-9.56-12.24c2.42-12.51,14.64-6.28,14.64-6.28,0,0,6.96-5.68,8.12-12.73,1.16-7.04,2.53-13.3,2.53-13.3,0,0,8.5,9.27,18.84,11.69,10.33,2.43,15.1,9.08,15.1,9.08l-7.37,34.33s-5,17.67-17.82,13.54Z" fill="#fff" stroke-width="0"/><path d="m183.55,531.81l-6.06-8.16s5.62.07,8.27,2.16l-2.21,6Z" fill="#fff" stroke-width="0"/><path d="m181.63,539.59l-11.27,32.44s-8.91-2.28-10.2-1.69c-1.29.59-10.4,13.73-10.4,13.73,0,0-13.01-8.43-18.26-14.16-5.25-5.72-8.88-11.09-8.88-11.09,0,0,16.63-19.48,18.73-23.04,2.1-3.56,13.36-11.66,21.37-11.49l11.33,12.39,7.58,2.91Z" fill="#fff" stroke-width="0"/><path d="m281,522.04l-4.76,13.25s-5.8,1.37-13.58,1.23c-7.78-.14-13.14-.21-14.39,3.92s-2.49,8.59.99,9.95c0,0-4.63,5.78-4.06,8.42.57,2.64,2.51,4.9,2.51,4.9,0,0-3.65,2.47-2.56,6.75,1.09,4.28,3.5,10.45,15.7,9.97,12.21-.47,21.63-2.62,24.2-4.79,2.57-2.17,7.99-13.19,7.63-24.9-.35-11.71,1.07-18.71-11.69-28.7Z" fill="#fff" stroke-width="0"/><path d="m399.65,625.38s-6.58-7.33-13.87-7.78c-7.28-.45-12.36.87-12.36.87,0,0-3.84-3.27-7.75-1.82-3.91,1.46-4.07,6.51-4.07,6.51,0,0-3.48,2-3.41,5,.07,3,1.21,7.78,1.21,7.78,0,0-1.52,4.92,1.15,10.36,2.68,5.45,8.71,14.57,10.53,16.79,1.81,2.22,5.91,13.83,5.91,13.83,0,0,10.91-4.77,16.98-5.12s18.96.21,18.96.21l-2.28-10.45s.54-10.64-.24-13.86c-.78-3.21-4.17-10.61-4.17-10.61l-17.45-1.4-10.58-11.58,21.43,1.27Z" fill="#fff" stroke-width="0"/><path d="m638.04,833.41c-2.04,21.46.73,75.61.93,79.44.01.14.01.21.01.21h-163.4s.02-.05.03-.08c.23-.6.45-1.28.67-2.04,4.77-16.26,7.5-65.21,7.88-72.51.02-.32.03-.56.04-.71.01-.14.01-.21.01-.21,0,0-.05.04-.19.11-.15.08-.4.2-.79.34-1.54.56-5.27,1.53-13.69,2.17-5.14.4-10.09.74-16.03,0-.04,0-.08-.01-.12-.01-8.51-1.06-19.04-4.32-35.01-12.7-.47-.25-.94-.51-1.41-.79-.02-.01-.03-.02-.05-.03h0c-26.32-15.74-41.78-77.58-41.78-77.58l-1.21-6.03-.21-1.05-.03-.17h-.01s-1.95-9.72-1.95-9.72l-1.08-5.39-7.47-37.23s2.28-6.72,13.75-12.13c.35-.16.71-.33,1.08-.49,3.89-1.72,8.75-3.27,14.83-4.39,1.7-.31,3.32-.56,4.88-.74h.01c5.63-.66,10.39-.52,14.36.04.28.04.55.09.82.14.14.01.28.04.42.06,10.55,1.82,15.03,6.65,15.03,6.65,0,0,8.64,26.37,15.75,48.09.08.25.16.49.24.74.02.07.05.14.07.22.26.79.52,1.58.78,2.36,1.41,4.34,2.75,8.42,3.91,11.96.53,1.63,1.02,3.14,1.47,4.51,6.46,19.78,8.2,17.02,16.69,18.47,8.49,1.44,14.45-5.42,20.3-20.06.23-.57.45-1.12.66-1.63.18-.45.36-.88.53-1.29.03-.07.06-.15.09-.22,2.13-5.09,3.3-7.18,4.91-10.45.4-.81.83-1.69,1.3-2.71,1.7-3.63,4.03-8.97,7.94-18.9,2.61-6.63,6.27-11.75,10.26-15.68.68-.68,1.36-1.31,2.06-1.91,8.31-7.23,17.54-9.83,21.81-10.7.63-.13,1.15-.22,1.54-.28.31-.05.55-.08.69-.1.09-.01.14-.02.17-.02h.01s.6-.02,1.69-.04c1.19-.02,2.98-.05,5.22-.04,2.82,0,6.36.05,10.33.19,9.76.35,22.1,1.27,32.68,3.57.3.06.59.13.88.19.13.03.26.06.39.09.5.12.99.24,1.48.36,6.67,1.66,12.44,3.93,16.1,7.04.18.15.36.31.53.47.08.07.16.15.24.22.24.23.48.48.72.76.35.39.69.83,1.04,1.31.32.44.64.91.95,1.41,0,0,.01-.01.01.01,9.7,15.43,19.42,61.21,24.22,86.29,1.47,7.72,2.48,13.48,2.88,15.79.06.35.11.63.14.81.03.2.05.3.05.3,0,0,.04.4.09,1.2.08,1.37.18,3.91.18,7.6,0,1.14-.01,2.4-.04,3.76-.11,5.37-.45,12.43-1.28,21.15Z" fill="#1a1a1a" stroke-width="0"/><path d="m573.79,709.81s10.36,10.67,11.26,18.07c.9,7.41-1.62,15.05-6.92,27.22-5.3,12.16-10.6,42.75,16.86,49.26,27.46,6.5,42.4-.26,48.9-10.55,6.5-10.29,6.44-28.55,3.76-38.08-2.68-9.53-6.48-19.15-16.16-34.2-9.68-15.05-16.95-24.8-22.41-28.51,0,0-6.5,12.82-14.57,14.5-8.07,1.69-20.71,2.28-20.71,2.28Z" fill="#fff" stroke-width="0"/><path d="m565.08,690.55s14.82.57,22.07-3.68c7.26-4.25,13.03-10.17,13.03-10.17,0,0-9.21-12.52-8.25-24.75.96-12.23,7.18-22.35,7.59-31.74.41-9.39,2.24-24.05-8.03-34.24-10.28-10.2-27.69-6.57-34.82-5.07,0,0-19.47-5.98-26.13-1.04-6.66,4.95-6.29,18.48-5.96,20.72.34,2.25,6.65,14.22,14.23,18.01,7.59,3.79,10.84,13.31,8.31,20.41,0,0-4.87,7.63-8.7,9.72-3.82,2.09-7.5,8.42-6.44,17.18,1.06,8.76,8.64,24.41,33.09,24.66Z" fill="#fff" stroke-width="0"/><path d="m565,690.55s-4.06,10.15,1.81,14.93c5.87,4.79,15,4.88,25.11,2.89,10.12-1.99,15.44-9.76,17.34-16.98,1.9-7.23,1.22-10.28-1.9-12.01-3.11-1.73-7.74-3.37-7.74-3.37,0,0-5.99,9.87-16.83,12.4-10.84,2.53-17.8,2.14-17.8,2.14Z" fill="#fff" stroke-width="0"/><polygon points="183.55 531.81 165.27 510.12 157.18 516.94 174.25 537.2 181.05 538.88 183.55 531.81" fill="#1a1a1a" stroke-width="0"/><polygon points="248.9 615.65 292 489.99 205.81 489.99 162.71 615.65 248.9 615.65" fill="#fff" stroke-width="0"/><polygon points="378.22 624.1 415.83 627.57 415.48 637.55 388.8 635.68 378.22 624.1" fill="#1a1a1a" stroke-width="0"/><path d="m547.09,628.39c-1.33-3.26-6.48-8.08-10.54-10.88-4.06-2.8-10.11-10.95-11.88-13.97l-.68,2.92s-.9-2.12-3.13-2.19c-2.23-.07-3.19,1.55-3.8,3.3-.6,1.75-5.56,18.61-5.56,18.61,0,0,.02,3.67,2.37,4.27,1.56.4,3.52-.18,4.68-.61l-2.99,12.87s-1.96,17.89,15.21,17.61c0,0,1.25-3.3,2.18-5.05.94-1.75,8.22-9.92,11.51-12.14,3.29-2.23,3.96-11.48,2.63-14.74Z" fill="#fff" stroke-width="0"/><path d="m603.93,402.25h144.16c2.95,0,5.35,2.4,5.35,5.35v92.75c0,2.95-2.4,5.35-5.35,5.35h-144.16c-2.95,0-5.35-2.4-5.35-5.35v-92.75c0-2.95,2.4-5.35,5.35-5.35Z" transform="translate(1352.02 907.95) rotate(180)" fill="#fff" stroke-width="0"/><path d="m449.15,468.57h26.21c14.5,0,26.37-11.87,26.37-26.37s-11.87-26.37-26.37-26.37h-26.21c-14.5,0-26.37,11.87-26.37,26.37s11.87,26.37,26.37,26.37Z" fill="#1a1a1a" stroke-width="0"/><path d="m191.2,410.39c-.72-.27-1.29-.06-2.06,2.58-.86,2.94-.2,3.63.48,3.75.67.11,1.54-.67,1.96-2.81.42-2.15.57-3.16-.37-3.51Z" fill="#1a1a1a" stroke-width="0"/><path d="m169.87,405.11c-.71-.3-1.29-.1-2.15,2.51-.96,2.91-.32,3.62.35,3.76.67.14,1.57-.62,2.05-2.75.49-2.13.68-3.14-.25-3.53Z" fill="#1a1a1a" stroke-width="0"/><polygon points="165.27 510.12 162.21 506.17 153.99 512.93 157.69 516.94 165.27 510.12" fill="#fff" stroke-width="0"/><polygon points="284.39 489.99 286.23 485.49 200.45 484.81 157.18 610.44 163.95 610.44 205.81 489.99 284.39 489.99" fill="#cccbcb" stroke-width="0"/><path d="m149.76,584.07l5.9-8.26s7.35,7.93,5.05,11.01c-2.3,3.07-10.95-2.75-10.95-2.75Z" fill="#1a1a1a" stroke-width="0"/><path d="m122.61,558.82l5.57-6.93s-5.06-2.91-7.95-1.28c-2.89,1.64,2.38,8.21,2.38,8.21Z" fill="#1a1a1a" stroke-width="0"/><path d="m157.18,590.46s-19.79,50.69-55.68,65.55c-28.61,11.84-35.3,4.39-35.3,4.39l1.45-19.7s7.06,5.73,21.99,2.36c14.94-3.37,30.59-16.62,39.5-23.61,8.91-6.98,28.04-29,28.04-29Z" fill="#1a1a1a" stroke-width="0"/><polygon points="144.43 899.87 142.88 892.37 142.88 881.75 82.15 881.75 103.38 843.14 142.99 843.14 142.99 824.32 113.72 824.32 136.67 782.58 135.4 786.41 142.99 786.41 142.99 771.09 142.99 749.9 51.77 913.7 64.6 913.7 72.2 899.87 144.43 899.87" fill="#fff" stroke-width="0"/><polygon points="51.77 913.7 142.99 749.9 142.99 710.75 29.91 913.7 51.77 913.7" fill="#fff" stroke-width="0"/><path d="m515.56,646.04s9.41,10.69,18.17,7.07l-2.42,8.22s-14.5-.33-15.75-15.29Z" fill="#cccbcb" stroke-width="0"/><path d="m244.96,573.57s1.67,8.24,14.77,10.5l1.44-4.2s-8.68,2-16.21-6.31Z" fill="#cccbcb" stroke-width="0"/><path d="m245.01,568.15s13.58,8.46,35.11-2.17l-21.74.6s-9.52-1.38-10.66-2.86l-2.71,4.43Z" fill="#cccbcb" stroke-width="0"/><path d="m246.63,554.67s16.74,6.92,33.49-3.92l-20.12,2.36s-9.52-1.39-10.66-2.86l-2.71,4.43Z" fill="#cccbcb" stroke-width="0"/><path d="m260.3,580.57l-8.53,26.68,14.19.04s9.68-18.16,11.77-28.41c0,0-12.49,2.44-17.43,1.69Z" fill="#fff" stroke-width="0"/><rect x="169.82" y="629.71" width="39.9" height="39.9" fill="#1a1a1a" stroke-width="0"/><path d="m620.55,468.23c0,8.58-6.96,15.54-15.54,15.54s-15.54-6.96-15.54-15.54,6.96-15.54,15.54-15.54,15.54,6.96,15.54,15.54Z" fill="#fff" stroke-width="0"/><path d="m822.35,563.24c-13.27,3.64-12.73,18.6-12.44,21.93l5.65,5.73s-1.84-24.73,21.1-26.97c-4.17-1.54-9.03-2.14-14.31-.69Z" fill="#fff" stroke-width="0"/><path d="m784.93,578.39c-2-.04-3.91-.02-5.68.02-8.58.17-21.67,4.71-25.97,13.46-4.3,8.76.89,19.31.89,19.31.64-.01,2.51,2.2,5.53,5.56,8.66-3.31,19.15-7.39,19.57-7.44.72-.09,19.24-10.08,19.24-10.08-8.58,2.21-37.57,2.31-32.67-8.89,2.74-6.27,11.72-9.93,19.09-11.95Z" fill="#fff" stroke-width="0"/><path d="m524.51,600.58c.5,3.35,3.32,6.99,5.25,9.62,3.05,4.16,6.76,7.12,11.12,9.79-6.59-6.29-9.8-15.92-8.32-24.9.57-3.44,1.85-6.88,4.3-9.37,2.09-2.12,4.91-3.43,7.82-4.03,2.91-.61,5.93-.55,8.89-.24.86.09,1.98.05,2.27-.76-4.39-1.2-8.83-2.2-13.37-2.61-3.79-.34-8.76-.65-12,1.78-6.66,4.95-6.29,18.48-5.96,20.72Z" fill="#fff" stroke-width="0"/><path d="m544.04,622.66c.45.67,1.54,2.35,2.32,4.15.58-.97,0-2.3-2.32-4.15Z" fill="#fff" stroke-width="0"/><path d="m547.8,636.87c-1.4,3.58-3.23,6.41-6.14,8.96-2.32,2.04-4.86,3.9-6.69,6.38-2.22,3.03-3.25,6.85-3.23,10.61.06,11.81,8.77,21.95,19.67,25.6,4.43,1.49,8.88,1.82,13.51,2.12-11.79-.76-25.02-13.14-26.46-24.68-1.99-15.99,8.69-24.3,9.34-28.98Z" fill="#fff" stroke-width="0"/><path d="m546.04,624.66c-.17.9.13,1.52.41,2.16-.25-1.26-.42-2.17-.41-2.16Z" fill="#fff" stroke-width="0"/><path d="m594.1,733.69c1.99-14.63-7.95-24.57-7.95-24.57-6.41.41-12.36.69-12.36.69,0,0,10.36,10.67,11.26,18.07.9,7.41-1.62,15.05-6.92,27.22-5.3,12.16-10.6,42.75,16.86,49.26-30.54-17.31-2.88-56.04-.89-70.67Z" fill="#fff" stroke-width="0"/><path d="m208.53,469.89s5.86-5.65-.57-17c-6.43-11.35-11.14-11.42-10.83-16.44.14-2.18.58-4.5,1.44-7.01-.55-.42-5.45,3.1-3.41,12.76,1.66,7.88,4.11,17.07,1.84,22.21,3.77,1.38,7.67,3.16,11.53,5.48Z" fill="#fff" stroke-width="0"/><path d="m164.75,358.25c.04.19,31.34,3.49,38.06,23.53,4.91,14.64,3.09,29.59,1.75,36.59,5.28-7.29,8.41-16.31,7.2-30.01-1.21-13.73-7.66-19.07-16.26-23.48-7.17-3.67-18.78-10.38-30.75-6.64Z" fill="#fff" stroke-width="0"/><path d="m146.41,401.94c-11.72,2.05,9.05,13.15,9.05,13.15,0,0,12.07-19.59,12.09-20.13.02-.54-5.58-18.25-5.58-18.25,0,0-3.84,23.17-15.56,25.23Z" fill="#fff" stroke-width="0"/><polygon points="512.68 622.71 519.19 624.66 518.16 629.57 515.68 631.08 513.87 630.45 511.5 628.97 512.68 622.71" fill="#b5b4b4" stroke-width="0"/><path d="m416.92,826.6s17.27,12,36.59,13.53c19.31,1.53,39.31-5.32,39.31-5.32,0,0,2.28-30.97-34.69-33.25-36.97-2.29-41.2,25.04-41.2,25.04Z" fill="#fff" stroke-width="0"/><path d="m415.84,638.85c-.08,0-26.49-2.23-26.49-2.23.16-1.9,25.62.25,25.62.25l.72-8.65-37.56-3.16c.16-1.9,38.66,1.34,38.66,1.34.87,1.03-.01,11.58-.01,11.58-.5.79-.72.87-.95.87Z" fill="#1a1a1a" stroke-width="0"/><path d="m420.97,639.28c-.08,0-5.22-.43-5.22-.43.16-1.9,4.35-1.55,4.35-1.55l.73-8.64-4.19-.35c.16-1.9,5.3-1.47,5.3-1.47.86,1.03-.03,11.57-.03,11.57-.04.5-.46.87-.95.87Z" fill="#1a1a1a" stroke-width="0"/><path d="m358.46,634.01c-.47-.12-11.59-6.37-11.59-6.37.15-1.72,13.34-6.45,13.34-6.45.64,1.79-10.59,5.81-10.59,5.81l9.29,5.22c.19,1.61-.13,1.78-.46,1.78Z" fill="#1a1a1a" stroke-width="0"/><path d="m382.59,648.65c-17.82-12.22-21.3-20.93-21.84-25.06-.31-2.39.18-4.42,1.43-5.9,4.07-4.84,11.34.47,11.65.71.32.35,14.55,18.07,22.78,21.15-9.14-1.38-22.69-18.05-24.01-19.68-.79-.55-6.24-4.17-8.97-.94-.89,1.05-1.23,2.58-.99,4.42.4,3.07,3.2,11.51,20.5,23.56.05,1.6-.25,1.74-.55,1.74Z" fill="#1a1a1a" stroke-width="0"/><path d="m375.47,658.25c-1.34-.86-17.98-15.68-18.23-28.17-.06-3.55,1.19-6.59,3.75-9.03-.87,3.46-1.9,5.95-1.84,8.99.23,11.66,16.78,26.4,16.95,26.55-.11,1.56-.37,1.67-.63,1.67Z" fill="#1a1a1a" stroke-width="0"/><path d="m400.19,626.91c-.77-.39-6.03-6.37-11.63-7.76-5.73-1.42-16.44.06-16.55.08.19-1.95,10.94-3.42,17.01-1.93,6.19,1.52,11.67,7.76,11.9,8.02-.28,1.51-.5,1.58-.72,1.58Z" fill="#1a1a1a" stroke-width="0"/><path d="m412.66,672.74c-1.03-1.07-3.59-10.11-3.05-16.14.87-9.85-4.14-18.97-4.19-19.06,1.88-.54,7.02,8.78,6.08,19.23-.5,5.68,2.05,14.66,2.08,14.75-.74,1.2-.83,1.21-.92,1.21Z" fill="#1a1a1a" stroke-width="0"/><path d="m377.24,677.87c-2.12-3.77-5.64-12.4-6.93-14.23-4.28-5.58-14.78-19.21-11.8-28.01-.85,8.44,9.18,21.46,12.48,25.74,2.58,3.56,6.96,14.72,7.15,15.2-.65,1.28-.77,1.3-.89,1.3Z" fill="#1a1a1a" stroke-width="0"/><path d="m174.25,538.15c-.73-.34-17.8-20.6-17.8-20.6.12-1.35,8.21-8.16,8.21-8.16,1.34.11,20.04,22.32,20.04,22.32-1.46,1.23-19.55-20.24-19.55-20.24l-6.63,5.58,16.46,19.54c-.29,1.5-.51,1.57-.73,1.57Z" fill="#1a1a1a" stroke-width="0"/><path d="m157.18,517.89c-.73-.34-4.05-4.28-4.05-4.28.11-1.35,8.21-8.16,8.21-8.16,1.34.11,4.66,4.06,4.66,4.06-1.46,1.23-4.17-1.99-4.17-1.99l-6.64,5.59,2.71,3.21c-.29,1.5-.51,1.57-.73,1.57Z" fill="#1a1a1a" stroke-width="0"/><path d="m177.08,553.39c-3.16-.78-5.71-1.57-9.01-2.76,3.94-.61,6.35.14,9.24.88.59,1.59.19,1.88-.23,1.88Z" fill="#1a1a1a" stroke-width="0"/><path d="m181.69,539.94c-5.45-.88-12.02-2.19-15.83-4.78,4.57.8,10.88,2.06,15.98,2.89.71,1.56.3,1.89-.15,1.89Z" fill="#1a1a1a" stroke-width="0"/><path d="m173.62,563.46c-5.67-.56-9.05-1.41-9.19-1.44.5-1.84,3.86-.99,9.28-.46.81,1.53.39,1.9-.09,1.9Z" fill="#1a1a1a" stroke-width="0"/><path d="m186.13,526.98c-4.94-2.84-10.19-3.22-10.24-3.22.36-1.89,5.9-1.49,10.73,1.45.14,1.61-.18,1.77-.49,1.77Z" fill="#1a1a1a" stroke-width="0"/><path d="m122.61,559.78c-.03-2.48,17.11-24.53,21.66-28.39,7.99-6.8,18.57-7.99,19.01-8.04.1,1.91-10.24,3.08-17.77,9.49-4.4,3.75-21.96,26.35-22.14,26.57-.18.24-.47.37-.75.37Z" fill="#1a1a1a" stroke-width="0"/><path d="m149.06,585.03c1.75-5.71,8.04-15.64,11.1-15.64.45,0,1.12.12,2.04.29,1.97.36,4.95.91,8.33.75-3.55,2.07-6.75,1.48-8.68,1.12-2.98-.2-7.7,5.87-11.98,13-.17.3-.49.46-.81.46Z" fill="#1a1a1a" stroke-width="0"/><path d="m73.92,598.76c10.68-21.57,37.5-43.61,45.45-48.94-7.96,7.63-33.91,29.7-44.62,48.46-.18.3-.5.48-.83.48Z" fill="#1a1a1a" stroke-width="0"/><path d="m266.56,607.44c3.65-9.66,7.48-19.14,10.25-28.82-.98,10.33-4.86,19.94-9.42,28.32-.17.32-.5.5-.84.5Z" fill="#1a1a1a" stroke-width="0"/><path d="m81.9,645.08c-5,0-9.92-1.09-14.68-3.52-31.08-15.91-34.73-57.35-10.56-119.85,3.31-8.56,15.71-37.76,36.38-54.18,14.63-11.63,36.1-10.65,44.67-9.69-8.52.96-29.41,0-43.5,11.19-20.29,16.12-32.51,44.92-35.78,53.37-23.76,61.45-20.42,102.07,9.66,117.46,30.49,15.62,68.59-27.59,91.35-53.39-18.24,23.55-49.17,58.61-77.55,58.61Z" fill="#1a1a1a" stroke-width="0"/><path d="m223.63,484.88c-11.93-14.9-36.19-25.52-54.71-23.98,19.07-3.48,43.94,7.46,55.47,22.44-.35,1.47-.55,1.54-.76,1.54Z" fill="#1a1a1a" stroke-width="0"/><path d="m175.49,447.45c-1.86,0-3.93-.31-6.32-.94-3.11-.82-7.63-2.19-10.73-3.39,3.72-.6,8.16.74,11.21,1.54,3.08.82,5.51,1.05,7.67.76,3.54-.48,6.25-2.61,8.33-6.52,1.89-3.55,3.26-7.59,4.31-12.73.44-2.2,1.01-5.11,1.62-8.25,1.55-7.93,3.31-16.92,4.12-19.77,1.05,3.29-.78,12.63-2.25,20.13-.61,3.14-1.18,6.07-1.63,8.27-1.09,5.32-2.51,9.53-4.49,13.24-2.38,4.49-5.57,6.94-9.76,7.51-.67.09-1.37.14-2.09.14Z" fill="#1a1a1a" stroke-width="0"/><path d="m147.06,423.17c-.85,0-1.71-.1-2.54-.3-5.84-1.4-9.45-7.29-8.05-13.12,1.4-5.84,7.31-9.44,13.12-8.06,2.13.51,4.03,1.63,5.49,3.23-2.61-.03-4.18-.95-5.94-1.37-4.74-1.13-9.67,1.83-10.83,6.65-1.15,4.81,1.84,9.67,6.65,10.83,1.57.38,3.23.31,4.8-.17-.5,2.16-1.6,2.32-2.7,2.32Z" fill="#1a1a1a" stroke-width="0"/><path d="m144.04,417.83c-.45-1.8,5.94-5.16,5.94-5.16l-5.5-5.75c1.39-1.32,7.74,5.35,7.74,5.35-.25,1.5-7.74,5.45-7.74,5.45-.14.08-.29.11-.44.11Z" fill="#1a1a1a" stroke-width="0"/><path d="m108.82,559.78c-.96-28.63,9.32-53.42,9.42-53.66,1.66.98-8.47,25.43-8.47,52.71,0,.53-.43.95-.95.95Z" fill="#1a1a1a" stroke-width="0"/><path d="m174.2,432.88c-2.24,0-4.03-.65-5.35-1.95-2.52-2.48-2.25-6.38-2.24-6.54,1.89.18,1.69,3.34,3.58,5.18,1.13,1.11,2.81,1.58,5.03,1.34-.24,1.94-.64,1.96-1.03,1.96Z" fill="#1a1a1a" stroke-width="0"/><path d="m264.91,581.52c-2.54,0-5.2-.16-7.96-.47-5.84-.67-14.14-4.87-13.39-11.75.26-2.34,1.61-4.33,3.71-5.46-.63,2.51-1.62,3.96-1.81,5.67-.64,5.8,7.32,9.14,11.72,9.65,14.64,1.68,24.32-1.47,27.38-5.37,2.28-2.91,3.99-6.75,5.24-11.72,1.92-7.66,2.45-15.83,1.54-23.64-.95-8.13-10.43-15.55-10.52-15.62,1.58-1.19,11.37,6.48,12.42,15.4.93,8.03.39,16.44-1.58,24.32-1.31,5.24-3.14,9.31-5.59,12.43-3.28,4.19-11.19,6.56-21.13,6.56Z" fill="#1a1a1a" stroke-width="0"/><path d="m257.57,553.19c-1.06,0-1.92-.04-2.51-.12-2.81-.38-6.03-.8-7.43-3.06-1.62-2.61-2.01-5.62-1.06-8.27.78-2.19,2.45-3.99,4.96-5.36,2.17-1.17,4.43-1.04,6.62-.91,2.51.1,3.5.11,4.43.11,16.01,0,19.07-3.58,19.1-3.62,1.2,1.61-2.39,5.91-22.09,5.48-3.57-.19-5.46-.3-7.15.61-2.09,1.14-3.46,2.59-4.08,4.32-.75,2.1-.42,4.51.89,6.62.93,1.49,3.6,1.84,5.36,2.07,4.85.71,22.99-1.25,24.58-1.87-1.12,2.48-15.08,3.98-21.63,3.98Z" fill="#1a1a1a" stroke-width="0"/><path d="m260.98,567.85c-2.53,0-5.05-.1-7.39-.34-4.85-.5-9.83-3.76-9.29-9.74.25-2.88,2.18-5.95,4.92-7.82-1.18,3.12-2.83,5.69-3.03,7.98-.41,4.71,3.64,7.28,7.59,7.68,10.91,1.1,26.05-1,26.21-1.02.14,1.91-9.47,3.25-19.01,3.25Z" fill="#1a1a1a" stroke-width="0"/><path d="m164.14,486.43c-8.57,0-25.35-24.22-27.32-27.12-.14-.77,9.17-37.09,9.17-37.09,1.85.47-7.36,36.38-7.36,36.38,7.58,11.04,21.14,27.57,26.16,25.83,3.33-1.15,3.25-13.76,2.11-22.34.01-.34,3.61-16,3.61-16,1.87.43-1.69,15.92-1.69,15.92.53,4.07,2.5,22.17-3.4,24.22-.4.14-.83.21-1.28.21Z" fill="#1a1a1a" stroke-width="0"/><path d="m248.9,616.6h-86.19c-.9-1.26,42.2-126.92,42.2-126.92.9-.64,87.09-.64,87.09-.64.9,1.26-14.34,45.71-14.34,45.71-1.81-.62,13.01-43.81,13.01-43.81h-84.18l-42.45,123.75h84.18l11.62-33.91c1.81.62-10.04,35.17-10.04,35.17-.13.39-.5.64-.9.64Z" fill="#1a1a1a" stroke-width="0"/><path d="m164.49,611.41h-7.32c-.9-1.26,42.2-126.93,42.2-126.93.9-.64,87.1-.64,87.1-.64.9,1.26-.52,5.4-.52,5.4-1.81-.62-.82-3.5-.82-3.5h-84.18l-42.45,123.75h5.98c.95,1.48.53,1.91,0,1.91Z" fill="#1a1a1a" stroke-width="0"/><path d="m199.17,406.12c-.95-1.36-1.11-10.86-16.41-15.39-11.42-3.39-16.98-8-19.37-10.61-.71,5.86-3.28,20.54-11.42,24.2,8.21-5.78,9.73-26.52,9.75-26.73,1.83-.33,5.98,6.69,21.58,11.32,16.76,4.96,16.83,15.82,16.82,16.28,0,.52-.43.94-.95.94Z" fill="#1a1a1a" stroke-width="0"/><path d="m195.15,405.86c-.9-.64-1.71-2.25-4.19-2.25,3.56-2.24,4.99.78,5.05.91-.6,1.31-.74,1.34-.86,1.34Z" fill="#1a1a1a" stroke-width="0"/><path d="m178.55,399.38c-.8-.39-4.97-3.91-12.09-.93,7.57-5.2,12.53-.92,12.73-.74-.11,1.55-.37,1.66-.64,1.66Z" fill="#1a1a1a" stroke-width="0"/><path d="m158.29,588.71c-1.85,0-4.4-.88-7.65-2.63-4.71-2.55-10.3-6.66-15.73-11.58-5.43-4.92-10.07-10.08-13.07-14.52-3.31-4.91-4.2-8.28-2.65-10.01,2.07-2.27,5.85-.69,9.26,1.16-4.67-.36-6.94-.87-7.84.12-.62.69-.26,3.11,2.81,7.66,2.91,4.32,7.46,9.35,12.77,14.17,5.32,4.82,10.77,8.84,15.35,11.32,4.83,2.61,7.28,2.74,7.9,2.05.86-.95.09-4.28-4.94-10.56,6.67,5.29,8.32,9.67,6.35,11.84-.59.65-1.45.98-2.57.98Z" fill="#1a1a1a" stroke-width="0"/><path d="m272.68,500.15c2.22-1.12,6.28-5.47,8-11.47,1.73-6,.61-11.8-2.44-12.69-2.88-.8-6.53,2.82-8.43,8.25.47-7.12,5.1-11.19,8.96-10.08,4.18,1.2,5.83,7.81,3.75,15.04-1.87,6.48-5.99,10.94-9.84,10.94Z" fill="#1a1a1a" stroke-width="0"/><path d="m246.26,500.15c2.24-1.13,6.28-5.47,8-11.47,1.73-6,.61-11.8-2.44-12.69-2.89-.8-6.53,2.82-8.43,8.25.47-7.12,5.08-11.19,8.95-10.08,4.18,1.2,5.83,7.81,3.75,15.04-1.86,6.47-5.99,10.94-9.84,10.94Z" fill="#1a1a1a" stroke-width="0"/><path d="m219.64,500.15c2.23-1.13,6.28-5.47,8-11.47.88-3.05,1.06-6.08.51-8.55-.5-2.26-1.55-3.73-2.95-4.14-2.89-.8-6.53,2.82-8.43,8.25.47-7.12,5.1-11.19,8.96-10.08,2.1.61,3.62,2.58,4.28,5.55.62,2.77.43,6.14-.53,9.49-1.86,6.47-5.99,10.94-9.84,10.94Z" fill="#1a1a1a" stroke-width="0"/><path d="m270.69,511.57h-54.81c0-1.91,54.81-1.91,54.81-1.91.95,1.48.53,1.91,0,1.91Z" fill="#1a1a1a" stroke-width="0"/><path d="m265.75,526.21h-54.81c0-1.91,54.81-1.91,54.81-1.91.96,1.49.53,1.91,0,1.91Z" fill="#1a1a1a" stroke-width="0"/><path d="m247.72,553.52h-46.23c0-1.91,46.23-1.91,46.23-1.91.95,1.49.53,1.91,0,1.91Z" fill="#1a1a1a" stroke-width="0"/><path d="m248.93,540.55h-43.05c0-1.91,43.05-1.91,43.05-1.91.96,1.48.52,1.91,0,1.91Z" fill="#1a1a1a" stroke-width="0"/><path d="m245.21,567.86h-48.55c0-1.91,48.55-1.91,48.55-1.91.95,1.49.53,1.91,0,1.91Z" fill="#1a1a1a" stroke-width="0"/><path d="m246.63,582.19h-54.81c0-1.91,54.81-1.91,54.81-1.91.96,1.48.53,1.91,0,1.91Z" fill="#1a1a1a" stroke-width="0"/><path d="m779.09,627.55c-.96-.06-1.63-.42-2.12-1.05-1.71-2.22-.72-7.53-.6-8.13,1.49,2.31,1.21,5.81,2.11,6.97,2.16.3,3.47-3.78,3.85-6.58,1.69,1.7.52,8.79-3.24,8.79Z" fill="#1a1a1a" stroke-width="0"/><path d="m757.58,626.35c-.97-.05-1.64-.41-2.13-1.05-1.71-2.21-.72-7.53-.6-8.13,1.49,2.31,1.22,5.81,2.11,6.97,2.18.3,3.47-3.78,3.85-6.58,1.69,1.7.52,8.79-3.24,8.79Z" fill="#1a1a1a" stroke-width="0"/><path d="m475.58,914.01c4.04-15.99,6.33-54.16,7.57-74.67l.11-1.89c1.91.12,1.79,2.01,1.79,2.01-1.24,20.6-3.54,58.93-8.56,73.9-.13.4-.5.65-.91.65Z" fill="#1a1a1a" stroke-width="0"/><path d="m638.98,914.01c-.98-1.24-4.65-39.3-1.95-79.85.69-10.18,1.04-21.45,1.11-34.44,1.84,13.05,1.48,24.35.8,34.57-2.69,40.39.95,78.3.99,78.67-.89,1.05-.92,1.05-.95,1.05Z" fill="#1a1a1a" stroke-width="0"/><path d="m461.29,841.09c-.95,0-1.9-.01-2.86-.04-14.27-.39-27.67-4.4-38.74-11.59-4.22-2.75-8.17-5.98-11.72-9.61-17.25-17.59-25.74-41.87-31.78-63.3-6.59-23.35-9.79-42.28-13.84-66.25.26-1.93,7.85-17.2,34.46-19.6,23.98-2.15,31.92,6.86,32.25,7.25,5.17,15.53,10.15,30.74,15.13,45.95,2.53,7.71,5.05,15.43,7.56,23.14,2.21,6.87,3.93,12.2,9.08,15.14,5.03,2.87,11.32,2.2,16.01-1.72,4.51-3.77,7.14-9.51,9.44-15.06,1.17-2.82,2.31-5.66,3.46-8.52,3.71-9.26,7.56-18.83,12.39-27.69,6.89-12.64,15.38-21.26,25.24-25.61,4.33-1.92,7.69-2.92,11.99-3.57-3.82,2.51-7.04,3.47-11.21,5.31-9.47,4.18-17.66,12.52-24.34,24.78-4.78,8.76-8.61,18.29-12.31,27.49-1.14,2.86-2.29,5.71-3.46,8.53-2.4,5.77-5.13,11.74-9.98,15.8-5.31,4.43-12.44,5.19-18.18,1.9-5.79-3.3-7.7-9.24-9.55-14.98-2.91-8.94-5.43-16.65-7.96-24.36-4.96-15.14-9.92-30.29-14.89-45.43-1.04-1.05-9.18-8.42-30.52-6.46-23.62,2.13-31.72,15.01-32.83,16.98,4.11,24.31,7.31,43.19,13.86,66.44,5.97,21.2,14.36,45.21,31.29,62.48,3.46,3.52,7.29,6.67,11.4,9.34,10.78,7,23.83,10.9,37.76,11.28,15.52.43,30.42-2.68,43-8.99,8.69-4.36,16.79-10.35,24.07-17.8,6.18-6.32,11.85-13.77,16.88-22.15,4.02-6.72,7.63-14.04,10.71-21.73,2.21-5.54,4.11-11.1,5.62-16.53.5-1.78,1.14-4.14,1.62-6.55,1.36,2.85.72,5.25.21,7.06-1.54,5.5-3.45,11.13-5.7,16.72-3.12,7.79-6.76,15.19-10.84,22.01-5.09,8.51-10.86,16.08-17.14,22.5-7.43,7.6-15.7,13.72-24.58,18.17-12.09,6.06-26.22,9.23-41.05,9.23Z" fill="#1a1a1a" stroke-width="0"/><path d="m531.31,661.86c-6.44-.59-11.06-2.97-13.82-7.06-5.03-7.46-2-17.84-1.86-18.27l8.49-34.71c1.85.45-6.65,35.2-6.65,35.2-.04.15-2.91,10.01,1.62,16.72,2.42,3.59,6.57,5.67,12.32,6.21.81,1.54.4,1.91-.09,1.91Z" fill="#1a1a1a" stroke-width="0"/><path d="m515.48,631.7c-4.1-1-5.38-3.27-4.77-5.46l5.59-19.93c.63-2.19,2.95-3.46,5.07-2.85,1.77.5,2.59,1.1,3.13,1.93-4.81-.42-6.04.27-6.37,1.44l-5.59,19.93c-.32,1.17.37,2.4,1.53,2.72,1.97.55,3.2-.13,3.54-1.3,1.32,2.33-.34,3.52-2.13,3.52Z" fill="#1a1a1a" stroke-width="0"/><path d="m564.22,691.48c-1.49-.3-2.82-.56-4.15-.82-6.09-1.18-12.39-2.41-17.48-6.13-5.52-4.04-9.62-10.09-11.24-16.6-1.55-6.27-.6-12.18,2.63-16.2,1.51-1.88,3.37-3.42,5.15-4.92,2.38-1.99,4.63-3.87,6.13-6.46,3.02-5.25,1.67-13.95-2.77-17.9-1.28-1.14-2.74-2.08-4.27-3.07-1.61-1.04-3.27-2.11-4.73-3.43-2.49-2.25-4.54-4.62-6.08-7.04-4.04-6.33-4.94-13.72-2.55-20.8,1.2-3.54,2.75-7.37,5.06-9.03.36-.25,8.69-5.8,25.37.99,2.09-.68,12.84-3.91,23.06-1.96,8.26,1.56,26.9,8.99,21.89,44.03-.45,3.09-1.57,6.58-2.75,10.28-3.83,11.95-8.58,26.83,3.4,43.02-14.09-15.84-8.96-31.88-5.21-43.6,1.15-3.62,2.25-7.04,2.67-9.96,4.78-33.42-12.64-40.43-20.35-41.9-10.69-2.01-22.31,1.97-22.43,2.01-16.64-6.64-24.23-1.56-24.54-1.35-2.11,1.52-3.74,6.28-4.35,8.08-2.21,6.52-1.37,13.33,2.35,19.16,1.46,2.28,3.4,4.52,5.76,6.66,1.35,1.22,2.94,2.25,4.48,3.24,1.53.99,3.12,2.02,4.51,3.25,5.12,4.56,6.63,14.22,3.15,20.27-1.65,2.89-4.15,4.97-6.55,6.97-1.8,1.5-3.5,2.91-4.89,4.65-2.85,3.55-3.68,8.86-2.26,14.55,1.51,6.08,5.34,11.74,10.51,15.53,4.75,3.47,10.84,4.65,16.72,5.8,1.35.26,2.68.52,4,.8.63,1.58.23,1.89-.21,1.89Z" fill="#1a1a1a" stroke-width="0"/><path d="m557.87,580.61c-.92-.7-4.31-12.79-4.31-12.79-2.09-7.55-9.02-12.82-16.85-12.82h-233.57c-3.56,0-7.72,1.29-10.61,3.29,2.15-3.81,6.62-5.2,10.61-5.2h233.57c8.68,0,16.36,5.84,18.68,14.21l3.4,12.09c-.74,1.2-.83,1.21-.92,1.21Z" fill="#1a1a1a" stroke-width="0"/><path d="m373.43,743.23h-28.41c-8.69,0-16.36-5.84-18.68-14.21l-41.87-151.38c1.84-.5,43.71,150.87,43.71,150.87,2.09,7.54,9.01,12.82,16.85,12.82h28.41c.96,1.48.52,1.91,0,1.91Z" fill="#1a1a1a" stroke-width="0"/><path d="m488.62,743.23h-38.81c0-1.91,38.81-1.91,38.81-1.91.95,1.48.52,1.91,0,1.91Z" fill="#1a1a1a" stroke-width="0"/><path d="m538.74,578.34c-2.14-5.09-5.9-7.72-10.98-7.72h-12.2c0-1.91,12.2-1.91,12.2-1.91,6,0,10.44,3.15,11.9,8.42-.75,1.2-.84,1.21-.92,1.21Z" fill="#1a1a1a" stroke-width="0"/><path d="m369.92,727.62h-13.25c-7.25,0-13.65-4.88-15.59-11.86l-37.38-135.11c-.79-2.86-.21-5.86,1.59-8.22,1.79-2.36,4.52-3.71,7.49-3.71h165.49c0,1.91-165.49,1.91-165.49,1.91-2.37,0-4.54,1.08-5.97,2.96-1.44,1.88-1.9,4.27-1.27,6.55l37.38,135.11c1.71,6.16,7.36,10.46,13.75,10.46h13.25c.95,1.48.52,1.91,0,1.91Z" fill="#1a1a1a" stroke-width="0"/><path d="m494.97,727.62h-50.86c0-1.91,50.86-1.91,50.86-1.91.95,1.48.53,1.91,0,1.91Z" fill="#1a1a1a" stroke-width="0"/><path d="m405.68,598.18h-62.68c0-1.91,62.68-1.91,62.68-1.91.95,1.49.52,1.91,0,1.91Z" fill="#1a1a1a" stroke-width="0"/><path d="m409.7,611.83h-24.83c0-1.91,24.83-1.91,24.83-1.91.96,1.49.52,1.91,0,1.91Z" fill="#1a1a1a" stroke-width="0"/><path d="m372.7,611.83h-25.67c0-1.91,25.67-1.91,25.67-1.91.95,1.49.53,1.91,0,1.91Z" fill="#1a1a1a" stroke-width="0"/><path d="m515.68,598.18h-62.68c0-1.91,62.68-1.91,62.68-1.91.95,1.49.52,1.91,0,1.91Z" fill="#1a1a1a" stroke-width="0"/><path d="m516.01,611.83h-58.98c0-1.91,58.98-1.91,58.98-1.91.95,1.49.53,1.91,0,1.91Z" fill="#1a1a1a" stroke-width="0"/><path d="m515.68,639.26h-48.08c0-1.91,48.08-1.91,48.08-1.91.95,1.48.52,1.91,0,1.91Z" fill="#1a1a1a" stroke-width="0"/><path d="m516.81,652.9h-45.18c0-1.91,45.18-1.91,45.18-1.91.96,1.48.52,1.91,0,1.91Z" fill="#1a1a1a" stroke-width="0"/><path d="m434.62,680.33h-5.42c0-1.91,5.42-1.91,5.42-1.91.96,1.48.52,1.91,0,1.91Z" fill="#1a1a1a" stroke-width="0"/><path d="m438.65,693.98h-4.96c0-1.91,4.96-1.91,4.96-1.91.95,1.48.53,1.91,0,1.91Z" fill="#1a1a1a" stroke-width="0"/><path d="m537.92,680.33h-55.97c0-1.91,55.97-1.91,55.97-1.91.95,1.48.52,1.91,0,1.91Z" fill="#1a1a1a" stroke-width="0"/><path d="m515.31,693.98h-29.34c0-1.91,29.34-1.91,29.34-1.91.95,1.48.52,1.91,0,1.91Z" fill="#1a1a1a" stroke-width="0"/><path d="m800.04,643.4c-1.93,0-3.82-.51-5.48-1.48,2.32-.85,3.89-.43,5.48-.43,5.08-.07,9.05-4.16,8.98-9.11-.07-4.96-4.19-9.04-9.11-8.86-1.8.03-3.53.58-5,1.6.7-2.81,2.79-3.48,4.97-3.51,6.09,0,10.96,4.78,11.04,10.74.08,6.01-4.73,10.96-10.74,11.04h-.15Z" fill="#1a1a1a" stroke-width="0"/><path d="m801.98,638.61c-.62-.23-7.06-5.73-7.06-5.73.09-1.52,7.75-6.63,7.75-6.63,1.06,1.59-5.55,6-5.55,6l5.48,4.68c-.08,1.57-.35,1.68-.62,1.68Z" fill="#1a1a1a" stroke-width="0"/><path d="m761.03,638.32c-1.99-1.27-4.72-4.6-4.92-7.11-.09-1.09.32-1.77.68-2.15,1.49-1.56,3.91-.38,5.51.4.99-1.7,1.97-6.93,2.61-10.34,1.54,2.12-.12,11.05-.41,11.94-1.29.99-1.98.63-3.04.12-.98-.48-2.78-1.35-3.29-.8-.01,2.44,2.26,5.33,3.44,6.23-.01,1.58-.29,1.71-.58,1.71Z" fill="#1a1a1a" stroke-width="0"/><path d="m769.18,646.46c-1.01,0-2.1-.19-3.26-.57,2.71-1.12,4.46-1.2,5.79-2.02,2.25-1.39,2.75-4.52,2.75-4.55,1.86.44,1.27,4.3-1.74,6.16-1.04.65-2.23.97-3.55.97Z" fill="#1a1a1a" stroke-width="0"/><path d="m808.33,598.67c-.22-1.89,7-3.59,7-3.59.44,1.86-6.78,3.57-6.78,3.57-.07.01-.15.03-.22.03Z" fill="#1a1a1a" stroke-width="0"/><path d="m800.13,622.88c-5.39-7.05-3.25-17.95-2.16-22.19-5.73,1.75-24.72,6.78-42.77,2.72,21.33,2.84,43.62-5,43.85-5.07,1.18,1.33-3.3,15.62,1.86,23.04-.4,1.44-.59,1.5-.78,1.5Z" fill="#1a1a1a" stroke-width="0"/><path d="m830.83,605.7c-2.01,0-3.29-.27-3.45-.3.9-1.75,12.23.53,22.21-10.66,3.96-4.44,4.34-10.99,1.03-17.54-3.86-7.62-12.69-14.8-24.11-13.74-5.41.52-9.54,2.54-12.26,6-4.91,6.23-3.68,15.18-3.66,15.27-1.95-.13-3.25-9.55,2.15-16.44,3.06-3.9,7.63-6.16,13.6-6.73,12.18-1.09,21.83,6.58,25.98,14.78,3.69,7.27,3.2,14.63-1.3,19.67-7.46,8.34-15.67,9.69-20.19,9.69Z" fill="#1a1a1a" stroke-width="0"/><path d="m945.18,914.65H-3.63c0-.21,11.79-.4,32.73-.57.23,0,.46,0,.69,0,6.55-.05,13.99-.1,22.22-.14.24-.01.49-.01.73-.01,3.87-.02,7.91-.04,12.12-.06.25-.01.49-.01.74-.01,10.41-.05,21.83-.1,34.13-.15,13.55-.05,28.17-.1,43.7-.15h1c4.64-.02,9.35-.03,14.15-.04,2.54-.01,5.11-.02,7.7-.02,87.33-.24,198.51-.41,309.33-.51.07,0,.15-.01.22,0,.26-.01.52-.01.78-.01,55.12-.05,110.13-.1,162.05-.12.1-.01.21-.01.31,0,.32-.01.63-.01.95-.01,21.43-.01,42.32-.02,62.48-.03h.99c57.77-.03,109.41-.05,150-.05.49-.01.97-.01,1.46,0,.07-.01.14-.01.21,0,20.88-.01,38.77-.01,52.98-.02h37.14c.95,1.48.52,1.91,0,1.91Z" fill="#1a1a1a" stroke-width="0"/><path d="m293.65,608.21h-41.37c0-1.91,41.37-1.91,41.37-1.91.95,1.48.52,1.91,0,1.91Z" fill="#1a1a1a" stroke-width="0"/><path d="m165.87,914.65c-13.14,0-23.84-10.69-23.84-23.84v-260.68c0-9.65,6.46-18.92,15.34-22.06-7.38,4.63-13.43,13.34-13.43,22.06v260.68c0,12.09,9.84,21.93,21.93,21.93.96,1.48.52,1.91,0,1.91Z" fill="#1a1a1a" stroke-width="0"/><path d="m51.77,914.65c-.83-1.42,90.38-165.22,90.38-165.22,1.66.92-89.55,164.73-89.55,164.73-.18.31-.49.49-.83.49Z" fill="#1a1a1a" stroke-width="0"/><path d="m64.59,914.65c-.83-1.42,77.56-142.18,77.56-142.18,1.66.92-76.72,141.69-76.72,141.69-.17.31-.5.49-.83.49Z" fill="#1a1a1a" stroke-width="0"/><path d="m28.9,914.65c-.83-1.42,113.25-206.28,113.25-206.28,1.66.92-112.41,205.78-112.41,205.78-.17.31-.5.49-.83.49Z" fill="#1a1a1a" stroke-width="0"/><path d="m142.98,825.98h-29.01c0-1.91,29.01-1.91,29.01-1.91.95,1.48.53,1.91,0,1.91Z" fill="#1a1a1a" stroke-width="0"/><path d="m142.26,844.09h-37.49c0-1.91,37.49-1.91,37.49-1.91.95,1.48.53,1.91,0,1.91Z" fill="#1a1a1a" stroke-width="0"/><path d="m142.98,787.37h-7.15c0-1.91,7.15-1.91,7.15-1.91.95,1.48.53,1.91,0,1.91Z" fill="#1a1a1a" stroke-width="0"/><path d="m142.98,882.71h-60.6c0-1.91,60.6-1.91,60.6-1.91.95,1.48.53,1.91,0,1.91Z" fill="#1a1a1a" stroke-width="0"/><path d="m144.43,900.82h-71.54c0-1.91,71.54-1.91,71.54-1.91.95,1.48.53,1.91,0,1.91Z" fill="#1a1a1a" stroke-width="0"/><path d="m105.8,746.38c-8.51,0-16.73-.89-24.86-2.67-4.06-.9-8.01-1.83-11.67-3.35-2.09-.86-5.51-2.26-5.64-4.84-.64-13.18,2.24-93.59,2.26-94.4,1.88.88-.99,81.21-.36,94.3.07,1.36,2.96,2.55,4.2,3.06,3.77,1.57,7.63,2.48,11.61,3.35,13.37,2.94,27.04,3.41,41.8,1.44-5.78,2.69-11.63,3.1-17.35,3.1Z" fill="#1a1a1a" stroke-width="0"/><path d="m65.78,848.43c-.95-1.04,8.37-106.42,8.37-106.42,1.9.17-7.42,105.55-7.42,105.55-.04.49-.46.87-.95.87Z" fill="#1a1a1a" stroke-width="0"/><path d="m983.1,634.65h-34.11c0-1.91,34.11-1.91,34.11-1.91.95,1.48.53,1.91,0,1.91Z" fill="#1a1a1a" stroke-width="0"/><path d="m922.83,634.65h-80.41c0-1.91,80.41-1.91,80.41-1.91.95,1.48.53,1.91,0,1.91Z" fill="#1a1a1a" stroke-width="0"/><path d="m710.51,520.91c12.09-1.91,21.93-11.74,21.93-23.84v-57.69c0-12.09-9.84-21.93-21.93-21.93h-109.1c-12.09,0-21.92,9.84-21.92,21.93v57.69c0,12.09,9.83,21.93,21.92,21.93h62.12c0,1.91-62.12,1.91-62.12,1.91-13.14,0-23.83-10.69-23.83-23.84v-57.69c0-13.14,10.69-23.84,23.83-23.84h109.1c13.14,0,23.84,10.69,23.84,23.84v57.69c0,13.15-10.7,23.84-23.84,23.84Z" fill="#1a1a1a" stroke-width="0"/><path d="m463.46,455.52h-59.53c-5.88,0-10.66-4.78-10.66-10.66v-27.99c1.91,0,1.91,27.99,1.91,27.99,0,4.82,3.93,8.75,8.75,8.75h59.53c4.82,0,8.75-3.92,8.75-8.75v-33.33c0-4.83-3.93-8.76-8.75-8.76h-59.53c0-1.91,59.53-1.91,59.53-1.91,5.88,0,10.66,4.78,10.66,10.67v33.33c0,5.87-4.78,10.66-10.66,10.66Z" fill="#1a1a1a" stroke-width="0"/><path d="m599.32,624.6c3.25-2.04,4.85-4.16,4.92-4.25,1.46,1.24-.64,4.09-4.88,4.25h-.04Z" fill="#1a1a1a" stroke-width="0"/><path d="m79.11,482.39c-6.2-15.39-.04-30.84,13.75-37.38,3.05-1.45,6.42-2.22,9.67-2.97,4.95-1.15,9.63-2.22,13.09-5.45,4.53-4.22,5.25-10.76,5.27-14.28.02-3.35-.51-6.72-1.03-9.99-.33-2.09-.67-4.25-.87-6.41-.58-6.28-.77-11.74-.57-16.71.29-7.29.55-14.09,5.76-19.11,3.24-3.12,7.69-4.53,10.75-5.33,3.86-1,7.82-1.55,11.66-2.09,2.52-.36,3.52-.34,4.59-.32,1.98.03,4.23.06,5.25-.82.15-.12,14.99-12.96,40.3,3.02,16.58,10.48,16.73,19.1,15.52,36.06-.6,8.29-4.88,15.09-8.66,21.09-3.86,6.13-7.18,11.42-5.02,16.21,1.3,2.87,3.34,5.38,5.48,8.05,5.24,6.48,10.66,13.19,4.99,25.05,3.42-11.59-1.39-17.55-6.47-23.85-2.14-2.64-4.34-5.37-5.74-8.46-2.59-5.72.99-11.42,5.15-18.01,3.66-5.81,7.8-12.39,8.36-20.21,1.2-16.63,1.06-24.4-14.63-34.31-24-15.15-37.46-3.7-38.02-3.2-1.58,1.37-4.2,1.34-6.55,1.3-.96-.01-1.9-.03-2.6.07-5.48.76-9.39,1.31-13.14,2.28-4.61,1.2-7.66,2.7-9.9,4.86-4.66,4.48-4.9,10.61-5.15,17.1-.23,5.6-.05,10.98.52,17.18.2,2.1.53,4.23.86,6.29.53,3.34,1.07,6.79,1.05,10.3-.04,6.61-2.13,12.17-5.88,15.66-3.84,3.58-8.98,4.77-13.97,5.92-3.16.73-6.42,1.48-9.28,2.84-13.09,6.21-18.7,20.35-13.67,34.38-.68,1.26-.79,1.28-.9,1.28Z" fill="#1a1a1a" stroke-width="0"/><path d="m181.16,427.88c1.78-2.01,3.17-3.34,3.83-4.12.93-1.1,1.34-2.12,1.42-2.57-.97-.64-4.09-2.91-4.51-5.56-.37-2.35.6-11.45.72-12.48,1.6,2.94.88,10.41,1.16,12.18.26,1.62,2.53,3.56,3.9,4.41.34.21.88.75.55,2.05-.5,1.95-3.13,5.87-7.02,6.09-.01,0-.04,0-.05,0Z" fill="#1a1a1a" stroke-width="0"/><path d="m580.78,710.31c-2.15,0-4.07-.13-5.59-.28-4.85-.48-8.96-3.39-10.71-7.58-2.44-5.87-.87-11.9-.8-12.16,1.22-.69,26.32.94,35.59-14.77,1.27-.4,7.46.92,10.37,6.07,1.83,3.22,1.93,7.18.32,11.75-5.06,14.4-19.5,16.98-29.19,16.98Zm-14.53-8.59c1.48,3.55,4.98,6,9.13,6.42,7.96.78,27.04.89,32.79-15.43,1.41-4.03,1.36-7.46-.19-10.18-1.98-3.5-5.9-4.97-7.44-5.42-9.22,14.62-30.63,14.62-35.18,14.43-.31,1.71-.84,6.06.88,10.18h0Z" fill="#1a1a1a" stroke-width="0"/><path d="m648.83,782.28c-.81,5.07-2.91,12.22-8.35,17.46-.42.4-.85.79-1.3,1.16-.24.2-.48.39-.73.58-.02.02-.05.04-.07.05-.08.07-.17.13-.25.19-5.57,4.12-13.29,6.14-23.44,6.14-1.15,0-2.33-.02-3.55-.08-8.9-.38-15.39-1.65-21.06-4.11-11.31-4.91-17.26-14.2-17.2-26.88.05-8.31,2.08-17,6.03-25.85.44-.99.89-1.97,1.36-2.96,1.64-3.5,3.34-7.11,4.01-10.89,2.15-11.8-6.69-22.41-12.26-27.76l-.15-.15c.12.07.24.14.37.22,1.18.73,2.42,1.64,3.66,2.72,6.17,5.38,12.17,14.83,10.27,25.31-.73,4.02-2.48,7.75-4.18,11.36-.45.98-.91,1.95-1.34,2.93-3.84,8.6-5.81,17.03-5.86,25.08-.06,11.85,5.49,20.54,16.05,25.12.32.14.64.27.96.4,5.22,2.1,11.27,3.21,19.43,3.56,12.19.5,21.07-1.65,26.93-6.62.25-.21.5-.43.74-.67.09-.07.17-.15.26-.23,5.06-4.87,7.02-11.59,7.79-16.38,2.01-12.71,1.05-24.89-2.78-35.21-3.18-8.54-8.18-16.4-13.02-24-1.25-1.96-2.49-3.9-3.7-5.86-.1-.15-.2-.31-.29-.46-4.78-7.76-9.07-14.33-15.36-19.94,0-.02-.01-.01-.01-.01-.73-.67-1.5-1.31-2.29-1.93-.29-.24-.58-.47-.88-.7-.03-.03-.07-.05-.11-.09.04.03.08.05.12.07.32.16.64.33.95.51.43.23.85.47,1.26.73.87.52,1.7,1.07,2.5,1.66,5.85,4.23,9.88,9.84,13.81,16.08.54.86,1.09,1.74,1.63,2.62,1.3,2.1,2.63,4.2,3.97,6.29,4.9,7.69,9.97,15.64,13.21,24.37,3.94,10.63,4.94,23.13,2.87,36.17Z" fill="#1a1a1a" stroke-width="0"/><path d="m787.33,616.94c-.95-1.11-.88-3.1-4.38-4.51-3.66-1.47-5.82.38-5.92.46-1.16-1.53,1.78-4.15,6.63-2.23,4.91,1.97,4.63,5.28,4.62,5.43-.05.49-.46.85-.95.85Z" fill="#1a1a1a" stroke-width="0"/><path d="m762.62,612.92c-.73-.33-2.91-2.18-6.55-.71,4.12-3.71,7.07-1.06,7.19-.95-.13,1.55-.38,1.66-.64,1.66Z" fill="#1a1a1a" stroke-width="0"/><path d="m935.07,617.25c.76-4.66,2.25-8.01,3.58-11.33.43,4.07-1.09,7.47-2.73,10.79-.16.34-.5.54-.85.54Zm8.16-20.35c.18-4.7,1.12-8.24,1.9-11.76,1.07,3.99.11,7.58-.99,11.09-.13.41-.5.67-.91.67Zm4.74-21.4c-.47-4.69-.17-8.33-.03-11.92,1.77,3.72,1.45,7.42.98,11.09-.06.48-.47.83-.95.83Zm.81-21.89c-1.16-4.5-1.55-8.14-2.11-11.72,2.46,3.35,2.85,7.04,3.06,10.71-.92,1.01-.94,1.01-.95,1.01Zm-3.39-21.65c-1.85-4.23-2.95-7.72-4.2-11.08,3.05,2.76,4.18,6.31,5.12,9.88-.76,1.19-.85,1.2-.92,1.2Zm-7.62-20.53c-2.42-3.76-4.2-6.96-6.11-10.06,3.57,2.15,5.36,5.41,6.97,8.69-.57,1.34-.72,1.37-.86,1.37Zm-11.51-18.64c-2.91-3.22-5.27-6.02-7.76-8.7,3.93,1.43,6.32,4.28,8.52,7.17-.35,1.46-.55,1.53-.76,1.53Zm-14.92-16.06c-2.53-1.92-4.52-3.57-6.56-5.15-.85-.65-1.7-1.29-2.55-1.92,1.99-.9,2.85-.25,3.72.41,2.07,1.6,4.1,3.28,6.02,4.99-.11,1.56-.37,1.67-.63,1.67Zm-17.6-13.06c-3.6-2.09-6.78-3.92-9.96-5.58,4.1,0,7.32,1.85,10.47,3.81.11,1.61-.2,1.76-.51,1.76Zm-19.42-10.17c-3.72-1.5-7.15-2.8-10.56-3.93,4.06-.66,7.53.65,10.93,2.1.35,1.61,0,1.84-.37,1.84Zm-96.63-4.21c-.18-1.9,3.64-3.36,10.33-4.92-6.11,3.39-9.96,4.84-9.99,4.85-.12.04-.22.06-.34.06Zm75.82-2.71c-3.74-.89-7.33-1.61-10.91-2.19,3.93-1.3,7.58-.56,11.13.31.59,1.59.2,1.88-.23,1.88Zm-54.49-2.37c3.48-2.44,7.18-2.84,10.84-3.1-3.49,2.16-7.13,2.56-10.71,3.09-.04,0-.1.01-.14.01Zm32.84-1.11c-3.66-.3-7.33-.45-10.97-.46,3.7-1.89,7.41-1.74,11.05-1.44.83,1.53.42,1.91-.08,1.91Z" fill="#1a1a1a" stroke-width="0"/><path d="m603.58,399.78c-1.99-4.1-3.28-7.51-4.76-10.8,3.24,2.59,4.57,6.07,5.67,9.56-.72,1.23-.82,1.24-.91,1.24Zm-8.95-19.96c-2.65-3.54-4.68-6.57-6.86-9.47,3.75,1.81,5.83,4.89,7.69,8.03-.49,1.4-.66,1.44-.82,1.44Zm-13.18-17.46c-3.13-2.89-5.76-5.43-8.52-7.85,4.06,1.02,6.74,3.6,9.22,6.24-.23,1.52-.46,1.61-.69,1.61Zm-16.47-14.46c-3.42-2.27-6.46-4.31-9.61-6.24,4.19.34,7.27,2.4,10.17,4.52.02,1.59-.27,1.72-.56,1.72Zm-18.68-11.49c-3.57-1.74-6.88-3.33-10.27-4.84,4.2-.22,7.55,1.39,10.72,3.04.23,1.61-.1,1.8-.44,1.8Zm-20.05-8.9c-3.66-1.32-7.14-2.52-10.65-3.64,4.12-.69,7.63.53,10.99,1.8.41,1.61.05,1.85-.34,1.85Zm-20.89-6.68c-3.7-.96-7.27-1.84-10.87-2.64,4.04-1.05,7.65-.17,11.12.77.56,1.6.17,1.87-.25,1.87Zm-21.42-4.8c-3.68-.66-7.31-1.25-10.97-1.77,3.96-1.36,7.61-.76,11.15-.11.68,1.57.28,1.89-.17,1.89Zm-21.73-3.14c-3.68-.39-7.35-.73-11-1,3.82-1.63,7.51-1.29,11.1-.9.79,1.54.38,1.9-.1,1.9Z" fill="#1a1a1a" stroke-width="0"/><path d="m244.46,449.3c-.92-1.24-.42-5.26,1.28-11.99.18,7.07-.32,11.12-.33,11.16-.06.48-.47.84-.95.84Zm5.27-21.36c.23-4.73,1.51-8.22,2.89-11.63.41,4.09-.86,7.54-1.99,10.98-.13.4-.5.65-.9.65Zm8.19-20.37c.71-4.65,2.42-7.95,4.23-11.17-.12,4.12-1.81,7.38-3.37,10.63-.16.34-.5.54-.86.54Zm10.73-19.15c1.2-4.54,3.32-7.59,5.52-10.53-.65,4.05-2.75,7.07-4.71,10.1-.18.28-.49.43-.8.43Zm13.13-17.57c1.64-4.33,4.15-7.07,6.73-9.71-1.2,3.94-3.67,6.65-6.01,9.37-.18.22-.45.34-.72.34Zm15.36-15.64c2.14-4.14,5-6.51,7.86-8.72-1.65,3.69-4.47,6.03-7.22,8.48-.18.16-.41.24-.64.24Zm17.31-13.44c2.51-3.8,5.65-5.77,8.8-7.62-2.16,3.47-5.26,5.42-8.27,7.45-.16.11-.35.16-.53.16Zm18.91-11.08c2.86-3.47,6.22-5.04,9.56-6.47-2.54,3.17-5.87,4.72-9.13,6.37-.14.07-.28.1-.43.1Zm20.11-8.7c3-3.07,6.42-4.22,9.82-5.27-2.81,2.86-6.2,4-9.49,5.21-.11.04-.22.06-.33.06Zm21.03-6.2c3.21-2.61,6.86-3.26,10.66-3.84-3.49,2.45-7.1,3.1-10.47,3.81-.06.01-.13.02-.2.02Zm21.68-3.31c3.45-2.27,7.13-2.57,10.87-2.81-3.59,2.14-7.26,2.44-10.78,2.8-.03,0-.07,0-.1,0Z" fill="#1a1a1a" stroke-width="0"/><path d="m462.25,871.39H169.15c0-1.91,293.11-1.91,293.11-1.91.96,1.48.53,1.91,0,1.91Z" fill="#1a1a1a" stroke-width="0"/><path d="m223.87,680.33h-39.9c-.95-.96-.95-40.85-.95-40.85.95-.95,40.85-.95,40.85-.95.95.95.95,40.85.95,40.85,0,.53-.43.96-.95.96Zm-38.94-1.91h37.98v-37.99h-37.98v37.99Z" fill="#1a1a1a" stroke-width="0"/><path d="m223.87,750.92h-39.9c-.95-.95-.95-40.85-.95-40.85.95-.96,40.85-.96,40.85-.96.95.96.95,40.85.95,40.85,0,.53-.43.95-.95.95Zm-38.94-1.91h37.98v-37.98h-37.98v37.98Z" fill="#1a1a1a" stroke-width="0"/><path d="m264.73,832.75c-.95-.95-.95-192.7-.95-192.7,1.91,0,1.91,191.74,1.91,191.74,0,.53-.43.95-.96.95Z" fill="#1a1a1a" stroke-width="0"/><path d="m160.13,371.61c-.88-.59-3.23-6.18-3.23-6.18,1.76-.74,4.11,4.86,4.11,4.86-.63,1.3-.76,1.32-.88,1.32Z" fill="#1a1a1a" stroke-width="0"/><path d="m605.01,484.72c-9.09,0-16.49-7.4-16.49-16.49s7.39-16.49,16.49-16.49,16.5,7.4,16.5,16.49-7.41,16.49-16.5,16.49Zm0-31.08c-8.04,0-14.58,6.54-14.58,14.58s6.54,14.58,14.58,14.58,14.59-6.55,14.59-14.58-6.54-14.58-14.59-14.58Z" fill="#1a1a1a" stroke-width="0"/><path d="m717.36,458.06h-83.09c0-1.91,83.09-1.91,83.09-1.91.95,1.49.52,1.91,0,1.91Z" fill="#1a1a1a" stroke-width="0"/><path d="m717.36,479.74h-83.09c0-1.91,83.09-1.91,83.09-1.91.95,1.48.52,1.91,0,1.91Z" fill="#1a1a1a" stroke-width="0"/><path d="m492.82,835.76c-.26-8.86-3.46-16.57-9.94-22.74-6.54-6.22-15.64-10.13-25.61-11-19.31-1.7-36.56,8.79-39.41,23.85,1.16-16.35,19.42-27.54,39.57-25.75,10.4.91,19.91,5,26.76,11.52,6.92,6.57,10.32,14.83,9.58,23.25-.04.5-.46.87-.95.87Z" fill="#1a1a1a" stroke-width="0"/><path d="m431.22,326.51c-8.59,0-15.58-6.99-15.58-15.59s6.99-15.59,15.58-15.59,15.59,6.99,15.59,15.59-7,15.59-15.59,15.59Zm0-29.26c-7.54,0-13.67,6.13-13.67,13.68s6.13,13.68,13.67,13.68,13.68-6.13,13.68-13.68-6.13-13.68-13.68-13.68Z" fill="#1a1a1a" stroke-width="0"/></svg>