<?xml version="1.0" encoding="UTF-8"?><svg id="a" xmlns="http://www.w3.org/2000/svg" width="1000" height="1000" viewBox="0 0 1000 1000"><path d="m545.63,405.77v-24.67l-21.65-9.34-9.35-21.9,10.04-22.2-16.99-17.6-22,9.51-21.97-8.25-9.26-22.59h-24.86l-9.16,22.62-21.93,8.65-22.61-9.79-17.2,17.13,9.55,22.08-9.55,21.7-24.3,9.85v24.42l22.94,8.87,10.91,22.1-9.64,22.95,10.61,10.45,9.91-3.71,3.85,7.96,15.16-6.96,22.41,10.03,9.19,23h24.32l8.55-22.91,22.24-10.11,23.06,10.4,17-18.47-9.28-22.9,8.82-21.52,21.19-8.78Zm-103.71,27.08c-21.78,0-39.43-17.65-39.43-39.43s17.65-39.43,39.43-39.43,39.43,17.65,39.43,39.43-17.65,39.43-39.43,39.43Z" fill="#fff" stroke-width="0"/><path d="m440.55,511.91c-6.37-.13-12.98-.14-20.38,0-2.54,0-3.9-1.01-4.67-3.35-2.48-7.54-4.63-13.69-6.74-19.36-.33-.87-1.33-1.91-2.29-2.37-2.5-1.18-5.04-2.29-7.58-3.39-3.14-1.36-6.38-2.78-9.52-4.32-1.7-.84-2.71-.87-4.19-.13-2.88,1.43-5.51,2.67-8.21,3.95-1.64.78-3.31,1.57-5.07,2.41.77-2.93,2.44-3.72,4.09-4.5,2.69-1.27,5.31-2.51,8.17-3.93,2.15-1.06,3.89-1.03,6.23.13,3.08,1.52,6.3,2.93,9.41,4.28,2.56,1.11,5.12,2.23,7.64,3.42,1.51.71,2.93,2.21,3.47,3.65,2.13,5.7,4.28,11.87,6.78,19.44.47,1.42,1.02,1.77,2.44,1.76,7.44-.13,14.07-.13,20.28,0,1.58.01,2.06-.33,2.59-1.97,2.22-6.92,4.4-13.18,6.66-19.12.66-1.74,2.37-3.18,3.78-3.84,5.51-2.57,11.42-5.13,17.57-7.62,1.3-.53,3.43-.76,5.02-.07,5.13,2.28,10.09,4.64,15.36,7.13l4.69,2.22,3.27-3.3c4.16-4.2,8.47-8.54,12.57-12.89.27-.28.42-1.64.11-2.33-1.45-3.24-2.98-6.45-4.51-9.65-1.37-2.87-2.74-5.74-4.05-8.64-.66-1.46-.78-3.37-.31-4.74,2.28-6.55,4.48-12.41,6.74-17.92.67-1.64,2.23-3.22,3.79-3.85,6.49-2.63,13.03-4.94,17.99-6.66,1.39-.49,1.73-.97,1.7-2.48-.13-7.23-.13-13.87,0-20.28.03-1.57-.37-2.12-1.98-2.67-4.9-1.69-11.35-3.97-17.66-6.55-1.55-.64-3.17-2.31-3.93-4.07-2.12-4.9-4.28-10.36-6.77-17.16-.47-1.26-.63-3.2.03-4.69,1.39-3.09,2.84-6.15,4.3-9.21,1.54-3.23,3.08-6.46,4.53-9.73.27-.59.06-1.94-.26-2.28-2.71-2.89-5.5-5.71-8.29-8.53-2.11-2.14-4.23-4.28-6.32-6.45-.9-.94-1.38-1.02-2.62-.41-6.78,3.36-12.76,6.2-18.29,8.68-1.48.66-3.54.76-5.01.22-5.89-2.12-11.78-4.42-17.51-6.85-1.46-.62-3.24-1.99-3.91-3.67-2.09-5.2-4.13-10.75-6.61-18.01-.58-1.71-.97-2.1-2.58-2.04-6.47.16-13.1.16-20.29,0-1.56-.02-2.1.37-2.66,2-.98,2.85-2.01,5.68-3.06,8.51-1.11,3.04-2.23,6.08-3.27,9.14-.77,2.26-2.03,3.48-4.49,4.34-5.68,1.97-11.17,4.17-16.32,6.53-2.29,1.05-4.03,1.03-6.21-.06-3.06-1.54-6.15-3.02-9.23-4.5-2.88-1.38-5.76-2.75-8.61-4.18-1.33-.68-1.89-.58-2.93.51-5.23,5.46-9.93,10.15-14.35,14.34-1.18,1.11-1.14,1.72-.39,3.24,2.6,5.25,5.64,11.5,8.49,18,.64,1.47.6,3.65-.1,5.3-2.48,5.78-5.14,11.51-7.92,17.06-.69,1.37-2.15,3.22-4.03,3.94-6.4,2.44-12.98,4.63-19.13,6.63-1.65.53-2.05,1.05-2.01,2.6.14,6.23.14,12.86,0,20.29-.03,1.5.29,1.95,1.72,2.41,5.84,1.88,12.72,4.16,19.48,6.73,1.83.69,3.27,2.62,3.96,4.06,1.15,2.42,2.21,4.88,3.28,7.34,1.29,3,2.64,6.11,4.12,9.07,1.28,2.55,1.32,4.55.13,6.93-1.43,2.88-2.81,5.79-4.17,8.7-1.3,2.75-2.6,5.51-3.95,8.24-.75,1.51-.65,2.14.49,3.23,3.02,2.88,5.55,5.33,8.77,8.6-4.73-1.52-7.18-3.89-10.36-6.94-1.88-1.79-2.16-3.5-.96-5.92,1.35-2.71,2.63-5.46,3.93-8.2,1.37-2.93,2.75-5.85,4.2-8.74.86-1.73.83-2.96-.12-4.87-1.52-3.02-2.87-6.15-4.19-9.19-1.05-2.44-2.1-4.87-3.24-7.27-.63-1.32-1.77-2.54-2.7-2.89-6.71-2.56-13.55-4.82-19.37-6.69-2.4-.77-3.36-2.11-3.31-4.64.13-7.39.13-13.99,0-20.19-.07-3.2,1.68-4.22,3.6-4.84,6.13-2,12.68-4.18,19.03-6.6.99-.37,2.16-1.56,2.78-2.81,2.76-5.5,5.4-11.2,7.86-16.94.45-1.04.5-2.6.12-3.48-2.83-6.46-5.85-12.68-8.44-17.9-1.03-2.09-1.28-3.9.86-5.93,4.4-4.16,9.07-8.83,14.27-14.26,1.75-1.82,3.37-2.1,5.62-.98,2.84,1.42,5.71,2.79,8.57,4.16,3.11,1.48,6.21,2.97,9.28,4.52,1.54.77,2.57.78,4.22.03,5.22-2.39,10.78-4.62,16.53-6.61,1.79-.62,2.53-1.33,3.06-2.9,1.04-3.09,2.17-6.14,3.29-9.2,1.04-2.81,2.07-5.63,3.04-8.46.89-2.58,2.32-3.6,4.88-3.55,7.15.16,13.75.16,20.18,0,2.93-.03,4.06,1.39,4.82,3.6,2.47,7.22,4.49,12.74,6.57,17.9.35.87,1.5,1.91,2.68,2.41,5.69,2.41,11.54,4.7,17.39,6.81.93.34,2.35.28,3.3-.16,5.5-2.46,11.46-5.29,18.21-8.63,2.12-1.05,3.71-.79,5.31.88,2.07,2.16,4.19,4.29,6.29,6.42,2.81,2.84,5.61,5.67,8.33,8.58,1.08,1.14,1.25,3.51.68,4.79-1.47,3.29-3.01,6.53-4.56,9.78-1.45,3.05-2.9,6.09-4.28,9.17-.33.72-.31,2.02.03,2.94,2.48,6.76,4.62,12.18,6.72,17.04.53,1.21,1.69,2.44,2.69,2.85,6.26,2.57,12.66,4.82,17.54,6.51,2.56.89,3.58,2.31,3.53,4.9-.13,6.39-.13,12.99,0,20.19.04,2.49-.93,3.89-3.26,4.7-4.94,1.71-11.44,4.01-17.88,6.62-.98.4-2.09,1.53-2.52,2.59-2.24,5.47-4.43,11.29-6.7,17.8-.28.81-.18,2.12.24,3.04,1.3,2.88,2.67,5.74,4.03,8.59,1.54,3.23,3.08,6.45,4.53,9.71.6,1.33.5,3.75-.53,4.84-4.12,4.38-8.44,8.73-12.61,12.94l-3.84,3.88c-1.31.23-6.74-2.34-6.74-2.34-5.25-2.49-10.2-4.84-15.3-7.11-.8-.36-2.22-.32-3.22.09-6.11,2.47-11.99,5.02-17.46,7.58-1.13.52-2.24,1.63-2.6,2.57-2.25,5.91-4.41,12.12-6.63,19.01-.8,2.52-2.16,3.57-4.63,3.57Z" fill="#1a1a1a" stroke-width="0"/><path d="m430.28,444.3c-10.88,0-21.06-4.22-28.7-11.87-7.63-7.66-11.84-17.87-11.83-28.77,0-10.91,4.2-21.09,11.81-28.67,7.66-7.65,17.97-11.85,29.03-11.85,22.3.05,40.34,18.27,40.32,40.62-.01,22.35-18.24,40.54-40.63,40.54h0Zm.31-78.86c-10.45,0-20.18,3.97-27.41,11.18-7.17,7.15-11.12,16.76-11.13,27.05,0,10.28,3.95,19.93,11.16,27.14,7.2,7.22,16.81,11.19,27.07,11.19,21.13,0,38.32-17.16,38.33-38.24.02-21.09-16.99-38.28-37.92-38.32h-.09Z" fill="#1a1a1a" stroke-width="0"/><path d="m382.37,418.3c-2.35-5.32-2.97-9.96-2.97-14.65,0-9.06,2.36-17.91,6.82-25.6-2.26,8.49-4.51,16.94-4.51,25.6,0,4.48.59,8.92,1.78,13.19-.9,1.44-1.01,1.45-1.11,1.45Z" fill="#1a1a1a" stroke-width="0"/><path d="m430.27,454.66c-4.21,0-8.39-.51-12.41-1.51,4.4-1.27,8.39-.79,12.41-.79,21.83,0,41.13-14.61,46.92-35.51-3.85,22.51-24.06,37.8-46.92,37.81Z" fill="#1a1a1a" stroke-width="0"/><path d="m259.07,533.41s-6.74-11.09-20.35-11.09-13.23,3.45-22.17,3.45-26.77-2.95-34.01,13.74c-7.24,16.69,2.79,26.25,15.37,24.87l-1.59,2.68s-5,8.31-4.56,8.42c.44.12-2.59,19.44,10.11,26.1l1.45,3.22-5.16,6.84-1.84,6.78,1.33,5.65,4.21,4.45,3.41,1.48,6.41.93,7.89-.71s6.94-2.64,7.48-.28c.54,2.36,5.53,14.34.09,16.89-5.44,2.55-5.97,29.93-3.58,30.78,2.39.85,12.41,3.74,17.69,4.93,5.28,1.19,6.98,1.53,10.89-4.76,3.91-6.29,8.84-12.01,10.37-14.68,1.53-2.66,6.36-20.77,6.36-20.77l-4.08-17.09,8.4-1.09,17.16-4.63,6.28-5.56,1.41-5.05-1.77-11.14-2.95-6.19-4.29-5.29-2.84-3.79-1.52-4.23.92-6.65.37-10.34-1.9-8.64-3.8-7.68-5.4-5.46-6.2-2.26-4.28.25-2.99-.31-2.35-3.77Z" fill="#fff" stroke-width="0"/><path d="m275.05,751.33l32.48,68.73s5.76,11.26.76,16.72c-5,5.46-11.02,5.15-11.02,5.15l-145.1-12.23s-4.22-.99-9.36-9.77c-5.14-8.77-15.54-34.32-15.54-34.32l-33.66-69.68s-2.32-13.17,8.33-16.92l147.88,12.56s5.69-.19,10.12,7.78c4.43,7.97,15.12,31.99,15.12,31.99Z" fill="#fff" stroke-width="0"/><path d="m93.06,716.72l8.18,15.39s2.07,2.26,12.13,2.06c10.06-.19,13.89-.84,16.63,1.62,2.74,2.47,6.9,7.65,2.35,16.25,0,0,4.79,2.56,4.55,7.9-.23,5.34-2.98,7.54-2.98,7.54,0,0,5.02,3.42,3.81,8.46-1.21,5.04-7.24,8.56-11.71,10.14-4.47,1.58-24.52,1.83-28.16-.13-3.63-1.96-9.48-3.08-13.54-13.55-4.06-10.47-4.91-23.42-4.71-28.06.21-4.64,1.8-11.8,3.62-16.15,1.82-4.35,9.82-11.48,9.82-11.48Z" fill="#fff" stroke-width="0"/><path d="m195.28,768.43c3.63,6.29,3.22,13.32-.92,15.71-4.14,2.39-10.44-.77-14.07-7.06-3.63-6.29-3.22-13.32.92-15.71,4.14-2.39,10.44.77,14.07,7.06Z" fill="#fff" stroke-width="0"/><path d="m101.47,698.03l6.81-5.43,128.52,10.38,22.62,2.31s5.61,2.21,9.27,10.1l49.6,104.12s1.51,6.87-1.83,9.78l-6.12,5.55s2.6-1.3,0-8.51l-51.85-109.61s-3.67-3.87-7.59-5.18l-149.41-13.51Z" fill="#fff" stroke-width="0"/><path d="m327.95,810.64c-7.75-10.37-24.58-27.17-31.5-33.94,8.58,5.17,25.52,22.09,32.45,32.13-.49,1.74-.72,1.81-.95,1.81Z" fill="#1a1a1a" stroke-width="0"/><path d="m332.23,873.28c-19.4,0-42.63-11.17-66.78-32.37,30.19,23.43,57.35,34.23,77.95,28.63,30.61-8.27,32.47-46.16,30.85-68.01,3.96,22.39,1.95,61.53-30.25,70.24-3.73,1.01-7.67,1.51-11.77,1.51Z" fill="#1a1a1a" stroke-width="0"/><path d="m159.93,858.1c-3.2,0-6.45-.36-9.69-1.05-24.45-5.27-44.57-39.66-53.66-71.41,11.11,30.45,30.63,64.09,54.14,69.15,3.88.84,7.78,1.14,11.55.94-.69,2.34-1.51,2.37-2.34,2.37Z" fill="#1a1a1a" stroke-width="0"/><path d="m151.18,695.14c-.95-.24-1.29-.89-1.1-1.5,11.24-35.97,38.56-46.42,61.1-51.49.52-.11,12.23-2.5,18.17-2.95-5.62,2.74-17.57,5.17-17.69,5.19-21.92,4.94-48.5,15.09-59.39,49.94-.15.49-.61.81-1.1.81Z" fill="#1a1a1a" stroke-width="0"/><path d="m296.34,775.08c-9.65-31.01-8.9-75.8-8.89-76.25,2.29.49,1.55,44.94,10,74.78-.9,1.45-1.01,1.47-1.11,1.47Z" fill="#1a1a1a" stroke-width="0"/><path d="m298.43,843.46c-1.26-.06-144.52-12.9-144.52-12.9-4.79-.43-9.03-3.4-11.08-7.74l-16.81-35.58c2.08-.98,18.9,34.6,18.9,34.6,1.7,3.61,5.23,6.07,9.21,6.43l143.26,12.85c4.07.35,7.93-1.42,10.28-4.79,2.35-3.36,2.7-7.59.95-11.3l-22.62-47.85c2.08-.98,24.7,46.87,24.7,46.87,2.11,4.46,1.68,9.54-1.14,13.6-2.58,3.7-6.67,5.82-11.11,5.82Z" fill="#1a1a1a" stroke-width="0"/><path d="m275.05,752.48c-1.04-.66-16.51-33.38-16.51-33.38-1.71-3.61-5.23-6.07-9.21-6.42l-143.25-12.85c-4.07-.4-7.93,1.42-10.28,4.78-2.35,3.36-2.71,7.59-.95,11.3l7.43,15.72c-2.08.98-9.51-14.74-9.51-14.74-2.11-4.47-1.68-9.55,1.15-13.6,2.83-4.04,7.44-6.19,12.37-5.76l143.25,12.85c4.78.43,9.03,3.39,11.08,7.74l15.47,32.73c-.71,1.61-.87,1.64-1.04,1.64Z" fill="#1a1a1a" stroke-width="0"/><path d="m306.66,840.31c-.81-1.97,9.02-11.69,9.02-11.69,1.8-3.22,1.93-6.98.34-10.33l-50.06-105.93c-1.7-3.61-5.23-6.07-9.2-6.42l-143.26-12.85c-1.6-.14-3.18.04-4.67.55l-10.25,8.18c-1.43-1.8,8.97-10.1,8.97-10.1,2.18-.85,4.13-1.09,6.16-.92l143.25,12.85c4.78.43,9.03,3.39,11.08,7.74l50.06,105.93c1.94,4.09,1.75,8.69-.5,12.6-.19.24-10.14,10.07-10.14,10.07-.22.22-.52.34-.81.34Z" fill="#1a1a1a" stroke-width="0"/><path d="m153.63,915.93c9.22-24,8.58-85.06,8.58-85.67,2.34,2.5,2.94,62.16-7.53,85-.19.42-.61.67-1.04.67Z" fill="#1a1a1a" stroke-width="0"/><path d="m113.16,788.5c-12,0-21.54-2.85-25.5-7.92-2.96-3.79-5.16-8.7-6.74-15.01-2.38-9.53-3.04-19.68-1.91-29.36,1.26-10.79,13.75-20.04,14.28-20.43,1.24,1.94-10.85,10.92-11.99,20.7-1.1,9.4-.46,19.27,1.85,28.53,1.5,5.99,3.57,10.62,6.32,14.15,3.68,4.69,15.33,8.52,33.04,6.48,5.31-.61,14.9-4.66,14.14-11.65-.22-2.05-1.42-3.81-3.28-4.82,3.6-.67,5.27,1.8,5.57,4.57.9,8.3-9.11,13.38-16.16,14.19-3.33.39-6.55.57-9.62.57Z" fill="#1a1a1a" stroke-width="0"/><path d="m122.02,754.31c-7.92,0-24.76-1.82-26.94-2.67,2.75-1.4,24.68.98,29.63.24,3-.4,6.22-.83,7.34-2.63,1.59-2.55,1.98-5.47,1.08-7.99-.75-2.1-2.41-3.85-4.93-5.22-2.03-1.1-4.33-.96-6.75-.83-.62.04-1.26.07-1.88.09-23.74.55-28.12-4.67-28.54-5.27,1.98-1.21,6.26,3.53,28.48,2.97,4.44-.24,7.16-.4,9.77,1.01,3.03,1.64,5.06,3.82,6,6.47,1.15,3.19.67,6.82-1.29,9.98-1.69,2.72-5.56,3.24-8.12,3.58-1.55.22-2.59.27-3.86.27Z" fill="#1a1a1a" stroke-width="0"/><path d="m117.89,772.01c-11.51,0-23.1-1.62-23.25-1.64.51-2.25,18.74.29,31.96-1.05,4.77-.48,9.67-3.59,9.17-9.27-.25-2.78-2.24-5.89-4.96-7.73,4.6.35,6.94,4.05,7.25,7.53.64,7.23-5.37,11.17-11.23,11.76-2.83.29-5.88.41-8.94.41Z" fill="#1a1a1a" stroke-width="0"/><path d="m196.18,783.27c-1.48,0-3.06-.4-4.65-1.2-2.86-1.43-5.46-4-7.33-7.24-3.94-6.82-3.34-14.58,1.35-17.28,4.67-2.7,11.69.66,15.64,7.48,3.94,6.83,3.34,14.58-1.34,17.29-1.11.64-2.35.95-3.67.95Zm-6.93-24.39c-.92,0-1.78.21-2.55.66-3.58,2.07-3.8,8.41-.5,14.14,1.64,2.85,3.91,5.1,6.36,6.33,2.3,1.15,4.48,1.27,6.13.31,3.58-2.06,3.8-8.41.49-14.14-2.59-4.5-6.6-7.29-9.94-7.29Z" fill="#1a1a1a" stroke-width="0"/><path d="m174.8,698.57c-1.15-1.15-1.15-5.68-1.15-5.68,2.3,0,2.3,4.53,2.3,4.53,0,.64-.52,1.15-1.15,1.15Z" fill="#1a1a1a" stroke-width="0"/><path d="m234.87,673.73c-8.73-2.73-6.35-24.57-5.71-29.49l-4.28-18.7c2.25-.51,6.58,18.39,6.58,18.39-1.34,10.76-1.45,25.97,2.57,27.37,6.11,2.08,23.54-16.94,33.41-29.72l-3.8-16.66c2.25-.51,6.17,16.68,6.17,16.68-2.77,4.29-24.44,32.13-34.93,32.13Z" fill="#1a1a1a" stroke-width="0"/><path d="m228.26,639.91s-49.57,6.01-65.93,32.62c0,0-9.29,11.96-11.15,22.62l108.23,10.14,6.75,5.06,52.12,109.16-1.26,8.98-13.33,12.64-3.62,1.05-33-3.02-108.58-9.35s-8.42-.87-11.93-3.76c-3.5-2.9-19.3-40.43-19.3-40.43,0,0-7.84,2.01-13.25,1.75-5.41-.26-16.16-1.39-16.16-1.39,0,0,5.68,18.5,10.87,28,5.18,9.49,18.82,32.49,31.89,38.14,13.06,5.65,21.71,4.78,21.71,4.78,0,0-.43,18.04-1.64,26.85-1.21,8.82-4.94,27.09-7.06,30.43l198.8.56v-46.6s14.49-11.02,18.92-25.24c4.43-14.22,4.46-33.1,4.34-35.86-.12-2.76-.29-5.57-.29-5.57,0,0-18.35-14.65-23.67-35.92-5.32-21.28-10.16-47.3-11.23-54.02-1.07-6.73-7.38-44.05-7.38-44.05,0,0-9.38-17.92-30.73-24.81-21.35-6.88-32.96-2.81-32.96-2.81,0,0-3.78,8.28-12.37,15.11-8.58,6.83-17.58,19.93-23.04,17.52-5.46-2.41-4.59-17.24-4.3-19.27.29-2.04.53-8.32.53-8.32l-1.98-4.97Z" fill="#1a1a1a" stroke-width="0"/><path d="m259.46,78.9C318.09,25.15,399.82-1.73,504.67-1.73c68.39,0,126.8,11.79,175.23,35.32,48.41,23.55,85.06,55.53,109.94,95.95,24.87,40.44,37.31,85.95,37.31,136.59,0,60.43-14.65,108.61-43.97,144.59-29.32,35.98-62.63,60.2-99.95,72.63v5.33c107.49,39.98,161.25,116.4,161.25,229.21,0,55.97-12.9,105.28-38.64,147.92-25.78,42.64-63.09,75.96-111.95,99.95-48.87,23.99-107.06,35.98-174.57,35.98-111.06,0-198.79-26.86-263.19-80.62-64.42-53.74-97.95-136.13-100.61-247.2h254.53c-1.79,35.54,5.77,63.09,22.64,82.62,16.87,19.55,42.19,29.32,75.96,29.32,25.76,0,45.97-8,60.64-23.99,14.65-15.99,21.98-37.31,21.98-63.96,0-33.75-10.89-58.64-32.64-74.63-21.78-15.99-57.09-23.99-105.94-23.99h-46.65v-211.89h45.31c33.75.9,62.4-4.66,85.95-16.66,23.53-12,35.31-36.19,35.31-72.63,0-27.53-6.66-48.18-19.99-61.97-13.33-13.76-31.55-20.66-54.64-20.66-25.77,0-44.64,9.12-56.64,27.32-12,18.22-18.88,40.64-20.65,67.3h-254.53c3.55-100.38,34.65-177.44,93.28-231.21Z" fill="#4a8eff" stroke-width="0"/><path d="m176.07,587.56c0,47.05-38.15,85.2-85.2,85.2S5.66,634.62,5.66,587.56s38.15-85.2,85.2-85.2,85.2,38.14,85.2,85.2Z" fill="#fff" stroke-width="0"/><path d="m488.54,545.82s-13.13-3.95-16.42,10.39c0,0-.02,9.55,7.07,11.45,7.09,1.9,11.17-.41,11.17-.41,0,0,2.71,17.93,12.01,22.71,0,0-.3,17.22-2.42,22.45-2.12,5.23-5.33,19.07,18.9,22.4,0,0,15.31.21,19.29-4.65,3.97-4.86,5.87-8.1,4.84-10.67-1.02-2.57-3.48-14.87-3.8-19.31-.33-4.44-.61-10.22-.61-10.22,0,0,6.7-3.51,8.33-9.83,1.63-6.32,3.69-12.82,3.69-12.82,0,0,8.6,3.93,13.26-.6,4.67-4.53,5.81-9.57,5.02-12.9-.79-3.33-6.96-8.63-10.96-8.85-4-.22-6.55.96-6.55.96l-.5-3.36s-16.99-1.23-28-8.67c-11.01-7.44-23.73-18.04-23.73-18.04,0,0-5.98,18.52-9.58,21.85l-1.01,8.12Z" fill="#fff" stroke-width="0"/><path d="m339.65,632.03l8.05,15.76s-17.14-.4-18.27-5.27c-1.14-4.87,10.22-10.48,10.22-10.48Z" fill="#1a1a1a" stroke-width="0"/><path d="m393.78,624.07l-6.21,15.84s11.81-3.83,13.12-10.26c0,0,1.34-4.39-6.91-5.58Z" fill="#1a1a1a" stroke-width="0"/><path d="m635.43,807.17l-8.89-3.79s.59-2.38,2.42-1.8c1.83.58,6.48,5.59,6.48,5.59Z" fill="#3a3a3a" stroke-width="0"/><path d="m638.53,860.16s11.96-1.75,15.83-4.59c0,0,2.13,15.63-3.55,15.08-5.67-.55-11.85-8.95-12.28-10.49Z" fill="#1a1a1a" stroke-width="0"/><path d="m483.34,568.93s2.32,5.98-1.97,5.99c-4.29.01-16.66,1.09-21.52,8.47-4.86,7.38-6.75,11.46-6.24,19.53.5,8.08,8.78,13.9,8.78,13.9,0,0,17.24-4.51,36.87-4.4,0,0,1.31-1.53,1.85-7.97.55-6.43.79-14.76.79-14.76,0,0-7.1-5.08-9.18-13.04-2.08-7.96-2.35-9.4-2.35-9.4,0,0-3.33,2.5-7.03,1.67Z" fill="#1a1a1a" stroke-width="0"/><path d="m556.32,568.93s-1.28,5.98,3.01,5.99c4.29.01,16.48,1.77,21.34,9.14,4.86,7.38,5.74,10.24,5.23,18.32-.5,8.08-8.53,14.33-8.53,14.33,0,0-16.3-4.39-35.93-4.29,0,0-1.31-1.53-1.85-7.97-.54-6.43-.79-14.76-.79-14.76,0,0,7.1-5.08,9.18-13.04,2.08-7.96,2.34-9.4,2.34-9.4,0,0,2.29,2.5,5.99,1.67Z" fill="#1a1a1a" stroke-width="0"/><path d="m482.79,544.97l6.55.96.21-8.23s7.6-13.42,9.58-21.85c0,0,16.12,15.29,26.49,19.59s21.57,7.81,25.24,7.12l.35,2.41,4.68-.59s1.72-15.49,1.97-23.01c.26-7.52-3.57-20.41-13.92-24.28-10.34-3.87-20.7-6.1-33.25-4.7-12.54,1.4-18.64,11.87-18.64,11.87,0,0-9.32,1.42-11.2,12.65-1.88,11.23,1.93,28.07,1.93,28.07Z" fill="#1a1a1a" stroke-width="0"/><path d="m387.57,639.91s6.63-16.05,9.51-24.35c2.88-8.3,6.81-18.33,2.74-24.15-4.07-5.81-13.76-11.85-21.71-14.43-7.95-2.58-12.05-2.29-12.77,4.54-.71,6.83,6.99,14.97,17.46,20.79l-47.94,19.24s10.65,23.59,13.52,26.24c0,0,30.57-1.68,39.18-7.88Z" fill="#fff" stroke-width="0"/><polygon points="319.45 627.29 411.44 593.04 367.54 476.34 276 510.6 319.45 627.29" fill="#fff" stroke-width="0"/><path d="m637.92,809.21s-11.27-8.4-26.99-11.69c-15.72-3.3-31.17,1.26-34.3,3.97-3.13,2.71-8.1,7.2-3.12,12.98,0,0-9.83,7.23-3.73,15.88,0,0-4.26,4.63-1.98,7.96,2.29,3.34,7.37,6.06,14.62,5.92,7.25-.14,22.39-3.05,29.51-1.02,0,0,1.36,11.96,16.23,15.87,14.87,3.9,26.2-3.51,26.2-3.51,0,0-3.75-21.63-7.72-30.1-3.97-8.46-8.71-16.26-8.71-16.26Z" fill="#fff" stroke-width="0"/><path d="m542.28,677.23c0,2.57-2.08,4.65-4.64,4.65s-4.64-2.08-4.64-4.65,2.08-4.64,4.64-4.64,4.64,2.08,4.64,4.64Z" fill="#fff" stroke-width="0"/><circle cx="537.63" cy="735.04" r="4.64" fill="#fff" stroke-width="0"/><path d="m542.28,793.01c0,2.56-2.08,4.64-4.64,4.64s-4.64-2.08-4.64-4.64,2.08-4.65,4.64-4.65,4.64,2.08,4.64,4.65Z" fill="#fff" stroke-width="0"/><path d="m542.28,850.82c0,2.56-2.08,4.65-4.64,4.65s-4.64-2.08-4.64-4.65,2.08-4.64,4.64-4.64,4.64,2.08,4.64,4.64Z" fill="#fff" stroke-width="0"/><path d="m569.41,841.04s4.17,9.3,21.65,8.42l17.48-.88-.62-5.68s-4.07-.53-14.78.4c-10.72.93-22.11.47-23.72-2.26Z" fill="#1a1a1a" stroke-width="0"/><path d="m365.34,579.93s-4.78,16.35,11.35,25.95l7.17-2.58s-17.45-10.07-18.53-23.37Z" fill="#b5b5b5" stroke-width="0"/><path d="m139.54,611.23c-1.74,12.46-11.68,21.66-26.24,24.31-1.57.28-3.13.66-5.05,1.07v13.63h-12.44v-13.7c-17.91-1.98-28.09-11.32-31.86-27.4,6.6-1.59,12.84-3.1,19.51-4.71.51,1.32,1.02,2.52,1.44,3.74,3.36,9.75,14.32,14.5,24.59,10.61,4.73-1.79,6.94-5.33,7.28-9.78.31-4.07-1.57-7.4-5.67-9.13-5.3-2.23-10.77-4.13-16.18-6.15-2.85-1.07-5.78-1.99-8.58-3.19-14.03-6.01-20.21-16.07-18.45-29.88,1.72-13.45,10.24-21.76,25.33-24.71.61-.12,1.21-.32,2.18-.58v-10.48h12.3l.28,10.34s2.72.3,9.79,2.77c10.05,3.52,15.69,10.49,18.89,20.17-5.75,2.19-11.51,4.39-17.27,6.58-2.16-3.18-3.9-6.39-6.28-9.12-3.73-4.28-8.98-5.39-14.55-4-4.35,1.09-7.19,3.94-7.93,8.23-.76,4.45.67,8.06,5.25,10.06,4.53,1.98,9.22,3.67,13.85,5.47,3.88,1.51,7.86,2.85,11.65,4.53,14.54,6.42,20.25,16.38,18.16,31.33Z" fill="#fff" stroke-width="0"/><path d="m563.9,575.34s14.61,9.87,10.4,24.58c-3.71,12.95-10.4,14.1-10.4,14.1l14.22,2.07c2-1.78,7.37-7.13,7.78-13.7.5-8.08-.37-10.94-5.23-18.32-3.63-5.5-11.31-7.87-16.77-8.73Z" fill="#fefefe" stroke-width="0"/><path d="m550.86,542.56l.35,2.41,4.68-.59s1.72-15.49,1.97-23.01c.26-7.52-3.57-20.41-13.92-24.28-2.74-1.02-5.49-1.92-8.27-2.68,6.41,7.84,15.74,22.12,7.31,30.76-12.08,12.37-43.33-9.31-43.33-9.31,3.57,3.8,16.94,15.85,25.96,19.59,10.37,4.3,21.57,7.81,25.24,7.12Z" fill="#fefefe" stroke-width="0"/><path d="m201.87,601.58s3.88-.86,6.97-4.4l-2.82-3.21c-.64,2.84-1.94,5.46-4.15,7.61Z" fill="#ccc" stroke-width="0"/><path d="m205.85,591.59v2.19c.34-.57.47-1.35.55-2.14l-.55-.05Z" fill="#ccc" stroke-width="0"/><path d="m333.11,670.11c-15.5-31.07-50.1-30.65-64.31-29.06,14.44-3.95,50.24-4.35,65.34,27.42-.71,1.61-.87,1.64-1.04,1.64Z" fill="#1a1a1a" stroke-width="0"/><path d="m221.09,626.67c-.83,0-1.66-.05-2.51-.16-5.04-.68-8.9-3.64-11.78-9.07-2.34-4.39-4.06-9.47-5.42-15.98,3.56,5.81,5.21,10.7,7.45,14.9,2.51,4.72,5.8,7.29,10.06,7.87,2.62.36,5.55.06,9.26-.92,3.69-.98,9.05-2.59,12.7-4.01-2.91,3.6-8.36,5.25-12.12,6.24-1.97.52-4.72,1.14-7.65,1.14Z" fill="#1a1a1a" stroke-width="0"/><path d="m255.41,597.36c-1.34,0-2.68-.2-3.95-.61,2.56-1.6,4.56-1.54,6.49-1.99,2.81-.67,5.2-2.4,6.72-4.87,1.51-2.47,1.98-5.38,1.3-8.2-.67-2.82-2.4-5.2-4.87-6.72-2.47-1.51-5.38-1.98-8.2-1.3-2.11.51-4,1.61-5.46,3.21.07-3.49,2.36-4.84,4.93-5.45,3.42-.82,6.94-.25,9.94,1.58,2.99,1.83,5.09,4.73,5.9,8.15.82,3.41.26,6.94-1.58,9.93-1.84,2.99-4.73,5.09-8.14,5.91-1.01.24-2.04.36-3.07.36Z" fill="#1a1a1a" stroke-width="0"/><path d="m259.07,590.91c-.54-.13-9.59-4.9-9.59-4.9-.29-1.82,7.37-9.87,7.37-9.87,1.67,1.59-4.96,8.54-4.96,8.54l7.7,4.06c.28,1.95-.12,2.17-.53,2.17Z" fill="#1a1a1a" stroke-width="0"/><path d="m211.75,601.2c-2.42-.99-6.52-4.18-7.42-7.1-.4-1.27-.1-2.18.23-2.72,1.33-2.23,4.5-1.48,6.59-.98.71-2.26.49-8.69.33-12.87,2.38,2.1,2.79,13.04,2.69,14.17-1.26,1.5-2.17,1.28-3.55.95-1.26-.3-3.6-.86-4.08-.08.63,2.89,4.07,5.69,5.7,6.44.37,1.95-.04,2.2-.48,2.2Z" fill="#1a1a1a" stroke-width="0"/><path d="m220.24,609.08c1.44-2.1,3.48-2.66,4.84-3.99,2.29-2.25,2.03-6.04,2.03-6.08,2.31.02,2.63,4.72-.41,7.72-1.59,1.56-3.76,2.35-6.45,2.35Z" fill="#1a1a1a" stroke-width="0"/><path d="m97.16,651.4h-12.44c-1.15-1.15-1.15-13.83-1.15-13.83-17.49-2.24-27.91-11.46-31.83-28.16.85-1.38,20.36-6.09,20.36-6.09,2.15,2.74,2.5,3.61,2.8,4.48,1.45,4.23,4.51,7.61,8.59,9.53,4.47,2.1,9.62,2.23,14.5.38,4.01-1.52,6.21-4.48,6.54-8.79.29-3.73-1.43-6.49-4.97-7.98-3.76-1.58-7.69-3.02-11.49-4.42-1.55-.57-3.1-1.14-4.65-1.72-.98-.37-1.97-.72-2.97-1.07-1.87-.66-3.8-1.34-5.65-2.14-14.53-6.23-20.97-16.68-19.14-31.09,1.78-14,10.62-22.64,26.25-25.69,1.26-.33,1.26-9.94,1.26-9.94,1.15-1.15,13.44-1.15,13.44-1.15,1.15,1.12,1.41,10.52,1.41,10.52,1.37.28,4.22.97,9.04,2.66,9.78,3.43,16.02,10.07,19.61,20.89-.68,1.44-17.95,8.02-17.95,8.02-2.04-1.44-2.69-2.45-3.32-3.45-1.37-2.15-2.66-4.19-4.23-5.99-4.14-4.75-9.57-4.59-13.41-3.64-3.98.99-6.42,3.52-7.07,7.3-.73,4.27.77,7.15,4.57,8.82,3.24,1.42,6.62,2.71,9.89,3.95,1.31.5,2.62.99,3.92,1.5,1.3.51,2.62.99,3.94,1.48,2.56.95,5.21,1.93,7.76,3.06,15.02,6.64,21.01,16.98,18.84,32.54-1.79,12.87-12.21,22.56-27.18,25.29-1.03.19-2.06.41-3.18.66-.92.2-.92,12.9-.92,12.9,0,.64-.52,1.15-1.15,1.15Zm-11.29-2.3h10.14v-12.48c3.88-1.78,4.93-2.01,5.99-2.21,14.17-2.57,23.63-11.3,25.31-23.34,2.01-14.39-3.55-23.96-17.49-30.12-2.48-1.09-5.1-2.07-7.63-3.01-1.33-.49-2.66-.98-3.97-1.49-1.3-.5-2.6-1-3.9-1.49-3.3-1.26-6.71-2.56-10-4-4.78-2.09-6.82-6-5.91-11.31.8-4.69,3.91-7.94,8.78-9.14,6.29-1.59,11.87-.03,15.69,4.35,1.69,1.94,3.03,4.05,4.45,6.27.46.73.93,1.46,1.41,2.2l15.37-5.86c-3.39-9.47-9.08-15.34-17.82-18.4-6.79-2.37-9.51-2.71-9.54-2.71-1.02-1.11-1.27-10.33-1.27-10.33h-10.02v9.33c-17.67,4.56-25.87,12.54-27.52,25.44-1.68,13.26,4.3,22.9,17.77,28.68,1.79.77,3.68,1.44,5.52,2.09,1.01.36,2.01.71,3.01,1.09,1.54.58,3.09,1.14,4.63,1.71,3.82,1.4,7.78,2.85,11.59,4.45,4.41,1.86,6.73,5.61,6.38,10.28-.4,5.21-3.17,8.94-8.02,10.77-5.46,2.07-11.25,1.92-16.29-.45-4.65-2.18-8.13-6.04-9.79-10.86-.29-.84-.62-1.67-.97-2.54-.09-.22-17.5,3.98-17.5,3.98,3.95,15.26,13.97,23.57,30.59,25.41,1.02,1.14,1.02,13.69,1.02,13.69Z" fill="#1a1a1a" stroke-width="0"/><path d="m90.86,664.25c-37.62,0-70.22-28.01-75.82-65.15,7.72,35.68,39.33,62.85,75.82,62.85,41.02,0,74.39-33.37,74.39-74.39s-33.37-74.39-74.39-74.39c-23.24,0-44.73,10.57-58.94,29,12.83-20.41,34.98-31.3,58.94-31.3,42.29,0,76.69,34.4,76.69,76.69s-34.4,76.69-76.69,76.69Z" fill="#1a1a1a" stroke-width="0"/><path d="m387.43,641.5c-.95-.24-1.29-.88-1.1-1.49.21-.69,5.23-17.05,10.8-26.98,5.6-9.98,4.48-18.9.59-22.23-5.21-4.46-22.35-16.61-28.63-14.11-1.31.52-2.05,1.74-2.26,3.72-1.35,12.51,20.92,23.82,21.15,23.93-2.01,1.57-24.95-10.08-23.44-24.18.38-3.58,2.23-5.03,3.7-5.61,9.04-3.56,30.76,14.32,30.98,14.5,5.48,4.69,5.45,15.25-.07,25.11-5.45,9.71-10.56,26.36-10.61,26.53-.15.49-.61.81-1.1.81Z" fill="#1a1a1a" stroke-width="0"/><path d="m348.06,648.94c-6.67-9.44-13.94-26.22-14.25-26.93,2.19-.74,9.62,16.41,15.22,25.16-.54,1.71-.76,1.77-.97,1.77Z" fill="#1a1a1a" stroke-width="0"/><path d="m367.23,627.77c-3.18-8.49-8.66-14.51-8.72-14.56,1.94-1.3,7.61,4.91,9.83,13.11-.91,1.44-1.01,1.45-1.11,1.45Z" fill="#1a1a1a" stroke-width="0"/><path d="m651.1,871.8c79-32.16,72.59-81.75,55.85-126.32-17.79-47.34-43.72-71.12-62.66-88.48-3.23-2.96-6.25-5.73-8.99-8.39-22.55-21.94-57.88-35.04-94.52-35.04,37.22-2.3,73.16,11.04,96.12,33.38,2.72,2.65,5.73,5.4,8.94,8.35,19.11,17.52,45.28,41.51,63.26,89.37,17.14,45.63,23.71,96.4-57.6,127.05-.13.05-.27.07-.4.07Z" fill="#1a1a1a" stroke-width="0"/><path d="m407.7,645.62c30.32-28.74,66.97-34.34,92.26-34.34-24.89,2.3-60.98,7.81-91.51,34.07-.22.18-.48.28-.75.28Z" fill="#1a1a1a" stroke-width="0"/><path d="m994.98,916.17H-4.34c0-2.3,999.32-2.3,999.32-2.3,1.15,1.79.63,2.3,0,2.3Z" fill="#1a1a1a" stroke-width="0"/><path d="m881.56,466.44c-1.24-5.38-1.6-9.78-2.19-14.21,2.89,4.21,3.25,8.7,3.35,13.04-1.13,1.18-1.14,1.18-1.15,1.18Zm-3.51-26.23c-2.14-5.11-3.39-9.35-4.84-13.47,3.64,3.43,4.91,7.74,5.95,12.05-.94,1.41-1.03,1.42-1.12,1.42Zm-8.73-24.97c-2.89-4.63-4.94-8.54-7.15-12.29,4.23,2.65,6.32,6.63,8.2,10.65-.72,1.6-.88,1.64-1.05,1.64Zm-13.4-22.8c-3.45-3.97-6.2-7.44-9.1-10.77,4.68,1.87,7.47,5.39,10.03,8.94-.47,1.76-.7,1.83-.93,1.83Zm-17.32-19.98c-3.9-3.34-7.19-6.29-10.58-9.11,4.91,1.09,8.24,4.08,11.38,7.13-.2,1.86-.5,1.98-.8,1.98Zm-20.33-16.92c-4.16-2.71-7.85-5.16-11.63-7.5,5.03.41,8.76,2.89,12.3,5.41.04,1.92-.31,2.09-.67,2.09Zm-260.76-1.83c-.56-2.18,3.26-5.19,10.37-9.6-5.77,6.29-9.61,9.32-9.65,9.35-.21.17-.46.25-.71.25Zm238.28-12.11c-4.31-2.16-8.27-4.15-12.31-6.05,5.06-.17,9.06,1.84,12.86,3.89.26,1.94-.14,2.16-.55,2.16Zm-215.81-1.99c3.33-4.24,7.34-6.24,11.38-8.11-3.04,3.94-7.01,5.92-10.84,7.97-.17.09-.36.14-.54.14Zm191.87-9.28c-3.73-1.43-7.13-2.75-10.54-4-.74-.27-1.47-.53-2.21-.8,1.52-1.9,2.26-1.63,3-1.36,3.44,1.26,6.86,2.59,10.18,3.94.44,1.95.02,2.22-.44,2.22Zm-167.83-1.85c3.67-3.84,7.89-5.37,12.09-6.76-3.44,3.57-7.61,5.08-11.67,6.68-.14.06-.28.08-.42.08Zm142.87-6.96c-4.53-1.28-8.82-2.4-13.07-3.37,4.81-1.26,9.14-.13,13.39,1.12.64,1.93.18,2.26-.32,2.26Zm-117.71-1.35c3.98-3.4,8.34-4.44,12.67-5.32-3.82,3.13-8.13,4.15-12.37,5.28-.1.03-.2.04-.3.04Zm91.9-4.57c-4.5-.74-8.89-1.33-13.24-1.79,4.64-1.83,9.08-1.23,13.44-.5.85,1.89.36,2.29-.19,2.29Zm-65.96-.74c4.25-2.93,8.7-3.43,13.07-3.78-4.14,2.65-8.54,3.14-12.9,3.77-.06,0-.11.01-.16.01Zm39.63-2.01c-4.53-.19-8.92-.24-13.22-.15,4.31-2.4,8.74-2.35,13.27-2.16,1.07,1.82.56,2.3-.05,2.3Z" fill="#1a1a1a" stroke-width="0"/><path d="m91.97,499.27c-1.16-4.84-1.02-9-.37-14.53,1.61,5.97,1.51,10.19,1.51,12.19-1.12,2.34-1.13,2.34-1.14,2.34Zm2.97-26.32c-.86-.16-1.26-.77-1.13-1.39.93-4.29,2.07-8.63,3.4-12.91.89,4.9-.24,9.17-1.15,13.39-.12.54-.59.91-1.12.91Zm7.85-25.27c.61-5.67,2.48-9.76,4.51-13.72.05,4.95-1.79,8.97-3.44,13-.18.45-.61.71-1.07.71Zm12.06-23.56c1.35-5.49,3.87-9.2,6.53-12.78-.77,4.9-3.27,8.55-5.56,12.24-.22.35-.59.54-.98.54Zm15.77-21.25c2.03-5.22,5.11-8.48,8.29-11.59-1.52,4.71-4.56,7.93-7.42,11.19-.23.27-.55.4-.87.4Zm18.88-18.52c2.6-4.86,6.12-7.63,9.71-10.27-2.19,4.46-5.67,7.21-8.97,10-.21.19-.48.27-.74.27Zm21.31-15.68c3.03-4.46,6.87-6.76,10.8-8.95-2.77,4.19-6.57,6.46-10.18,8.77-.19.12-.41.18-.62.18Zm162.31-11.14c-.74-.27-4.7-3.26-11.94-6.84,8.48,1.63,12.47,4.65,12.64,4.78-.01,1.91-.35,2.06-.7,2.06Zm-139.22-1.78c3.53-4.14,7.62-5.97,11.66-7.6-3.13,3.75-7.18,5.55-11.16,7.49-.16.08-.34.12-.5.12Zm24.53-9.92c3.92-3.63,8.24-4.84,12.49-5.84-3.65,3.23-7.92,4.43-12.13,5.79-.12.04-.24.06-.36.06Zm91.06-.18c-4.46-1.52-8.69-2.79-12.96-3.82,4.89-1.18,9.2.1,13.35,1.59.53,1.94.09,2.23-.39,2.23Zm-65.3-5.9c4.26-2.95,8.73-3.41,13.11-3.66.67-.17,1.18.44,1.21,1.08-5.39,1.47-9.79,1.92-14.15,2.57-.06.01-.12.01-.17.01Zm39.6-.35c-4.45-.6-8.86-.99-13.24-1.15,4.54-2.13,9.02-1.74,13.39-1.14.91,1.87.41,2.29-.15,2.29Z" fill="#1a1a1a" stroke-width="0"/><path d="m504.28,545.95c.92-.14,1.53.25,1.8,3.56.3,3.69-.66,4.34-1.49,4.31-.83-.03-1.66-1.17-1.62-3.81.04-2.64.11-3.87,1.31-4.06Z" fill="#1a1a1a" stroke-width="0"/><path d="m535.82,546.25c.92-.12,1.53.29,1.7,3.61.2,3.7-.78,4.32-1.6,4.27-.83-.05-1.63-1.21-1.52-3.85.11-2.63.21-3.87,1.42-4.03Z" fill="#1a1a1a" stroke-width="0"/><path d="m484.1,570.11c-8.07-.48-13.58-6.73-13.13-13.97.22-3.5,1.79-6.71,4.43-9.03,2.63-2.32,6.02-3.48,9.51-3.26,1.41.09,2.77.39,4.05.9-1.91,1.72-3.03,1.47-4.19,1.39-2.94-.21-5.68.77-7.85,2.69-2.17,1.91-3.47,4.56-3.65,7.45-.37,5.97,4.18,11.13,10.14,11.51,1.96.12,3.93-.29,5.67-1.2-.81,3.01-2.88,3.52-4.99,3.52Z" fill="#1a1a1a" stroke-width="0"/><path d="m481.45,564.2c-.7-2.06,6.19-7.38,6.19-7.38l-7.72-5.71c1.37-1.85,10.31,4.77,10.31,4.77.02,1.83-8.08,8.09-8.08,8.09-.21.16-.46.24-.7.24Z" fill="#1a1a1a" stroke-width="0"/><path d="m556.88,570.11c-2.1,0-4.18-.5-6.05-1.47,2.8-1.14,4.73-.72,6.73-.85,2.89-.18,5.53-1.48,7.45-3.65,1.91-2.17,2.87-4.96,2.69-7.86-.18-2.89-1.48-5.53-3.65-7.45-2.17-1.92-4.94-2.9-7.85-2.69-1.23.07-2.43.36-3.56.84.47-2.7,1.92-3.05,3.42-3.14,3.51-.25,6.88.93,9.51,3.26,2.64,2.32,4.21,5.53,4.42,9.03.22,3.51-.94,6.89-3.26,9.52-2.32,2.63-5.53,4.21-9.04,4.42-.28.01-.56.03-.83.03Z" fill="#1a1a1a" stroke-width="0"/><path d="m559.52,564.2c-.7-.24-8.8-6.49-8.8-6.49.01-1.83,8.96-8.45,8.96-8.45,1.37,1.85-6.35,7.56-6.35,7.56l6.89,5.32c-.02,1.91-.36,2.06-.71,2.06Z" fill="#1a1a1a" stroke-width="0"/><path d="m397.05,809.05c-40.91,0-50.4-54.58-53.57-72.87-4.66-26.75-15.04-93.47-15.14-94.14,2.38.32,12.76,67.01,17.41,93.74,3.19,18.33,12.78,74,54.89,70.83,18.73-1.47,38.61-16.18,38.23-53.1,2.69,38.47-18.29,53.85-38.06,55.39-1.28.1-2.53.15-3.76.15Z" fill="#1a1a1a" stroke-width="0"/><path d="m427.91,737.81c-2.6-17.1-5.59-31.99-7.84-41.66-8.92-38.27-20.34-68.16-20.46-68.46,2.26-.53,13.74,29.5,22.7,67.93,2.27,9.74,5.28,24.75,6.75,40.93-1.08,1.25-1.12,1.25-1.15,1.25Z" fill="#1a1a1a" stroke-width="0"/><path d="m520.48,595.91c-5.77,0-14.03-1.1-20.63-6.33-5.07-4.04-8.44-10.51-10.27-19.81-1.21-6.16-1.48-25.52-1.37-31.84,2.19,6.83,2.51,25.69,3.64,31.4,1.72,8.74,4.81,14.77,9.44,18.45,6.08,4.83,13.79,5.84,19.19,5.84,1.15,1.79.64,2.3,0,2.3Z" fill="#1a1a1a" stroke-width="0"/><path d="m520.48,595.91c5.41-2.3,13.12-3.31,19.19-8.14,4.64-3.68,7.73-9.72,9.45-18.45,1.21-6.12,1.24-21.37,1.15-26.73,2.39,5.39,2.35,20.86,1.11,27.18-1.84,9.29-5.2,15.77-10.28,19.81-6.59,5.24-14.86,6.33-20.63,6.33Z" fill="#1a1a1a" stroke-width="0"/><path d="m549.88,543.75c-21.87,0-44.34-20.52-50.09-26.15-1.45,4.6-5.46,16.45-9.57,21.1,2.98-6.85,7.89-23.42,7.93-23.59,2.2-.2,27.92,26.34,51.75,26.34,1,2.29.49,2.3-.02,2.3Z" fill="#1a1a1a" stroke-width="0"/><path d="m520.73,636.03c-9.28,0-17.83-3.85-21.78-9.82-2.01-3.04-2.48-6.24-1.3-9.01,2.93-6.91,3.57-27.06,3.57-27.26,2.28.92,1.64,20.85-1.46,28.17-.86,2.03-.47,4.47,1.1,6.84,2.9,4.37,10.16,8.78,19.86,8.78s16.41-2.71,19.54-7.44c1.7-2.57,2.03-5.55.91-8.19-3.1-7.31-3.73-27.24-3.76-28.09,2.31.13,2.95,20.28,5.87,27.19,1.43,3.37,1.02,7.14-1.11,10.36-2.09,3.17-7.66,8.47-21.46,8.47Z" fill="#1a1a1a" stroke-width="0"/><path d="m483.34,546.12c-1.4-1.77-8.24-24.44-1.25-36.33,2.02-3.43,5-5.64,8.85-6.57,1.39-1.88,7.9-9.93,19.02-11.88,15.84-2.78,40.9,1.15,47.03,18.57,2.75,7.82,2.76,16.74.05,34.12.37-17.31.39-25.94-2.22-33.35-5.68-16.16-29.43-19.71-44.45-17.07-11.36,2-17.72,11.19-17.79,11.29-4.17,1.21-6.72,3.04-8.5,6.06-6.48,11.01.3,33.44.36,33.67-.87,1.47-.99,1.49-1.1,1.49Z" fill="#1a1a1a" stroke-width="0"/><path d="m622.73,916.17c-3.77-6.2-10.74-39.43-15.95-71.76,7.84,34.17,14.63,65.32,16.99,70.1-.69,1.62-.86,1.66-1.04,1.66Z" fill="#1a1a1a" stroke-width="0"/><path d="m601.67,797.78c-3.14-22.36-3.09-36.73-.99-46.26,7.4-33.6-4.49-67.07-4.61-67.4,2.29-.44,14.4,33.66,6.86,67.9-2.04,9.29-2.08,23.44-.1,44.51-1.08,1.26-1.11,1.26-1.15,1.26Z" fill="#1a1a1a" stroke-width="0"/><path d="m418.73,916.17c4.77-13.42,27.21-130.57,19.81-164.16-7.54-34.24,4.57-68.34,4.69-68.68,2.04,1.11-9.84,34.61-2.45,68.18,7.47,33.9-15.17,152.14-21.02,164.01-.2.41-.61.64-1.04.64Z" fill="#1a1a1a" stroke-width="0"/><path d="m348.09,648.94c-10.55,0-18.86-2.02-19.74-6.84-.68-3.79,2.95-7.52,10.82-11.11-5.64,5.1-9.01,8.15-8.55,10.7.8,4.45,15.97,6.84,36.43,3.14,9.48-1.71,18.17-4.4,24.49-7.57,5.74-2.89,8.94-5.92,8.54-8.13-.25-1.37-1.22-2.92-6.52-3.93,5.73-1.25,8.23.47,8.78,3.51.62,3.42-2.76,7.08-9.77,10.6-6.51,3.27-15.43,6.03-25.11,7.78-6.54,1.18-13.33,1.85-19.37,1.85Z" fill="#1a1a1a" stroke-width="0"/><path d="m650.12,871.96c-4.01,0-8.96-5.3-12.49-10.67,6.62,5.9,11.07,8.94,13.08,8.27,4.28-1.48,4.34-16.82-2.43-36.49-6.77-19.67-16.28-31.7-20.54-30.26,6.54-4.69,16.79,12.28,22.71,29.52,5.93,17.23,8.3,36.9,1,39.41-.43.15-.89.22-1.35.22Z" fill="#1a1a1a" stroke-width="0"/><path d="m319.45,628.44c-1.08-.75-44.53-117.44-44.53-117.44.68-1.48,92.67-35.74,92.67-35.74,1.48.68,44.94,117.37,44.94,117.37-.68,1.48-10,4.95-10,4.95-.8-2.16,7.44-5.23,7.44-5.23l-42.65-114.53-89.83,33.45,42.65,114.54,63.29-23.57c.8,2.16-63.56,26.13-63.56,26.13-.13.05-.27.07-.4.07Z" fill="#1a1a1a" stroke-width="0"/><path d="m496.32,542.41c.99-7.23,8.86-8.86,13.54-7.81-4.34,1.39-10.92,2.83-12.46,7.06-.17.47-.61.75-1.08.75Z" fill="#1a1a1a" stroke-width="0"/><path d="m522.08,579.92c-2.69,0-4.87-.69-5.02-.75.77-2.16,6.34-.4,9.94-2.86,1.89-1.29,2.96-3.58,3.16-6.82,2.04,4.13.64,7.02-1.87,8.73-1.94,1.31-4.21,1.7-6.21,1.7Z" fill="#1a1a1a" stroke-width="0"/><path d="m462.34,617.44c-8.78-5.68-12.27-15.99-9.13-25.27,1.96-5.78,6.2-11.02,11.64-14.37,4.39-2.7,9.45-4.13,14.65-4.13,2.54.16,2.56.1,2.75-.51.22-.71.13-1.65.05-2.57,2.39.87,2.51,2.1,2.16,3.24-.75,2.43-2.68,2.28-3.96,2.19-5.68-.05-10.45,1.3-14.43,3.74-4.99,3.07-8.88,7.87-10.67,13.15-2.8,8.3.32,17.52,7.59,22.42.09,1.93-.27,2.11-.64,2.11Z" fill="#1a1a1a" stroke-width="0"/><path d="m577.09,617.44c6.63-7.01,9.75-16.23,6.95-24.53-1.79-5.28-5.68-10.08-10.66-13.15-3.97-2.44-8.75-3.79-13.45-3.79-2.27.15-4.19.3-4.95-2.14-.35-1.14-.23-2.37-.13-3.46,2.21,1.13,2.12,2.07,2.34,2.78.19.61.21.68,1.58.56,6.36-.06,11.42,1.37,15.82,4.07,5.44,3.35,9.68,8.59,11.63,14.37,3.14,9.28-.35,19.59-8.48,25.07-.19.13-.42.19-.64.19Z" fill="#1a1a1a" stroke-width="0"/><path d="m569.77,831.49c-2.59-2.71-3.9-6.5-2.6-10.42,1.04-3.14,4.2-7.45,13.32-10.21,16.45-4.96,37.38.47,38.27.7-.8,2.16-21.8-3.27-37.6,1.51-6.48,1.95-10.56,4.97-11.81,8.73-1.02,3.08.02,6.08,1.34,7.86-.44,1.76-.68,1.83-.92,1.83Z" fill="#1a1a1a" stroke-width="0"/><path d="m573.51,815.61c-3.2-2.91-3.88-5.96-2.79-8.97,1.88-5.19,8.62-9.13,17.58-10.28,6.08-.78,13.25-1.42,20.33-.27,7.37,1.21,14.31,3.56,22.52,7.61,2.97,1.46,4.62,2.27,6.6,3.46-3.08.84-4.69.05-6.72-.95-8.89-4.39-15.64-6.67-22.77-7.84-6.78-1.12-13.74-.49-19.65.27-7.98,1.03-14.14,4.48-15.71,8.79-.8,2.19-.28,4.35,1.47,6.25-.28,1.83-.56,1.93-.84,1.93Z" fill="#1a1a1a" stroke-width="0"/><path d="m636.31,861.32c-3.3,0-6.45-.46-9.31-1.39-12.17-3.96-15.85-12.86-16.64-15.27-3.65-1.3-7.44-.79-11.44-.25-1.13.15-2.25.3-3.37.41-5.8.57-11.69.67-17.5.29-3.8-.24-7.99-.94-10.29-4.27-2.2-3.2-1.76-7.61,1.12-11.22,2.59-3.26,6.24-4.46,9.76-5.62,14.18-4.67,29.37-4.24,42.83,1.15-13.81-3.07-28.44-3.47-42.05,1.02-3.41,1.12-6.57,2.16-8.74,4.88-1.78,2.23-2.98,5.64-1.02,8.48,1.74,2.52,5.3,3.08,8.55,3.29,5.69.36,11.45.27,17.13-.28,1.09-.11,2.19-.26,3.29-.4,4.3-.58,8.75-1.17,13.12.59.79,1.2,3.4,10.92,15.98,15.02,7.51,2.45,17.28,1.35,26.14-2.95-5.05,5.01-11.54,6.52-17.55,6.52Z" fill="#1a1a1a" stroke-width="0"/><path d="m626.46,803.44c10.45-10.04,16.34-18.06,17.35-26.6,1.86-15.72-12.46-32.22-30.57-53.12-3.58-4.13-7.29-8.41-11.03-12.86,5.49,2.97,9.2,7.24,12.77,11.35,18.5,21.32,33.1,38.16,31.13,54.9-1.09,9.23-7.3,17.77-18.97,26.12-.2.15-.43.22-.67.22Z" fill="#1a1a1a" stroke-width="0"/><path d="m348.09,648.94c-10.55,0-18.86-2.02-19.74-6.84-.68-3.79,2.95-7.52,10.82-11.11-5.64,5.1-9.01,8.15-8.55,10.7.8,4.45,15.97,6.84,36.43,3.14,9.48-1.71,18.17-4.4,24.49-7.57,5.74-2.89,8.94-5.92,8.54-8.13-.25-1.37-1.22-2.92-6.52-3.93,5.73-1.25,8.23.47,8.78,3.51.62,3.42-2.76,7.08-9.77,10.6-6.51,3.27-15.43,6.03-25.11,7.78-6.54,1.18-13.33,1.85-19.37,1.85Z" fill="#1a1a1a" stroke-width="0"/><path d="m512.38,568.82c-1.17-.66-4.72-3.93-4.83-7.32-.04-1.26.41-2.41,1.31-3.33,1.03-1.05,2.25-1.58,3.63-1.58,1.5,0,2.89.66,3.92,1.33.71-6.33,1.19-15.23-.09-17.17,4.23,2.25,2.5,16.65,2.13,19.5-2.52.09-4.31-1.36-5.96-1.36-.74,0-1.39.29-1.99.9-.59,3.7,1.75,6.23,2.64,7.03-.14,1.88-.45,2.01-.77,2.01Z" fill="#1a1a1a" stroke-width="0"/><path d="m495.77,511.51c-.94-.49-4.65-5.72-4.65-5.72,1.87-1.33,5.58,3.9,5.58,3.9-.48,1.75-.71,1.82-.94,1.82Z" fill="#1a1a1a" stroke-width="0"/><path d="m666.51,915.93c-2.53-20.5-1.17-51.57-1.15-51.87,2.29.41.93,31.34,2.3,50.64-1.09,1.23-1.12,1.23-1.15,1.23Z" fill="#1a1a1a" stroke-width="0"/><path d="m301.22,531.02c-.4-2.23,61.68-25.35,61.68-25.35.8,2.16-61.27,25.28-61.27,25.28-.13.05-.27.07-.4.07Z" fill="#1a1a1a" stroke-width="0"/><path d="m310.42,557.68c-.4-2.23,61.68-25.35,61.68-25.35.8,2.16-61.28,25.27-61.28,25.27-.13.05-.27.07-.4.07Z" fill="#1a1a1a" stroke-width="0"/><path d="m319.62,584.34c-.4-2.23,61.68-25.35,61.68-25.35.8,2.16-61.28,25.27-61.28,25.27-.13.05-.27.07-.4.07Z" fill="#1a1a1a" stroke-width="0"/><path d="m520.36,880.78c-1.15-1.15-1.15-232.98-1.15-232.98,2.3,0,2.3,231.83,2.3,231.83,0,.64-.52,1.15-1.15,1.15Z" fill="#1a1a1a" stroke-width="0"/><path d="m537.63,683.03c-3.12,0-5.66-2.54-5.66-5.66s2.54-5.66,5.66-5.66,5.66,2.54,5.66,5.66-2.54,5.66-5.66,5.66Zm0-9.02c-1.85,0-3.36,1.51-3.36,3.36s1.51,3.36,3.36,3.36,3.36-1.51,3.36-3.36-1.51-3.36-3.36-3.36Z" fill="#1a1a1a" stroke-width="0"/><path d="m537.63,740.84c-3.12,0-5.66-2.54-5.66-5.65s2.54-5.66,5.66-5.66,5.66,2.54,5.66,5.66-2.54,5.65-5.66,5.65Zm0-9.01c-1.85,0-3.36,1.5-3.36,3.36s1.51,3.35,3.36,3.35,3.36-1.5,3.36-3.35-1.51-3.36-3.36-3.36Z" fill="#1a1a1a" stroke-width="0"/><path d="m537.63,798.67c-3.12,0-5.66-2.54-5.66-5.66s2.54-5.66,5.66-5.66,5.66,2.54,5.66,5.66-2.54,5.66-5.66,5.66Zm0-9.02c-1.85,0-3.36,1.51-3.36,3.36s1.51,3.36,3.36,3.36,3.36-1.51,3.36-3.36-1.51-3.36-3.36-3.36Z" fill="#1a1a1a" stroke-width="0"/><path d="m537.63,798.67c-3.12,0-5.66-2.54-5.66-5.66s2.54-5.66,5.66-5.66,5.66,2.54,5.66,5.66-2.54,5.66-5.66,5.66Zm0-9.02c-1.85,0-3.36,1.51-3.36,3.36s1.51,3.36,3.36,3.36,3.36-1.51,3.36-3.36-1.51-3.36-3.36-3.36Z" fill="#1a1a1a" stroke-width="0"/><path d="m537.63,856.48c-3.12,0-5.66-2.54-5.66-5.66s2.54-5.66,5.66-5.66,5.66,2.54,5.66,5.66-2.54,5.66-5.66,5.66Zm0-9.01c-1.85,0-3.36,1.51-3.36,3.36s1.51,3.36,3.36,3.36,3.36-1.51,3.36-3.36-1.51-3.36-3.36-3.36Z" fill="#1a1a1a" stroke-width="0"/><path d="m203.11,602.03c-2.76,0-5.49-1.71-7.76-4.88-2.34-3.27-3.94-7.78-4.52-12.68-.58-4.91-.06-9.66,1.46-13.39,1.61-3.96,4.16-6.33,7.19-6.69,6.13-.67,11.83,6.99,13.07,17.53.46,3.89.37,6.52-.28,9.37-1.64-3.12-1.58-5.45-2-9.1-1.05-8.95-5.89-16.17-10.51-15.51-2.16.25-4.05,2.13-5.33,5.27-1.37,3.37-1.83,7.73-1.3,12.25.53,4.53,1.99,8.66,4.11,11.62,1.97,2.76,4.27,4.16,6.4,3.89,1.72-.2,2.71-.85,3.78-2.46.47,3.46-1.1,4.46-3.51,4.74-.26.03-.52.04-.78.04Z" fill="#1a1a1a" stroke-width="0"/><path d="m230.58,597.13c-5.79,0-11.09-7.49-12.28-17.58-.58-4.91-.06-9.66,1.46-13.39,1.61-3.95,4.16-6.33,7.19-6.69,3.02-.34,6.07,1.36,8.55,4.84,2.34,3.27,3.94,7.78,4.52,12.68,1.24,10.54-2.56,19.36-8.65,20.08-.27.03-.52.05-.79.05Zm-2.85-35.39c-2.67.28-4.56,2.16-5.84,5.3-1.37,3.37-1.83,7.73-1.3,12.25,1.05,8.95,5.85,16.01,10.51,15.51,4.65-.55,7.69-8.57,6.63-17.52-.53-4.53-1.99-8.66-4.11-11.62-1.82-2.55-3.89-3.92-5.89-3.92Z" fill="#1a1a1a" stroke-width="0"/><path d="m211.45,583.66c.12-3.64,3.6-6.52,8.78-3.67-5.53-.41-7.57,2.74-7.79,3.11-.22.36-.6.56-.99.56Z" fill="#1a1a1a" stroke-width="0"/><path d="m265.2,625.92c-7.53,0-12.92-1.89-16.07-5.65-2.74-3.27-3.93-6.83-3.52-10.57.81-7.62,7.92-13.21,8.23-13.45,1.35,1.87-5.24,7.07-5.94,13.7-.33,3.09.68,6.07,3,8.84,3.66,4.36,11.11,5.78,22.15,4.23,9.2-1.29,20.15-3.67,23.15-10.71.6-1.4.82-3.07.71-5.4-.32-6.75-2.88-13.33-7.01-18.03-4.53-5.09-7.71-8.66-5.9-15.35,2.54-9.34.29-21.47-5.34-28.84-2.21-2.9-5.96-6.35-11.24-6.35h-6c-.98-.54-3.33-4.32-3.33-4.32-9.38-13.37-20.53-11.1-32.33-8.7-5.45,1.11-11.1,2.25-16.68,1.9-8.84-.55-16.61,1.78-21.32,6.42-4.15,4.08-6.08,9.88-5.74,17.24.11,2.5.97,7.13,5.44,10.01,4.03,2.6,12.1,4.36,27.68-1.88,15.42-6.17,24.88-9.07,26.65-8.21.64,1.05,2.91,18.47,6.97,23.38-5.71-3.3-7.96-17.42-8.5-21.26-1.54.22-7.19,1.39-24.25,8.23-16.51,6.61-25.3,4.56-29.78,1.68-3.96-2.54-6.27-6.75-6.5-11.84-.37-8.03,1.79-14.42,6.42-18.99,7.09-6.98,17.5-7.43,23.08-7.07,5.27.31,10.78-.78,16.07-1.86,12-2.44,24.42-4.97,34.7,9.69l2.05,3.29h5.36c4.92,0,9.44,2.51,13.07,7.25,6.13,8.02,8.49,20.7,5.74,30.84-1.49,5.49,1.04,8.33,4.54,12.26,5.33,6.06,8.1,13.14,8.45,20.41.07,1.68.07,4.16-.89,6.42-3.45,8.1-15.15,10.71-24.95,12.09-2.96.41-5.68.62-8.17.62Z" fill="#1a1a1a" stroke-width="0"/><path d="m212.42,632.11c-6.51,0-12.95-1.89-15.79-7.52-5.13-10.17,5-19.47,5.1-19.56,1.17,2.04-7.38,9.93-3.05,18.53,4.4,8.69,19.92,6.68,26.86,3.73-2.61,3.61-7.89,4.83-13.13,4.83Z" fill="#1a1a1a" stroke-width="0"/><path d="m250.01,544.59c-.5-2.19,7.55-6.11,7.55-6.11,1.01,2.07-7.04,5.99-7.04,5.99-.16.08-.33.12-.5.12Z" fill="#1a1a1a" stroke-width="0"/><path d="m451.31,359.64c-6.79-3.04-13.54-4.53-20.53-4.55,7.33-2.29,14.4-.72,21.01,2.35.36,1.95-.05,2.19-.49,2.19Z" fill="#1a1a1a" stroke-width="0"/><path d="m845.61,442.98l-14.99,28.97,17.28,48.84,24.53-30.31,1.55-5.88s12.47,6.07,20.77-7.68c8.3-13.75,21.49-49.07,21.49-49.07l-30.3-29.78-38.43,17.18s-8.41-.94-14.29,7c-5.88,7.94,1.42,22.72,12.39,20.72Z" fill="#fff" stroke-width="0"/><path d="m859.2,429.74l-9.8,17.33s-7.89,14.6-2.63,20.88c5.27,6.28,16.82,12.8,22.75,14.74,5.94,1.93,12.89,5.93,18.98,1.19,6.09-4.75,9.57-12.73,10.18-14.08.61-1.35,1.49-4.85,1.49-4.85,0,0-3.88-3.16-7.44-4.41-3.56-1.24-8.48-3.95-9.71-4.37-1.23-.42-3.14-2.31-4.85-4.96-1.71-2.65-7.15-5.72-9.52-7.1-2.37-1.38-5.72-2.41-5.36-6.83.36-4.43,3.09-15.54,3.09-15.54,0,0,8.68-3.27,12.43-7.8,3.75-4.54,7.81-10.73,7.81-10.73,0,0,3.45,10.38,12.8,17.59,9.36,7.2,16.81,7.07,16.81,7.07l-5.33,13.97s10.52-2.78,12.9-7.03c2.38-4.25,5.43-11.12.63-14.34,0,0,9.42-6.44,9.16-17.61-.27-11.17-6.53-20.33-11.86-22.95-5.32-2.63-12.95-4.83-19.94-3.63-7,1.21-17.05,7.12-18.13,8.94,0,0-12.05-5.29-17.32-6.09-5.27-.79-11.46-.58-17.02,4.58-5.56,5.16-9.12,18.56-9.36,23.76-.24,5.2-.22,7.67-.22,7.67,0,0,7.23-1.88,12.89,2.62,5.66,4.5,6.58,11.97,6.58,11.97Z" fill="#fff" stroke-width="0"/><polygon points="814.8 544.57 812.23 479.33 830.62 471.95 847.9 520.8 872.43 490.49 874.78 505.75 855.16 552.67 854.29 550.04 846.27 575.15 838.84 595.54 837.69 592.98 829.84 593.67 817.61 588.37 820.96 540.14 814.8 544.57" fill="#fff" stroke-width="0"/><path d="m865.3,449.14s4.27,5.3,2.88,9.19c-1.39,3.89-3.94,6.04-3.94,6.04,0,0,4.64,4.97,10,4.97,5.37,0,6.85-4.32,4.64-6.37-2.21-2.04-7.82-1.94-7.79-4.8.02-2.87,2.63-6.79-.4-8.88-3.03-2.09-5.4-.15-5.4-.15Z" fill="#1a1a1a" stroke-width="0"/><path d="m771.69,577.51s5.67,3.2,5.78,5.95c0,0,5.14-1.43,10.46,1.09,5.32,2.52,8.2,7.71,7.42,10.87l5.81-.28s-2.19-13.55-10.08-16.5c-7.89-2.95-9.93-3.89-19.4-1.13Z" fill="#1a1a1a" stroke-width="0"/><path d="m827.7,535.89l4.04,15.92-12.72,25.14-1.41,11.41,12.23,5.3,6.82-.21c1.47,1.11,9.45-17.58,9.45-17.58l-1.48-19.82,8.34-14.29-5.08-20.98-20.2,15.09Z" fill="#1a1a1a" stroke-width="0"/><path d="m864.72,448.89s-5.42,10.52-.52,14.8c.94.41,3.93-3.49,4.01-6.68.09-3.19-3.5-8.12-3.5-8.12Z" fill="#fff" stroke-width="0"/><path d="m851.77,623.48s14.86-4.97,25.32-2.93c10.46,2.04,19.56,7.1,19.56,7.1,0,0,3.91-4.79.75-11.26-3.16-6.47-10.08-11.35-10.08-11.35,0,0-1.56-8.75-13.24-13.89-11.68-5.13-36.79,2.77-36.79,2.77,0,0,11.18,16.12,14.49,29.56Z" fill="#fff" stroke-width="0"/><path d="m924.44,420.47s9.42-6.44,9.16-17.61c-.22-8.79-4.14-16.31-8.4-20.41.03.11,6.42,28.91-8.12,33.4-7.87,2.43-22.2,3.47-30.45-12.64,0,0,3.45,10.38,12.8,17.59,9.36,7.2,16.81,7.07,16.81,7.07l-5.33,13.97s10.52-2.78,12.9-7.03c2.38-4.25,5.43-11.12.63-14.34Z" fill="#fff" stroke-width="0"/><path d="m900.17,464.95s-1.89-1.53-4.23-2.88c-1.23,2.77-11.23,32.34-36.41,15.85,3.63,2.38,7.4,3.91,10,4.76,5.94,1.93,12.89,5.93,18.98,1.19,6.09-4.75,9.57-12.73,10.18-14.08.61-1.35,1.49-4.85,1.49-4.85Z" fill="#fff" stroke-width="0"/><path d="m859.33,477.81c-.66-.38-1.34-.79-2.02-1.24.67.43,1.35.84,2.02,1.24Z" fill="#fff" stroke-width="0"/><polygon points="840.51 525.65 843.3 541.28 838.44 554.54 838.61 591.93 845.83 576.56 844.64 556.07 852.98 541.78 847.06 520.43 840.51 525.65" fill="#fff" stroke-width="0"/><path d="m728.1,502.55c-.77-.6-.83-1.33-.41-1.81,24.7-28.48,65.73-30.07,85.69-22.16-20.2-5.52-59.99-3.97-83.95,23.67-.34.39-.88.5-1.33.3Z" fill="#1a1a1a" stroke-width="0"/><path d="m878.62,429.06c.9.23,1.31.84.24,3.98-1.2,3.5-2.34,3.72-3.08,3.36-.75-.36-1.06-1.74.03-4.14,1.08-2.4,1.63-3.51,2.81-3.2Z" fill="#1a1a1a" stroke-width="0"/><path d="m903.17,440.03c.89.26,1.29.87.13,3.99-1.29,3.47-2.43,3.66-3.17,3.28-.74-.38-1.01-1.76.14-4.14,1.15-2.38,1.73-3.47,2.9-3.13Z" fill="#1a1a1a" stroke-width="0"/><path d="m830.44,473.78c-.58-1.57,14.14-31.31,14.14-31.31,2.07,1.02-12.65,30.77-12.65,30.77-.28.55-.93.79-1.49.55Z" fill="#1a1a1a" stroke-width="0"/><path d="m871,484.64c-.92-.4-1.82-.81-2.7-1.22-.77-.35-1.53-.7-2.3-1.03-5.36-2.36-9.57-4.7-13.22-7.37-3.44-2.52-7.35-5.36-8.27-10.3-.94-4.98.68-10.21,2.2-14.22,1.03-2.72,2.18-5.2,3.42-7.38,2.88-4.92,7.11-12.28,7.93-13.71.05-2.11-.43-4.23-1.4-6.14-3.21-6.25-10.91-8.72-17.16-5.52-3.03,1.55-5.27,4.19-6.31,7.44-1.04,3.24-.77,6.69.79,9.72,2.71,5.3,8.65,7.99,14.42,6.55-6.25,3.95-13.27.77-16.47-5.5-1.83-3.58-2.17-7.65-.94-11.48,1.23-3.82,3.88-6.95,7.46-8.78,7.37-3.79,16.46-.87,20.25,6.52,1.2,2.34,1.77,4.96,1.65,7.56-.15.52-5.02,9.02-8.23,14.48-1.17,2.07-2.27,4.44-3.26,7.05-1.41,3.72-2.93,8.56-2.1,12.98.75,4.04,4.12,6.49,7.37,8.86,3.52,2.57,7.59,4.83,12.8,7.12.77.34,1.54.69,2.33,1.05,6.1,2.79,12.4,5.66,18.37,1.74,5.63-3.7,8.59-10.47,11.45-17.02.63-1.45,1.25-2.86,1.88-4.22,2.04-4.33,14.08-34.1,14.21-34.4,1.64,2.09-10.05,30.99-12.12,35.39-.63,1.33-1.24,2.73-1.86,4.16-2.86,6.54-6.1,13.94-12.3,18.02-6.05,3.98-12.23,2.09-17.89-.36Z" fill="#1a1a1a" stroke-width="0"/><path d="m911.23,438.92c-.71-1.27-1.02-5.58-7.35-6.55,8.71-1,8.95,5.4,8.96,5.47-1.29,1.18-1.46,1.15-1.61,1.09Z" fill="#1a1a1a" stroke-width="0"/><path d="m874.57,423.73c9.41-7.23,14.26-.25,14.31-.18-2.06,1.08-5.68-4.01-13.3.14-.32.17-.69.18-1.01.04Z" fill="#1a1a1a" stroke-width="0"/><path d="m871.41,491.3c-.6-1.51,1.79-7.03,1.79-7.03,2.11.92-.28,6.43-.28,6.43-.25.58-.93.85-1.51.6Z" fill="#1a1a1a" stroke-width="0"/><path d="m840.01,416.52c-.96-.84-3.62-4.75,2.26-23.97,3.39-11.08,12.58-16.08,19.9-15.29,8.98.96,18.17,5.64,20.77,7.07,11.49-9.3,21.55-10.32,28.02-9.52,7.55.94,14.16,4.85,18.66,11.02,4.68,6.43,6.53,12.89,5.47,19.21-1.24,7.45-6.17,12.67-8.8,14.98,1.2.9,1.95,2.58,2.07,4.79.34,6.57-4.99,16.89-17.56,18.19,10.84-3.44,15.56-12.38,15.26-18.07-.04-.79-.3-3.38-2.1-3.37-.58-2.15,7.34-7.8,8.86-16.93.94-5.68-.76-11.56-5.06-17.46-4.12-5.65-10.19-9.24-17.09-10.09-6.13-.76-15.77.27-26.88,9.5-1.41.06-11.99-5.98-21.87-7.05-5.16-.56-14.07,2.63-17.45,13.68-5.46,17.86-3.16,21.46-3.14,21.49-.37,1.93-.89,1.99-1.32,1.8Z" fill="#1a1a1a" stroke-width="0"/><path d="m882.56,457.23c3.18-1.13,7.37.16,8.96-.53.71-1.24.79-3,.88-5.04.23-5.01.58-12.59,4.82-18.16-1.98,6.4-2.3,13.26-2.52,18.27-.11,2.31-.2,4.15-.62,5.32-.28.78-.85,1.37-1.65,1.72-3.03,1.31-9.19-1.28-9.88-1.58Z" fill="#1a1a1a" stroke-width="0"/><path d="m868.73,469.44c-2.54-1.1-4.7-3.01-6.16-5.53-2.01-3.46-2.2-7.91-.5-11.92,1.14-2.69,2.9-4.57,4.71-5.01,1.69-.42,3.25-.03,4.38,1.09,1.41,1.4,1.94,3.74,1.38,6.12-.72,3.03-.54,3.34-.14,4.01.39.68.56.98,3.55,1.86,2.33.69,4.12,2.31,4.63,4.23.41,1.54-.02,3.09-1.22,4.35-1.38,1.45-4.04,2.14-6.96,1.8-1.28-.15-2.52-.48-3.67-.98Zm.19-20.16c-2.48.15-3.78,1.37-4.73,3.6-1.42,3.35-1.28,7.04.37,9.87,2.5,4.31,6.51,5.21,8.11,5.39,2.46.29,4.33-.37,5.03-1.1.65-.68.87-1.41.67-2.17-.31-1.13-1.5-2.16-3.06-2.62-3.54-1.04-4.15-1.63-4.9-2.91-.75-1.28-.95-2.11-.1-5.69.37-1.57.07-3.13-.77-3.95-.18-.18-.39-.32-.62-.42Z" fill="#1a1a1a" stroke-width="0"/><path d="m864,465.72c6.73-7.3.64-15.54.38-15.89,4.54,2.2,7.79,10.39.78,15.75-.35.26-.79.3-1.16.14Z" fill="#1a1a1a" stroke-width="0"/><path d="m837.94,435.03c.4-2.2,10.84-2.73,10.84-2.73l-4.45-11.62c2.15-.83,7.17,12.28,7.17,12.28-1.02,1.56-13.05,2.17-13.05,2.17-.18.01-.36-.02-.52-.09Z" fill="#1a1a1a" stroke-width="0"/><path d="m884.99,395.45c-.65-.75-3.04-9.43-3.04-9.43,2.22-.61,4.61,8.07,4.61,8.07-1.07,1.49-1.33,1.46-1.57,1.36Z" fill="#1a1a1a" stroke-width="0"/><path d="m812.69,316.76l76.72-.23,34.11,21.16-.24-79.95c-.03-11.42-9.32-20.66-20.75-20.62l-90.08.27c-11.42.03-20.66,9.32-20.62,20.75l.11,38c.03,11.42,9.32,20.66,20.75,20.63Z" fill="#fff" stroke-width="0"/><path d="m922.92,338.84c1.15-1.15,1.03-40.89,1.03-40.89,0-2.11-.12-40.57-.12-40.57-.04-11.88-9.73-21.52-21.61-21.48l-90.05.27c-11.88.04-21.52,9.73-21.48,21.61l.12,38.46c.04,11.88,9.73,21.52,21.61,21.49-10.62-2.27-19.28-10.88-19.31-21.49l-.12-38.46c-.03-10.61,8.58-19.27,19.19-19.3l90.05-.27c10.61-.03,19.27,8.57,19.3,19.18l.12,38.46c0,.7-.04,1.38-.11,2.06.11.63.23,37.68.23,37.68l-31.73-20.22c-.62-.18-51.43-.02-51.43-.02,0,2.3,50.48,2.15,50.48,2.15l33.22,21.16c.19.12.4.18.62.18Z" fill="#1a1a1a" stroke-width="0"/><path d="m817.45,267.17l21.01-.06c0-2.3-21.01-2.24-21.01-2.24-1.15,1.79-.63,2.3,0,2.3Z" fill="#1a1a1a" stroke-width="0"/><path d="m863.75,267.03l33.94-.1c0-2.3-33.95-2.2-33.95-2.2-1.15,1.79-.63,2.3,0,2.3Z" fill="#1a1a1a" stroke-width="0"/><path d="m817.51,288.8l80.25-.24c0-2.3-80.26-2.06-80.26-2.06-1.15,1.79-.63,2.3,0,2.3Z" fill="#1a1a1a" stroke-width="0"/><path d="m735.11,615.28c9.83.31,15.58-7.29,15.85-8.06,2,1.66-.14,4.4-3.35,6.36-2.65,1.62-6.95,3.23-12.35,1.76-.05-.02-.1-.03-.15-.05Z" fill="#1a1a1a" stroke-width="0"/><path d="m738.72,587.73c-.74-.51-.84-1.24-.46-1.74,3.15-4.23,8.62-9.98,19.57-11.15,13.58-1.45,21.18,6.49,21.49,6.82-1.74,1.5-8.86-5.86-21.24-4.53-9.95,1.06-14.83,6.03-17.98,10.24-.32.44-.9.58-1.38.37Z" fill="#1a1a1a" stroke-width="0"/><path d="m800.79,596.76c-1.92-10.28-6.19-15.97-14.05-18.89-5.48-2.01-9.86-1.73-15.1.95,4.75-5.02,9.81-5.33,15.89-3.11,8.73,3.2,13.53,9.67,14.86,19.85-1.21,1.32-1.41,1.29-1.6,1.21Z" fill="#1a1a1a" stroke-width="0"/><path d="m704.37,666.83c-1.74-.75-3.44-1.55-5.09-2.4,40.01,17.94,104.75,11.25,148.6-.59.79-3.23,4.16-18.23,3.01-32.63-1.57-19.45-12.09-33.9-14.17-36.59l-50.4,3.19c-.14-2.3,50.86-5.53,50.86-5.53,1.5,1.06,14.21,16.53,16,38.74,1.33,16.57-3.19,33.87-3.24,34.05-43.22,12.38-105.43,19.16-145.57,1.76Z" fill="#1a1a1a" stroke-width="0"/><path d="m839.56,693.64c-19.24-8.34-35.59-18.06-36.92-18.86,1.83-1.58,66.26,36.69,90.65,27.13,31.05-12.17,28.72-38.14,26.02-68.22l-.18-2.08c-2.78-31.21-9.29-104.31-45.34-126.97,38.25,21.31,44.83,95.21,47.63,126.76l.19,2.08c2.66,29.7,5.18,57.76-27.48,70.57-12.78,5.01-35.14-2-54.56-10.42Z" fill="#1a1a1a" stroke-width="0"/><path d="m878.31,453.35c-2.08-3.94-7.41-6.94-11.31-9.13-1.61-.9-3-1.69-3.83-2.34-3.11-2.44.13-12.83,1.2-15.96l.6-3.74c14.49-6.73,20.79-19.8,20.85-19.93,2.35,1.05,7,20.17,30.62,24.48-20.24-1.33-27.59-15.27-29.85-21.12-2.52,4.18-8.73,12.8-19.45,17.56l-.54,3.31c-2.19,6.46-3.11,12.72-2.01,13.59.7.54,2.01,1.28,3.54,2.14,4.18,2.35,9.9,5.57,11.69,9.61-.9,1.65-1.23,1.65-1.51,1.52Z" fill="#1a1a1a" stroke-width="0"/><path d="m900.22,466.23c-2.72-3.73-7.62-4.53-7.67-4.54.58-2.24,6.29-1.33,9.09,2.85-.65,1.82-1.07,1.85-1.42,1.7Z" fill="#1a1a1a" stroke-width="0"/><path d="m815.61,800.52c2.42-37.4,32.05-103.9,32.35-104.57,1.8,1.61-27.66,67.75-30.74,103.61-1.37,1.04-1.49,1.01-1.6.96Z" fill="#1a1a1a" stroke-width="0"/><path d="m813.86,545.97c-.69-1.03-2.05-66.29-2.05-66.29.69-1.08,18.35-8.78,18.35-8.78,1.55.67,18.12,47.54,18.12,47.54l22.68-28.9c2.03.5,5.08,16.76,5.08,16.76-.07.67-20.11,46.9-20.11,46.9-2.18-.21-8.79-30.45-8.79-30.45l-32.16,23.09c-.33.24-.75.28-1.13.12Zm.26-65.57l1.3,62.31,31.1-22.33-16.57-46.86-15.83,6.89Zm35.01,40.69l6.1,27.93,18.48-42.64-2.52-13.41-22.07,28.12Z" fill="#1a1a1a" stroke-width="0"/><path d="m817.16,589.42c2.08-25.88,2.65-49.08,2.66-49.31,2.3.29,1.72,23.58-1.06,48.38-1.39,1-1.5.97-1.6.93Z" fill="#1a1a1a" stroke-width="0"/><path d="m839.23,593.45c10.33-28.29,13.91-43.52,13.94-43.67,2.21.68-1.41,16.05-12.42,43.05-1.51.63-1.52.63-1.52.62Z" fill="#1a1a1a" stroke-width="0"/><path d="m786.67,577.84c1.1-2.04,23.89,6.71,43.6,14.76-20.56-5.9-43.33-14.65-43.56-14.74l-.04-.02Z" fill="#1a1a1a" stroke-width="0"/><path d="m904.21,668.73c1.38-19.05-1.46-31.17-9.89-40.46l-1.9-1.21c-17.3-11.2-40.76-2.32-40.99-2.23.17-2.54,23.95-11.58,42.24.3l2.02,1.29c9.23,10.03,12.28,22.73,10.12,41.38-1.39,1-1.5.97-1.6.93Z" fill="#1a1a1a" stroke-width="0"/><path d="m896.18,628.71c-.77-.6-.83-1.33-.42-1.81.22-.26,5.37-6.63-3.81-16.46-9.53-10.2-27.89-7.08-28.08-7.05.4-2.41,19.38-5.64,29.76,5.48,10.65,11.4,3.95,19.45,3.88,19.53-.34.39-.88.5-1.33.31Z" fill="#1a1a1a" stroke-width="0"/><path d="m837.47,594.56c.37-2.3,10.56-7.34,28.48-6.27,18.43,1.09,22.59,16.82,22.62,16.98-2.38-.02-6.05-13.68-22.76-14.68-17.3-1.03-27.27,3.9-27.37,3.95-.32.16-.67.16-.98.03Z" fill="#1a1a1a" stroke-width="0"/><path d="m831.44,553.58c-.67-.81-4.51-18.29-4.51-18.29,2.25-.49,5.95,16.34,5.95,16.34l10.97,3.57,7.57-14.2c2.03,1.08-5.99,16.14-5.99,16.14-1.37.56-13.89-3.52-13.89-3.52-.03-.01-.07-.03-.1-.04Z" fill="#1a1a1a" stroke-width="0"/><path d="m818.25,578.6c-.64-.33-.86-1.03-.56-1.59l13.19-25.02c2.04,1.07-11.15,26.09-11.15,26.09-.29.54-.93.75-1.47.52Z" fill="#1a1a1a" stroke-width="0"/><path d="m845.07,578.58c-.69-1-1.81-21.92-1.81-21.92,2.3-.12,3.41,20.8,3.41,20.8-1.27,1.22-1.45,1.19-1.6,1.12Z" fill="#1a1a1a" stroke-width="0"/><path d="m877.34,594.2c-.63-1.47,2.96-17.89,2.02-30.68,3.26,12.97-.28,29.2-.44,29.87-1.45.86-1.52.84-1.58.81Z" fill="#1a1a1a" stroke-width="0"/><path d="m756.04,621.18c-1.69-.73-3.01-1.73-3.93-2.98-1.64-2.2-2.12-5.31-1.43-9.24.32-1.83.83-3.71,1.51-5.57,3.13-8.66,8.2-15.27,14.26-18.61,6.87-3.78,14.69-4.42,20.93-1.71,9.17,3.98,9.13,12.04,9.13,12.38-2.3-.32-2.33-6.92-10.04-10.26-5.6-2.43-12.67-1.83-18.91,1.61-7.52,4.15-11.5,12.67-13.21,17.38-.63,1.74-1.1,3.49-1.4,5.2-.58,3.28-.24,5.79,1.01,7.46.82,1.11,2.11,1.96,3.86,2.57,3.32,1.14,6.84.72,9.19-1.07,1.93-1.48,3.08-3.79,3.86-5.65,1.88-4.62,3.14-7.73,5.59-10.35,2.79-2.99,6.24-5.05,9.25-6.68-1.75,3.56-5,5.51-7.57,8.25-2.16,2.3-3.29,5.09-4.48,8.03-1.56,3.76-2.89,6.43-5.25,8.23-2.96,2.25-7.3,2.79-11.33,1.42-.36-.13-.7-.26-1.03-.4Z" fill="#1a1a1a" stroke-width="0"/><path d="m942.6,840.12v-24.67l-21.65-9.34-9.35-21.9,10.04-22.2-16.99-17.6-22,9.51-21.97-8.25-9.26-22.59h-24.86l-9.16,22.62-21.93,8.65-22.61-9.79-17.2,17.13,9.55,22.08-9.55,21.7-24.3,9.85v24.42l22.94,8.87,10.91,22.1-9.64,22.95,10.61,10.45,9.91-3.71,3.85,7.96,15.16-6.96,22.41,10.03,9.19,23h24.32l8.55-22.91,22.24-10.11,23.06,10.4,17-18.47-9.28-22.9,8.82-21.52,21.19-8.78Zm-103.71,27.08c-21.78,0-39.43-17.65-39.43-39.43s17.65-39.43,39.43-39.43,39.43,17.65,39.43,39.43-17.65,39.43-39.43,39.43Z" fill="#fff" stroke-width="0"/><path d="m837.52,946.26c-6.37-.13-12.98-.14-20.38,0-2.54,0-3.9-1.01-4.67-3.35-2.48-7.54-4.63-13.69-6.74-19.36-.33-.87-1.33-1.91-2.29-2.37-2.5-1.18-5.04-2.29-7.58-3.39-3.14-1.36-6.38-2.78-9.52-4.32-1.7-.84-2.71-.87-4.19-.13-2.88,1.43-5.51,2.67-8.21,3.95-1.64.78-3.31,1.57-5.07,2.41.77-2.93,2.44-3.72,4.09-4.5,2.69-1.27,5.31-2.51,8.17-3.93,2.15-1.06,3.89-1.03,6.23.13,3.08,1.52,6.3,2.93,9.41,4.28,2.56,1.11,5.12,2.23,7.64,3.42,1.51.71,2.93,2.21,3.47,3.65,2.13,5.7,4.28,11.87,6.78,19.44.47,1.42,1.02,1.77,2.44,1.76,7.44-.13,14.07-.13,20.28,0,1.58.01,2.06-.33,2.59-1.97,2.22-6.92,4.4-13.18,6.66-19.12.66-1.74,2.37-3.18,3.78-3.84,5.51-2.57,11.42-5.13,17.57-7.62,1.3-.53,3.43-.76,5.02-.07,5.13,2.28,10.09,4.64,15.36,7.13l4.69,2.22,3.27-3.3c4.16-4.2,8.47-8.54,12.57-12.89.27-.28.42-1.64.11-2.33-1.45-3.24-2.98-6.45-4.51-9.65-1.37-2.87-2.74-5.74-4.05-8.64-.66-1.46-.78-3.37-.31-4.74,2.28-6.55,4.48-12.41,6.74-17.92.67-1.64,2.23-3.22,3.79-3.85,6.49-2.63,13.03-4.94,17.99-6.66,1.39-.49,1.73-.97,1.7-2.48-.13-7.23-.13-13.87,0-20.28.03-1.57-.37-2.12-1.98-2.67-4.9-1.69-11.35-3.97-17.66-6.55-1.55-.64-3.17-2.31-3.93-4.07-2.12-4.9-4.28-10.36-6.77-17.16-.47-1.26-.63-3.2.03-4.69,1.39-3.09,2.84-6.15,4.3-9.21,1.54-3.23,3.08-6.46,4.53-9.73.27-.59.06-1.94-.26-2.28-2.71-2.89-5.5-5.71-8.29-8.53-2.11-2.14-4.23-4.28-6.32-6.45-.9-.94-1.38-1.02-2.62-.41-6.78,3.36-12.76,6.2-18.29,8.68-1.48.66-3.54.76-5.01.22-5.89-2.12-11.78-4.42-17.51-6.85-1.46-.62-3.24-1.99-3.91-3.67-2.09-5.2-4.13-10.75-6.61-18.01-.58-1.71-.97-2.1-2.58-2.04-6.47.16-13.1.16-20.29,0-1.56-.02-2.1.37-2.66,2-.98,2.85-2.01,5.68-3.06,8.51-1.11,3.04-2.23,6.08-3.27,9.14-.77,2.26-2.03,3.48-4.49,4.34-5.68,1.97-11.17,4.17-16.32,6.53-2.29,1.05-4.03,1.03-6.21-.06-3.06-1.54-6.15-3.02-9.23-4.5-2.88-1.38-5.76-2.75-8.61-4.18-1.33-.68-1.89-.58-2.93.51-5.23,5.46-9.93,10.15-14.35,14.34-1.18,1.11-1.14,1.72-.39,3.24,2.6,5.25,5.64,11.5,8.49,18,.64,1.47.6,3.65-.1,5.3-2.48,5.78-5.14,11.51-7.92,17.06-.69,1.37-2.15,3.22-4.03,3.94-6.4,2.44-12.98,4.63-19.13,6.63-1.65.53-2.05,1.05-2.01,2.6.14,6.23.14,12.86,0,20.29-.03,1.5.29,1.95,1.72,2.41,5.84,1.88,12.72,4.16,19.48,6.73,1.83.69,3.27,2.62,3.96,4.06,1.15,2.42,2.21,4.88,3.28,7.34,1.29,3,2.64,6.11,4.12,9.07,1.28,2.55,1.32,4.55.13,6.93-1.43,2.88-2.81,5.79-4.17,8.7-1.3,2.75-2.6,5.51-3.95,8.24-.75,1.51-.65,2.14.49,3.23,3.02,2.88,5.55,5.33,8.77,8.6-4.73-1.52-7.18-3.89-10.36-6.94-1.88-1.79-2.16-3.5-.96-5.92,1.35-2.71,2.63-5.46,3.93-8.2,1.37-2.93,2.75-5.85,4.2-8.74.86-1.73.83-2.96-.12-4.87-1.52-3.02-2.87-6.15-4.19-9.19-1.05-2.44-2.1-4.87-3.24-7.27-.63-1.32-1.77-2.54-2.7-2.89-6.71-2.56-13.55-4.82-19.37-6.69-2.4-.77-3.36-2.11-3.31-4.64.13-7.39.13-13.99,0-20.19-.07-3.2,1.68-4.22,3.6-4.84,6.13-2,12.68-4.18,19.03-6.6.99-.37,2.16-1.56,2.78-2.81,2.76-5.5,5.4-11.2,7.86-16.94.45-1.04.5-2.6.12-3.48-2.83-6.46-5.85-12.68-8.44-17.9-1.03-2.09-1.28-3.9.86-5.93,4.4-4.16,9.07-8.83,14.27-14.26,1.75-1.82,3.37-2.1,5.62-.98,2.84,1.42,5.71,2.79,8.57,4.16,3.11,1.48,6.21,2.97,9.28,4.52,1.54.77,2.57.78,4.22.03,5.22-2.39,10.78-4.62,16.53-6.61,1.79-.62,2.53-1.33,3.06-2.9,1.04-3.09,2.17-6.14,3.29-9.2,1.04-2.81,2.07-5.63,3.04-8.46.89-2.58,2.32-3.6,4.88-3.55,7.15.16,13.75.16,20.18,0,2.93-.03,4.06,1.39,4.82,3.6,2.47,7.22,4.49,12.74,6.57,17.9.35.87,1.5,1.91,2.68,2.41,5.69,2.41,11.54,4.7,17.39,6.81.93.34,2.35.28,3.3-.16,5.5-2.46,11.46-5.29,18.21-8.63,2.12-1.05,3.71-.79,5.31.88,2.07,2.16,4.19,4.29,6.29,6.42,2.81,2.84,5.61,5.67,8.33,8.58,1.08,1.14,1.25,3.51.68,4.79-1.47,3.29-3.01,6.53-4.56,9.78-1.45,3.05-2.9,6.09-4.28,9.17-.33.72-.31,2.02.03,2.94,2.48,6.76,4.62,12.18,6.72,17.04.53,1.21,1.69,2.44,2.69,2.85,6.26,2.57,12.66,4.82,17.54,6.51,2.56.89,3.58,2.31,3.53,4.9-.13,6.39-.13,12.99,0,20.19.04,2.49-.93,3.89-3.26,4.7-4.94,1.71-11.44,4.01-17.88,6.62-.98.4-2.09,1.53-2.52,2.59-2.24,5.47-4.43,11.29-6.7,17.8-.28.81-.18,2.12.24,3.04,1.3,2.88,2.67,5.74,4.03,8.59,1.54,3.23,3.08,6.45,4.53,9.71.6,1.33.5,3.75-.53,4.84-4.12,4.38-8.44,8.73-12.61,12.94l-3.84,3.88c-1.31.23-6.74-2.34-6.74-2.34-5.25-2.49-10.2-4.84-15.3-7.11-.8-.36-2.22-.32-3.22.09-6.11,2.47-11.99,5.02-17.46,7.58-1.13.52-2.24,1.63-2.6,2.57-2.25,5.91-4.41,12.12-6.63,19.01-.8,2.52-2.16,3.57-4.63,3.57Z" fill="#1a1a1a" stroke-width="0"/><path d="m827.25,878.65c-10.88,0-21.06-4.22-28.7-11.87-7.63-7.66-11.84-17.87-11.83-28.77,0-10.91,4.2-21.09,11.81-28.67,7.66-7.65,17.97-11.85,29.03-11.85,22.3.05,40.34,18.27,40.32,40.62-.01,22.35-18.24,40.54-40.63,40.54h0Zm.31-78.86c-10.45,0-20.18,3.97-27.41,11.18-7.17,7.15-11.12,16.76-11.13,27.05,0,10.28,3.95,19.93,11.16,27.14,7.2,7.22,16.81,11.19,27.07,11.19,21.13,0,38.32-17.16,38.33-38.24.02-21.09-16.99-38.28-37.92-38.32h-.09Z" fill="#1a1a1a" stroke-width="0"/><path d="m779.35,852.65c-2.35-5.32-2.97-9.96-2.97-14.65,0-9.06,2.36-17.91,6.82-25.6-2.26,8.49-4.51,16.94-4.51,25.6,0,4.48.59,8.92,1.78,13.19-.9,1.44-1.01,1.45-1.11,1.45Z" fill="#1a1a1a" stroke-width="0"/><path d="m827.25,889c-4.21,0-8.39-.51-12.41-1.51,4.4-1.27,8.39-.79,12.41-.79,21.83,0,41.13-14.61,46.92-35.51-3.85,22.51-24.06,37.8-46.92,37.81Z" fill="#1a1a1a" stroke-width="0"/><path d="m848.28,793.99c-6.79-3.04-13.54-4.53-20.53-4.55,7.33-2.29,14.4-.72,21.01,2.35.36,1.95-.05,2.19-.49,2.19Z" fill="#1a1a1a" stroke-width="0"/></svg>