<?xml version="1.0" encoding="UTF-8"?><svg id="a" xmlns="http://www.w3.org/2000/svg" width="1000.79" height="778.79" viewBox="0 0 1000.79 778.79"><path d="m399.87,484.63c43.73-38.79,80.42-78.83,110.04-120.1,29.63-41.27,44.44-80.59,44.44-117.98,0-22.57-5.13-40.21-15.34-52.91-10.24-12.7-25.23-19.05-44.97-19.05s-36.34,8.65-47.62,25.93c-11.29,17.29-16.58,42.51-15.87,75.66h-201.05c2.12-62.78,15.87-114.81,41.27-156.08,25.4-41.26,58.55-71.59,99.47-91C411.15,9.7,456.65,0,506.74,0c86.77,0,151.31,21.53,193.64,64.54,42.33,43.04,63.49,98.77,63.49,167.19,0,73.38-24.52,142.16-73.54,206.34-49.04,64.2-110.23,121.69-183.58,172.48h264.54v168.24H231.63v-155.55c68.41-53.6,124.49-99.81,168.24-138.62Z" fill="#5983c2" stroke-width="0"/><path d="m41.35,416.03h91.61c2.99,0,5.42,2.43,5.42,5.42v79.58c0,2.99-2.43,5.42-5.42,5.42H41.36c-2.99,0-5.42-2.43-5.42-5.42v-79.58c0-2.99,2.43-5.42,5.42-5.42Z" fill="#1b1b1b" stroke-width="0"/><path d="m972.4,544.65s-3.25-1.42-30.66-15.64c-27.41-14.21-41.22-18.27-51.37-19.28-10.15-1.01-24.36,1.83-32.68,5.28-8.33,3.45-35.53,13.6-47.51,15.23-11.98,1.62-26.19-3.45-32.07-5.89-5.89-2.44-49.57-29.09-49.57-29.09,0,0-9.64,106.21-13.32,140.55h219.01c21.22,0,38.58-17.36,38.58-38.58v-51.46c-.26-.7-.41-1.12-.41-1.12Z" fill="#1b1b1b" stroke-width="0"/><path d="m719.59,464.66s2.09-19.56-7.16-33.96c-9.24-14.4-16.29-22.18-18.65-26.39-2.36-4.21-1.32-22.8-2.96-29.89-1.64-7.08-3.87-17.91-16.46-15.81-12.59,2.1-16.05,18.58-14.07,29.31,1.98,10.73,9.65,35.89,9.22,39.36-.43,3.47-20.49,16.07-31.19,20.07-10.7,4-31.15,11.25-36.46,19.45-5.31,8.21-3.49,18.99,6.79,20,0,0-13.23,6.92-10.54,16.67,2.7,9.76,11.79,8.52,11.79,8.52,0,0-2.25,14.35,12.37,16.16,14.62,1.82,42.46-8.23,52.08-13.41,9.61-5.18,26.51-13.99,33.81-24.66,7.3-10.66,11.73-23.15,11.42-25.43Z" fill="#fff" stroke-width="0"/><path d="m474,297.22s-22.05-4.2-22.69,15.07c-.64,19.28,19.06,19.13,24.9,15.17,0,0-.38,45.12,44.37,44.41,44.75-.71,45.97-38.02,45.97-38.02v-5.56s20.25,6.29,23.83-7.02c3.58-13.31,1.31-18.61-3.86-21.49-5.17-2.87-18.33-1.99-18.33-1.99v-4.61s-15.33-16.58-39.62-26.33c-24.29-9.75-36.62-11.14-36.62-11.14,0,0-9.77,24.84-16.53,30.17l-1.41,11.33Z" fill="#fff" stroke-width="0"/><path d="m908.32,416.69c0,17.76-14.4,32.16-32.15,32.16s-32.16-14.4-32.16-32.16,14.4-32.16,32.16-32.16,32.15,14.4,32.15,32.16Z" fill="#fff" stroke-width="0"/><path d="m170.79,658.27c0,14.3-11.6,25.9-25.9,25.9s-25.9-11.59-25.9-25.9,11.6-25.9,25.9-25.9,25.9,11.59,25.9,25.9Z" fill="#1b1b1b" stroke-width="0"/><path d="m520.49,25.2H160.54c-24.5,0-44.54,20.04-44.54,44.54v30.01h449.02v-30.01c0-24.49-20.04-44.54-44.54-44.54Z" fill="#1b1b1b" stroke-width="0"/><path d="m468.19,294.73s-3.69-21.08-3.44-27.14c.25-6.05,4.66-22.8,9.53-25.24,4.87-2.44,6.55-2.74,6.55-2.74,0,0,11.12-17.88,37-18.02,25.88-.15,44.8,10.09,52.5,23.8,7.69,13.71,6.12,34.65,6.09,40.83-.02,6.18-1.44,10.34-1.44,10.34l-6.79.41-.52-3.77s-21.78-21.34-45.96-28.99c-24.18-7.65-29.76-8.48-29.76-8.48,0,0-7.69,22.55-16.53,30.17l-.36,11.07-6.86-2.23Z" fill="#1b1b1b" stroke-width="0"/><path d="m399.24,288.51s15.43,8.05,22.17,18.48c6.74,10.42,8.46,34.86-5.04,35.81-13.5.95-19.54-14.71-21.24-19.24-1.7-4.54-2.29-10.09-12.78-13.63-10.49-3.54-33.88-6.89-38.12-13.86-4.24-6.98-11.29-11.13-10.96-33.8,0,0-7.28-23.47,3.52-33.42,10.81-9.95,23.14-9.64,45.22-9.04,22.08.6,37.95-10.39,48.05-14.67,10.11-4.28,25.91-12.67,34.69-7.98,8.77,4.69,2.44,16.88,2.44,16.88,0,0,7.81,2.72,10.2,9.12,2.38,6.39-6.6,18.71-6.6,18.71,0,0,5.19,1.39,6.55,10.07,1.37,8.68-11.25,16.67-22.37,19.69-11.13,3.02-38.54,6.51-44.33,6.97-5.78.45-15.03,4.32-11.4,9.92Z" fill="#fff" stroke-width="0"/><path d="m105.2,432.33c-2.77-4.74-7.31-4.74-10.08,0l-21.28,36.45c-2.77,4.74-.54,8.63,4.95,8.63h42.75c5.49,0,7.72-3.88,4.95-8.62l-21.3-36.45Z" fill="#fff" stroke-width="0"/><path d="m530.84,63.18c0,8.74-7.09,15.82-15.83,15.82s-15.82-7.08-15.82-15.82,7.09-15.83,15.82-15.83,15.83,7.09,15.83,15.83Z" fill="#fff" stroke-width="0"/><path d="m630.16,90.37c0,9.02-7.31,16.33-16.33,16.33s-16.33-7.31-16.33-16.33,7.31-16.33,16.33-16.33,16.33,7.31,16.33,16.33Z" fill="none" stroke="#1b1b1b" stroke-miterlimit="10"/><path d="m477.25,63.18c0,8.74-7.09,15.82-15.82,15.82s-15.83-7.08-15.83-15.82,7.09-15.83,15.83-15.83,15.82,7.09,15.82,15.83Z" fill="#cdcccc" stroke-width="0"/><path d="m423.8,63.18c0,8.74-7.08,15.82-15.82,15.82s-15.83-7.08-15.83-15.82,7.09-15.83,15.83-15.83,15.82,7.09,15.82,15.83Z" fill="#fff" stroke-width="0"/><path d="m329.93,250.11s-9.93,1.8-11.31,10.36c-1.39,8.56,13.91,27.3,17.84,29.27h2.75s-7.7-17.36-5.17-26.8l-4.11-12.83Z" fill="#1b1b1b" stroke-width="0"/><path d="m362.75,305.88s10.13.14,17.03,3.02c6.9,2.88,9.91,4.9,9.91,4.9,0,0-13.84,1.06-26.93-7.92Z" fill="#1b1b1b" stroke-width="0"/><path d="m406.04,279.51s-8.29,2.65-7.51,7.28c0,0,14.47,9.8,17.21,12.69,2.74,2.89,4.72,4.86,4.72,4.86,0,0,.25-13.29-14.42-24.83Z" fill="#1b1b1b" stroke-width="0"/><path d="m814.62,160.83c0,9.19-7.45,16.64-16.64,16.64s-16.64-7.45-16.64-16.64,7.45-16.63,16.64-16.63,16.64,7.45,16.64,16.63Z" fill="#1b1b1b" stroke-width="0"/><path d="m568.2,296.96l6.79-.41s1.42-4.16,1.44-10.34c.03-6.18,1.6-27.11-6.09-40.83-6.48-11.54-20.93-20.59-40.77-23.09,13.37,5.79,27.6,14.85,24.68,26.54-4.26,17.05-64.16,5.68-64.16,5.68l1.52,2.16c.34-.95,5.92-.11,30.1,7.54,24.18,7.65,45.96,28.99,45.96,28.99l.52,3.77Z" fill="#fff" stroke-width="0"/><path d="m972.8,547.06c-.73-.18-56.68-28.76-56.68-28.76-13.33-6.84-35.69-8.48-49.88-3.67l-41.94,14.23c-14.92,5.07-38.07,2.63-51.63-5.44l-44.96-26.79c-.76-.45-1.01-1.44-.56-2.2.45-.76,1.45-1.01,2.2-.56l44.96,26.78c12.85,7.65,34.82,9.96,48.95,5.15l41.94-14.22c14.9-5.05,38.39-3.33,52.38,3.85l55.95,28.59c.79.4,1.11,1.37.7,2.16-.29.56-.85.88-1.43.88Z" fill="#1b1b1b" stroke-width="0"/><path d="m866.17,459.53c-18.63,0-33.78-15.14-33.78-33.76s15.15-33.76,33.78-33.76,33.74,15.15,33.74,33.76-15.14,33.76-33.74,33.76Zm0-64.31c-16.85,0-30.57,13.7-30.57,30.55s13.71,30.55,30.57,30.55,30.53-13.71,30.53-30.55-13.69-30.55-30.53-30.55Z" fill="#1b1b1b" stroke-width="0"/><path d="m560.83,480.57c-1.32-.68-39.04-54.83-39.04-54.83l-37.59,54.15c-2.9-.62-19.77-88.72-19.77-88.72.44-1.44,24.13-25.3,24.13-25.3,2.53.33,33.23,53.82,33.23,53.82l30.92-54.1c2.54-.33,24.86,22.31,24.86,22.31.44,1.4-15.16,91.34-15.16,91.34-1.35,1.32-1.47,1.33-1.58,1.33Zm-93.09-89.17l16,83.51,36.15-52.06-30.54-53.21-21.61,21.76Zm55.95,31.45l36.22,52,14.79-85.27-20.25-20.54-30.75,53.81Z" fill="#1b1b1b" stroke-width="0"/><path d="m531.15,346.69c-3.84,0-6.79-.67-7.02-.73-.86-.2-1.4-1.06-1.2-1.93.2-.86,1.08-1.41,1.93-1.2.11.03,10.46,2.36,16.93-2.13,2.84-1.98,4.55-5.06,5.07-9.17.11-.89.89-1.51,1.8-1.39.88.11,1.5.91,1.39,1.8-.64,5.06-2.81,8.89-6.44,11.41-3.83,2.66-8.59,3.34-12.46,3.34Z" fill="#1b1b1b" stroke-width="0"/><path d="m362.17,543.83c-13.7,0-25.53-2.51-36.5-5.62-40.31-11.42-64.7-45.97-68.7-97.29-2.85-36.56,10.67-72.39,24.29-102.62,5.19-11.54,8.97-21.01,12.63-30.17,6.75-16.89,12.58-31.48,24.6-52.01.45-.76,1.44-1.01,2.2-.57.76.45,1.02,1.43.58,2.2-11.9,20.32-17.69,34.8-24.39,51.57-3.68,9.19-7.47,18.7-12.69,30.3-13.44,29.86-26.81,65.22-24.01,101.05,3.89,49.88,27.46,83.43,66.37,94.45,21.52,6.1,46.43,9.83,82.75-3.95.85-.3,1.76.11,2.07.93.32.83-.1,1.76-.93,2.07-18.69,7.09-34.43,9.66-48.27,9.66Z" fill="#1b1b1b" stroke-width="0"/><path d="m357.62,456.67c-1.11-.15-1.72-.97-1.59-1.84,3.48-23.53,12.46-43.93,16.3-52.64.67-1.52,1.2-2.72,1.54-3.57l13.49-33.61c3.57-8.91,7.96-17.1,12.6-25.78l1.52-2.83c.42-.79,1.38-1.09,2.17-.66.79.42,1.08,1.39.66,2.17l-1.52,2.84c-4.61,8.59-8.95,16.71-12.45,25.46l-13.49,33.61c-.35.87-.9,2.11-1.58,3.67-4.1,9.32-12.64,28.71-16.06,51.82-.12.8-.81,1.37-1.59,1.37Z" fill="#1b1b1b" stroke-width="0"/><circle cx="7.36" cy="167.26" r="7" fill="#1b1b1b" stroke-width="0"/><path d="m61.77,174.63c4.07,0,7.36-3.3,7.36-7.36s-3.3-7.36-7.36-7.36-7.36,3.3-7.36,7.36,3.3,7.36,7.36,7.36Z" fill="#1b1b1b" stroke-width="0"/><circle cx="116.18" cy="167.26" r="6.82" fill="#1b1b1b" stroke-width="0"/><path d="m7.36,229.04c4.06,0,7.36-3.3,7.36-7.36s-3.3-7.36-7.36-7.36-7.36,3.3-7.36,7.36,3.3,7.36,7.36,7.36Z" fill="#1b1b1b" stroke-width="0"/><path d="m61.77,229.4c4.27,0,7.73-3.46,7.73-7.72s-3.46-7.73-7.73-7.73-7.72,3.46-7.72,7.73,3.46,7.72,7.72,7.72Z" fill="#1b1b1b" stroke-width="0"/><circle cx="116.18" cy="221.67" r="7.18" fill="#1b1b1b" stroke-width="0"/><path d="m7.36,282.9c3.76,0,6.82-3.05,6.82-6.82s-3.06-6.82-6.82-6.82-6.82,3.05-6.82,6.82,3.05,6.82,6.82,6.82Z" fill="#1b1b1b" stroke-width="0"/><path d="m61.77,283.27c3.97,0,7.18-3.22,7.18-7.18s-3.22-7.18-7.18-7.18-7.18,3.21-7.18,7.18,3.22,7.18,7.18,7.18Z" fill="#1b1b1b" stroke-width="0"/><path d="m116.18,282.78c3.7,0,6.7-3,6.7-6.7s-3-6.7-6.7-6.7-6.7,3-6.7,6.7,3,6.7,6.7,6.7Z" fill="#1b1b1b" stroke-width="0"/><path d="m948.07,755.2H121.98c-.89,0-1.61-.71-1.61-1.61s.72-1.61,1.61-1.61h826.09c.89,0,1.61.72,1.61,1.61s-.71,1.61-1.61,1.61Z" fill="#1b1b1b" stroke-width="0"/><path d="m499.14,297.4c1.28-.2,2.14.35,2.51,4.97.41,5.15-.93,6.06-2.08,6.02-1.16-.05-2.32-1.64-2.26-5.32.05-3.68.15-5.4,1.83-5.67Z" fill="#1b1b1b" stroke-width="0"/><path d="m467.8,331.14c-6.04-.34-10.53-2.54-13.77-6.22-3.24-3.68-4.86-8.4-4.55-13.29.31-4.89,2.5-9.38,6.18-12.62,3.67-3.24,8.34-4.88,13.29-4.55,1.94.11,3.84.54,5.65,1.26.83.33,1.23,1.26.9,2.08-.32.83-1.27,1.24-2.09.9-1.49-.59-3.06-.94-4.67-1.04-4.03-.27-7.93,1.08-10.96,3.75-3.04,2.67-4.84,6.37-5.1,10.41-.26,4.04,1.08,7.93,3.75,10.96,2.68,3.03,6.37,4.84,10.41,5.1,2.73.13,5.48-.41,7.92-1.67.78-.41,1.76-.1,2.17.69.41.79.1,1.76-.69,2.17-2.61,1.35-5.51,2.06-8.45,2.06Z" fill="#1b1b1b" stroke-width="0"/><path d="m464.11,322.89c-1.82-1.33-1.69-2.34-.98-2.88l9.62-7.43-10.77-7.97c-.71-.53-.86-1.54-.34-2.25.52-.72,1.53-.86,2.25-.34l12.48,9.24c.03,2.56-11.28,11.29-11.28,11.29-.29.23-.64.34-.98.34Z" fill="#1b1b1b" stroke-width="0"/><path d="m575.95,331.14c-2.94,0-5.84-.71-8.45-2.06-.79-.41-1.09-1.38-.68-2.17.41-.78,1.39-1.08,2.17-.68,2.44,1.27,5.18,1.85,7.91,1.67,4.04-.26,7.73-2.06,10.41-5.1,2.67-3.03,4.01-6.93,3.75-10.96-.53-8.33-7.87-14.64-16.06-14.17-1.72.11-3.39.5-4.97,1.17-.82.34-1.76-.04-2.11-.85-.34-.82.04-1.76.85-2.11,1.91-.82,3.94-1.29,6.03-1.42,10.18-.67,18.83,7.07,19.47,17.17.64,10.1-7.07,18.84-17.17,19.47-.39.03-.77.04-1.15.04Z" fill="#1b1b1b" stroke-width="0"/><path d="m579.64,322.89c-.98-.34-12.28-9.06-12.28-9.06.02-2.56,12.51-11.8,12.51-11.8.72-.52,1.72-.38,2.25.34.53.71.37,1.72-.34,2.25l-10.78,7.98,9.62,7.43c.71.54.84,1.55.29,2.25-.31.41-.79.63-1.27.63Z" fill="#1b1b1b" stroke-width="0"/><path d="m690.74,696.57c-20.23,0-42.11-10.06-56.53-45.39-.34-.83.06-1.76.88-2.1.83-.33,1.76.07,2.1.88,14.88,36.47,39.38,50.09,72.82,40.5,56.28-16.15,40.8-87.56,35.71-111.02-7.43-34.28-27.56-119.2-27.76-120.05-.21-.86.33-1.73,1.2-1.93.86-.19,1.72.33,1.93,1.2.2.85,20.33,85.8,27.78,120.11,5.25,24.19,21.21,97.81-37.96,114.79-6.26,1.8-13.12,3.02-20.16,3.02Z" fill="#1b1b1b" stroke-width="0"/><path d="m524.98,373.48h-6.43c-8.07,0-19.63-1.66-28.85-9.57-7.08-6.06-11.75-15.8-14.31-29.77-1.69-9.21-2.06-38.41-1.91-47.96,0-.88.73-1.58,1.61-1.58.91.01,1.62.74,1.61,1.63-.15,10.27.29,38.76,1.86,47.33,2.42,13.21,6.75,22.34,13.24,27.9,8.47,7.27,19.23,8.8,26.76,8.8h6.43c7.53,0,18.29-1.53,26.76-8.8,6.49-5.56,10.82-14.69,13.24-27.9,1.69-9.25,1.74-32.27,1.61-40.35-.01-.89.69-1.62,1.58-1.63,1.07,0,1.62.69,1.63,1.58.12,8.18.07,31.47-1.66,40.98-2.56,13.97-7.23,23.7-14.31,29.77-9.22,7.91-20.78,9.57-28.85,9.57Z" fill="#1b1b1b" stroke-width="0"/><path d="m489.7,368.61c-.9,0-1.61-.73-1.61-1.62l.05-5.21c0-.88.72-1.59,1.61-1.59.9,0,1.61.74,1.61,1.62l-.05,5.21c0,.88-.73,1.59-1.61,1.59Z" fill="#1b1b1b" stroke-width="0"/><path d="m553.94,368c-.94-.03-1.64-.77-1.61-1.66l.16-4.6c.03-.88.64-1.64,1.66-1.55.89.04,1.58.78,1.55,1.67l-.16,4.6c-.03.86-.74,1.54-1.61,1.54Z" fill="#1b1b1b" stroke-width="0"/><path d="m574.91,297.67c-1.13-.15-1.72-.98-1.59-1.85,3.57-22.83.18-36.91-3.61-47.67-7.93-22.57-41.06-27.5-62.08-23.84-15.91,2.8-24.74,15.64-24.83,15.76-3.98,1.31-6.56,2.56-8.66,4.41-.67.59-1.69.52-2.27-.15-.59-.67-.52-1.68.15-2.27,2.37-2.09,5.22-3.54,8.49-4.33,1.94-2.63,11.03-13.87,26.56-16.6,22.1-3.88,57.11,1.59,65.67,25.94,3.92,11.14,7.42,25.69,3.75,49.23-.12.79-.81,1.36-1.59,1.36Z" fill="#1b1b1b" stroke-width="0"/><path d="m468.5,297.64c-1.71-1.74-5.47-15.36-5.35-29.49,0-.89.73-1.6,1.61-1.6.9,0,1.61.74,1.61,1.62-.11,13.67,3.65,27.3,3.69,27.43.24.86-.26,1.74-1.12,1.98-.14.04-.29.06-.43.06Z" fill="#1b1b1b" stroke-width="0"/><path d="m385.21,754.11c-1.05-.1-1.69-.89-1.6-1.77l3.01-28.76c.09-.89.78-1.57,1.76-1.43.88.09,1.52.88,1.43,1.76l-3,28.76c-.09.83-.79,1.44-1.6,1.44Z" fill="#1b1b1b" stroke-width="0"/><path d="m404.88,572.97c-1.09-.13-1.71-.93-1.6-1.81l10.53-81.55c.11-.88.91-1.5,1.8-1.39.88.11,1.5.92,1.39,1.8l-10.53,81.56c-.11.81-.8,1.4-1.59,1.4Z" fill="#1b1b1b" stroke-width="0"/><path d="m645.84,754.11c-.82,0-1.52-.63-1.6-1.46-10.95-116.13-19.25-185.25-24.29-222.79-.12-.88.5-1.69,1.38-1.81.95-.11,1.69.51,1.81,1.38,5.03,37.57,13.34,106.73,24.3,222.92.08.88-.56,1.67-1.45,1.75-.05,0-.1,0-.15,0Z" fill="#1b1b1b" stroke-width="0"/><path d="m488.03,292.46c-1.39-.4-1.81-1.32-1.51-2.15,2.88-7.93,13.88-10.23,20.41-8.76.86.19,1.41,1.05,1.22,1.92-.19.86-.99,1.43-1.92,1.22-5.37-1.19-14.55.82-16.69,6.72-.23.65-.85,1.05-1.51,1.05Z" fill="#1b1b1b" stroke-width="0"/><path d="m552.67,292.46c-3.66-6.96-12.84-8.97-18.2-7.78-.91.18-1.73-.36-1.92-1.22-.19-.86.35-1.72,1.21-1.92,6.54-1.47,17.54.83,20.41,8.76.3.83-.13,1.76-.96,2.06-.18.07-.37.1-.55.1Z" fill="#1b1b1b" stroke-width="0"/><path d="m487.25,249.31c-1.31-.68-6.48-7.99-6.48-7.99-.51-.72-.34-1.72.38-2.24.72-.5,1.72-.34,2.24.38l5.18,7.31c.51.72.34,1.72-.39,2.24-.28.2-.6.29-.93.29Z" fill="#1b1b1b" stroke-width="0"/><path d="m662.15,435.5c-30.94-36.08-62.06-42.89-85.86-44.86-.88-.07-1.54-.85-1.46-1.74.08-.88.79-1.55,1.73-1.47,24.42,2.03,56.35,9.01,86.82,45.43.57.68.48,1.69-.2,2.27-.3.25-.67.37-1.03.37Z" fill="#1b1b1b" stroke-width="0"/><path d="m121.55,479.01h-42.75c-3.26,0-5.74-1.19-6.97-3.34-1.24-2.15-1.01-4.89.63-7.7l21.28-36.45c3.28-5.61,9.57-5.62,12.85,0l21.3,36.45c1.65,2.81,1.87,5.55.64,7.7-1.24,2.15-3.71,3.34-6.97,3.34Zm-21.39-48.63c-1.31,0-2.61.98-3.65,2.76l-21.28,36.45c-1.02,1.75-1.25,3.38-.62,4.48.63,1.1,2.16,1.73,4.18,1.73h42.75c2.03,0,3.55-.63,4.18-1.73.63-1.09.4-2.73-.62-4.48l-21.3-36.45c-1.04-1.78-2.33-2.76-3.65-2.76Z" fill="#1b1b1b" stroke-width="0"/><path d="m614,513.83c-4.86,0-8.89-.86-11.84-2.58-2.93-1.7-4.81-4.2-5.59-7.4-2.63-10.76,10.76-18.16,11.32-18.47.78-.41,1.76-.14,2.18.64.42.78.13,1.76-.65,2.18-.12.07-11.78,6.53-9.74,14.88.58,2.36,1.91,4.12,4.09,5.39,5.31,3.09,15.05,2.87,27.42-.64,17.05-4.84,48.07-20.33,48.38-20.49.79-.38,1.76-.08,2.16.71.4.8.07,1.76-.71,2.16-1.28.64-31.61,15.79-48.94,20.71-6.8,1.93-12.92,2.89-18.08,2.89Z" fill="#1b1b1b" stroke-width="0"/><path d="m626.32,529.79c-5.53,0-9.96-1-12.64-3.25-9.3-7.82-4.46-15.3-4.42-15.37.49-.75,1.5-.94,2.23-.45.73.49.94,1.49.45,2.22-.18.28-3.17,5.26,3.81,11.14,7.38,6.21,36.24.42,60.57-12.13,13.14-6.78,23.98-15.09,32.21-24.71,7.92-9.27,11.01-22.18,8.69-36.35-2.08-12.71-7.64-24.65-16.08-34.54-.78-.92-1.57-1.8-2.36-2.66-3.96-4.39-7.7-8.55-8.22-15.12-.22-2.81-.31-5.95-.4-9.19-.35-12.49-.74-26.63-9.29-28.74-5.55-1.37-10.32-.26-13.75,3.25-6.24,6.35-7.32,19.33-2.98,35.61,1.5,5.61,3.14,11.17,4.79,16.73l1.83,6.2c.43,1.47,1.01,3.48.23,5.44-.53,1.33-1.55,2.26-2.54,3.09-10.6,8.89-22.74,15.74-36.09,20.37-17.99,6.23-28.59,13.05-31.53,20.23-1.27,3.11-1.08,6.23.57,9.56.76,1.53,2.39,2.69,4.87,3.46,10.85,3.42,38.1-1.64,67.21-17.67.78-.42,1.76-.15,2.19.64.43.78.14,1.76-.63,2.18-26.68,14.68-55.99,22.21-69.72,17.92-3.34-1.05-5.62-2.77-6.79-5.1-2.06-4.15-2.29-8.25-.67-12.21,3.35-8.2,14.29-15.41,33.45-22.06,12.98-4.5,24.79-11.17,35.09-19.8.71-.59,1.36-1.18,1.62-1.82.34-.86.05-2.03-.34-3.35l-1.83-6.19c-1.65-5.59-3.31-11.18-4.81-16.81-4.65-17.4-3.26-31.51,3.79-38.7,4.21-4.29,10.18-5.74,16.81-4.11,10.93,2.7,11.36,18.14,11.74,31.77.09,3.19.17,6.27.4,9.02.44,5.49,3.67,9.08,7.4,13.23.8.89,1.61,1.79,2.42,2.73,8.81,10.34,14.62,22.82,16.8,36.11,2.48,15.12-.87,28.95-9.42,38.96-8.5,9.94-19.65,18.51-33.17,25.48-16.74,8.63-37.56,14.97-51.49,14.97Z" fill="#1b1b1b" stroke-width="0"/><path d="m476.42,338.4h-51.87c-.89,0-1.61-.72-1.61-1.61s.71-1.61,1.61-1.61h51.87c.89,0,1.61.71,1.61,1.61s-.72,1.61-1.61,1.61Z" fill="#1b1b1b" stroke-width="0"/><path d="m565.02,221.28c-.89,0-1.61-.72-1.61-1.61V69.74c0-23.67-19.26-42.94-42.93-42.94H160.54c-23.67,0-42.94,19.27-42.94,42.94v69.86c0,.89-.71,1.61-1.61,1.61s-1.61-.72-1.61-1.61v-69.86c0-25.45,20.7-46.15,46.15-46.15h359.94c25.44,0,46.14,20.7,46.14,46.15v149.93c0,.89-.71,1.61-1.61,1.61Z" fill="#1b1b1b" stroke-width="0"/><path d="m239.98,338.4h-79.44c-25.45,0-46.15-20.7-46.15-46.15,0-.89.72-1.61,1.61-1.61s1.61.72,1.61,1.61c0,23.68,19.26,42.94,42.94,42.94h79.44c.89,0,1.61.71,1.61,1.61s-.71,1.61-1.61,1.61Z" fill="#1b1b1b" stroke-width="0"/><path d="m934.23,637.41h-179.77c-.89,0-1.61-.72-1.61-1.61s.71-1.61,1.61-1.61h179.77c20.38,0,36.97-16.59,36.97-36.97v-134.61c0-.89.71-1.61,1.61-1.61s1.61.71,1.61,1.61v134.61c0,22.16-18.03,40.18-40.18,40.18Z" fill="#1b1b1b" stroke-width="0"/><path d="m972.8,397.62c-.89,0-1.61-.71-1.61-1.61v-14.22c0-20.38-16.59-36.97-36.97-36.97h-288.2c-20.38,0-36.97,16.58-36.97,36.97v13.24c0,.89-.71,1.61-1.61,1.61s-1.61-.71-1.61-1.61v-13.24c0-22.16,18.02-40.18,40.18-40.18h288.2c22.16,0,40.18,18.02,40.18,40.18v14.22c0,.89-.72,1.61-1.61,1.61Z" fill="#1b1b1b" stroke-width="0"/><path d="m513.17,725.99H102.66c-22.16,0-40.18-18.03-40.18-40.18v-73.94c0-22.16,18.03-40.18,40.18-40.18h127.18c.89,0,1.61.72,1.61,1.61s-.72,1.61-1.61,1.61h-127.18c-20.38,0-36.97,16.59-36.97,36.97v73.94c0,20.38,16.59,36.97,36.97,36.97h410.51c20.38,0,36.97-16.58,36.97-36.97v-73.94c0-20.38-16.59-36.97-36.97-36.97h-164.88c-.89,0-1.61-.71-1.61-1.61s.72-1.61,1.61-1.61h164.88c22.16,0,40.18,18.03,40.18,40.18v73.94c0,22.16-18.03,40.18-40.18,40.18Z" fill="#1b1b1b" stroke-width="0"/><path d="m333.3,263.3c-1.88-2.09-10.27-26.28,5.75-38.81,8.89-6.96,19.7-6.65,31.16-6.35,9.08.25,19.36.53,30.15-2.74,8.25-2.5,17.02-6.39,25.5-10.14,17.5-7.77,32.63-14.47,41.08-8.69,3.93,2.68,5.25,7.8,3.53,13.68-4.33,14.83-25.78,31.33-62.67,32.49-.87,0-1.63-.67-1.65-1.56-.03-.88.67-1.63,1.55-1.65,40.62-1.28,56.8-20.3,59.68-30.18,1.33-4.55.5-8.24-2.26-10.13-6.96-4.75-22.02,1.91-37.97,8.97-8.57,3.8-17.43,7.73-25.87,10.29-11.28,3.41-21.86,3.12-31.17,2.87-11.32-.3-21.1-.58-29.09,5.67-14.18,11.1-6.3,33.91-6.22,34.14.3.83-.14,1.75-.98,2.05-.17.06-.35.09-.53.09Z" fill="#1b1b1b" stroke-width="0"/><path d="m419.37,257.31c-3.48,0-7.02-.13-10.64-.41-.88-.07-1.55-.84-1.48-1.72.06-.88.71-1.58,1.72-1.48,32.52,2.47,61.04-7.08,66.38-22.21,1.56-4.42,1.5-7.94-.17-10.45-2.66-4-8.58-4.39-8.64-4.39-.88-.05-1.56-.81-1.51-1.7.05-.88.83-1.52,1.7-1.51.31.02,7.6.5,11.14,5.82,2.26,3.4,2.44,7.88.52,13.31-5.29,14.97-29.32,24.75-59.02,24.75Z" fill="#1b1b1b" stroke-width="0"/><path d="m370.06,278.76c-.85,0-1.56-.67-1.61-1.52-.05-.89.63-1.64,1.52-1.69,28.43-1.51,31.9-29.28,31.93-29.55.1-.88.87-1.43,1.78-1.42.88.1,1.52.9,1.42,1.78-.03.31-3.83,30.75-34.95,32.41h-.08Z" fill="#1b1b1b" stroke-width="0"/><path d="m413.51,344.83c-1.26,0-2.52-.21-3.77-.63-9.59-3.23-15.63-18.23-17.79-24.54-1.75-5.13-9.19-7.93-13.64-9.6-4.45-1.68-9.19-2.72-13.76-3.72-2.79-.61-5.59-1.23-8.36-1.98-8.97-2.44-15.59-7.9-19.67-16.22-3.72-7.58-5.4-16.76-4.83-26.55.05-.89.81-1.48,1.7-1.51.88.05,1.56.81,1.51,1.7-.53,9.23,1.02,17.86,4.5,24.94,3.71,7.56,9.47,12.31,17.63,14.53,2.72.74,5.46,1.34,8.2,1.94,4.69,1.03,9.55,2.1,14.21,3.85,4.97,1.88,13.31,5.01,15.55,11.57,1.56,4.57,7.32,19.69,15.77,22.54,2.84.94,5.68.42,8.71-1.61,4.96-3.34,6.25-8.48,6.45-12.21.51-9.17-4.74-20.57-12.47-27.11-4.35-3.68-9.53-7.27-13.88-9.61-.88-.47-2.51-1.35-2.97-3.1-.3-1.15.03-2.21.3-2.92,1.18-3.01,3.59-5.21,6.79-6.19,2.19-.67,4.43-.79,6.6-.9,11.76-.62,22.59-2.05,32.48-4.27,8.06-1.81,17.35-4.33,25.13-9.32,2.64-1.69,6.28-4.36,7.34-7.9,2.64-8.84-5.92-12.51-6.28-12.66-.82-.34-1.21-1.28-.87-2.1.34-.81,1.29-1.2,2.1-.86,4.03,1.67,10.9,7.28,8.13,16.55-1.37,4.56-5.61,7.71-8.68,9.68-8.21,5.26-17.83,7.88-26.17,9.75-10.07,2.25-21.07,3.71-32.72,4.33-2.36.12-4.31.22-6.12.78-2.28.7-3.92,2.18-4.74,4.29,5.72,4.46,11.12,8.2,15.63,12.01,8.44,7.14,14.16,19.65,13.6,29.74-.35,6.39-3.08,11.48-7.87,14.7-2.59,1.74-5.19,2.61-7.77,2.61Z" fill="#1b1b1b" stroke-width="0"/><path d="m123.41,501.43h-46.48c-16.31,0-29.59-13.28-29.59-29.59v-34.45c0-16.31,13.28-29.59,29.59-29.59h46.48c16.31,0,29.59,13.27,29.59,29.59v34.45c0,16.31-13.28,29.59-29.59,29.59Zm-46.48-90.41c-14.55,0-26.38,11.83-26.38,26.37v34.45c0,14.55,11.83,26.37,26.38,26.37h46.48c14.55,0,26.37-11.83,26.37-26.37v-34.45c0-14.55-11.83-26.37-26.37-26.37h-46.48Z" fill="#1b1b1b" stroke-width="0"/><path d="m821.69,198.18h-46.69c-7.53,0-13.64-6.12-13.64-13.64v-46.69c0-7.52,6.11-13.64,13.64-13.64h46.69c7.52,0,13.64,6.12,13.64,13.64v46.69c0,7.52-6.12,13.64-13.64,13.64Zm-46.69-70.76c-5.75,0-10.43,4.68-10.43,10.43v46.69c0,5.75,4.68,10.43,10.43,10.43h46.69c5.75,0,10.43-4.68,10.43-10.43v-46.69c0-5.75-4.68-10.43-10.43-10.43h-46.69Z" fill="#1b1b1b" stroke-width="0"/><path d="m791.18,125.63c-10.16-25.9-24.85-43.06-45.19-52.09-28.42-12.62-67.18-8.7-115.21,11.66-.8.35-1.76-.04-2.1-.86-.34-.82.04-1.76.86-2.11,48.87-20.71,88.49-24.62,117.77-11.63,20.89,9.27,36.58,27.56,45.4,52.89.3.84-.15,1.76-.99,2.05-.18.06-.35.09-.53.09Z" fill="#1b1b1b" stroke-width="0"/><path d="m798.35,179.07c-9.89,0-17.94-8.04-17.94-17.93s8.05-17.94,17.94-17.94,17.93,8.05,17.93,17.94-8.05,17.93-17.93,17.93Zm0-32.66c-8.12,0-14.73,6.6-14.73,14.72s6.6,14.72,14.73,14.72,14.72-6.6,14.72-14.72-6.6-14.72-14.72-14.72Z" fill="#1b1b1b" stroke-width="0"/><path d="m887.7,259.26c-14.28,0-27.08-2.5-38.34-7.5-20.9-9.29-36.6-27.61-45.41-52.99-.29-.84.15-1.76.99-2.05.84-.28,1.76.15,2.05.99,8.63,24.87,23.32,42.07,43.67,51.11,28.43,12.63,67.2,8.72,115.24-11.64.8-.35,1.76.04,2.1.86.34.82-.04,1.76-.86,2.11-30.07,12.73-56.64,19.12-79.45,19.12Z" fill="#1b1b1b" stroke-width="0"/><path d="m982.86,249.94c-9.89,0-17.93-8.05-17.93-17.94s8.05-17.93,17.93-17.93,17.93,8.04,17.93,17.93-8.04,17.94-17.93,17.94Zm0-32.66c-8.12,0-14.72,6.6-14.72,14.72s6.6,14.73,14.72,14.73,14.72-6.6,14.72-14.73-6.6-14.72-14.72-14.72Z" fill="#1b1b1b" stroke-width="0"/><path d="m451.65,630.1h-236.04c-.89,0-1.61-.72-1.61-1.61s.72-1.61,1.61-1.61h236.04c.89,0,1.61.71,1.61,1.61s-.72,1.61-1.61,1.61Z" fill="#1b1b1b" stroke-width="0"/><path d="m451.65,669.89h-236.04c-.89,0-1.61-.71-1.61-1.61s.72-1.61,1.61-1.61h236.04c.89,0,1.61.72,1.61,1.61s-.72,1.61-1.61,1.61Z" fill="#1b1b1b" stroke-width="0"/><path d="m133.52,676.34c-15.17,0-27.51-12.34-27.51-27.51s12.34-27.51,27.51-27.51,27.51,12.34,27.51,27.51-12.34,27.51-27.51,27.51Zm0-51.8c-13.39,0-24.3,10.9-24.3,24.29s10.9,24.3,24.3,24.3,24.3-10.9,24.3-24.3-10.9-24.29-24.3-24.29Z" fill="#1b1b1b" stroke-width="0"/><path d="m540.3,101.35H140.38c-.89,0-1.61-.71-1.61-1.61s.72-1.61,1.61-1.61h399.92c.89,0,1.61.72,1.61,1.61s-.71,1.61-1.61,1.61Z" fill="#1b1b1b" stroke-width="0"/><path d="m514.88,80.61c-9.61,0-17.44-7.82-17.44-17.43s7.82-17.43,17.44-17.43,17.43,7.82,17.43,17.43-7.82,17.43-17.43,17.43Zm0-31.65c-7.84,0-14.22,6.37-14.22,14.21s6.38,14.21,14.22,14.21,14.21-6.38,14.21-14.21-6.37-14.21-14.21-14.21Z" fill="#1b1b1b" stroke-width="0"/><path d="m477.25,63.18c0,8.74-7.09,15.82-15.82,15.82s-15.83-7.08-15.83-15.82,7.09-15.83,15.83-15.83,15.82,7.09,15.82,15.83Z" fill="#fff" stroke-width="0"/><path d="m461.43,80.61c-9.61,0-17.43-7.82-17.43-17.43s7.82-17.43,17.43-17.43,17.43,7.82,17.43,17.43-7.82,17.43-17.43,17.43Zm0-31.65c-7.84,0-14.22,6.37-14.22,14.21s6.38,14.21,14.22,14.21,14.21-6.38,14.21-14.21-6.38-14.21-14.21-14.21Z" fill="#1b1b1b" stroke-width="0"/><path d="m407.98,80.61c-9.61,0-17.44-7.82-17.44-17.43s7.82-17.43,17.44-17.43,17.43,7.82,17.43,17.43-7.82,17.43-17.43,17.43Zm0-31.65c-7.84,0-14.22,6.37-14.22,14.21s6.37,14.21,14.22,14.21,14.22-6.38,14.22-14.21-6.38-14.21-14.22-14.21Z" fill="#1b1b1b" stroke-width="0"/><path d="m362.98,433.02c-1.83-1.5-1.61-2.49-.86-2.96.48-.3,48.24-30.12,103.57-40.76.86-.18,1.72.4,1.88,1.27.17.86-.4,1.71-1.27,1.88-54.75,10.54-102,40.04-102.47,40.33-.26.17-.56.25-.86.25Z" fill="#1b1b1b" stroke-width="0"/><path d="m594.57,477.78h-16.74c-.89,0-1.61-.71-1.61-1.61s.72-1.61,1.61-1.61h16.74c.89,0,1.61.72,1.61,1.61s-.71,1.61-1.61,1.61Zm-33.47,0h-16.73c-.89,0-1.61-.71-1.61-1.61s.72-1.61,1.61-1.61h16.73c.89,0,1.61.72,1.61,1.61s-.72,1.61-1.61,1.61Zm-33.47,0h-16.73c-.89,0-1.61-.71-1.61-1.61s.71-1.61,1.61-1.61h16.73c.89,0,1.61.72,1.61,1.61s-.72,1.61-1.61,1.61Zm-33.47,0h-16.74c-.89,0-1.61-.71-1.61-1.61s.72-1.61,1.61-1.61h16.74c.89,0,1.61.72,1.61,1.61s-.72,1.61-1.61,1.61Zm-33.47,0h-16.74c-.89,0-1.61-.71-1.61-1.61s.72-1.61,1.61-1.61h16.74c.89,0,1.61.72,1.61,1.61s-.71,1.61-1.61,1.61Zm-33.47,0h-16.73c-.89,0-1.61-.71-1.61-1.61s.71-1.61,1.61-1.61h16.73c.89,0,1.61.72,1.61,1.61s-.72,1.61-1.61,1.61Zm-33.47,0h-16.74c-.89,0-1.61-.71-1.61-1.61s.72-1.61,1.61-1.61h16.74c.89,0,1.61.72,1.61,1.61s-.72,1.61-1.61,1.61Zm-28.17-5.3c-.89,0-1.61-.72-1.61-1.61v-16.74c0-.89.71-1.61,1.61-1.61s1.61.71,1.61,1.61v16.74c0,.89-.72,1.61-1.61,1.61Zm0-33.48c-.89,0-1.61-.72-1.61-1.61v-16.73c0-.89.71-1.61,1.61-1.61s1.61.72,1.61,1.61v16.73c0,.89-.72,1.61-1.61,1.61Zm0-33.47c-.89,0-1.61-.71-1.61-1.61v-16.74c0-.89.71-1.61,1.61-1.61s1.61.72,1.61,1.61v16.74c0,.89-.72,1.61-1.61,1.61Zm0-33.47c-.89,0-1.61-.72-1.61-1.61v-16.73c0-.89.71-1.61,1.61-1.61s1.61.71,1.61,1.61v16.73c0,.89-.72,1.61-1.61,1.61Zm308.79-27.52c-.89,0-1.61-.72-1.61-1.61v-16.74c0-.89.72-1.61,1.61-1.61s1.61.71,1.61,1.61v16.74c0,.89-.71,1.61-1.61,1.61Zm-308.79-5.95c-.89,0-1.61-.72-1.61-1.61v-16.74c0-.89.71-1.61,1.61-1.61s1.61.71,1.61,1.61v16.74c0,.89-.72,1.61-1.61,1.61Zm308.79-27.53c-.89,0-1.61-.71-1.61-1.61v-16.73c0-.89.72-1.61,1.61-1.61s1.61.72,1.61,1.61v16.73c0,.89-.71,1.61-1.61,1.61Zm-308.79-5.95c-.89,0-1.61-.71-1.61-1.61v-16.74c0-.89.71-1.61,1.61-1.61s1.61.72,1.61,1.61v16.74c0,.89-.72,1.61-1.61,1.61Zm308.79-27.52c-.89,0-1.61-.71-1.61-1.61v-16.74c0-.89.72-1.61,1.61-1.61s1.61.72,1.61,1.61v16.74c0,.89-.71,1.61-1.61,1.61Zm-308.79-5.95c-.89,0-1.61-.72-1.61-1.61v-16.73c0-.89.71-1.61,1.61-1.61s1.61.72,1.61,1.61v16.73c0,.89-.72,1.61-1.61,1.61Zm308.79-27.52c-.89,0-1.61-.72-1.61-1.61v-5.97h-7.56c-.89,0-1.61-.72-1.61-1.61s.72-1.61,1.61-1.61h9.16c.89,0,1.61.71,1.61,1.61v7.57c0,.89-.71,1.61-1.61,1.61Zm-308.79-5.95c-.89,0-1.61-.72-1.61-1.61,0-2.51.71-3.23,1.61-3.23h15.11c.89,0,1.61.71,1.61,1.61s-.72,1.61-1.61,1.61l-13.51.02c0,.89-.72,1.61-1.61,1.61Zm282.89-1.62h-16.73c-.89,0-1.61-.72-1.61-1.61s.72-1.61,1.61-1.61h16.73c.89,0,1.61.71,1.61,1.61s-.72,1.61-1.61,1.61Zm-33.47,0h-16.74c-.89,0-1.61-.72-1.61-1.61s.71-1.61,1.61-1.61h16.74c.89,0,1.61.71,1.61,1.61s-.72,1.61-1.61,1.61Zm-33.47,0h-16.74c-.89,0-1.61-.72-1.61-1.61s.72-1.61,1.61-1.61h16.74c.89,0,1.61.71,1.61,1.61s-.72,1.61-1.61,1.61Zm-33.48,0h-16.73c-.89,0-1.61-.72-1.61-1.61s.72-1.61,1.61-1.61h16.73c.89,0,1.61.71,1.61,1.61s-.71,1.61-1.61,1.61Zm-33.47,0h-16.74c-.89,0-1.61-.72-1.61-1.61s.71-1.61,1.61-1.61h16.74c.89,0,1.61.71,1.61,1.61s-.72,1.61-1.61,1.61Zm-33.47,0h-16.74c-.89,0-1.61-.72-1.61-1.61s.71-1.61,1.61-1.61h16.74c.89,0,1.61.71,1.61,1.61s-.72,1.61-1.61,1.61Zm-33.48,0h-16.73c-.89,0-1.61-.72-1.61-1.61s.72-1.61,1.61-1.61h16.73c.89,0,1.61.71,1.61,1.61s-.71,1.61-1.61,1.61Zm-33.47,0h-16.74c-.89,0-1.61-.72-1.61-1.61s.72-1.61,1.61-1.61h16.74c.89,0,1.61.71,1.61,1.61s-.71,1.61-1.61,1.61Z" fill="#1b1b1b" stroke-width="0"/><path d="m568.2,294.8c-32.03-29.36-68.01-36.19-75.16-37.3-1.7,4.81-8.13,21.77-16.86,29.89-.66.6-1.67.56-2.27-.08-.6-.65-.57-1.67.08-2.27,9.41-8.75,16.37-29.61,16.43-29.81,2.12-1.05,43.72,3.93,78.87,36.79.64.61.68,1.62.07,2.28-.32.34-.75.51-1.17.51Z" fill="#1b1b1b" stroke-width="0"/><path d="m520.42,331.99c-5.64,0-11.48-3.19-13.87-6.35-1.59-2.12-1.47-3.83-1.09-4.91.65-1.82,1.88-3.85,3.29-6.19,3.61-5.99,8.56-14.19,9.68-27.26.07-.87.7-1.56,1.74-1.46.88.07,1.54.86,1.47,1.74-1.18,13.82-6.56,22.74-10.13,28.65-1.33,2.21-2.48,4.1-3.02,5.62,2.61,4.52,7.97,7.18,12.66,6.94.97-.15,1.65.61,1.71,1.5.06.89-.61,1.65-1.5,1.71-.32.02-.63.04-.94.04Z" fill="#1b1b1b" stroke-width="0"/><path d="m521.64,555.79c-.89,0-1.61-.71-1.61-1.61v-117.55c0-.89.72-1.61,1.61-1.61s1.61.71,1.61,1.61v117.55c0,.89-.71,1.61-1.61,1.61Z" fill="#1b1b1b" stroke-width="0"/><path d="m341.24,295.18c-19.3-14.12-27.86-29.3-22.78-38.99,2.38-4.54,6.06-6.88,12.32-7.86.87-.16,1.7.47,1.84,1.34.13.88-.47,1.7-1.34,1.84-5.21.81-8.1,2.6-9.98,6.18-4.24,8.09,4.16,22.01,20.91,34.61.71.53.85,1.54.32,2.25-.31.42-.79.64-1.28.64Z" fill="#1b1b1b" stroke-width="0"/><path d="m391.22,317.26c-10.51-1.39-21.58-5.24-34.06-11.79-.77-.4-1.54-.81-2.29-1.23-.78-.43-1.06-1.4-.64-2.18.43-.78,1.41-1.05,2.18-.63.74.41,1.48.81,2.23,1.2,12.15,6.37,22.88,10.11,32.79,11.44.88.11,1.5.93,1.38,1.81-.11.8-.8,1.39-1.6,1.39Z" fill="#1b1b1b" stroke-width="0"/><path d="m419.56,305.95c-1.06-.1-1.69-.9-1.6-1.78.71-6.44-3.95-14.77-13.14-23.47-.64-.61-.67-1.63-.06-2.27.61-.65,1.63-.67,2.27-.06,9.93,9.41,14.95,18.7,14.13,26.16-.09.82-.79,1.43-1.6,1.43Z" fill="#1b1b1b" stroke-width="0"/><path d="m536.84,344.32c-1.92-2.8-4.75-16.39,2.68-18.27,3.23-.8,5.19.27,6.27,1.33,2.74,2.68,2.72,7.89,1.87,11.53-.21.86-1.02,1.39-1.93,1.2-.86-.2-1.4-1.06-1.2-1.93.71-3.05.6-6.96-.99-8.51-.26-.26-1.07-1.07-3.23-.5-3.47.87-2.78,9.26-1.89,13.19.19.86-.35,1.72-1.22,1.92-.12.02-.24.04-.35.04Z" fill="#1b1b1b" stroke-width="0"/><path d="m235.29,272.28c-.89,0-1.61-.72-1.61-1.61V119.66c0-.89.72-1.61,1.61-1.61s1.61.71,1.61,1.61v151.01c0,.89-.71,1.61-1.61,1.61Z" fill="#1b1b1b" stroke-width="0"/><path d="m549.75,310.01c-.38-.05-13.09-3.18-13.09-3.18-.53-2.88,10.82-10.78,10.82-10.78.74-.49,1.73-.32,2.24.4.5.73.33,1.73-.41,2.24l-8.43,5.87,9.25,2.28c.86.21,1.39,1.08,1.17,1.95-.18.73-.83,1.22-1.56,1.22Z" fill="#1b1b1b" stroke-width="0"/></svg>