<?xml version="1.0" encoding="UTF-8"?><svg id="a" xmlns="http://www.w3.org/2000/svg" width="1000.79" height="861.33" viewBox="0 0 1000.79 861.33"><path d="m339.65,288.51V100.1h315.38v748.51h-209.91V288.51h-105.47Z" fill="#5983c2" stroke-width="0"/><path d="m302.64,438.48s3.83,29.76,3.74,38.86c-.11,9.11,3.83,16.1-9.51,19.25-13.34,3.16-37.19,5.73-45.92,4.19-8.73-1.55-27.63-8.56-29.97-21.43-2.34-12.87-3.08-19.5-3.08-19.5l-11.41-.29s-27.59-34.44-31.55-40.57c-3.96-6.13-6.84-7.54-5.86-12.19.97-4.64,5.04-23.26,7.72-29.78,2.68-6.52,4.07-13.15,9.55-15.72,5.47-2.57,33.99-10.71,39.81-13.62,5.82-2.9,8.28-11.84,11.71-16.27,3.43-4.43,11.15-9.48,19.63-10.1,8.47-.62,27.16-.38,39.23,9.1,12.07,9.48,20.1,24.62,21.85,37.65,1.74,13.04-9.88,24.48-9.88,24.48l-4.65,1.57-1.4,44.38Z" fill="#1b1b1b" stroke-width="0"/><path d="m765.89,468.16s4.05,8.62,30.22,3.27l1.61,6.92,1.19,6.54-8.09,9.37-7.4,13.21s-9.7,1.58-15.47-5.5c-6.38-7.83-2.07-33.82-2.07-33.82Z" fill="#fff" stroke-width="0"/><path d="m296.73,432.83s2.82,12.04-8.75,11.67c0,0-3.59-3.65-9.32-4.06-5.74-.42-10.4-.55-15.09,1.33-4.69,1.87-16.49,9.01-22.37,15.2-1.04.93-9.67-6.29-9.67-6.29,0,0-3.2-11.95-3.18-22.57.02-10.63,3.75-33.15,4.69-36.03,1.24-3.84,1.01-5.74,4.79-6.47,3.77-.73,39.15-4.22,45.06-3.78,5.9.45,20.95.21,20.95.21v10.94s16.98-2.3,15.7,23.35c-1.41,28.17-18.14,21.91-18.14,21.91l-3.55-.81-1.1-4.59Z" fill="#fff" stroke-width="0"/><path d="m216.4,440.03s5.73-9.75,5.62-19.96c-.11-10.21-3.82-17.16-10.26-17.64-6.45-.49-22.29.57-22.85,17.01-.55,16.43,20.85,21.59,20.85,21.59,0,0,1.2,14.2-3.44,18.27l-6.28,30.11s33.02,30.88,50.04,27.77c17.03-3.12,17.15-17.06,17.15-17.06,0,0-16.29,1.58-23.55-1.29-7.26-2.86-18.63-9.93-22.11-17.82-3.47-7.88-5.18-40.99-5.18-40.99Z" fill="#fff" stroke-width="0"/><path d="m527.92,771.67l10.17,5.69s17.66-8.21,25.9-10.35c8.09-2.09,13.7,1.36,16.36,3.2,2.67,1.83,5.37,2.15,5.37,2.15,0,0,7.95-5.12,13.9-6.17,5.95-1.04,18.39,4.96,18.39,4.96l5.98-2.3s18.16,46.2,21.89,50.61l-22.74,11.6s-4.64,13.44-19.16,19.41c-14.52,5.97-23.29,6.23-23.29,6.23,0,0-16.18,3.9-20.72,1.72-4.54-2.18-18.06-13.2-21.88-18.9-3.83-5.7-6.5-12.97-6.5-12.97l-5.62-5.8-15.7-6.79,17.65-42.27Z" fill="#fff" stroke-width="0"/><path d="m826.31,496.07s-10.28,3.59-16.3,3.15c-6.02-.43-7.28-9.23-7.28-9.23l-2.67-17.3s-17.15,2.6-25.72,0c-8.57-2.6-15.47-8.79-17.41-25.6-1.95-16.8-1.01-58.83-1.01-58.83l67.7,3.05s-1.58-13.1,2.96-17.59c0,0,1.87,2.64.35,16.27-1.52,13.65-2.63,31.25-3.9,34.58-1.27,3.33-6.66,22.99-6.03,36.33.64,13.32,2.78,27.37,9.31,35.17Z" fill="#fff" stroke-width="0"/><path d="m303.65,387.31s6.87-2.74,4.58-18.9c-2.3-16.17-8.64-30.26-20.17-36.78-11.53-6.51-22.44-13.23-39.93-8.06-13.67,4.05-11.91,15.16-17.13,20.34-5.22,5.17-17.11,10.63-34.25,13.2-17.16,2.58-18.03,10.09-22.61,26.52-4.57,16.43-5.2,24.29-5.52,27.22-.31,2.93,37.88,48.71,37.88,48.71,0,0,5.64-7.39,3-17.91,0,0-19.34-.56-19.42-20.65-.03-8.82,4.88-17.98,14.04-18.46,10.38-.56,16.44,4.83,17.45,13.09,1.02,8.26-.42,17.9-5.42,25.51,0,0,4.92,39.39,5.16,40.57.23,1.2,15.31,18.1,27.65,18.81,12.33.71,44.19,1.22,45.67-5.67,0,0,4-9.34,3.96-27.64-.03-19.51-1.55-28.7-1.55-28.7,0,0-1.32,6.78-8.96,6.28-.46-.03-.96-2.8-8.09-4.26-5.93-1.21-3.11-1.26-13.81.7-10.7,1.97-25.92,16.95-25.92,16.95,0,0-17.6-5.66-18.82-8.49-2.03-4.67-.13-20.39-.13-20.39,0,0,.33-26.38,1.11-33.06,1.48-12.62,15.13-11.06,15.13-11.06l55.48-3.75,10.9.88-.28,4.98Z" fill="#1b1b1b" stroke-width="0"/><path d="m911.85,529.7s-10.02-10.46-16.51-10.43c-6.49.03-23.13,7.44-37.74,0-14.62-7.43-32.23-15.6-37.05-39.05-4.82-23.46,1.05-43.27,2.67-49.77,1.61-6.5,6.56-59.36,6.56-59.36,0,0-7.52,12.58-4.76,21.21l-73.76-2.1s-5.28-18.73.39-30.49c3.01-6.25,14.62-19.03,48.09-23.58,33.47-4.55,74.36,21.29,75.71,24.5,1.36,3.21-1.05,27.96-1.05,44.44s.58,47.19,22.65,55.16c0,0,27.26,11.45,27.2,35.24-.06,23.79-12.42,34.25-12.42,34.25Z" fill="#fff" stroke-width="0"/><path d="m909.05,527.49s-9.65-9.26-16.15-9.24c-6.49.03-18.45,6.01-33.07-1.43-14.61-7.44-22.65-13.98-27.47-37.44-4.83-23.46,1.05-43.27,2.66-49.77,1.25-5.06-.77-41.52-1.73-57.42-.17-2.8-3.85-3.75-5.32-1.37-2.85,4.6-5.64,11.68-4.29,20.63l-64.16-1.39s2.04-26.76,3.94-30.25c1.9-3.49,14.28-23.63,48.05-24.01,32.02-.35,61.95,21.38,63.31,24.6,1.35,3.21-1.28,34.68-1.28,51.17s5.57,44.94,22.19,47.79c0,0,28.47,12.52,27.15,36.27-1.07,19.28-13.83,31.84-13.83,31.84Z" fill="#1b1b1b" stroke-width="0"/><path d="m769.79,470.22s4.1,6.36,30.27,1.01l1.62,6.93,1.19,6.54-9.97,7.4-8.23,11.47s-6.56,3.98-12.32-3.1c-6.37-7.83-2.55-30.26-2.55-30.26Z" fill="#1b1b1b" stroke-width="0"/><path d="m218.32,137.95c-2.43,0-4.4-1.97-4.4-4.4s1.97-4.4,4.4-4.4,4.4,1.97,4.4,4.4-1.97,4.4-4.4,4.4Z" fill="#3b3a3a" stroke-width="0"/><path d="m184.14,138.18c-2.56,0-4.63-2.07-4.63-4.62s2.07-4.63,4.63-4.63,4.63,2.08,4.63,4.63-2.07,4.62-4.63,4.62Z" fill="#3b3a3a" stroke-width="0"/><path d="m149.94,137.84c-2.37,0-4.29-1.92-4.29-4.28s1.92-4.29,4.29-4.29,4.28,1.92,4.28,4.29-1.92,4.28-4.28,4.28Z" fill="#3b3a3a" stroke-width="0"/><path d="m218.32,172.38c-2.56,0-4.62-2.08-4.62-4.63s2.07-4.62,4.62-4.62,4.63,2.07,4.63,4.62-2.08,4.63-4.63,4.63Z" fill="#3b3a3a" stroke-width="0"/><path d="m184.14,172.6c-2.68,0-4.86-2.18-4.86-4.86s2.18-4.85,4.86-4.85,4.85,2.17,4.85,4.85-2.17,4.86-4.85,4.86Z" fill="#3b3a3a" stroke-width="0"/><path d="m149.94,172.26c-2.49,0-4.51-2.02-4.51-4.52s2.02-4.51,4.51-4.51,4.51,2.02,4.51,4.51-2.02,4.52-4.51,4.52Z" fill="#3b3a3a" stroke-width="0"/><path d="m218.32,206.22c-2.37,0-4.29-1.92-4.29-4.28s1.92-4.28,4.29-4.28,4.29,1.91,4.29,4.28-1.92,4.28-4.29,4.28Z" fill="#3b3a3a" stroke-width="0"/><path d="m184.14,206.46c-2.49,0-4.51-2.03-4.51-4.52s2.02-4.52,4.51-4.52,4.51,2.02,4.51,4.52-2.02,4.52-4.51,4.52Z" fill="#3b3a3a" stroke-width="0"/><path d="m149.94,206.15c-2.33,0-4.21-1.89-4.21-4.21s1.89-4.21,4.21-4.21,4.21,1.87,4.21,4.21-1.89,4.21-4.21,4.21Z" fill="#3b3a3a" stroke-width="0"/><path d="m791.56,455.19c-6.67,0-12.35-4.42-12.97-8.37-.28-1.78.12-3.38,1.18-4.62,1.7-1.98,5.03-2.67,8.13-1.64,1.83.59,2.98.88,3.61.88,1.77-.67,2.13-.83,3.45-4.21,1.22-3.13,3.85-5.23,6.54-5.23,1.58,0,3.04.7,4.22,2.02,1.5,1.69,1.96,4.76,1.26,8.21-1.05,5.11-4.26,9.38-8.59,11.42-2.2,1.03-4.5,1.57-6.83,1.57Zm-6.63-12.07c-1.23,0-2.26.39-2.83,1.07-.46.54-.62,1.26-.48,2.14.32,2.04,4.34,5.78,9.94,5.78,1.88,0,3.74-.43,5.52-1.27,3.47-1.64,6.04-5.1,6.9-9.26.57-2.76.11-4.81-.55-5.55-1.78-2.01-4.5-.58-5.61,2.3-1.53,3.91-2.27,4.75-4.01,5.58-1.38.64-2.48.99-6.86-.45-.67-.22-1.35-.34-2.02-.34Z" fill="#1b1b1b" stroke-width="0"/><path d="m783.99,475.22c-3.97,0-7.36-.47-10.42-1.44-7.39-2.34-12.39-7.8-15.31-16.71-4.46-13.6-4.22-28.06-3.98-42.05.11-7.1.17-12.9.22-17.28q.08-7.06.14-7.3c.21-.81,1.02-1.33,1.86-1.11.82.2,1.32,1.03,1.11,1.86.03.08,0,2.8-.05,6.58-.05,4.39-.11,10.19-.2,15.45-.25,15.58-.49,29.78,3.8,42.89,2.59,7.91,6.95,12.72,13.33,14.74,3.9,1.23,8.47,1.58,14.37,1.08,7.13-.61,12.83-1.37,17.93-2.4.81-.12,1.63.38,1.8,1.2.17.83-.37,1.64-1.2,1.81-5.21,1.05-11.02,1.83-18.27,2.45-1.82.15-3.53.23-5.14.23Z" fill="#1b1b1b" stroke-width="0"/><path d="m779.08,437.13c-4.14-.92-13.1-3.32-14.43-6.75-.35-.91-.23-1.87.35-2.69,12.06-17.31,14.22-28.48,14.24-28.59.15-.82.9-1.37,1.78-1.23.83.15,1.38.94,1.23,1.78-.08.48-2.24,11.86-14.74,29.79.42,1.01,6.1,3.31,11.91,4.66.82.19,1.34,1.01,1.15,1.84-.16.71-.79,1.19-1.49,1.19Z" fill="#1b1b1b" stroke-width="0"/><path d="m756.12,399.5c-1.6-.82-1.73-1.77-1.23-2.44.17-.23,4.47-5.73,15.31-2.67.82.23,1.29,1.08,1.06,1.89-.23.81-1.08,1.25-1.89,1.06-8.71-2.51-11.91,1.4-12.03,1.57-.31.38-.76.58-1.22.58Z" fill="#1b1b1b" stroke-width="0"/><path d="m807.95,404.08c-1.5-1.07-5.57-7.93-17.56-6.84-.89,0-1.59-.55-1.66-1.39-.07-.85.55-1.59,1.4-1.66,14.07-1.26,18.96,7.25,19.16,7.61.41.74.14,1.67-.6,2.09-.23.12-.49.19-.74.19Z" fill="#1b1b1b" stroke-width="0"/><path d="m797.37,416.24c1.13,0,1.98-.85,1.98-1.9v-5.52c0-1.05-.85-1.9-1.9-1.9-1.12,0-1.98.85-1.98,1.9v5.52c0,1.05.85,1.9,1.9,1.9Z" fill="#1b1b1b" stroke-width="0"/><path d="m764.01,415.35c1.13,0,1.98-.85,1.98-1.9v-5.52c0-1.05-.85-1.9-1.9-1.9-1.13,0-1.98.85-1.98,1.9v5.52c0,1.04.85,1.9,1.89,1.9Z" fill="#1b1b1b" stroke-width="0"/><path d="m909.79,529.03c-1.63-.88-1.72-1.84-1.19-2.51,11.3-13.93,15.55-26.9,12.65-38.53-4.53-18.17-25.18-27.11-25.38-27.2-28.68-5.53-24.27-67.93-21.03-94.5.12-1.04.08-2.05-.12-2.98-.87-3.95-4.23-5.89-7.8-7.96-30.33-17.59-58.54-22.55-84.01-14.81-13.51,4.1-30,11.98-31.77,26.12-2.4,19.21,2.35,22.77,2.4,22.8.67.47.89,1.4.45,2.1-.43.68-1.3.95-2.02.53-.68-.38-6.55-4.38-3.87-25.82,1.56-12.49,13.29-22.4,33.91-28.68,26.32-7.99,55.34-2.94,86.3,15.01,3.93,2.28,8.24,4.78,9.39,10.04.28,1.26.34,2.6.17,3.99-2.45,20.07-8.32,85.95,18.87,91.23,1.21.47,22.57,9.73,27.47,29.37,3.14,12.62-1.31,26.49-13.25,41.22-.3.37-.74.57-1.19.57Z" fill="#1b1b1b" stroke-width="0"/><path d="m826.24,534.88c-1.57,0-3.18-.17-4.84-.56-8.99-2.09-12.59-10.56-13.58-19.3-.3.65-.64,1.29-1.02,1.94-2.39,4.01-8.9,9.61-16.09,7.6-9.67-2.72-9.17-12.37-8.95-16.49.17-3.24,2.2-7.11,6.61-12.88,4.39-5.73,8.53-9.54,12.65-11.66,2.6-.9,3.41-.4,3.6.43.2.82-.32,1.64-1.14,1.84-4.77,2.36-8.58,5.89-12.68,11.26-1.43,1.87-5.8,7.57-5.97,10.84-.3,5.81-.04,11.82,6.7,13.71,5.78,1.63,11-3.49,12.63-6.22,2.01-3.38,2.6-6.98,3.23-10.78.31-1.85.62-3.76,1.1-5.71.21-.79,1-1.31,1.82-1.13.82.18,1.34.97,1.17,1.79-2.19,11.28-1.18,29.03,10.61,31.78,15.88,3.75,28.1-15.77,28.22-15.96.45-.74,1.39-.96,2.11-.5.72.44.94,1.38.5,2.1-.5.8-11.24,17.9-26.7,17.9Z" fill="#1b1b1b" stroke-width="0"/><path d="m718.24,731.23c-.84,0-1.52-.67-1.53-1.52l-.5-41.5c-2.06-4.04-19.35-39.46-11.32-72.3,5.13-20.98,17.84-50.98,31.62-74.64.42-.74,1.36-.99,2.09-.56.73.43.98,1.37.55,2.1-13.64,23.43-26.22,53.11-31.28,73.84-8.08,33.02,11.03,70.1,11.22,70.47.17.7.69,42.56.69,42.56.01.85-.67,1.54-1.52,1.55h-.02Z" fill="#1b1b1b" stroke-width="0"/><path d="m678.08,744.08c-.84,0-1.53-.68-1.53-1.53,0-.84-.13-84.06,10.32-128.4,18.7-79.37,80.66-112.02,81.29-112.34.76-.39,1.67-.09,2.06.66.39.75.09,1.68-.66,2.06-.61.32-61.34,32.37-79.71,110.33-10.37,43.99-10.23,126.85-10.23,127.68,0,.85-.68,1.54-1.53,1.55h0Z" fill="#1b1b1b" stroke-width="0"/><path d="m779.9,509.72c-2.98,0-7.21-.73-10.83-4.1-6.89-6.4-8.54-19.44-4.92-38.77.16-.83.96-1.46,1.79-1.22.83.15,1.38.95,1.23,1.78-4.25,22.66-.18,32.05,3.97,35.93,4.99,4.66,11.52,3.06,11.8,2.98.82-.2,1.66.28,1.87,1.1.21.82-.28,1.65-1.09,1.87-.15.03-1.64.42-3.8.42Z" fill="#1b1b1b" stroke-width="0"/><path d="m737.83,815.42c-1.68-2-1.18-2.83-.36-3.03,48.04-11.51,85.98-20.6,107.73-40.55,17.47-16.01,69.72-98.22,83.52-138.95,3.93-11.58,21.22-71.25-24.21-107.92-8.45-6.84-14.05-5.56-21.15-3.97-8.73,1.97-19.61,4.45-39.11-7.03-38.86-22.84-27.65-66.94-22.86-85.76l.67-2.67c1.41-5.73,2.86-20.41,3.93-33.22-1.52,1.23-73.29-.03-73.29-.03-.85-.02-1.52-.72-1.51-1.56.01-.84.7-1.51,1.53-1.51.03,0,70.05,1.24,70.05,1.24-.26-3.58-.12-11.89,5.08-20.97,2.74,2.68-.05,45.56-2.81,56.8l-.68,2.69c-4.62,18.17-15.43,60.69,21.44,82.37,18.46,10.85,28.25,8.62,36.88,6.68,7.25-1.64,14.13-3.21,23.76,4.56,47.01,37.94,29.22,99.37,25.18,111.29-14.23,41.99-66.24,123.62-84.35,140.22-22.34,20.49-60.61,29.67-109.08,41.28-.12.03-.24.04-.36.04Zm89.17-435.92c-1.89,6.98-1.01,12.17-.99,12.24.41-4.36.73-8.67.99-12.24Z" fill="#1b1b1b" stroke-width="0"/><path d="m767.96,600.98c-1.46-2.15,4.21-42.98,13.85-88.32.17-.84.99-1.32,1.81-1.19.83.18,1.36.99,1.18,1.82-7.24,34.06-12.24,65.56-14.28,79.23,16.4-25.26,35.58-45.62,57.07-60.58.69-.48,1.65-.31,2.13.38.48.69.31,1.65-.38,2.13-22.86,15.9-43.06,38.04-60.07,65.79-.28.47-.79.73-1.31.73Z" fill="#1b1b1b" stroke-width="0"/><path d="m807.95,223.56c-1.04-.41-88.72-81.56-88.72-81.56-.62-.58-.66-1.55-.08-2.17.57-.61,1.54-.64,2.16-.08l87.68,81.15c.62.58.66,1.54.09,2.17-.3.32-.71.49-1.12.49Z" fill="#1b1b1b" stroke-width="0"/><path d="m743.24,87.35c-1.75-1.59-1.46-2.51-.7-2.9l98.23-50.77c.75-.39,1.68-.09,2.07.66.39.75.1,1.68-.65,2.06l-98.23,50.77c-.22.12-.47.17-.7.17Z" fill="#1b1b1b" stroke-width="0"/><path d="m674.82,58.05c-.77,0-1.43-.58-1.52-1.36l-6.45-54.98c-.1-.84.5-1.61,1.34-1.69.89-.1,1.61.5,1.7,1.34l6.46,54.98c.09.83-.51,1.6-1.34,1.69-.06,0-.12.02-.18.02Z" fill="#1b1b1b" stroke-width="0"/><path d="m250.28,617.58c-.79,0-1.47-.62-1.52-1.43l-3.97-54.15-7.1-16.77c-.33-.79.03-1.69.82-2.02.79-.33,1.67.03,2.01.81l7.2,17.01c.12.49,4.1,54.9,4.1,54.9.06.84-.57,1.58-1.41,1.63-.04,0-.08,0-.11,0Z" fill="#1b1b1b" stroke-width="0"/><path d="m246.3,563.18c-1.67-2.06-1.13-2.87-.3-3.04l14.1-2.83c.8-.13,1.64.37,1.8,1.2.17.83-.37,1.64-1.2,1.8l-14.1,2.84c-.1.02-.2.03-.3.03Z" fill="#1b1b1b" stroke-width="0"/><path d="m279.8,611.49c-1.43-.99-20.83-52.14-20.83-52.14-.07-.84,3.76-20.16,3.76-20.16.16-.82.94-1.35,1.8-1.2.83.17,1.37.97,1.2,1.81l-3.74,18.89,19.25,50.74c.3.79-.1,1.68-.89,1.98-.18.07-.36.1-.54.1Z" fill="#1b1b1b" stroke-width="0"/><path d="m231.52,563.79c-1.38-.46-1.74-1.36-1.41-2.14l18.7-43.51c2.68-.25,28.17,37.53,28.17,37.53.47.7.29,1.65-.41,2.13-.7.47-1.65.28-2.13-.41l-23.92-35.46-17.6,40.92c-.25.58-.82.94-1.4.94Z" fill="#1b1b1b" stroke-width="0"/><path d="m276.67,739.08c-1.3-.73-89.96-143.45-89.96-143.45-.14-1.34,9.53-27.84,9.53-27.84l-23.93-7.97c-.74-.24-1.17-1-1.02-1.76l9.77-47.37c.35-.7,18.01-21.07,18.01-21.07,2.54.34,5.72,6.34,11.28,18.61,8.47,18.75,20.95,47.73,32.31,79.23,20.92,58.04,34.35,142.35,35.45,149.38.17,1.54-.53,2.23-1.37,2.23h-.08Zm-86.96-144.43l84.22,135.58c-3.8-22.72-16.22-91.96-34.15-141.72-11.32-31.41-23.77-60.31-32.22-79-3.69-8.15-6.31-13.5-7.66-16.17l-15.92,18.36-9.41,45.64,24.13,8.04c.96,1.98-9,29.27-9,29.27Z" fill="#1b1b1b" stroke-width="0"/><path d="m276.67,739.08c-1.04-.16-1.59-.87-1.52-1.65.06-.75,5.84-75.22,3.12-127.39-.99-18.83-2.36-36.78-4.07-53.35-3.75-36.28-8.21-55.35-8.25-55.55-.2-.82.31-1.64,1.14-1.84.84-.18,1.65.32,1.84,1.14.05.18,4.55,19.42,8.32,55.93,1.72,16.62,3.1,34.62,4.09,53.5,1.96,37.56-.47,86.58-2.02,111.59l34.03-129.7-13.56-25.49c.29-1.83,13.08-13.99,13.08-13.99l-30.14-40.61c-.51-.67-.36-1.64.32-2.13.68-.52,1.64-.37,2.15.32l30.94,41.7c.46.62.39,1.49-.17,2.02l-12.91,12.3,13.29,24.99c.13,1.11-38.17,147.07-38.17,147.07-.18.67-.79,1.14-1.48,1.14Z" fill="#1b1b1b" stroke-width="0"/><path d="m430.94,835.61H1.53c-.85,0-1.53-.69-1.53-1.54s.68-1.53,1.53-1.53h429.41c.85,0,1.53.69,1.53,1.53s-.69,1.54-1.53,1.54Z" fill="#1b1b1b" stroke-width="0"/><path d="m999.26,835.61h-310.67c-.85,0-1.53-.69-1.53-1.54s.68-1.53,1.53-1.53h310.67c.85,0,1.53.69,1.53,1.53s-.69,1.54-1.53,1.54Z" fill="#1b1b1b" stroke-width="0"/><path d="m306.69,440.73c-3.72-.11-6.56-1.83-8.91-5.25l-1.46-2.34c-2-5.66-3.82-10.88-3.62-17.37.4-13.5,6.95-24.08,14.93-24.08,1.58.04,2.88.38,4.14.99,2.19,1.1,4.11,3.01,5.73,5.67,2.83,4.7,4.33,11.36,4.13,18.27-.2,6.89-2.08,13.42-5.16,17.93-2.7,3.97-6.17,6.16-9.76,6.16Zm1.1-45.96c-6.27,0-11.7,9.66-12.03,21.1-.18,5.93,1.46,10.66,3.04,15.23.26.73,1.53,2.7,1.53,2.7,1.76,2.54,3.74,3.78,6.19,3.86,2.71,0,5.28-1.7,7.4-4.81,2.75-4.05,4.44-9.99,4.63-16.3.19-6.34-1.16-12.39-3.69-16.6-1.28-2.13-2.83-3.7-4.47-4.52-.85-.42-1.72-.64-2.6-.67h0Z" fill="#1b1b1b" stroke-width="0"/><path d="m268.58,442.35c-4.46-.12-8.24-2.89-10.93-7.81-2.55-4.65-3.85-10.74-3.66-17.14.39-13.51,7.19-24.08,15.48-24.08,8.71.26,15,11.22,14.6,24.96-.4,13.5-7.2,24.08-15.48,24.08Zm1.07-45.96c-6.69,0-12.26,9.46-12.6,21.09-.18,5.88.99,11.41,3.29,15.59,2.15,3.91,5.01,6.13,8.06,6.21,6.7,0,12.27-9.46,12.61-21.09.34-11.63-4.85-21.61-11.34-21.8h0Z" fill="#1b1b1b" stroke-width="0"/><path d="m282.53,419.77c-1.33-.4-1.73-1.29-1.43-2.08.1-.26,2.48-6.6,8.47-6.25,4.81.16,6.1,6.05,6.15,6.3.17.82-.35,1.64-1.18,1.81-.81.2-1.64-.36-1.81-1.17,0-.03-.85-3.8-3.26-3.88-3.84,0-5.48,4.24-5.49,4.28-.23.61-.82.99-1.43.99Z" fill="#1b1b1b" stroke-width="0"/><path d="m255.52,418.98s-33.78-.93-33.78-.93c-.84-.03-1.52-.73-1.49-1.58.02-.85.64-1.64,1.58-1.49l33.74.93c.85.03,1.52.73,1.49,1.58-.02.84-.7,1.49-1.53,1.49Z" fill="#1b1b1b" stroke-width="0"/><path d="m287.07,464.05c-17.81-1.04-18.46-14.77-18.46-14.91-.03-.85.63-1.55,1.47-1.58.88,0,1.55.65,1.59,1.47.02.45.64,11.09,15.49,11.95.85.05,1.49.77,1.44,1.62-.05.81-.73,1.45-1.53,1.45Z" fill="#1b1b1b" stroke-width="0"/><path d="m296.8,441.81c-1.69-1.07-1.68-2.04-1.07-2.63,2.54-2.49,6.09-2.11,7.8-1.07.72.44.95,1.39.51,2.11-.45.72-1.37.94-2.11.51-.54-.32-2.58-.81-4.06.64-.3.29-.68.44-1.07.44Z" fill="#1b1b1b" stroke-width="0"/><path d="m240.88,459.66c-2.31,0-10.26-7.49-10.61-8.96-.85-3.7-3.51-16.2-2.76-25.13,2.32-27.65,4.99-39.43,9.24-41.16,6.13-2.49,23.77-4.35,41.94-4.41,20.27.04,25.72.74,25.94.78.78.12,1.34.81,1.29,1.59l-.64,11.98c-.04.82-.72,1.45-1.53,1.45-.93-.05-1.57-.77-1.53-1.62l.56-10.53c-2.64-.22-9.51-.74-24.09-.58-20.19.06-35.8,2.15-40.79,4.18-1.58.64-4.64,6.45-7.3,38.06-.75,9,1.83,21.12,2.63,24.63.55.99,5.33,5.12,7.24,6.4,4.73-4.7,15.74-15.63,27.69-17.03.86-.09,1.61.5,1.7,1.34.09.84-.5,1.6-1.34,1.7-10.9,1.3-21.74,12.05-25.3,15.58-1.36,1.35-1.61,1.6-2.15,1.72-.06.02-.12.02-.19.02Z" fill="#1b1b1b" stroke-width="0"/><path d="m257.68,502.58c-3.34,0-6.28-.12-8.57-.38-14.43-1.58-29.11-16.21-30.33-24.2-1.05-6.88-3.6-35.93-3.71-37.17.42-1.2,7.48-10,5.2-24.08-1.49-9.25-6.29-13.35-14.61-12.62-4.78.44-8.35,2.1-10.61,4.97-2.81,3.56-3.71,9.02-2.67,16.2,2.11,14.54,16.97,14.85,17.6,14.85.8,0,1.47.64,1.52,1.45.03.54.76,13.42-3.75,19.31-2.75-.42-33.73-41-38.56-46.63-2.44-2.84-1.56-7.92-.99-11.27,1.03-6.42,2.44-12.04,4.74-19.26,2.41-7.59,4.73-14.92,8.72-20.72,2.82-4.08,9.3-5.76,14.51-7.12,1.15-.3,2.23-.58,3.17-.87,2.05-.61,4.12-1.22,6.19-1.82,5.05-1.47,10.27-2.98,15.25-4.83,2.44-.92,5.23-2.05,7.38-3.88,2.48-2.12,3.83-5,5.26-8.04,1.16-2.46,2.35-5.01,4.21-7.24,7.13-8.53,21.72-10.66,32.02-9.91,13.73,1.01,27.66,7.6,37.26,17.65,3.79,3.97,14.41,20.68,13.24,36.61-.63,8.5-4.44,15.51-11.35,20.87-.67.51-1.63.39-2.15-.26-.52-.68-.4-1.64.27-2.16,6.18-4.8,9.61-11.08,10.17-18.68,1.11-15.04-9.35-31.07-12.4-34.26-9.09-9.52-22.27-15.77-35.26-16.72-10.32-.73-23.46,1.67-29.44,8.83-1.61,1.92-2.66,4.17-3.79,6.57-1.5,3.2-3.05,6.52-6.04,9.08-2.52,2.15-5.61,3.4-8.3,4.41-5.09,1.9-10.37,3.42-15.47,4.91-2.05.59-4.11,1.19-6.16,1.81-.98.29-2.09.58-3.28.89-4.72,1.23-10.59,2.75-12.76,5.89-3.73,5.43-5.88,12.21-7.96,18.78-2.61,8.21-3.98,13.68-4.82,18.9-.63,3.7-1.38,8.09.12,9.83,4.35,5.08,28.69,36.9,34.85,44.96,1.88-4.09,2.19-10.57,2.12-14.12-4.37-.48-17.08-3.12-19.14-17.38-1.17-8.05-.06-14.28,3.29-18.54,2.8-3.55,7.09-5.61,12.74-6.13,9.88-.92,16.16,4.35,17.92,15.19,2.21,13.66-3.5,22.67-5.12,24.89.38,4.25,2.68,30.13,3.64,36.37.98,6.39,14.1,20.14,27.63,21.63,15.03,1.67,48.52-2.05,53.7-6.9,3.81-3.57.74-29.55-.91-43.51-.5-4.2-.93-7.86-1.16-10.5-.07-.85.55-1.59,1.39-1.66.87.01,1.58.55,1.67,1.39.22,2.62.65,6.25,1.14,10.41,2.69,22.7,4.53,41.83-.04,46.11-5.5,5.15-31.26,8.09-47.56,8.09Z" fill="#1b1b1b" stroke-width="0"/><path d="m200.23,492.16c-1.13-.2-1.67-1-1.5-1.84l6.23-31.59c.17-.82.95-1.35,1.8-1.2.83.17,1.37.96,1.2,1.8l-6.23,31.59c-.14.73-.78,1.23-1.5,1.23Z" fill="#1b1b1b" stroke-width="0"/><path d="m288.55,446.29c-.79,0-1.47-.62-1.52-1.43-.06-.85.57-1.58,1.42-1.64,3.18-.23,5.37-1.15,6.48-2.75,2.07-2.95.64-8.08-.41-11.83-1.75-6.22-7.57-22.93-7.63-23.1-.27-.79.15-1.67.94-1.95.81-.29,1.67.14,1.96.94.24.68,5.9,16.96,7.63,23.1,1.26,4.52,2.92,10.46.01,14.59-1.68,2.38-4.63,3.74-8.78,4.04-.04,0-.08,0-.11,0Z" fill="#1b1b1b" stroke-width="0"/><path d="m205.44,431.36c-1.73-1.28-1.6-2.24-.93-2.76l8.82-6.72-12.26-11.13c-.62-.57-.67-1.54-.1-2.16.57-.62,1.55-.68,2.17-.11l13.61,12.37c-.1,2.35-10.37,10.19-10.37,10.19-.28.21-.61.32-.93.32Z" fill="#1b1b1b" stroke-width="0"/><path d="m283.94,512.3c-.99-.37-13.12-10.65-13.12-10.65-.64-.55-.72-1.51-.17-2.16.55-.65,1.51-.72,2.16-.18l12.12,10.28c.64.55.72,1.51.17,2.16-.31.36-.73.54-1.17.54Z" fill="#1b1b1b" stroke-width="0"/><path d="m249.1,519.41c-17.89,0-48.54-26.48-49.87-27.63-.64-.56-.7-1.53-.15-2.16.56-.65,1.53-.71,2.16-.16.32.28,32.45,27.98,48.92,26.84,15.62-1.22,15.74-14.92,15.74-15.51,0-.85.68-1.54,1.53-1.55.85,0,1.53.68,1.54,1.53,0,.18-.15,17.14-18.56,18.58-.43.03-.86.05-1.31.05Z" fill="#1b1b1b" stroke-width="0"/><path d="m280.97,442.65c-.56-.11-3.24-.99-9.52-.8-.88,0-1.56-.64-1.59-1.47-.03-.84.62-1.55,1.47-1.58,7.01-.3,10.06.83,10.19.88.79.31,1.19,1.19.89,1.98-.24.62-.82.99-1.43.99Z" fill="#1b1b1b" stroke-width="0"/><path d="m623.12,832.64c-1.75-1.42-1.54-2.37-.82-2.83,5.79-3.71,12.23-7.38,12.29-7.41l11.02-4.38c.77-.29,1.67.07,1.99.86.32.79-.07,1.68-.86,1.99l-10.83,4.28s-6.28,3.61-11.96,7.25c-.26.16-.55.24-.83.24Z" fill="#1b1b1b" stroke-width="0"/><path d="m584.84,774.43c-1.65-1.02-1.71-1.94-1.11-2.54,3.82-2.63,8.12-5.41,10.88-6.57,4.47-1.9,12.24-.55,23.7,4.08l5.53-2.16c.78-.33,1.67.09,1.98.87.31.79-.08,1.68-.87,1.99l-6.1,2.38c-14.63-5.52-20.51-5.39-23.06-4.34-2.05.87-5.5,2.94-9.97,6-.84.28-.91.29-.99.29Z" fill="#1b1b1b" stroke-width="0"/><path d="m586.64,860.23c-4.59,0-7.79-2.82-8.66-3.69-6.07-6.04-9.27-10.91-11.39-17.36-1.6-4.87.66-9.61,3.71-11.8,2.54-1.78,6.1-1.36,8.38-.22.2-2.34,1.01-5.49,3.73-7.4,2.19-1.53,5.23-2.91,9.53-1.25.08-1.92.74-4.42,3.17-6.45,3.48-2.9,6.59-3.29,10.61-1.38,5.92,2.86,16.58,12.37,18.63,19.17.53,1.73,1.75,5.78-1.6,9.77-3.07,3.68-6.33,4.82-8.09,5.18-.47,1.67-1.91,4.67-6.25,7.7-6.56,4.59-10.54,4.05-12.41,3.57-.92.98-2.68,2.48-5.57,3.49-1.25.44-2.53.66-3.8.66Zm-12.21-31.09c-.87,0-1.64.24-2.35.75-2.09,1.49-3.7,4.91-2.58,8.34,1.95,5.94,4.93,10.47,10.63,16.14.66.65,3.08,2.8,6.5,2.8.93,0,1.87-.17,2.79-.48,3.47-1.21,4.73-3.15,4.78-3.23.44-.69,1.37-.93,2.08-.51,0,0,3.47,1.88,10.38-2.94,4.92-3.45,5.18-6.61,5.18-6.65.05-.81.72-1.47,1.53-1.47.13,0,3.6-.11,7.03-4.23,2.1-2.5,1.63-4.88,1.01-6.92-1.73-5.77-11.69-14.72-17.02-17.29-2.9-1.38-4.74-1.18-7.32.97-2.93,2.45-1.93,6.01-1.88,6.16-6.2-.32-7.83-.54-11.02,1.69-3.08,2.16-2.42,7.44-2.41,7.49-2.55,1.35-4.87-.62-7.34-.62Z" fill="#1b1b1b" stroke-width="0"/><path d="m531.5,828.03c-.93-.3-5.21-2.71-7.09-6.28l-15.19-6.55c-.78-.34-1.14-1.24-.79-2.02.33-.78,1.23-1.14,2.02-.8l15.71,6.79c2.06,3.71,6.05,5.96,6.09,5.99.74.41,1,1.34.59,2.08-.28.51-.81.79-1.34.79Z" fill="#1b1b1b" stroke-width="0"/><path d="m605.37,805.17c-6.96,0-17.32-3.36-26.31-13-2.6,2.57-9.13,8.07-15.88,7.19-.84-.11-1.43-.88-1.32-1.72.11-.84.89-1.4,1.72-1.32,7.06.96,14.28-7.33,14.35-7.41,11.49,10.52,22.3,13.68,28.76,13.14,3.27-.26,5.7-1.41,6.85-3.23-.46-3.7-29.52-26.29-39.98-30.68-7.07-2.93-27.79,6.52-35.19,10.42-1.46-.02-11.63-5.7-11.63-5.7-.74-.41-1-1.34-.59-2.09.42-.74,1.36-1,2.09-.58l9.45,5.28c5.07-2.62,27.97-13.98,37.06-10.14,8.39,3.51,39.37,25.84,41.58,32.78.35,1.12.08,1.89-.2,2.34-1.67,2.66-4.94,4.32-9.21,4.66-.49.04-1.02.06-1.56.06Z" fill="#1b1b1b" stroke-width="0"/><path d="m259.27,228.76c-1.27-.32-1.72-1.19-1.46-1.99,22.26-70.47,68.41-131.72,68.88-132.32,1.22-.61,384.85-.61,384.85-.61.4,3.12-46.88,36.26-70.63,98.55-.3.8-1.18,1.2-1.98.89-.79-.31-1.19-1.19-.88-1.98,20.18-52.93,57.13-85.12,68.91-94.39h-378.29c-4.84,6.53-47.02,64.58-67.94,130.78-.2.66-.81,1.08-1.46,1.08Z" fill="#1b1b1b" stroke-width="0"/><path d="m663.35,720.78h-165.16c-.85,0-1.53-.69-1.53-1.53s.68-1.54,1.53-1.54h165.16c.84,0,1.53.69,1.53,1.54s-.68,1.53-1.53,1.53Z" fill="#1b1b1b" stroke-width="0"/><path d="m396.76,626.34c-1-.1-1.62-.85-1.52-1.69,8.3-78.57-28.36-131.59-69.99-183.41-.53-.66-.43-1.63.23-2.15.66-.53,1.61-.43,2.15.23,42.04,52.34,79.07,105.92,70.65,185.64-.09.79-.75,1.38-1.52,1.38Z" fill="#1b1b1b" stroke-width="0"/><path d="m510.09,186.2h-162.56c-.85,0-1.53-.69-1.53-1.53s.68-1.54,1.53-1.54h162.56c.84,0,1.53.69,1.53,1.54s-.68,1.53-1.53,1.53Z" fill="#1b1b1b" stroke-width="0"/><path d="m457.04,258.68h-134.66c-.84,0-1.53-.69-1.53-1.53s.69-1.54,1.53-1.54h134.66c.85,0,1.53.69,1.53,1.54s-.68,1.53-1.53,1.53Z" fill="#1b1b1b" stroke-width="0"/><path d="m367.93,326.16h-47.32c-.85,0-1.53-.69-1.53-1.54s.68-1.54,1.53-1.54h47.32c.85,0,1.53.7,1.53,1.54s-.68,1.54-1.53,1.54Z" fill="#1b1b1b" stroke-width="0"/><path d="m730.11,474.86h-250.76c-.85,0-1.53-.69-1.53-1.53s.69-1.54,1.53-1.54h250.76c.84,0,1.53.69,1.53,1.54s-.69,1.53-1.53,1.53Z" fill="#1b1b1b" stroke-width="0"/><path d="m704.33,547.34h-187.09c-.85,0-1.53-.69-1.53-1.54s.69-1.53,1.53-1.53h187.09c.85,0,1.53.69,1.53,1.53s-.69,1.54-1.53,1.54Z" fill="#1b1b1b" stroke-width="0"/><path d="m546.52,669.81h-96.29c-1.28-2.39,4.34-12.61,4.04-24.05,1.53-1.58,98.02-1.58,98.02-1.58.77,0,1.43.58,1.52,1.34.08.62,1.84,15.28-6.18,23.8-.29.31-.69.49-1.11.49Zm-93.82-3.07h93.14c5.3-6.13,5.26-15.93,5.05-19.48h-93.54c-.13,8.44-3,15.89-4.64,19.48Z" fill="#1b1b1b" stroke-width="0"/><path d="m498.2,842.3c-1.33-.32-92.72-26.31-131.62-67.68-.58-.61-.55-1.58.07-2.17.62-.58,1.58-.53,2.17.07,35.78,38.07,117.21,63.06,128.49,66.39l36.55-87.31c-11.23-5.02-83.12-37.53-109.12-58.89-13.88-11.4-27-35.05-42.19-62.43-24.28-43.77-54.48-98.24-99.23-118.12-.77-.34-1.12-1.25-.78-2.03.35-.76,1.26-1.12,2.02-.77,45.69,20.3,76.18,75.27,100.68,119.44,15.04,27.11,28.02,50.52,41.45,61.54,27.31,22.43,108.96,58.7,109.78,59.06.76.34,1.11,1.23.79,1.99l-37.65,89.95c-.25.58-.81.94-1.41.94Z" fill="#1b1b1b" stroke-width="0"/><path d="m370.83,835.61c-.81,0-1.49-.64-1.53-1.47-.94-21.28-2.1-43.28-3.53-67.24-3.78-63.1-25.87-155.66-26.09-156.59-.2-.83.31-1.65,1.13-1.85.86-.18,1.66.32,1.85,1.14.23.93,22.37,93.76,26.17,157.12,1.44,23.98,2.59,45.99,3.53,67.29.04.84-.62,1.56-1.46,1.59-.02,0-.05,0-.07,0Z" fill="#1b1b1b" stroke-width="0"/><path d="m69.03,835.61c-.82,0-1.51-.66-1.53-1.49-2.3-73.28-4.7-170.07-3.08-215.02,1.5-41.55,33.27-95.19,117.89-109.62.85-.14,1.63.43,1.77,1.25.14.84-.42,1.63-1.25,1.77-82.81,14.12-113.89,66.31-115.35,106.71-1.62,44.87.78,141.58,3.08,214.81.03.85-.64,1.55-1.48,1.58h-.05Z" fill="#1b1b1b" stroke-width="0"/><path d="m163.49,835.61c-.82,0-1.49-.64-1.53-1.46-3.61-74.93-7.34-174.65-7.34-211.85,0-.84.69-1.53,1.53-1.53s1.53.69,1.53,1.53c0,37.15,3.73,136.81,7.34,211.7.04.84-.61,1.57-1.46,1.6-.03,0-.05,0-.07,0Z" fill="#1b1b1b" stroke-width="0"/><path d="m613.38,844.96c-1.15-.52-20.8-22.94-20.8-22.94-.56-.63-.5-1.6.14-2.16.63-.56,1.6-.49,2.16.14l19.65,22.41c.56.64.5,1.61-.14,2.16-.29.26-.65.38-1.01.38Z" fill="#1b1b1b" stroke-width="0"/><path d="m595.51,855.79c-1.3-.72-16.56-25-16.56-25-.45-.72-.23-1.67.48-2.11.71-.47,1.66-.23,2.11.48l15.26,24.29c.45.72.23,1.67-.49,2.11-.25.17-.53.24-.81.24Z" fill="#1b1b1b" stroke-width="0"/><path d="m558.37,861.33c-4.45,0-7.82-1.71-9.31-3.6-1.99-2.51-2.22-4.97-2.04-6.64-2.21-.2-5.7-.99-7.67-3.75-2.31-3.25-2.69-6.72-1.17-10.36-1.78-.44-4.27-1.4-5.98-3.44-2.04-2.45-3.11-7.17-1.37-10.02,4.35-7.13,26.14-23.99,31.84-27.03.74-.4,1.67-.11,2.07.62.4.75.12,1.68-.63,2.08-6.06,3.24-26.83,19.64-30.66,25.92-.96,1.57-.18,4.93,1.11,6.46,2.02,2.42,5.99,2.71,6.02,2.72-.77,5.66-.76,8.41,1.27,11.27,1.99,2.78,6.94,2.55,6.99,2.53,1.44,2.26.36,4.88,2.63,7.74,1.13,1.43,4.2,2.78,8.37,2.37,4.13-.4,7.86-1.59,17.32-5.5.79-.3,1.68.05,2,.84.32.78-.05,1.68-.83,2-9.79,4.05-13.7,5.27-18.19,5.72-.61.06-1.19.08-1.76.08Z" fill="#1b1b1b" stroke-width="0"/><path d="m540.47,837.36c-1.73-1.27-1.61-2.23-.94-2.75l37.31-28.95c.66-.52,1.62-.4,2.15.27.52.67.39,1.64-.27,2.15l-37.31,28.95c-.28.22-.61.33-.94.33Z" fill="#1b1b1b" stroke-width="0"/><path d="m548.93,851.15c-1.75-1.51-1.49-2.44-.76-2.86l19.12-10.92c.73-.43,1.67-.17,2.09.56.42.74.17,1.67-.57,2.09l-19.12,10.92c-.23.14-.5.21-.76.21Z" fill="#1b1b1b" stroke-width="0"/><path d="m729.34,835.61c-1.48-.59-1.75-1.53-1.34-2.27,2.74-5.02,3.27-6.42,6.18-14.13l2.22-5.87c.31-.79,1.21-1.17,1.98-.89.79.31,1.18,1.19.88,1.98l-2.22,5.86c-2.98,7.89-3.51,9.31-6.36,14.52-.28.51-.8.8-1.34.8Z" fill="#1b1b1b" stroke-width="0"/><path d="m927.28,835.61c-.73,0-1.38-.52-1.51-1.27l-13.41-75.21c.63-5.44,15.73-122.15,16.29-125.98.12-.83.85-1.38,1.74-1.29.84.12,1.42.9,1.29,1.75-.55,3.71-15.49,119.21-16.27,125.22l13.37,74.98c.15.83-.41,1.63-1.24,1.78-.09.02-.18.03-.26.03Z" fill="#1b1b1b" stroke-width="0"/><path d="m654.05,834.35c-22.11-31.54-33.44-72.88-33.55-73.3-.22-.79.23-1.61,1.01-1.86l46.82-15.11c24.31-7.86,49.45-15.98,74.31-23.57,11.81-3.59,25.21-8.87,35.02-20.83,6.82-8.3,11.87-18.1,16.76-27.57,1.06-2.05,2.12-4.11,3.19-6.14,8.7-16.48,46.58-81.7,57.32-97.06.49-.69,1.45-.87,2.13-.38.7.48.87,1.43.38,2.13-10.7,15.3-48.44,80.3-57.12,96.75-1.07,2.03-2.13,4.06-3.18,6.12-4.96,9.61-10.09,19.54-17.11,28.1-10.33,12.59-24.25,18.09-36.49,21.82-24.84,7.57-49.96,15.69-74.27,23.55l-45.42,14.66c2.14,7.39,12.84,42.33,30.89,69.45,6.49-1.37,43.15-9.21,82.72-18.71.86-.17,1.66.32,1.85,1.14.2.83-.31,1.65-1.13,1.85-43.47,10.43-83.42,18.85-83.82,18.94-.11.02-.21.03-.32.03Z" fill="#1b1b1b" stroke-width="0"/><path d="m718.57,421.83c-.76-.03-71.63-2.44-71.2-57.52,0-.85.69-1.53,1.53-1.53.86,0,1.54.7,1.53,1.55-.32,41.38,42.49,51.36,60.43,53.72-31.55-19.03-17.78-53.94-17.62-54.31.32-.79,1.21-1.17,1.99-.85.79.32,1.16,1.21.84,2-.61,1.52-14.7,37.45,23.11,54,.73,2.44.1,2.94-.61,2.94Z" fill="#1b1b1b" stroke-width="0"/><path d="m648.36,365.85h-91.56c-.85,0-1.53-.69-1.53-1.53s.69-1.54,1.53-1.54h91.56c.85,0,1.53.69,1.53,1.54s-.68,1.53-1.53,1.53Z" fill="#1b1b1b" stroke-width="0"/><path d="m694.1,365.85c-.85,0-1.53-.69-1.53-1.53s.68-1.54,1.53-1.54c18.86,0,34.21-15.34,34.21-34.2v-93.01c0-18.87-15.35-34.21-34.21-34.21h-171.44c-18.87,0-34.21,15.34-34.21,34.21v74.5c0,.84-.68,1.53-1.53,1.53s-1.53-.69-1.53-1.53v-74.5c0-20.55,16.72-37.28,37.27-37.28h171.44c20.55,0,37.27,16.73,37.27,37.28v93.01c0,20.55-16.72,37.27-37.27,37.27Z" fill="#1b1b1b" stroke-width="0"/><path d="m387.61,472.62c26.67-14.89,16.49-40.74,16.05-41.84-.32-.78.05-1.68.84-1.99.8-.31,1.68.05,2,.84.11.26,9.86,24.99-11.56,39.24,13.86-1.98,42.26-9.58,42.02-38.65,0-.85.67-1.54,1.52-1.55.86,0,1.54.68,1.55,1.53.32,40.63-51.85,42.41-52.37,42.43h-.04Z" fill="#1b1b1b" stroke-width="0"/><path d="m530.7,431.74h-91.82c-.85,0-1.53-.7-1.53-1.54s.69-1.54,1.53-1.54h91.82c13.55,0,24.57-11.02,24.57-24.57v-67.93c0-13.55-11.02-24.57-24.57-24.57h-125.22c-13.55,0-24.57,11.02-24.57,24.57v67.93c0,13.55,11.02,24.57,24.57,24.57.85,0,1.53.69,1.53,1.54s-.69,1.54-1.53,1.54c-15.24,0-27.63-12.41-27.63-27.65v-67.93c0-15.23,12.4-27.63,27.63-27.63h125.22c15.24,0,27.63,12.4,27.63,27.63v67.93c0,15.24-12.4,27.65-27.63,27.65Z" fill="#1b1b1b" stroke-width="0"/><path d="m813.02,501c-.78,0-1.56-.03-2.36-.1-9.8-.89-9.1-16.04-9.06-16.68l-2.4-11.77c-.17-.83.37-1.64,1.2-1.8.85-.14,1.64.38,1.8,1.2l2.43,12.15c.02.51-.56,13.22,6.31,13.85,7.91.76,15.35-3.02,15.42-3.07.77-.36,1.68-.08,2.06.67.38.75.08,1.68-.67,2.06-.3.15-6.94,3.48-14.73,3.48Z" fill="#1b1b1b" stroke-width="0"/><path d="m706.02,835.55c-1.03-.12-1.63-.89-1.52-1.72l1.58-13c.1-.84.84-1.44,1.7-1.34.85.1,1.44.87,1.34,1.7l-1.58,13c-.09.78-.76,1.35-1.52,1.35Z" fill="#1b1b1b" stroke-width="0"/><path d="m251.26,309.44c-.79,0-1.46-.61-1.53-1.41-1.85-22.09,2.48-41.12,2.52-41.3.2-.83,1-1.33,1.84-1.15.82.19,1.34,1.02,1.15,1.84-.05.19-4.27,18.76-2.46,40.37.07.84-.55,1.58-1.4,1.65-.05,0-.09,0-.13,0Z" fill="#1b1b1b" stroke-width="0"/><path d="m692.67,259.81h-169.01c-.85,0-1.53-.69-1.53-1.53s.68-1.54,1.53-1.54h169.01c.85,0,1.53.69,1.53,1.54s-.68,1.53-1.53,1.53Z" fill="#1b1b1b" stroke-width="0"/><path d="m692.67,306.42h-124.31c-.85,0-1.53-.69-1.53-1.53s.68-1.54,1.53-1.54h124.31c.85,0,1.53.69,1.53,1.54s-.68,1.53-1.53,1.53Z" fill="#1b1b1b" stroke-width="0"/><path d="m529.72,352.86h-115.21c-.85,0-1.53-.69-1.53-1.53s.69-1.54,1.53-1.54h115.21c.85,0,1.53.69,1.53,1.54s-.69,1.53-1.53,1.53Z" fill="#1b1b1b" stroke-width="0"/><path d="m529.72,388.44h-115.21c-.85,0-1.53-.7-1.53-1.54s.69-1.54,1.53-1.54h115.21c.85,0,1.53.69,1.53,1.54s-.69,1.54-1.53,1.54Z" fill="#1b1b1b" stroke-width="0"/></svg>