<?xml version="1.0" encoding="UTF-8"?><svg id="a" xmlns="http://www.w3.org/2000/svg" width="1000" height="1000" viewBox="0 0 1000 1000"><path d="m289.33,251.71V0h421.34v1000h-280.44V251.71h-140.91Z" fill="#4a8eff" stroke-width="0"/><path d="m775.29,666.19s-21.51-22.75,3.65-42.3c0,0,16.26-8.66,11.88-32.47-4.38-23.81,3.52-42.58,25.89-44.34,22.36-1.77,65,13.07,64.01,28.37,1.02,2.63,1.19,6.31-.28,10.79-4.83,14.65-11.5,32.28-6.12,37.9,3.16,3.3,8.36,7.96,15.76,11.33,18.17,8.28,28.74,18.37,28.74,38.57,0,30.98-54.61,14.9-54.61,14.9l-88.92-22.74Z" fill="#fff" stroke-width="0"/><path d="m433.15,399.57c0,66.72-54.09,120.82-120.81,120.82s-120.82-54.09-120.82-120.82,54.09-120.81,120.82-120.81,120.81,54.09,120.81,120.81Z" fill="#fff" stroke-width="0"/><path d="m103.05,723.59s-16.54,6.53-26.11,19.85c-9.57,13.32-31.27,44.9-38.03,67.46-6.76,22.56-13.74,33.53-14.26,53.21-.52,19.68.03,36.58,6.37,46.2l200.25.59,10.44-130.82s-13.19-30.06-27.21-43.64c-14.02-13.58-31.94-22.34-45.27-21.82l-66.17,8.98Z" fill="#fff" stroke-width="0"/><path d="m245.96,911.1h167.54c11.04,0,20.84-6.77,24.31-16.8l39.74-114.75c5.49-15.86-6.85-32.21-24.31-32.21h-167.55c-11.04,0-20.84,6.77-24.31,16.8l-39.73,114.76c-5.49,15.86,6.85,32.21,24.31,32.21Z" fill="#1a1a1a" stroke-width="0"/><path d="m604.21,194.7s-12.26-13.55-10.38-22.81c1.88-9.27,10.26-16.82,16.92-17.61,6.67-.79,15.07,3.25,15.07,3.25,0,0,5.86-6.38,20.54-2.51,14.68,3.87,22.98,21.61,22.98,21.61,0,0,15.67,2.2,15.58,17.39-.08,15.19-9.59,29.53-21.3,38.51-11.72,8.98-10.26,9.33-13.52,8.85-3.26-.48-8.5-1.84-6.05-14.95l-6.99-20.4s-11.02-1.03-3.95-14.95c0,0-10.17-12.12-23.68-11.73l-5.23,15.35Z" fill="#fff" stroke-width="0"/><path d="m754.1,859.89v51h171.72l-.52-36.73s21.83-8,28.65-32.66c6.82-24.66.17-45.95-3-56.84-3.16-10.9-15.32-44.38-22.33-59.62-7.01-15.24-15.46-36.5-20.22-44.54-4.76-8.04-14.41-21.93-30.43-27.53-16.02-5.6-34.65-5.62-34.65-5.62l-32.34-.65s-10.47.71-25.56,6.17c-15.1,5.46-24.23,8.21-39.86,5.51-15.63-2.7-27.21-14.86-33.52-25.93-6.3-11.07-12.22-32.55-13.64-41.56-1.41-9.01-1.97-20.5-1.97-20.5,0,0-3.82-5.75-29.43-4.59-25.61,1.16-32.26,4.84-32.6,5.83-.34.99,2.36,27.11,8.54,50.02,6.18,22.9,19.17,51.6,34.49,69.1,15.31,17.5,41.01,39.27,70.69,43.32l5.98,125.83Z" fill="#fff" stroke-width="0"/><path d="m863.97,730.37l-106.52.82s-19.99,2.67-21.92,24.09c-1.93,21.43.72,81.35.72,81.35,0,0,2.44,21.56,21.22,23.96l102.94-1.1s-17.56-10.79-33.2-24.1c-15.64-13.32-24.24-23.16-24.24-23.16,0,0,12.85-32.24,33.12-47.68l50.96,36.68s-17.78-46.15-23.08-70.85Z" fill="#1a1a1a" stroke-width="0"/><path d="m627.95,731.36v52.02h-52.02c0,28.73,23.29,52.02,52.02,52.02s52.03-23.29,52.03-52.02-23.29-52.02-52.03-52.02Z" fill="#1a1a1a" stroke-width="0"/><path d="m560.86,764.1h51.42v-51.42s-21.11-1.44-37.31,16.04c-16.2,17.47-14.1,35.37-14.1,35.37Z" fill="#fff" stroke-width="0"/><path d="m186.88,641.67s4.54,4.85,5.64,10.84c2.36,12.88-5.73,21.53-5.73,21.53,0,0,.76,23.48-16.42,23.17l-1.22,18.63s1.89,21.13-4.57,21.8c-6.47.67-16.14-12.84-16.14-12.84,0,0,7.42-9.82,7.18-18.61-.24-8.79-.12-15.03-7.74-26.1-7.62-11.07-8.37-18.78-6.55-23.13,1.82-4.35,6.02-14.56,6.2-17.61.18-3.05-1.91-13.24-1.91-13.24,0,0,3.7,3.34,4.19,7.3.48,3.95.1,8.4.1,8.4l9.16-.39,27.81.26Z" fill="#fff" stroke-width="0"/><path d="m137.92,883.81s22.63-11.04,27.56-11.28,7.65-.29,7.65-.29c0,0,8.48-6.73,18.85-1.91,0,0,5.35-4.5,10.74-3.75,5.4.75,8.45,6.95,8.45,6.95,0,0-2.66,9.4-2.18,13.22.48,3.82,3.42,16.57,13.19,21.16,0,0-3.92,5.02-13.22-.91,0,0-7.31,5.18-17.67,3,0,0-5.97,1.85-9.59.53-3.61-1.32-6.63-3.8-8.04-5.73-1.42-1.93-4.52-8.71-4.52-8.71,0,0-.62,15.02-18.7,14.37,0,0-6.43-2.38-10.42-11.13-3.99-8.75-2.08-15.53-2.08-15.53Z" fill="#fff" stroke-width="0"/><path d="m832.73,767.75s-4.2-8.2-7.75-15.93c-3.56-7.73-5.56-14.39-10.54-13.52-4.98.87-3.58,9.14-2.68,12,.9,2.85,4.71,13.28.72,14.44-3.99,1.16-9.6-1.08-15.5-6.31-5.89-5.23-16.05-15.07-16.05-15.07,0,0-5.71-3.77-9.29-.65-3.59,3.12-.55,7.59-.55,7.59,0,0-4.79-.22-6.1,1.89-1.31,2.11-1.52,5.57-.26,7.07,0,0-6.23,4.7-2.32,11.65,3.91,6.95,19.11,20,23.45,23.27,4.35,3.27,15.14,10.33,20.14,11.19,0,0,5.58-11.78,11.85-20.56,6.27-8.79,14.88-17.07,14.88-17.07Z" fill="#fff" stroke-width="0"/><path d="m685.21,575.45s1.27-21.47-1.02-30.03c-2.29-8.55-4.81-14.33-12.05-16.31-7.24-1.98-14.11-3.52-14.11-3.52h-7.95l4.92,8.84-7.39,3.85-4.94-8.74s-10.01,2.61-11.41,10.14c-1.4,7.53-.98,21.33,3.15,29.63,4.13,8.3,7.88,13.47,16.91,12.96,9.03-.51,13.67-1.37,19.07-3.88,5.4-2.51,6.08-4.44,6.08-4.44l1.53,2.75,7.22-1.23Z" fill="#fff" stroke-width="0"/><path d="m803.73,567.82l-5.88,28.45s-2.85,14.75-1.64,21.51c1.2,6.76,1.96,16.02,16.24,16.15l-1.46,12.78s-10.02,26.93,2.28,27.31c12.3.39,17.81-8.51,22.05-14.17,4.24-5.67,8.01-12.49,8.01-12.49l.71-30.49s13.72,3.29,14.18-9.31c.46-12.59-14.16-10.68-14.16-10.68,0,0-16.45-9.05-23.98-14.94-7.53-5.89-16.34-14.13-16.34-14.13Z" fill="#fff" stroke-width="0"/><path d="m353.08,826.01c-5.1,8.84-4.53,18.73,1.29,22.09,5.82,3.36,14.67-1.09,19.77-9.93,5.1-8.84,4.52-18.73-1.29-22.09-5.82-3.36-14.67,1.09-19.77,9.93Z" fill="#fff" stroke-width="0"/><path d="m222.35,373.27c4.23-1.17,8.11-2.24,12-3.31,2.17-.6,4.35-1.18,6.52-1.8,8.85,10.47,17.73,18.93,27.42,26.61,3.09,2.45,6.38,2.98,10.06,2.09,3.73-.9,7.07-2.66,10.28-4.7,7.89-5,14.76-11.22,21.39-17.74,12.1-11.9,23.12-24.76,33.58-38.1.62-.79,1.12-1,2.12-.72,6.5,1.86,13.01,3.64,19.53,5.44-12.1,22.78-25.88,43.53-41.87,62.76-8.07,9.71-16.62,18.97-26.87,26.46-3.28,2.39-6.82,4.49-10.43,6.37-7.84,4.1-15.81,3.98-23.84.33-7.89-3.59-14.04-9.21-19.22-16.01-7.45-9.8-12.44-20.86-16.26-32.47-1.63-4.96-2.92-10.02-4.42-15.22Z" fill="#fff" stroke-width="0"/><path d="m103.05,723.59s25.81,11.94,39.19,4.09c13.39-7.85,14.12-19.56,13.56-28.44-.56-8.88-8.24-20.57-11.61-25.21-3.36-4.64-4.05-9.97-2.87-17.09,1.17-7.12,5.82-11.89,6.2-17.61.38-5.72-3.22-15.11-3.22-15.11,0,0,5.5,4.66,5.6,10.16.1,5.5,0,7.41,0,7.41l5.25.5s1.64-1.85,3.05-1.98c1.41-.13,4.88,2.64,4.88,2.64l16.74-.66s3.25-2.07,5.15-1.35c1.9.73,3.05,1.35,3.05,1.35l2.35.04s.59-12.98-1.64-19.02c-2.22-6.04-4.43-10.65-16.13-12.49-11.71-1.84-23.49-3.21-34.38,3.48,0,0-28.52-2.05-30.45,23.04,0,0,5.66,32.04,7.07,41.05,1.42,9.01,3.49,17.55-5.4,20.59-8.89,3.04-19.68,4.17-22.45,14.31-2.77,10.14-1.6,14.48,2.58,17.91l13.49-7.61Z" fill="#1a1a1a" stroke-width="0"/><path d="m170.37,697.2l-1.14,17.41,10.6,2.01s4.53-3.07,3.74-9.71c-.79-6.64-4.26-11.43-4.26-11.43,0,0-7.08,3.03-8.94,1.72Z" fill="#1a1a1a" stroke-width="0"/><path d="m509.76,266.41s16.78,54.51,17.9,57.92c1.11,3.4,5.34,26.99,18.72,25.92,13.38-1.07,17.46-15.27,19.23-19.63,1.77-4.36,11.93-30.27,19.64-40.99,7.71-10.71,19.62-17.95,32.13-18.83,12.51-.88,51.16-1.87,61.31,4.99,10.14,6.86,28.48,29.46,42.34,57.99,13.87,28.53,17.34,31.21,18.45,42.79l-30.97.8-92.09-.49s-11.34,17.46-23.93,27.28c0,0-9.95,6.14-15.48,8.84-5.53,2.7-21.36,8.37-37.19,7.85-15.83-.51-38.19-5.08-52.4-24.06-14.21-18.98-19.28-31.65-22.63-42.72-3.36-11.06-9.43-34.3-12.01-49.1-2.58-14.8-5.1-29.01-5.1-29.01,0,0,4.52-8.68,28.97-12.32,24.45-3.64,33.13,2.76,33.13,2.76Z" fill="#1a1a1a" stroke-width="0"/><path d="m669.93,578.59l4.6,8.68s3.96,1.45,5.6,0c1.64-1.45,1.06-4.54,1.06-4.54l-4.73-8.78s-3.8,4.27-6.53,4.64Z" fill="#fff" stroke-width="0"/><path d="m614.8,259.93v-8.42s-14.46-1.69-17.41-7.12c-2.95-5.43-2.89-10.46-1.92-13.12.97-2.66,2.06-10.39,2.06-10.39,0,0-8.43-5.95-7.5-9.23.93-3.28,12.83-11.16,12.83-11.16l4.98-21.45s19.41,2.67,24.37,12.73c0,0-4.92,13.36,4.14,14.16,0,0,4.37-5.95,11.47-4.09,7.1,1.87,9.8,5.55,10.38,12.68.58,7.13-6.31,12.44-14.86,11.81,0,0-2.03,13.79,2.79,14.47,4.82.68,7.89-1.73,7.89-1.73l1.58,17.25-40.8,3.61Z" fill="#fff" stroke-width="0"/><path d="m498.43,274.45s-1.97-10.8-1.31-24.41c.66-13.61-.84-15.76.59-21.81,1.42-6.05,7.04-14.35,1.77-15.67-5.27-1.31-12.14-.74-14.91,4.62-2.77,5.35-5.13,17.9-6.84,19.59-1.71,1.69-5.31,3.23-7.66,2.4-2.35-.83-4.03-2.7-5.47-6.16-1.44-3.46-5.29-14-10.34-19.05-5.06-5.05-11.58-10.19-16.89-8.53-5.3,1.66-5.47,6.11-5.47,6.11,0,0-7.9,0-7.77,7.81,0,0,.71,3.04,4.67,8.52,3.97,5.48,6.75,9.46,8.91,14.54,2.16,5.07,5.81,15.71,12.2,20.69,6.4,4.99,11.52,7.88,12.28,16.27,0,0,4.34.77,16.83-.48,12.49-1.26,19.42-4.45,19.42-4.45Z" fill="#fff" stroke-width="0"/><path d="m497.21,263.11l1.94,11.35s12.16-4.43,11.61-7.52c-.55-3.09-13.55-3.83-13.55-3.83Z" fill="#3a3a3a" stroke-width="0"/><path d="m456.75,268.78s5.3,6.19,5.19,10.6c0,0-13.13.04-14.02-2.86-.89-2.9,8.83-7.74,8.83-7.74Z" fill="#3a3a3a" stroke-width="0"/><path d="m601.74,272.96l7.71-12.88s46.12-5.17,54.3-4.17l10.32,15.23s-35.62-3.13-46.05-2.26c-10.42.87-26.29,4.08-26.29,4.08Z" fill="#fff" stroke-width="0"/><polygon points="625.29 250.28 614.77 259.16 614.77 251.5 625.29 250.28" fill="#cccbcb" stroke-width="0"/><path d="m137.19,883.81l22.56-10.28s10.62-2.85,13.37-1.29c0,0,8.22-5.32,17.35-2.82,0,0-2.93-4.6-8.24-7.69-5.31-3.09-15.44-6.66-22-4.82-6.56,1.84-20.61,7.58-23.05,26.9Z" fill="#1a1a1a" stroke-width="0"/><path d="m157.53,910.9h22.77s-9.26-6.5-10.81-13.74c0,0-6.85,12.13-11.96,13.74Z" fill="#1a1a1a" stroke-width="0"/><path d="m458.35,746.99l-11.97-7.03h-168.12s-19.6-3.19-28.26,17.56l-39.23,118.38s-11.13,32.61,26.7,35.23c.26-1.12-15.82-8.36-16.92-21.33-1.1-12.97,12.16-43.09,12.16-43.09l30.24-86.73s10.68-12.69,20.59-12.65l174.81-.35Z" fill="#fff" stroke-width="0"/><path d="m503.99,162.16c0,24.92-20.2,45.11-45.11,45.11s-45.11-20.2-45.11-45.11,20.2-45.11,45.11-45.11,45.11,20.2,45.11,45.11Z" fill="#fff" stroke-width="0"/><path d="m458.88,213.69v5.6s2.71,5.4,4.03,10.03c1.31,4.63,2.57,9.75,9.81,9.56,7.24-.19,6.85-16.59,11.1-20.96l-.03-4.94s-3.64,2.09-11.45,1.93c-7.82-.16-13.45-1.22-13.45-1.22Z" fill="#1a1a1a" stroke-width="0"/><rect x="480.7" y="479.31" width="24.15" height="30.63" fill="#fff" stroke-width="0"/><rect x="440.29" y="462.92" width="23.99" height="46.62" fill="#1a1a1a" stroke-width="0"/><path d="m179.82,642.29s3.25-2.07,5.15-1.35c1.9.73,3.05,1.35,3.05,1.35l2.35.04s.59-12.98-1.64-19.02c-2.22-6.04-4.43-10.65-16.13-12.49-5.97-.94-11.95-1.75-17.82-1.44,8.95,1.19,18.9,4.36,21.66,12.37,3.04,8.82,3.25,16,2.87,20.55l.51-.02Z" fill="#fff" stroke-width="0"/><path d="m155.81,699.24c-.56-8.88-8.24-20.57-11.61-25.21-3.36-4.64-4.05-9.97-2.87-17.09.22-1.29.57-2.48.96-3.64-.03,0-5.23,8.79-1.79,22.88,3.14,12.86,16.88,42.89-12.53,54.07,5.19.34,10.29-.23,14.28-2.58,13.39-7.85,14.12-19.56,13.56-28.44Z" fill="#fff" stroke-width="0"/><path d="m179.31,695.49s-2.1.89-4.31,1.5c1.56,3.7,2.88,9.99.51,18.83l4.31.82s4.53-3.07,3.74-9.71c-.78-6.64-4.25-11.43-4.25-11.43Z" fill="#fff" stroke-width="0"/><path d="m609.37,165.72c.79-5.81,5.59-8.95,9.68-10.6-2.6-.68-5.59-1.16-8.3-.84-6.67.79-15.04,8.34-16.92,17.61-1.88,9.26,10.38,22.81,10.38,22.81l5.23-15.35c10.88-.31,19.58,7.47,22.56,10.52-2.65-10.18-24-14.05-22.63-24.16Z" fill="#fff" stroke-width="0"/><path d="m646.36,155.03c-14.68-3.87-20.54,2.51-20.54,2.51l5.03,3.42s7.12-8.82,25.17-1c-2.82-2.17-6.05-3.97-9.67-4.93Z" fill="#fff" stroke-width="0"/><path d="m505.33,411.5s8.16-25.03,35.22-23.3c27.06,1.74,33.14,21.33,34.79,24.03,0,0-14.57,8.81-36.19,8.07-21.62-.74-33.82-8.81-33.82-8.81Z" fill="#fff" stroke-width="0"/><path d="m424.04,510.61h-24.15c-1.02-1.02-1.02-76.02-1.02-76.02,1.02-1.02,25.17-1.02,25.17-1.02,1.02,1.02,1.02,25.11,1.02,25.11-2.05,0-2.05-23.08-2.05-23.08h-22.11v72.97h22.11v-22.09c2.05,0,2.05,23.11,2.05,23.11,0,.56-.46,1.02-1.02,1.02Z" fill="#1a1a1a" stroke-width="0"/><path d="m464.44,510.61h-24.15c-1.02-1.02-1.02-47.69-1.02-47.69,1.02-1.02,25.17-1.02,25.17-1.02,1.02,1.02,1.02,47.69,1.02,47.69,0,.56-.46,1.02-1.02,1.02Zm-23.13-2.03h22.11v-44.64h-22.11v44.64Z" fill="#1a1a1a" stroke-width="0"/><path d="m504.85,510.61h-24.15c-1.02-1.02-1.02-19.5-1.02-19.5,2.04,0,2.04,17.47,2.04,17.47h22.11v-27.69h-15.31c0-2.03,16.32-2.03,16.32-2.03,1.02,1.02,1.02,30.74,1.02,30.74,0,.56-.46,1.02-1.02,1.02Z" fill="#1a1a1a" stroke-width="0"/><path d="m687.83,453.63h-124.16c0-2.03,124.16-2.03,124.16-2.03,1.02,1.58.57,2.03,0,2.03Z" fill="#1a1a1a" stroke-width="0"/><path d="m687.83,502.4h-51.19c0-2.03,51.19-2.03,51.19-2.03,1.02,1.58.57,2.03,0,2.03Z" fill="#1a1a1a" stroke-width="0"/><path d="m626.74,502.4h-63.07c0-2.03,63.07-2.03,63.07-2.03,1.02,1.58.56,2.03,0,2.03Z" fill="#1a1a1a" stroke-width="0"/><path d="m687.83,520.93h-40.24c0-2.03,40.24-2.03,40.24-2.03,1.02,1.58.57,2.03,0,2.03Z" fill="#1a1a1a" stroke-width="0"/><path d="m636.64,520.93h-72.97c0-2.03,72.97-2.03,72.97-2.03,1.02,1.58.56,2.03,0,2.03Z" fill="#1a1a1a" stroke-width="0"/><path d="m687.83,472.16h-67.46c0-2.03,67.46-2.03,67.46-2.03,1.02,1.58.57,2.03,0,2.03Z" fill="#1a1a1a" stroke-width="0"/><path d="m609.56,472.16h-45.9c0-2.03,45.9-2.03,45.9-2.03,1.02,1.58.57,2.03,0,2.03Z" fill="#1a1a1a" stroke-width="0"/><path d="m514.27,599.91h-124.15c0-2.03,124.15-2.03,124.15-2.03,1.02,1.58.57,2.03,0,2.03Z" fill="#1a1a1a" stroke-width="0"/><path d="m514.27,648.68h-124.15c0-2.03,124.15-2.03,124.15-2.03,1.02,1.58.57,2.03,0,2.03Z" fill="#1a1a1a" stroke-width="0"/><path d="m514.27,667.21h-124.15c0-2.03,124.15-2.03,124.15-2.03,1.02,1.58.57,2.03,0,2.03Z" fill="#1a1a1a" stroke-width="0"/><path d="m514.27,618.44h-124.15c0-2.03,124.15-2.03,124.15-2.03,1.02,1.58.57,2.03,0,2.03Z" fill="#1a1a1a" stroke-width="0"/><path d="m636.64,599.91h-72.97c0-2.03,72.97-2.03,72.97-2.03,1.02,1.58.56,2.03,0,2.03Z" fill="#1a1a1a" stroke-width="0"/><path d="m651.31,648.68h-87.65c0-2.03,87.65-2.03,87.65-2.03,1.02,1.58.56,2.03,0,2.03Z" fill="#1a1a1a" stroke-width="0"/><path d="m660.17,667.21h-96.5c0-2.03,96.5-2.03,96.5-2.03,1.02,1.58.56,2.03,0,2.03Z" fill="#1a1a1a" stroke-width="0"/><path d="m642.02,618.44h-78.35c0-2.03,78.35-2.03,78.35-2.03,1.02,1.58.56,2.03,0,2.03Z" fill="#1a1a1a" stroke-width="0"/><path d="m925.31,909.58q-.36-14.72-.96-33.35l-.06-2.03c2.03-.07,2.1,1.97,2.1,1.97q.59,18.71,0,31.1c-.09,1.89-.55,2.31-1.08,2.31Z" fill="#1a1a1a" stroke-width="0"/><path d="m888.22,803.27c-17.8-34.12-28.7-87.93-28.81-88.46,2.11.14,12.95,53.68,29.72,86.98-.6,1.45-.76,1.48-.91,1.48Z" fill="#1a1a1a" stroke-width="0"/><path d="m753.63,911.91c-1.02-1.27-.59-24.65-.55-52.01,1.99,27.39,1.57,50.78,1.56,51.02,0,.55-.46,1-1.02,1Z" fill="#1a1a1a" stroke-width="0"/><path d="m757.47,732.2c1.04-18.06,5.46-34.77,8.91-44.76-1.49,10.56-5.86,27.1-7.9,43.87-.06.51-.5.89-1.01.89Z" fill="#1a1a1a" stroke-width="0"/><path d="m817.88,634.95c-2.04,0-4.04-.04-5.67-.12-3.66-.15-6.47-.73-8.84-1.83-4.09-1.89-6.57-5.41-7.6-10.75-1.55-8.07-.36-16.3.79-24.24.86-5.98,5.95-29.99,6.23-30.61,1.7,1.53-3.27,24.23-4.06,29.77-1.29,8.91-2.46,16.95-.97,24.69.89,4.65,3,7.69,6.45,9.28,2.11.98,4.68,1.51,8.07,1.64,3.33.14,8.27.18,11.79-.07-1.73,2.17-3.99,2.22-6.2,2.22Z" fill="#1a1a1a" stroke-width="0"/><path d="m844.03,597.91c-34.69-18.37-42.53-31.27-42.85-31.82,1.83-.9,9.75,11.98,43.33,29.9.23,1.72-.12,1.92-.48,1.92Z" fill="#1a1a1a" stroke-width="0"/><path d="m825.99,591.48c-.79-.23-1.38.04-1.98,2.92-.68,3.21.09,3.89.82,3.95.73.07,1.59-.84,1.85-3.16.26-2.32.35-3.41-.69-3.71Z" fill="#1a1a1a" stroke-width="0"/><path d="m804.53,588.05c-.78-.26-1.38,0-2.08,2.85-.79,3.18-.04,3.89.69,3.98.73.09,1.62-.79,1.96-3.09.34-2.31.46-3.4-.57-3.73Z" fill="#1a1a1a" stroke-width="0"/><path d="m801.03,581.84c.84-2.79,3.18-3.85,7.34-2.17-3.96.59-5.6,1.21-6.78,2-.18.11-.37.17-.56.17Z" fill="#1a1a1a" stroke-width="0"/><path d="m847.63,618.52c-2.87-.16-4.9-.87-6.64-2.07,2.6-.68,4.27-.1,6,0,2.54.24,5.03-.67,6.95-2.36,1.93-1.7,3.08-4.03,3.25-6.6.17-2.55-.67-5.02-2.36-6.95-1.69-1.93-4.03-3.08-6.59-3.25-1.92-.16-3.8.32-5.46,1.3.98-2.93,3.22-3.49,5.59-3.33,6.4.42,11.27,5.98,10.85,12.37-.2,3.1-1.6,5.94-3.93,7.99-2.14,1.88-4.84,2.89-7.66,2.89Z" fill="#1a1a1a" stroke-width="0"/><path d="m849.25,613.54c-.72-.29-7.13-6.69-7.13-6.69.23-1.62,8.82-6.42,8.82-6.42.99,1.78-6.42,5.93-6.42,5.93l5.45,5.44c-.2,1.64-.46,1.74-.72,1.74Z" fill="#1a1a1a" stroke-width="0"/><path d="m814.89,675.58c-1.07,0-2.17-.1-3.29-.32-1.75-.34-3.09-1.31-4-2.91-3.89-6.8,1.75-23.43,2.37-25.21l1-13.32c2.03.15,1.02,13.6,1.02,13.6-.12.44-6.19,17.68-2.64,23.91.61,1.07,1.47,1.7,2.62,1.92,17.64,3.38,29.92-26.05,30.05-26.35,1.39,1.98-9.75,28.67-27.15,28.67Z" fill="#1a1a1a" stroke-width="0"/><path d="m815.26,618.51c-1.26,0-2.62-.3-4.08-.91,2.97-.97,4.84-.89,6.36-1.66,2.52-1.3,3.29-4.57,3.29-4.6,1.95.62,1,4.68-2.36,6.41-.98.51-2.06.76-3.22.76Z" fill="#1a1a1a" stroke-width="0"/><path d="m912.18,688.8c7.04-6.85,6.7-20.7,3.56-28.36-2.54-6.18-7.18-11.82-13.8-16.75-4.83-3.58-10.03-6.18-15.55-8.91l-1.76-.88c-4.09-2.04-9.79-5.4-12.01-10.9-2.96-7.3-1.04-14.1,1.22-19.78.42-1.05.86-2.12,1.31-3.21,2.58-6.27,5.52-13.37,5.21-19.98-.28-5.76-3.16-13.26-8.13-16.45-6.59-4.23-12.71-7.4-17.68-9.18-4.25-1.51-42-14.44-56.02,1.96-4.61,5.39-7.17,13.01-7.85,23.3-.23,3.66.41,7.38,1.04,10.97.62,3.55,1.26,7.23,1.08,10.96-.33,6.9-3.02,13.43-7.6,18.39-1.59,1.72-3.44,3.11-5.23,4.45-1.55,1.16-3.01,2.26-4.33,3.55-2.75,2.71-4.84,6.04-6.05,9.63-2.04,6.01-2.28,14.33,3.18,19.64-7.55-4.51-7.34-13.7-5.11-20.29,1.32-3.88,3.58-7.49,6.55-10.42,1.41-1.39,3-2.59,4.54-3.74,1.8-1.34,3.49-2.62,4.96-4.2,4.25-4.6,6.76-10.68,7.07-17.1.16-3.5-.43-6.91-1.06-10.51-.65-3.7-1.31-7.54-1.07-11.45.7-10.74,3.43-18.75,8.34-24.49,14.89-17.45,53.85-4.13,58.25-2.55,5.12,1.83,11.37,5.07,18.09,9.39,5.82,3.72,8.79,11.97,9.07,18.06.34,7.07-2.69,14.39-5.35,20.85-.45,1.08-.89,2.15-1.3,3.19-2.12,5.31-3.92,11.63-1.24,18.26,1.98,4.86,7.25,7.95,11.04,9.85l1.76.87c5.35,2.67,10.89,5.41,15.85,9.11,6.92,5.15,11.79,11.07,14.47,17.61,3.4,8.3,3.63,23.39-4.87,28.97-.18.12-.37.17-.57.17Z" fill="#1a1a1a" stroke-width="0"/><path d="m842.98,648.32c-1.02-1.04-.32-30.57-.32-30.57,2.03.05,1.34,29.58,1.34,29.58-.01.55-.46.99-1.02.99Z" fill="#1a1a1a" stroke-width="0"/><path d="m911,877.54c-35.68,0-82.92-36.11-108.77-64.13-.15-1.2,5.51-16.04,15.11-28.79,10.12-13.43,17.75-20.77,17.83-20.84,1.68.15,44.16,27.18,67.21,49.69-22.71-19.34-60.8-44.08-66.37-47.66-1.93,1.94-8.6,8.84-17.04,20.04-8.36,11.1-13.68,23.8-14.81,26.65,38.88,41.93,96.4,76.35,126.98,57.78,49.95-30.3,10.27-115.53-11.05-161.32l-1.44-3.09c-.82-1.76-1.68-3.95-2.69-6.48-4.81-12.14-12.09-30.49-28.46-40.46-10.68-6.51-21.65-10.54-43.3-10.54,22.13-2.03,33.38,2.11,44.36,8.8,16.96,10.34,24.68,29.82,29.29,41.45,1,2.51,1.86,4.67,2.65,6.38l1.44,3.09c21.58,46.36,61.76,132.67,10.26,163.93-6.3,3.83-13.48,5.51-21.2,5.51Z" fill="#1a1a1a" stroke-width="0"/><path d="m756.34,660.9c-12.12,0-24.14-3.65-33.62-13.17-6.56-6.59-11.98-15.03-16.57-25.8-6.44-15.13-10.23-33.32-10.68-51.2,2.47,17.58,6.22,35.5,12.56,50.41,4.48,10.52,9.75,18.75,16.13,25.14,17.45,17.54,44.06,14.22,63.1,5.25,7.04-3.3,15.02-5.05,23.71-5.19-8.37,2.17-16.06,3.85-22.84,7.04-9.44,4.43-20.66,7.51-31.8,7.51Z" fill="#1a1a1a" stroke-width="0"/><path d="m748.12,735.08c-20.89-1.54-35.44-12.32-50.84-23.73-35.2-26.08-59.08-78-63.9-138.88,6.8,60.14,30.37,111.51,65.11,137.25,15.17,11.23,29.48,21.84,49.71,23.33.9,1.63.45,2.03-.08,2.03Z" fill="#1a1a1a" stroke-width="0"/><path d="m804.77,609.52c-1.55-3.18-2.63-8.89-.62-10.44,1.24-.96,3.81-.08,5.81.83l2.31-12.69c2,.37-.55,14.39-.55,14.39-3.48-.34-5.75-1.12-6.36-.89-.56.45-.39,4.13.41,7.56-.84,1.24-.92,1.25-.99,1.25Z" fill="#1a1a1a" stroke-width="0"/><path d="m685.21,576.48c-.44-10.85-.29-37.29-6.36-42.26-7.25-5.96-10.64-7.38-20.19-.07-.62.48-1.31.97-2.03,1.47-3.03,2.14-6.45,4.55-6.59,7.54-.08,1.99,1.32,4.23,4.18,6.66,4.43,3.77,10.65,1.26,20.17-8.12-5.05,7.83-14.45,15.61-21.48,9.67-3.42-2.89-5.02-5.6-4.91-8.29.18-4,4.21-6.84,7.45-9.12.69-.5,1.36-.97,1.96-1.42,10.01-7.67,14.44-6.69,22.73.11,8.11,6.64,6.17,41.4,6.08,42.88-.03.55-.48.96-1.02.96Z" fill="#1a1a1a" stroke-width="0"/><path d="m760.7,861.83c-13.92,0-25.32-11.24-25.47-25.19l-.89-80.83c-.08-6.77,2.5-13.19,7.27-18.07,4.77-4.87,11.13-7.6,17.92-7.67l104.63-.71c.02,2.03-104.62,2.74-104.62,2.74-6.23.07-12.08,2.58-16.47,7.06-4.39,4.49-6.77,10.39-6.71,16.63l.89,80.83c.14,12.83,10.64,23.17,23.44,23.17.25,0,100.07-1.12,100.07-1.12.01,2.03-99.8,3.15-99.8,3.15h-.27Z" fill="#1a1a1a" stroke-width="0"/><path d="m806,806.4c-14.74-2.27-43.54-30.75-45.85-38.66-1.31-4.47,1.04-7.43,3.08-8.8-1.44-2.4-1.09-5.23,1.01-7.45.8-.87,1.69-1.49,2.62-1.87,1.64-.64,3.47-.4,5.46.72.36.33,34.54,54.48,34.54,54.48-.2,1.39-.53,1.56-.86,1.56Zm-37.26-55.08c-1.78.47-2.41.93-3.03,1.58-1.68,1.78-1.76,3.91-.22,5.71-.55,1.68-4.82,3.67-3.4,8.56,2.06,7.02,27.42,32.14,41.7,36.64l-32.7-51.81c-.86-.45-1.64-.69-2.35-.69Z" fill="#1a1a1a" stroke-width="0"/><path d="m793.72,771.06c-3.08-1.77-8.03-5.87-10.04-7.56,1.28-1.59,10.67,5.73,10.67,5.73.01,1.67-.31,1.82-.63,1.82Z" fill="#1a1a1a" stroke-width="0"/><path d="m784.33,763.75c-4.16-3.19-7.51-6.16-8.99-7.64-3.55-3.29-6.7-6.18-6.71-9.5,0-1.66.77-3.23,2.31-4.65,5.13-4.77,9.86-.25,12.99,2.76.59.55,1.44,1.41,2.45,2.43,3.25,3.23,8.13,8.12,11.11,10.4-.28,1.76-12.83,6.14-12.83,6.14-.11.04-.23.06-.33.06Zm-8.72-21.8c-1.1,0-2.17.48-3.29,1.51-1.11,1.03-1.65,2.06-1.65,3.14,0,2.43,2.76,4.97,4.77,6.82,2.72,2.62,5.8,5.37,9.09,8.16l10.28-3.59c-3.03-2.58-7.07-6.6-9.86-9.4-1.01-1.01-1.85-1.86-2.43-2.41-2.76-2.65-4.89-4.23-6.91-4.23Z" fill="#1a1a1a" stroke-width="0"/><path d="m832,768.76c-.26-.03-17.43-4.62-17.43-4.62-.51.76-1.26,1.4-2.3,1.89-3.02,1.45-7.81-.61-16-6.87.88-1.79,17.07,2.54,17.07,2.54.27-1.63-.22-4.22-1.77-8.59-2.03-5.7-2.22-11.02-.5-13.91.74-1.26,1.86-2.04,3.2-2.25,6.12-.95,7.75,3.76,9.05,7.55.3.87.58,1.71.92,2.48.65,1.49,1.35,3.48,2.16,5.78,1.72,4.9,3.87,10.99,6.42,14.38-.16,1.47-.48,1.63-.81,1.63Zm-16.68-6.53l14.38,3.85c-2.07-3.65-3.8-8.56-5.24-12.65-.79-2.26-1.48-4.21-2.1-5.63-.36-.82-.66-1.72-.98-2.65-1.46-4.28-2.68-6.85-6.8-6.19-.75.12-1.33.54-1.77,1.28-1.37,2.3-1.11,7.2.66,12.18,1.48,4.15,2.31,7.4,1.84,9.81Zm-13.31-1.45c4.59,3.04,7.75,4.19,9.38,3.41.99-.64-9.38-3.41-9.38-3.41Z" fill="#1a1a1a" stroke-width="0"/><path d="m786.8,780.72c-.64-.23-5.94-4.5-11.85-9.35-4.28-3.51-9.2-9.28-10.62-10.98,1.24-1.69,7.12,5.48,11.91,9.4,5.91,4.85,11.2,9.13,11.2,9.13-.05,1.68-.34,1.81-.64,1.81Z" fill="#1a1a1a" stroke-width="0"/><path d="m638.31,575.9c-3.3-.49-4.91-1.66-4.92-3.5,0-1.01.98-2.2,1.56-2.73.49,3.62,2.39,4.04,3.52,4.21.78,1.67.34,2.03-.15,2.03Z" fill="#1a1a1a" stroke-width="0"/><path d="m678,577.71c-.11-2.03,5.11-2.6,5.11-2.6,10.13-1.6,12.37-3.76,12.35-4.39-.03-.7-1.03-1.43-2.82-2.03-2.07-.42-6.04-1.09-6.96-1.1,1.62-2.15,6.89-.99,7.49-.87,1.13.38,4.24,1.44,4.31,3.94.08,2.8-4.67,4.97-14.11,6.47l-5.28.57h-.11Z" fill="#1a1a1a" stroke-width="0"/><path d="m620.83,770.84h-48.96c0-2.03,47.94-2.03,47.94-2.03v-47.95c2.03,0,2.03,48.96,2.03,48.96,0,.57-.45,1.02-1.02,1.02Z" fill="#1a1a1a" stroke-width="0"/><path d="m89.73,732.33c-4.22-2.29-5.79-7.16-4.96-13.86.84-6.69,3.51-11.52,7.93-14.37.97-.62,2.05-1.17,3.25-1.66,1.92-.77,3.98-1.32,5.98-1.84,3.88-1.02,7.55-1.98,10.35-4.56,2.33-2.16,3.36-5.71,2.82-9.73-4.17-30.96-8.35-47.55-8.39-47.7.44-8.79,4.32-15.54,11.51-20.38,7.93-5.33,17.06-4.81,19.19-4.59,1.55-1.18,3.41-2.22,5.85-3.25,11.01-4.65,24.98-1.9,32.33.16,3.05.85,7.44,2.36,10.42,5.66,3.7,4.08,4.74,9.81,5.3,15.37,1.07,10.15.39,10.9-.01,11.34-.97.41-3.28.37-3.28.37l.03-2.03c1.85-.76,1.92-2.99,1.27-9.17-.56-5.52-1.51-10.86-4.82-14.52-2.63-2.9-6.66-4.28-9.46-5.06-7.08-1.98-20.54-4.66-30.99-.25-2.43,1.02-4.24,2.04-5.69,3.22-.88.21-10.81-1.07-19,4.44-6.59,4.43-10.17,10.59-10.64,18.33.44,1.76,4.42,18.28,8.4,47.78.64,4.69-.62,8.87-3.45,11.49-3.17,2.93-7.26,4-11.22,5.03-2.02.54-3.94,1.04-5.73,1.77-1.08.44-2.05.93-2.91,1.48-3.89,2.5-6.25,6.85-7,12.9-.43,3.38-.54,9.4,3.44,11.71.18,1.73-.16,1.9-.51,1.9Z" fill="#1a1a1a" stroke-width="0"/><path d="m179.82,643.3c-6.91-.04-17.63-.16-17.63-.16l.03-2.03s10.71.12,17.61.16c1.01,1.58.55,2.03,0,2.03Z" fill="#1a1a1a" stroke-width="0"/><path d="m130.45,731.34c-13.45,0-27.06-6.45-27.84-6.83,1.14-1.71,26.47,10.29,41.36,1.6,6.48-3.8,10.1-11.07,10.75-21.62.76-12.09-5.83-21.31-9.77-26.81-.5-.7-.96-1.35-1.35-1.93-7.53-11.01-2.72-22.31.79-30.56.53-1.25,1.04-2.45,1.48-3.57,3.05-7.86-3.22-16.7-3.29-16.8,9.49,4.34,8.86,12.99,8.28,16.25l4.52.04c-.02,2.03-5.8,1.98-5.8,1.98-.87-1.62.69-6.93-1.81-12.24,1.05,3.35,1.57,7.48,0,11.5-.44,1.15-.96,2.35-1.5,3.63-3.51,8.26-7.88,18.53-.99,28.62.39.56.84,1.19,1.33,1.88,4.1,5.72,10.95,15.31,10.15,28.13-.7,11.26-4.66,19.08-11.76,23.24-4.35,2.55-9.44,3.48-14.55,3.48Z" fill="#1a1a1a" stroke-width="0"/><path d="m54.66,891.27c32.41-30.7,106.29-35.44,107.03-35.48-.61,2.07-73.81,6.77-106.36,35.23-.19.17-.43.25-.67.25Z" fill="#1a1a1a" stroke-width="0"/><path d="m31.03,911.32c-22.51-42.31,8.54-112.26,30.28-147,5.19-8.29,10.92-17.03,17.6-24.88,6.21-7.28,14.74-12.08,23.67-16.75-7.8,6.38-16.14,11.07-22.12,18.08-6.59,7.74-12.27,16.41-17.42,24.63-20.04,32.02-52.33,103.4-31.1,144.44-.58,1.45-.75,1.49-.9,1.49Z" fill="#1a1a1a" stroke-width="0"/><path d="m241.72,781.09c-1.31-1.5-1.68-2.38-2.06-3.25-15.56-35.94-35.35-55.23-62.27-60.7-2.11-.44-8.47-1.55-8.47-1.55l.35-2s6.41,1.11,8.54,1.55c27.25,5.55,48.1,25.79,63.74,61.9.38.87.75,1.77,1.13,2.65-.68,1.38-.81,1.41-.94,1.41Z" fill="#1a1a1a" stroke-width="0"/><path d="m170.61,698.22c-1.09,0-2.1-.07-2.96-.13-3.4-.29-8.4-.9-11.91-1.6,3.84-1.3,8.74-.71,12.08-.43,3.4.29,5.99.09,8.22-.61,3.62-1.13,6.1-3.88,7.58-8.38,1.75-5.34,2.16-9.96,2.25-15.23,1.95,5.5,1.52,10.28-.32,15.87-1.69,5.17-4.6,8.33-8.9,9.69-2.06.65-4.17.83-6.04.83Z" fill="#1a1a1a" stroke-width="0"/><path d="m164.13,738.68c-5.66,0-14.89-11.24-16.81-13.66,6.36,4.73,14.41,12.74,17.36,11.53,3.44-1.34,3.9-14.14,3.38-21.89l.91-17.26c2.03.1,1.13,17.24,1.13,17.24.24,3.48,1.14,21.55-4.68,23.81-.4.16-.83.23-1.29.23Z" fill="#1a1a1a" stroke-width="0"/><path d="m180.84,716.85c5.93-11.15-2.99-20.57-3.08-20.66,1.57-1.31,11.64,9.33,3.91,20.23-.19.28-.51.43-.83.43Z" fill="#1a1a1a" stroke-width="0"/><path d="m96.04,870.07c-4.53-36.65,15.31-95.76,15.5-96.36,1.73,1.24-17.97,59.94-14.49,95.24-.94,1.12-.98,1.12-1.01,1.12Z" fill="#1a1a1a" stroke-width="0"/><path d="m169.79,681.83c-1.59,0-2.98-.4-4.17-1.23-3.11-2.15-3.54-6.3-3.55-6.48,2.03-.16,2.39,3.21,4.72,4.81,1.38.94,3.25,1.11,5.54.48-.55,2.27-1.58,2.41-2.54,2.41Z" fill="#1a1a1a" stroke-width="0"/><path d="m355.62,843.69c-1.75,0-3.4-.43-4.85-1.27-6.3-3.64-7.04-14.17-1.67-23.49,2.57-4.45,6.13-7.97,10.04-9.93,4.06-2.04,8.01-2.14,11.12-.36,6.29,3.64,7.04,14.17,1.67,23.49-2.57,4.45-6.13,7.97-10.04,9.93-2.16,1.08-4.28,1.63-6.27,1.63Zm9.79-34.27c-1.67,0-3.49.47-5.35,1.4-3.56,1.79-6.82,5.03-9.2,9.14-4.81,8.33-4.4,17.62.92,20.69,2.51,1.46,5.77,1.3,9.19-.41,3.56-1.79,6.83-5.03,9.2-9.14,4.81-8.33,4.4-17.62-.92-20.69-1.15-.66-2.44-.99-3.84-.99Z" fill="#1a1a1a" stroke-width="0"/><path d="m234.57,912.12c-8.65,0-16.52-4.03-21.59-11.04-5.07-7.02-6.41-15.74-3.69-23.96l39.74-119.92c3.62-10.92,13.77-18.26,25.28-18.26h167.54c1.98,0,3.96.22,5.9.65-2.22,1.59-4.06,1.39-5.9,1.39h-167.54c-10.62,0-20,6.78-23.35,16.86l-39.73,119.92c-2.51,7.59-1.27,15.65,3.41,22.13,4.67,6.49,11.94,10.2,19.93,10.2,1.02,1.58.57,2.03,0,2.03Z" fill="#1a1a1a" stroke-width="0"/><path d="m413.51,912.12h-167.54c-8.81,0-17.03-4.17-22-11.14-4.72-6.63-5.91-14.81-3.27-22.42l39.73-114.76c3.63-10.45,13.78-17.48,25.27-17.48h167.54c8.81,0,17.03,4.17,22.01,11.14,4.72,6.63,5.91,14.8,3.27,22.42l-39.73,114.75c-3.62,10.46-13.77,17.49-25.27,17.49Zm-127.81-163.77c-10.62,0-20.01,6.48-23.35,16.11l-39.73,114.76c-2.42,6.98-1.33,14.48,3.01,20.57,4.59,6.44,12.19,10.29,20.34,10.29h167.54c10.63,0,20.01-6.48,23.35-16.12l39.73-114.75c2.42-6.99,1.33-14.49-3-20.57-4.59-6.44-12.19-10.29-20.35-10.29h-167.54Z" fill="#1a1a1a" stroke-width="0"/><path d="m185.44,912.12c-14.4,0-17.96-16.87-17.96-19.28,2.04.17,4.34,17.24,17.96,17.24,3.15,0,5.18-.72,6.03-2.12,1.83-3.01-1.35-9.16-3.68-13.65-.57-1.1-1.1-2.12-1.52-3.02-.46-.97-.9-2.13-1.39-3.37-2.73-7.02-6.48-16.61-19.74-14.33-.07.02-16.8,4.76-26.65,11.62,8.98-8.73,25.51-13.4,26.21-13.61,14.99-2.61,19.27,8.33,22.08,15.57.47,1.19.9,2.3,1.34,3.25.41.87.93,1.86,1.48,2.94,2.69,5.19,6.04,11.65,3.61,15.64-1.25,2.05-3.87,3.09-7.77,3.09Z" fill="#1a1a1a" stroke-width="0"/><path d="m197.54,912.12c5.52-2.4,9.02-3.94,10.07-6.5.95-2.32-.38-5.01-1.81-6.59-1.74-1.95-3.33-6.02-5.17-10.71-2.31-5.91-4.93-12.61-8.35-16.34-5.65-6.14-18.52,1.08-18.66,1.14-.43-2.1,13.41-9.85,20.16-2.52,3.68,4.01,6.37,10.9,8.75,16.97,1.69,4.34,3.29,8.43,4.79,10.1,1.91,2.13,3.48,5.54,2.17,8.73-.95,2.33-3.78,5.2-11.89,5.72h-.07Z" fill="#1a1a1a" stroke-width="0"/><path d="m149.43,912.15c-.75,0-1.47-.05-2.16-.14,1.14-1.9,2.12-1.88,3.13-1.93,16.52-.83,17.67-13.53,17.71-14.06,2.02.3.69,15.19-17.6,16.1-.36.01-.73.03-1.08.03Z" fill="#1a1a1a" stroke-width="0"/><path d="m150.05,912.12c-10.32-6.6-15.39-18.56-13.48-30.64,2.64-16.64,17.61-28.11,33.37-25.64,5.11.82,12.93,3,21.84,12.51-9.97-7.66-17.35-9.73-22.16-10.49-14.63-2.38-28.57,8.42-31.03,23.94-1.79,11.29,2.93,22.45,12.02,28.45.1,1.71-.23,1.87-.56,1.87Z" fill="#1a1a1a" stroke-width="0"/><path d="m210.77,876.18c-1-.82-2.54-6.48-6.58-8.16-5.1-2.11-11.51,3.05-11.58,3.1-.99-1.83,6.13-7.58,12.36-4.98,4.97,2.07,6.71,8.5,6.78,8.76-.82,1.27-.9,1.28-.99,1.28Z" fill="#1a1a1a" stroke-width="0"/><path d="m216.13,911.02c-5.26,0-8.51-3.92-8.55-3.98,1.78-1.05,6.47,4.55,13.7.45-1.26,3.06-3.33,3.53-5.15,3.53Z" fill="#1a1a1a" stroke-width="0"/><path d="m206.8,869.51c16.06-62.98,2.62-101.27,2.49-101.66,2.05-.31,15.72,38.55-1.5,100.91-.13.46-.54.75-.98.75Z" fill="#1a1a1a" stroke-width="0"/><path d="m462.22,749.89c-.5-.13-15.19-8.42-15.19-8.42,1-1.78,15.69,6.51,15.69,6.51.2,1.72-.15,1.91-.5,1.91Z" fill="#1a1a1a" stroke-width="0"/><path d="m361.67,715.46h-89.5c-.96-1.35,14.66-45.53,14.66-45.53,1.93.67-13.22,43.5-13.22,43.5h88.06c1.02,1.58.56,2.03,0,2.03Z" fill="#1a1a1a" stroke-width="0"/><path d="m384.3,652.22h-71.97c0-2.03,71.97-2.03,71.97-2.03,1.02,1.58.56,2.03,0,2.03Z" fill="#1a1a1a" stroke-width="0"/><path d="m361.67,715.46c-.87-.24-1.15-.82-.96-1.35l22.37-63.25c1.92.67-20.44,63.92-20.44,63.92-.15.42-.54.68-.96.68Z" fill="#1a1a1a" stroke-width="0"/><path d="m159.41,673.35c-5.35,0-9.73-7.17-10.01-16.46-.29-9.39,3.73-16.88,9.14-17.05,5.53,0,9.91,7.17,10.19,16.44.3,9.39-3.72,16.89-9.15,17.06-.06,0-.12,0-.18,0Zm-.69-31.47c-4.25.14-7.53,6.98-7.29,14.95.25,7.9,3.88,14.49,7.98,14.49,4.25-.14,7.54-6.98,7.29-14.96-.25-7.9-3.88-14.48-7.98-14.48Z" fill="#1a1a1a" stroke-width="0"/><path d="m184.74,673.35c-1.76,0-3.11-.57-4.46-1.86,2.43-.5,3.36-.21,4.64-.18,4.14-.14,7.42-6.98,7.17-14.96-.25-7.9-3.88-14.48-7.98-14.48-4.25.14-7.54,6.98-7.29,14.95.1,3.18.5,5.37,1.37,7.6-2.86-1.71-3.29-4.11-3.4-7.53-.29-9.39,3.73-16.88,9.15-17.05,5.52,0,9.9,7.17,10.19,16.44.3,9.39-3.72,16.89-9.14,17.06-.08,0-.16,0-.23,0Z" fill="#1a1a1a" stroke-width="0"/><path d="m175.13,659c-1.04-.69-3.25-3.13-6.78-.46,2.95-4.81,6.35-2.72,7.57-1.19-.35,1.59-.58,1.65-.8,1.65Z" fill="#1a1a1a" stroke-width="0"/><path d="m458.88,221.56c-1.02-1.02-1.02-7.87-1.02-7.87,9.15.82,17.8.82,25.61-1.67,1.36,1.67,1.36,5.17,1.36,5.17-2.04,0-2.04-2.83-2.04-2.83-7.41,2.1-15.5,2.1-22.89-.03v6.22c0,.57-.46,1.02-1.02,1.02Z" fill="#1a1a1a" stroke-width="0"/><path d="m471.39,215.93c-4.38,0-8.68-.67-12.8-2-17.3-5.56-28.92-21.51-28.92-39.7,0-23,18.72-41.71,41.72-41.71s41.71,18.71,41.71,41.71c0,18.22-11.65,34.19-29,39.73-4.09,1.31-8.36,1.97-12.7,1.97Zm0-81.38c-21.88,0-39.68,17.79-39.68,39.67,0,17.3,11.05,32.48,27.51,37.76,7.79,2.53,16.44,2.53,24.25.03,16.5-5.28,27.59-20.46,27.59-37.79,0-21.88-17.8-39.67-39.67-39.67Z" fill="#1a1a1a" stroke-width="0"/><path d="m446.91,192.1c1.14-1.95,4.55-2.05,6.75-3.98.19-1.96-.64-2.78-1.36-3.7-1.97-2.55-2.85-5.88-2.41-9.14.15-1.12,1.18-5.55,3.49-6.82.82-.45,1.7-.47,2.57-.07,1.61.76,2.21,2.91,2.61,4.33.57,2,.81,3.77.79,5.59,0,1.61-.24,4.92-1.74,7.92,3.12,1.64,7.42,2.35,13.09,2.24,3.29-.08,6.02-.55,8.38-1.44,2.77-1.04,4.99-2.73,6.48-4.83-2.76-1.54-4.42-3.79-4.71-6.15-.17-1.35.09-2.83.77-4.25.73-1.55,1.79-2.58,3.05-2.97,1.33-.41,2.28,0,2.84.41,2.09,1.54,2.19,5.69,2.18,6.51,0,1.95-.44,3.82-1.23,5.52,4.28,1.58,9.46,1.59,13.06,1.59-4.82,2.03-9.82,1.87-14.08.21-1.71,2.57-4.34,4.63-7.65,5.87-2.57.97-5.53,1.48-9.05,1.57-6.02.13-10.75-.68-14.2-2.53-.44.6-.96,1.17-1.55,1.69-2.34,2.04-5.52,2.44-8.09,2.44Zm7.81-21.96c-1.6.78-2.62,3.92-2.82,5.41-.37,2.72.37,5.5,2.01,7.63.56.72,1.2,1.37,1.95,1.94.91-1.91,1.43-4.27,1.45-6.83.02-1.61-.19-3.19-.62-4.7-.37-1.32-.83-2.98-1.6-3.35-.14-.06-.25-.09-.37-.09Zm31.02.54c-1.41.37-2.01,1.4-2.29,1.98-.51,1.07-.71,2.16-.58,3.12.21,1.73,1.49,3.4,3.42,4.48.98-1.29,1.35-2.88,1.36-4.54,0-1.92-.46-4.2-1.36-4.86-.12-.09-.29-.18-.55-.18Z" fill="#1a1a1a" stroke-width="0"/><path d="m425.83,152.01c-.61-.21-45.66-34.14-45.66-34.14,1.23-1.63,46.28,32.31,46.28,32.31,0,1.69-.3,1.84-.61,1.84Z" fill="#1a1a1a" stroke-width="0"/><path d="m386.54,223.91c-.55-1.87,42.04-29.53,42.04-29.53,1.11,1.71-41.48,29.37-41.48,29.37-.17.11-.37.16-.56.16Z" fill="#1a1a1a" stroke-width="0"/><path d="m471.34,123.24c-1.02-1.02-1.02-35.39-1.02-35.39,2.04,0,2.04,34.37,2.04,34.37,0,.56-.46,1.02-1.02,1.02Z" fill="#1a1a1a" stroke-width="0"/><path d="m512.89,152.01c-.49-1.92,22.72-14.48,22.72-14.48.98,1.79-22.23,14.35-22.23,14.35-.16.08-.32.13-.49.13Z" fill="#1a1a1a" stroke-width="0"/><path d="m555.73,245.71c-.68-.25-46.5-41-46.5-41,1.36-1.52,47.18,39.22,47.18,39.22-.12,1.67-.4,1.78-.68,1.78Z" fill="#1a1a1a" stroke-width="0"/><path d="m619.08,195.72c-3.51-5.04-8.14-3.71-8.33-3.64,1.57-2.61,6.44-2.65,9.21,2.11-.53,1.48-.71,1.53-.88,1.53Z" fill="#1a1a1a" stroke-width="0"/><path d="m612.47,199.66c-.82-.13-1.36.21-1.6,3.14-.28,3.27.57,3.85,1.3,3.82.73-.03,1.47-1.03,1.45-3.37-.03-2.33-.08-3.42-1.15-3.6Z" fill="#1a1a1a" stroke-width="0"/><path d="m614.48,260.95c-1.02-1.05-.73-9.36-.73-9.36,2.03.07,1.75,8.38,1.75,8.38-.02.55-.47.98-1.02.98Z" fill="#1a1a1a" stroke-width="0"/><path d="m708.5,378.27c-.9-29.07-2.15-53.59-2.16-53.83-.39-7.87-4.42-17.42-8.72-26.55-3.44-7.32-7.36-12.85-11.97-16.9-5.94-5.22-11.84-8-18.55-8.79-14.8-1.7-44.94-1.59-45.18-1.58-6.44.37-12,1.17-18.04,3.85-8.9,3.93-16.6,11.78-22.9,23.31-4.49,8.23-8.08,17.19-11.56,25.84-1.09,2.71-2.17,5.43-3.29,8.11-2.26,5.45-4.85,11.1-9.44,14.95-5.05,4.22-11.83,4.93-17.28,1.81-5.49-3.14-7.31-8.76-9.05-14.19l-7.52-22.98c-2.33-7.12-4.64-14.61-6.87-21.85-2.26-7.34-4.59-14.92-6.96-22.14,4.31,6.6,6.65,14.19,8.91,21.54,2.23,7.22,4.53,14.7,6.86,21.81l7.51,23c1.71,5.29,3.33,10.29,8.13,13.04,4.71,2.7,10.57,2.06,14.96-1.6,4.24-3.55,6.71-8.94,8.87-14.16,1.11-2.68,2.2-5.39,3.29-8.09,3.49-8.72,7.12-17.72,11.67-26.05,6.51-11.95,14.53-20.09,23.85-24.21,6.33-2.8,12.1-3.63,18.8-4.01.39,0,30.56-.13,45.48,1.59,7.14.83,13.39,3.77,19.66,9.28,4.83,4.23,8.91,9.98,12.48,17.55,4.39,9.33,8.5,19.1,8.91,27.32.01.24,1.26,24.81,1.14,52.92,0,.55-.46,1.01-1.02,1.01Z" fill="#1a1a1a" stroke-width="0"/><path d="m540.18,421.23c-17.88,0-35.84-5.73-49.78-19.95-16.27-16.6-24.29-39.51-29.99-59.74-5.64-20-8.74-38.48-12.02-58.05l-1.15-6.81c2.01-.34,3.15,6.48,3.15,6.48,3.27,19.51,6.37,37.94,11.97,57.83,5.63,19.98,13.53,42.6,29.48,58.86,24.83,25.31,62.84,22.89,89.52,9.26l2.82-1.4c39.01-23.62,49.78-76.21,49.88-76.73,1.89.93-9.03,54.38-48.9,78.52l-2.89,1.44c-12.41,6.34-27.23,10.3-42.1,10.3Z" fill="#1a1a1a" stroke-width="0"/><path d="m739.73,378.39c-10.48-31.9-30.74-69.69-51.38-94.75,22.37,23.95,42.78,62.02,52.35,93.44-.77,1.3-.87,1.31-.97,1.31Z" fill="#1a1a1a" stroke-width="0"/><path d="m613.91,252.17c-14.25,0-17.98-7.33-18.96-11.01-1.24-4.7,1.45-16.36,2.22-19.47-1.71-1.03-6.1-3.92-7.73-7.37-1-2.13-.45-4.66,1.32-6.14,2.46-2.05,9.44-6.2,11.2-7.24.57-2.88,3.66-18.03,5.42-21.23.33,3.63-2.53,17.1-3.51,22.07-.57.73-9.17,5.76-11.8,7.96-1.07.89-1.39,2.42-.78,3.71,1.71,3.63,7.49,6.82,7.54,6.86.46,1.28-3.19,15.51-1.92,20.33,1.3,4.92,6.65,12.54,27.97,8.27-3.99,2.87-7.76,3.25-10.98,3.25Z" fill="#1a1a1a" stroke-width="0"/><path d="m646.59,227.22c-4.01,0-7.91-1.82-10.5-5.18,4.83,2.92,10.4,4.29,15.24,2.1,2.73-1.25,4.82-3.49,5.86-6.32,1.05-2.82.94-5.89-.31-8.63-2.58-5.65-9.27-8.15-14.96-5.56-1.78.82-3.33,2.1-4.47,3.69-.31-3.06,1.51-4.57,3.62-5.54,6.7-3.05,14.6-.12,17.66,6.56,1.48,3.23,1.61,6.85.38,10.18-1.24,3.34-3.7,5.98-6.94,7.46-1.8.83-3.7,1.23-5.58,1.23Z" fill="#1a1a1a" stroke-width="0"/><path d="m648.76,222.09c-.67-.25-8.7-7.26-8.7-7.26.15-1.64,10.82-8.01,10.82-8.01,1.04,1.75-8.42,7.4-8.42,7.4l6.98,6.09c-.11,1.66-.39,1.78-.68,1.78Z" fill="#1a1a1a" stroke-width="0"/><path d="m464.45,281.05c-2.45,0-4.73-.11-6.81-.31-6.76-.68-10.37-2.35-10.73-4.94-.49-3.43,4.27-5.77,7.89-7.23-3.72,3.7-6.08,5.5-5.87,6.95.15,1.08,2.57,2.56,8.92,3.19,5.99.61,13.79.29,22.01-.84,18.59-2.59,29.48-7.99,29.11-10.71-.18-1.34-3.12-2.92-10.82-3.34,8.15-1.6,12.43.11,12.84,3.05.78,5.62-14.92,10.8-30.84,13.01-5.53.77-10.9,1.17-15.68,1.17Z" fill="#1a1a1a" stroke-width="0"/><path d="m498.35,275.15c-2.68-7.12-2.61-13.68-2.4-19.85.17-5.1,0-10.33-.16-15.38-.06-1.65-.11-3.29-.15-4.93-.15-5.68,1.18-11.28,4.07-17.12.5-1.01,1.02-2.07.79-2.94-.47-1.75-3.51-2.87-5.42-2.97-2.24-.17-4.63.79-7.15,2.71-4.84,3.68-6.91,12.64-8.14,18.01-.58,2.49-.87,3.73-1.29,4.36-2.65,4.04-7.87,3.33-10.28,2.38-2.67-1.07-2.93-1.61-3.91-4.33-.74-2.05-1.98-5.48-5.29-11.91-6.52-12.61-14.24-18.53-21.79-16.69-1.49.36-3.42,1.91-4.2,4.14-.82,2.35-.19,4.97,1.83,7.58,2.56,3.31,6.96,11.04,11.22,18.51,4.49,7.88,9.57,16.81,11.11,17.9-2.96.39-6.78-6.19-12.88-16.89-4.22-7.41-8.59-15.07-11.07-18.28-3.1-4.01-2.87-7.38-2.13-9.49,1.06-3.05,3.67-4.96,5.63-5.44,4.95-1.22,14.66-.53,24.08,17.73,3.38,6.55,4.65,10.06,5.4,12.17q.86,2.36,2.75,3.12c1.86.76,5.88,1.37,7.82-1.6.24-.36.64-2.13,1.01-3.69,1.29-5.63,3.46-15.05,8.89-19.17,2.93-2.22,5.87-3.22,8.49-3.12,2.39.13,6.47,1.46,7.28,4.48.44,1.61-.32,3.15-.93,4.38-2.74,5.54-4,10.82-3.87,16.17.05,1.64.1,3.27.15,4.92.17,5.08.34,10.34.16,15.51-.21,6.02-.28,12.42,1.34,18.51-.8,1.27-.89,1.28-.98,1.28Z" fill="#1a1a1a" stroke-width="0"/><path d="m462.1,280.64c-1.55-4.96-2.98-10.25-6.77-12.19-6.62-3.4-13.77-13.35-18.66-25.98-1.98-5.1-5.11-9.35-7.88-13.1-3.5-4.73-6.52-8.81-5.6-12.82,1.23-5.36,6.06-6.89,8.44-6.94-.16,2.04-5.28,2.25-6.46,7.4-.7,3.09,1.92,6.65,5.26,11.16,2.84,3.86,6.07,8.22,8.14,13.57,4.65,12,11.6,21.78,17.7,24.9,4.58,2.35,6.25,8.29,6.85,12.86-.92,1.15-.97,1.15-1.01,1.15Z" fill="#1a1a1a" stroke-width="0"/><path d="m656.03,257.48c-1.02-.95-2.12-17.29-2.12-17.29,2.03-.13,3.14,16.21,3.14,16.21-.97,1.08-.99,1.08-1.02,1.08Z" fill="#1a1a1a" stroke-width="0"/><path d="m649.42,242.54c-.65,0-1.3-.09-1.95-.29-5.2-1.62-5.38-9.54-5.22-12.87.2-3.95.73-4.06,1.3-4.18.73,2.7.16,8.99,1.98,12.68.65,1.3,1.48,2.09,2.55,2.42,4.02,1.22,9.32-3.75,18.86-12.84l2.3-2.2c11.53-10.94,16.99-26.21,13.28-37.13-2.1-6.2-6.92-10.01-13.6-10.72,7.72-1.22,13.16,3.07,15.53,10.07,4.01,11.83-1.54,27.61-13.81,39.26l-2.31,2.19c-9.13,8.7-14.28,13.61-18.92,13.61Z" fill="#1a1a1a" stroke-width="0"/><path d="m601.62,231.59c-3.3,0-5.42-1.45-5.56-1.56,1.4-1.51,5.8,1.39,11.85-2.54-1.69,3.52-4.22,4.09-6.28,4.09Z" fill="#1a1a1a" stroke-width="0"/><path d="m601.17,275.67c.56-4.53,5.57-14.63,7.74-15.86,2.56-1.43,46.71-4.37,54.42-4.37,3.36,0,9.68,11.95,12.24,17.08-6.05-7.57-10.83-14.87-12.25-15.05-9.1,0-50.92,3.07-53.44,4.13-1.06.59-4.88,7.47-7.79,13.48-.18.36-.54.57-.91.57Z" fill="#1a1a1a" stroke-width="0"/><path d="m279.18,433.41c-4.02,0-8.11-.94-12.25-2.83-7.39-3.35-13.81-8.69-19.6-16.31-6.78-8.91-11.99-19.31-16.41-32.77-1.12-3.41-2.06-6.78-3.05-10.35-.46-1.62-.91-3.26-1.38-4.9.71-1.27,14.39-5.05,14.39-5.05,1.61-.44,3.22-.88,4.83-1.34,1.09-.29,1.91-.03,2.59.88,6.6,8.94,15.02,17.41,25.75,25.9,2.72,2.16,5.64,2.75,9.19,1.9,3.1-.76,6.18-2.17,9.97-4.56,8.23-5.21,15.34-11.82,21.22-17.6,10.85-10.66,21.8-23.1,33.5-38.01.9-1.13,1.86-1.44,3.2-1.06,4.83,1.38,9.68,2.72,14.53,4.06l4.99,1.38c-13.07,26.95-26.99,47.11-41.36,64.4-7.2,8.66-16.05,18.59-27.05,26.63-3.01,2.19-6.47,4.31-10.56,6.45-4.05,2.13-8.22,3.19-12.48,3.19Zm-50.46-66.75c.37,1.32.74,2.63,1.1,3.92.99,3.55,1.92,6.91,3.03,10.27,4.35,13.23,9.47,23.46,16.1,32.18,5.59,7.34,11.74,12.48,18.82,15.69,7.94,3.59,15.66,3.49,22.95-.3,4.01-2.1,7.38-4.17,10.3-6.3,10.81-7.9,19.56-17.72,26.69-26.29,14.26-17.16,28.08-37.16,42.24-61.16l-4.85-1.34c-4.85-1.34-9.71-2.69-14.55-4.07-12.78,15.34-23.8,27.84-34.71,38.56-5.95,5.87-13.16,12.56-21.55,17.87-3.99,2.53-7.25,4.02-10.59,4.83-4.15,1-7.72.26-10.94-2.29-10.87-8.6-19.41-17.2-26.11-26.29-2.01.33-3.62.77-5.24,1.21l-12.68,3.5Z" fill="#1a1a1a" stroke-width="0"/><path d="m299.41,502.11c-67.18,0-121.83-54.65-121.83-121.83s54.66-121.83,121.83-121.83c61.78,0,113.8,46.19,121,107.46-9.1-59.99-60.25-105.42-121-105.42-66.05,0-119.79,53.74-119.79,119.79s53.74,119.8,119.79,119.8c17.29,0,33.96-3.61,49.55-10.7-15.02,9.08-31.97,12.73-49.55,12.73Z" fill="#1a1a1a" stroke-width="0"/><path d="m999.4,911.91H0c0-2.03,999.4-2.03,999.4-2.03,1.02,1.58.56,2.03,0,2.03Z" fill="#1a1a1a" stroke-width="0"/><path d="m653.91,583.28c-1.15,0-2.34-.04-3.57-.12-5.55-.36-9.28-2.49-12.49-7.12-5.09-7.38-8.02-15.93-8.47-24.73-.49-9.55.13-19.16,13.01-22.75-9.88,4.87-11.54,11.48-10.97,22.65.44,8.42,3.23,16.6,8.12,23.67,2.84,4.12,6.01,5.93,10.94,6.25,6.42.4,11.55-.29,16.07-2.24,7.77-3.37,11.65-7.26,11.22-11.28-.33-3.06-3.03-5.09-3.63-5.21,1.94-1.75,5.18,1.07,5.65,4.88.43,3.5-1.38,8.7-12.43,13.48-3.94,1.7-8.28,2.53-13.44,2.53Z" fill="#1a1a1a" stroke-width="0"/><path d="m651.31,570.9c3.64-2.18,7.49-3.03,11.74-4.64,3.89-1.47,7.5-2.83,10.14-5.22,1.93-1.75,2.86-3.89,2.65-6.19-.25-2.84-2.14-5.65-5.09-7.5,4.57.47,6.82,3.85,7.12,7.32.25,2.96-.9,5.68-3.33,7.88-2.92,2.65-6.89,4.15-10.38,5.47-4.86,1.83-8.92,2.72-12.81,2.88h-.04Z" fill="#1a1a1a" stroke-width="0"/><path d="m645.26,556.52c3.32-2.17,7.63-3.2,12.43-5.02-4.35,3.83-8.76,4.88-12.39,5.02h-.04Z" fill="#1a1a1a" stroke-width="0"/><path d="m763.07,659.45c-1.01-1.02-1.01-143.37-1.01-143.37,2.03,0,2.03,142.35,2.03,142.35,0,.56-.45,1.02-1.02,1.02Z" fill="#1a1a1a" stroke-width="0"/><path d="m763.07,456.55c-1.01-1.02-1.01-65.34-1.01-65.34,0-7.14-6.81-12.95-15.18-12.95h-38.39c0-2.03,38.39-2.03,38.39-2.03,9.49,0,17.21,6.72,17.21,14.98v64.32c0,.57-.45,1.02-1.02,1.02Z" fill="#1a1a1a" stroke-width="0"/><path d="m708.5,378.27h-92.67c0-2.03,92.67-2.03,92.67-2.03,1.02,1.58.56,2.03,0,2.03Z" fill="#1a1a1a" stroke-width="0"/><path d="m358.95,646.61c-1.02-1.02-1.02-255.4-1.02-255.4,0-8.26,7.72-14.98,17.21-14.98h99.6c0,2.03-99.6,2.03-99.6,2.03-8.37,0-15.17,5.81-15.17,12.95v254.38c0,.56-.46,1.02-1.02,1.02Z" fill="#1a1a1a" stroke-width="0"/><path d="m677.44,589.3c-2.75-.59-3.85-1.46-4.51-2.65l-3.89-7.02c1.78-.99,5.67,6.03,5.67,6.03.4.72,1.06,1.25,1.86,1.48.82.24,1.64.14,2.35-.26,1.5-.82,2.04-2.71,1.22-4.21l-4.66-8.43c1.78-.99,6.44,7.44,6.44,7.44,1.37,2.49.46,5.62-2.02,6.98-.76.43-1.6.65-2.46.65Z" fill="#1a1a1a" stroke-width="0"/><path d="m647.61,539.3c-.89-.52-42.18-75.01-42.18-75.01-1.36-2.48-.46-5.61,2.01-6.98,2.51-1.38,5.62-.46,6.98,2.01l41.46,74.62c-1.78.99-43.24-73.63-43.24-73.63-.82-1.51-2.73-2.03-4.21-1.22-1.49.83-2.04,2.72-1.22,4.21l41.29,74.49c-.55,1.47-.72,1.51-.89,1.51Z" fill="#1a1a1a" stroke-width="0"/><path d="m667.34,529.18c-9.63-4.77-15.5-1.92-15.57-1.9-.66-1.95,5.82-5.22,16.03-.02.27,1.72-.1,1.92-.46,1.92Z" fill="#1a1a1a" stroke-width="0"/><path d="m588.76,871.17h-136.4c0-2.03,136.4-2.03,136.4-2.03,1.02,1.58.56,2.03,0,2.03Z" fill="#1a1a1a" stroke-width="0"/><path d="m749.61,871.17h-56.62c0-2.03,56.62-2.03,56.62-2.03,1.02,1.58.56,2.03,0,2.03Z" fill="#1a1a1a" stroke-width="0"/><path d="m178.49,675.04c2.38-5.63,2.38-7.05,2.22-7.48-.21-.61-1.41-.89-2.47-1.15-1.38-.33-2.81-.66-3.46-1.84-1.53-2.76-.37-12.02-.12-13.85,1.48,4.24.97,11.18,1.9,12.86.22.39,1.29.65,2.15.85,1.49.36,3.36.81,3.93,2.47.59,1.71-.45,4.11-3.35,7.76-.2.25-.5.38-.8.38Z" fill="#1a1a1a" stroke-width="0"/><path d="m642.02,540.33c0-2.04,8.81-2.89,12.23-6.59-2.44,5.65-11.74,6.55-12.13,6.59h-.09Z" fill="#1a1a1a" stroke-width="0"/><path d="m604.3,195.72c-1.07-.58-11.3-9.04-11.49-20.45-.11-6.43,2.99-12.45,9.23-17.9,4.11-3.59,8.65-5.17,13.54-4.77,10.74.93,19.22,11.28,19.57,11.72-1.66,1.18-9.88-8.84-19.76-9.69-4.33-.36-8.34,1.06-12.01,4.27-5.76,5.03-8.63,10.53-8.54,16.32.18,10.46,10,18.61,10.11,18.69-.06,1.68-.35,1.81-.65,1.81Z" fill="#1a1a1a" stroke-width="0"/><path d="m669.04,177.41c-1.01-.78-9.72-19.3-25.34-22.13-15-2.74-17.19,2.32-17.22,2.36-1.69-1.37.81-7.41,17.58-4.37,16.67,3.03,25.53,21.89,25.9,22.69-.64,1.41-.78,1.45-.93,1.45Z" fill="#1a1a1a" stroke-width="0"/><path d="m637.37,206.81c-3.01-.43-5.06-1.69-6.22-3.76-2.23-3.99-.3-9.72.35-11.38-5.18-9.57-26.2-12.23-26.41-12.26,1.18-1.91,23.15.87,28.44,11.76,0,.91-2.68,7.16-.59,10.89.84,1.5,2.34,2.39,4.58,2.71.79,1.66.35,2.03-.14,2.03Z" fill="#1a1a1a" stroke-width="0"/><path d="m929.34,600.81c.9-4.81,2.71-8.31,4.47-11.91.05,4.52-1.77,8.05-3.57,11.37-.19.34-.54.53-.9.53Zm10.37-21.06c.61-4.84,2.17-8.46,3.7-12.18.35,4.52-1.22,8.16-2.77,11.59-.17.38-.54.59-.93.59Zm8.91-21.72c-.88-.26-1.15-.85-.96-1.37,1.37-3.66,2.68-7.38,3.9-11.03.71,4.32-.61,8.05-1.98,11.74-.16.41-.55.66-.96.66Zm7.43-22.25c-.82-.2-1.13-.76-.97-1.3,1.11-3.77,2.15-7.57,3.1-11.28,1.02,4.24-.03,8.05-1.15,11.85-.13.45-.54.73-.98.73Zm5.81-22.73c-.15-5.25.58-9.01,1.22-12.71,1.36,4.08.63,7.86-.22,11.91-.1.48-.53.81-1,.81Zm3.96-23.11c-.52-4.95-.12-8.85.19-12.76,1.72,4.1,1.31,8.04.82,11.88-.07.51-.5.88-1.01.88Zm1.85-23.37c-.95-3.25-.91-5.46-.91-7.69,0-1.67-.02-3.35-.06-5.03,2.07,1.65,2.09,3.34,2.09,5.03,0,2.24-.04,4.48-.1,6.7-.02.55-.47.98-1.02.98Zm-.55-23.43c-1.33-4.87-1.75-8.77-2.28-12.53,2.54,3.52,2.98,7.46,3.3,11.43-.97,1.1-.99,1.1-1.02,1.1Zm-3.26-23.22c-1.76-4.59-2.68-8.41-3.7-12.15,3.01,3.25,3.92,7.11,4.71,10.93-.87,1.21-.93,1.21-1,1.21Zm-6.19-22.61c-2.26-4.39-3.67-8.04-5.17-11.54,3.38,2.75,4.82,6.44,6.12,10.19-.73,1.33-.85,1.35-.96,1.35Z" fill="#1a1a1a" stroke-width="0"/><path d="m931.39,348.64c-1.27-1.02-1.75-1.63-2.22-2.24,2.08-.64,2.56-.03,3.03.61-.39,1.56-.59,1.63-.82,1.63Zm-8.91-10.84c-3.35-3.25-6.06-6.07-8.81-8.74,4.21,1.24,6.95,4.11,9.57,7.04-.27,1.62-.51,1.7-.76,1.7Zm-16.82-16.29c-3.61-2.7-6.71-5.08-9.88-7.34,4.4.62,7.54,3.04,10.53,5.54-.07,1.67-.36,1.8-.65,1.8Zm-19.09-13.55c-3.87-2.15-7.31-4.03-10.74-5.73,4.38-.11,7.86,1.8,11.26,3.84.16,1.71-.18,1.89-.52,1.89Zm-20.97-10.43c-3.92-1.51-7.6-2.83-11.33-4.02,4.41-.74,8.14.61,11.72,2.07.4,1.72.02,1.96-.39,1.96Zm-22.32-7.15c-3.94-.93-7.78-1.71-11.65-2.35,4.25-1.36,8.14-.57,11.89.35.63,1.7.22,2.01-.24,2.01Zm-81.38-.35c-.09-2.05,4.08-3.19,11.34-4.33-6.81,3.13-11.03,4.28-11.08,4.29-.09.03-.18.04-.27.04Zm58.28-3.55c-3.88-.39-7.8-.66-11.73-.8,4.05-1.89,8.01-1.62,11.83-1.23.86,1.64.42,2.03-.1,2.03Zm-35.13-.18c3.79-2.38,7.75-2.61,11.68-2.71-3.83,2.13-7.75,2.36-11.59,2.71h-.09Z" fill="#1a1a1a" stroke-width="0"/><path d="m620.05,820.71c-28.14,0-51.03-22.89-51.03-51.02s22.89-51.03,51.03-51.03,51.03,22.89,51.03,51.03c0,4.33-.54,8.63-1.62,12.76-.94-4.48-.42-8.6-.42-12.76,0-27.02-21.98-49-48.99-49s-49,21.98-49,49,21.98,48.99,49,48.99c8.31,0,16.51-2.11,23.72-6.12-6.52,5.95-15.06,8.15-23.72,8.15Z" fill="#1a1a1a" stroke-width="0"/><path d="m85.57,678.44c-2.29-1.15-4.02-2.26-5.66-3.45,2.77-.51,4.44.57,6.16,1.55.19,1.71-.15,1.9-.5,1.9Zm-13.87-10.97c-3.36-3.06-5.87-6.16-8.2-9.55,3.95,2.14,6.39,5.16,8.94,7.82-.23,1.63-.49,1.72-.73,1.72Zm-13.38-19.16c-2.64-3.9-4.28-7.52-5.79-11.32,3.37,2.98,4.99,6.55,6.69,9.83-.59,1.45-.75,1.49-.91,1.49Zm-8.72-21.76c-2.09-4.39-3.12-8.22-4.04-12.1,2.89,3.37,3.91,7.16,5.01,10.79-.78,1.3-.88,1.31-.98,1.31Zm-5.41-22.79c-1.47-3.47-1.89-6.06-2.25-8.61-.19-1.28-.37-2.58-.54-3.87,2.18,1.02,2.36,2.3,2.55,3.58.36,2.52.77,5.09,1.24,7.71-.89,1.19-.95,1.19-1.01,1.19Zm-3.06-23.25c-1.36-4.85-1.62-8.8-1.78-12.67,2.2,3.76,2.45,7.68,2.8,11.56-.96,1.11-.99,1.11-1.02,1.11Zm-.97-23.42c-.99-4.94-.87-8.9-.64-12.79,1.81,3.98,1.68,7.9,1.66,11.79,0,.55-.46,1.01-1.02,1.01Zm1.38-23.41c-.56-5.07,0-9,.67-12.79,1.35,4.1.8,7.98.34,11.89-.06.52-.5.9-1.01.9Zm4.05-23.09c-.06-5.1.99-8.92,2.15-12.61.8,4.25-.24,8.03-1.16,11.83-.11.47-.53.78-.99.78Z" fill="#1a1a1a" stroke-width="0"/><path d="m67.63,459.81c1.15-4.49,3.24-7.34,5.37-10.07-.5,3.95-2.56,6.76-4.53,9.64-.2.29-.52.44-.84.44Zm13.69-17.42c1.82-4.58,4.56-7.45,7.39-10.22-1.37,4.19-4.09,7.02-6.63,9.88-.2.23-.48.34-.76.34Zm16.75-16.38c2.29-4.32,5.38-6.8,8.54-9.16-1.89,3.96-4.96,6.42-7.87,8.91-.19.17-.43.24-.66.24Zm18.76-14.04c2.73-4.01,6.12-6.06,9.52-7.97-2.36,3.67-5.72,5.7-8.97,7.81-.17.11-.37.16-.55.16Zm20.43-11.47c3.05-3.61,6.68-5.19,10.36-6.66-2.89,3.34-6.48,4.92-9.92,6.56-.14.07-.29.1-.44.1Zm21.77-8.67c3.47-3.19,7.29-4.27,11.04-5.19-3.21,2.89-6.99,3.96-10.72,5.15-.11.03-.21.04-.31.04Z" fill="#1a1a1a" stroke-width="0"/><path d="m481.34,223.7h-21.42c0-2.03,21.42-2.03,21.42-2.03,1.02,1.58.57,2.03,0,2.03Z" fill="#1a1a1a" stroke-width="0"/><path d="m478.24,233.55h-13.79c0-2.03,13.79-2.03,13.79-2.03,1.02,1.58.56,2.03,0,2.03Z" fill="#1a1a1a" stroke-width="0"/><path d="m575.77,413.87c-4.93-15.04-19.15-25.03-35.54-25.03s-29.23,8.98-33.95,22.34c3.08-14.85,17.5-24.37,33.95-24.37,17.31,0,32.33,10.59,36.52,25.78-.8,1.28-.89,1.28-.98,1.28Z" fill="#1a1a1a" stroke-width="0"/><path d="m943.06,381.63c-9.17,0-16.65-7.47-16.65-16.65s7.47-16.65,16.65-16.65,16.65,7.47,16.65,16.65-7.47,16.65-16.65,16.65Zm0-31.27c-8.06,0-14.61,6.56-14.61,14.62s6.55,14.62,14.61,14.62,14.62-6.56,14.62-14.62-6.56-14.62-14.62-14.62Z" fill="#1a1a1a" stroke-width="0"/><path d="m54.66,493.43c-9.18,0-16.65-7.47-16.65-16.65s7.47-16.65,16.65-16.65,16.65,7.47,16.65,16.65-7.47,16.65-16.65,16.65Zm0-31.26c-8.05,0-14.61,6.55-14.61,14.61s6.56,14.62,14.61,14.62,14.62-6.56,14.62-14.62-6.56-14.61-14.62-14.61Z" fill="#1a1a1a" stroke-width="0"/></svg>